<?xml version="1.0" encoding="UTF-8"?>
<svg id="_レイヤー_1" xmlns="http://www.w3.org/2000/svg" xmlns:xlink="http://www.w3.org/1999/xlink" version="1.1" viewBox="0 0 841.9 595.3">
  <!-- Generator: Adobe Illustrator 29.4.0, SVG Export Plug-In . SVG Version: 2.1.0 Build 152)  -->
  <defs>
    <style>
      .st0 {
        isolation: isolate;
      }

      .st1 {
        stroke-width: .5px;
      }

      .st1, .st2 {
        fill: none;
        stroke: #231815;
        stroke-miterlimit: 10;
      }

      .st2 {
        stroke-width: .2px;
      }

      .st3 {
        fill: #231815;
      }

      .st4 {
        fill: #fff;
      }
    </style>
  </defs>
  <rect class="st4" x="2.5" y="161.9" width="839.4" height="271.5"/>
  <g>
    <g>
      <path class="st3" d="M64.1,389.8v-.8c0-.3.4-.4.6-.3.3,0,.3.3.3.6v.5c0,.6.5.9,2.1.9s1.2,0,2.1-.2c.2,0,.5,0,.5.4s-.2.5-.4.6c-.8.1-1.6.2-2.2.2s-2.9-.1-3-1.8h0ZM68.1,385.3l.4-.7h-3.6c-.3,0-.5-.2-.5-.5s.2-.5.5-.5h4.2c.3,0,.5.2.5.5s0,.5-.3.9l-.4.7c0,.2-.4.3-.6.2-.2-.1-.3-.4-.2-.6Z"/>
      <path class="st3" d="M75.2,384.1c0-.3.3-.5.5-.4.3,0,.5.2.4.5-.2,1.9-.2,3.5,0,5.4l.6-.2c.2,0,.5,0,.6.3,0,.2,0,.5-.3.6l-1.1.4c-.3,0-.6-.1-.6-.4-.2-1.8-.2-4.1,0-6.1h0ZM82.6,385.3h-.9v2c0,1.6-.5,2.9-1.8,4.7-.2.2-.4.3-.7.2-.2-.1-.3-.4-.2-.6,1.3-2,1.5-3,1.6-4.3v-2h-2.5c-.3,0-.5-.2-.5-.5s.2-.5.5-.5h2.4c0-.4,0-.9-.2-1.4,0-.3,0-.5.4-.5s.5.1.6.4c0,.5.2,1,.2,1.5h1c.3,0,.5.2.5.5s-.2.5-.5.5h0ZM82.4,382.8c0-.2.2-.4.4-.4s.4.2.4.4v.5c0,.2-.2.4-.4.4s-.4-.2-.4-.4v-.5ZM83.7,382.8c0-.2.2-.4.4-.4s.4.2.4.4v.5c0,.2-.2.4-.4.4s-.4-.2-.4-.4v-.5Z"/>
      <path class="st3" d="M91.6,385h-2.2l-1.3,6.4c0,.3-.3.4-.6.4s-.4-.3-.4-.6l1.3-6.2h-.9c-.3,0-.5-.2-.5-.5s.2-.5.5-.5h1.1l.3-1.3c0-.3.3-.4.6-.4s.4.3.4.6l-.2,1.1h2c.3,0,.5.2.5.5s-.2.5-.5.5h-.1ZM94.4,390.7c.3,0,.5.1.5.4s-.2.5-.4.6h-1.4c-1.2,0-1.9-.7-1.9-1.7v-.4c0-.2.3-.4.6-.4s.4.3.3.6v.3c0,.5.4.6,1,.6h1.3ZM93.4,387.1l.2-.3h-1.5c-.3,0-.5-.2-.5-.5s.2-.5.5-.5h2.1c.3,0,.6.2.6.5s-.2.5-.3.9l-.2.4c0,.2-.5.3-.7.2-.2-.1-.3-.4,0-.7h0Z"/>
      <path class="st3" d="M101.8,386.7l-1.2-3.5c0-.3,0-.5.3-.6.2,0,.5,0,.6.3l1.1,3.1c.2-.2,1.6-1.3,2.3-1.9.2-.2.5-.2.7,0s0,.5,0,.7c-3.4,3-4.3,3.4-4.3,4.5s.7,1.3,1.8,1.3,1.7,0,2.3-.1c.3,0,.5.2.5.4,0,.3-.2.5-.5.5-.8,0-1.8.1-2.4.1-1.9,0-2.7-.9-2.7-2.2s.5-1.8,1.5-2.7h0Z"/>
      <path class="st3" d="M112,389.8v-.8c0-.3.4-.4.6-.3.3,0,.3.3.3.6v.5c0,.6.5.9,2.1.9s1.2,0,2.1-.2c.2,0,.5,0,.5.4s-.2.5-.4.6c-.8.1-1.6.2-2.2.2s-2.9-.1-3-1.8h0ZM116.1,385.3l.4-.7h-3.6c-.3,0-.5-.2-.5-.5s.2-.5.5-.5h4.2c.3,0,.5.2.5.5s0,.5-.3.9l-.4.7c0,.2-.4.3-.6.2-.2-.1-.3-.4-.2-.6Z"/>
      <path class="st3" d="M129.9,388.8c0,2.2-1.4,3.1-4.4,3.2-.3,0-.5-.2-.5-.5s.2-.5.4-.5c2.2,0,3.4-.5,3.6-1.6.2-1.5-.6-1.9-1.6-1.7-.7.1-2.1.6-2.4.7l-.2.3c-.2.3-.5.4-.7.2-.2-.1-.3-.4,0-.7l3.4-4.8h-1.9c-.3.1-.5,0-.5-.3s.2-.5.5-.5h2.6c.3-.1.5,0,.6.3,0,.3-.1.5-.4.9l-2.5,3.4c.3-.1,1-.3,1.5-.4,1.7-.3,2.7.6,2.8,1.9h-.2Z"/>
      <path class="st3" d="M137.5,387.5h-.7c-.3,0-.5-.2-.5-.5s.2-.5.5-.5h.8c0-.5.1-.9.2-1.4h-.9c-.3,0-.5-.2-.5-.5s.2-.5.5-.5h1c0-.5.1-1.2.2-1.8,0-.3.3-.5.5-.4.3,0,.5.3.4.5,0,.5-.2,1.3-.2,1.7h1.3c.3,0,.5.2.5.5s-.2.5-.5.5h-1.4c0,.5-.1.9-.2,1.4h1.7c.3,0,.5.2.5.5s-.2.5-.5.5h-1.8l-.3,2c-.1,1.1.6,1.8,1.8,1.7.8,0,1.2-.8.8-2.2,0-.3,0-.6.3-.6s.5.1.6.4c0,.3.2.7.2,1,0,1.7-.7,2.4-2,2.4s-2.9-.8-2.7-2.5c0-.6.1-1.1.3-2.2h0Z"/>
      <path class="st3" d="M147.1,390l1.1,1.1c.2.2.2.4,0,.6s-.4.2-.6,0l-1.1-1.1c-.2-.2-.2-.4,0-.6s.4-.2.6,0Z"/>
      <path class="st3" d="M159.2,389.3c0-.9.8-1.6,2.3-2v-2.6h-1c-.3,0-.5-.2-.5-.5s.2-.5.5-.5h1v-.9c0-.3.2-.5.5-.5s.5.2.5.5v.9h1.4c.3,0,.5.2.5.5s-.2.5-.5.5h-1.4v2.4h1.1c1.8,0,3.1.6,3.1,2.2s-.7,1.9-1.5,2.7c-.2.2-.5.2-.7,0s-.2-.5,0-.6c.7-.7,1.3-1.3,1.3-2s-.4-1.3-2.1-1.3h-1.1v1.7c0,1.5-.6,2-1.4,1.9-.6,0-1.9-1.1-1.9-2.5h-.1ZM161.1,390.8c.3,0,.4-.2.4-.9v-1.5c-.9.2-1.4.6-1.4,1,0,.6.7,1.4,1.1,1.5h-.1ZM167.1,384.7c0,.3-.2.5-.5.5s-.5-.2-.5-.5v-1c0-.3.2-.5.5-.5s.5.2.5.5v1Z"/>
      <path class="st3" d="M172.4,390.9c-.3.2-.6,0-.7-.3-.5-1.7-.5-4.3-.2-6.4,0-.3.3-.4.5-.4.3,0,.4.3.4.5-.3,1.9-.3,4,0,5.5l.6-.3c.2-.1.5,0,.6.2s0,.5-.2.6l-1,.5h0ZM178,388.7c-.3-1.1-.6-2-1.1-2.8-.1-.2,0-.5.2-.7.2-.1.5,0,.6.2.5.9.9,1.9,1.2,3,0,.3,0,.5-.3.6-.3,0-.5,0-.6-.3h0Z"/>
      <path class="st3" d="M185.3,389c0,1.1,1,1.9,2.1,1.9s1.4-.8,2-2.5c.1-.3.4-.4.6-.3.2.1.4.4.3.7-.6,1.5-1.4,3-2.9,3s-3.1-1.1-3-3c0-1.7.2-3.9.3-5.9,0-.3.2-.5.5-.5s.5.2.4.5c-.2,2.7-.3,4.9-.3,6h0Z"/>
      <path class="st3" d="M196.3,390.9c-.3.2-.6,0-.7-.3-.5-1.7-.5-4.3-.2-6.4,0-.3.3-.4.5-.4.3,0,.4.3.4.5-.3,1.9-.3,4,0,5.5l.6-.3c.2-.1.5,0,.6.2s0,.5-.2.6l-1,.5h0ZM202,388.7c-.3-1.1-.6-2-1.1-2.8-.1-.2,0-.5.2-.7.2-.1.5,0,.6.2.5.9.9,1.9,1.2,3,0,.3,0,.5-.3.6-.3,0-.5,0-.6-.3h0Z"/>
      <path class="st3" d="M215.4,387.7c0,1.8-1,2.9-3.2,3.6-.3,0-.6,0-.7-.3-.1-.3.1-.5.3-.6,2-.6,2.6-1.5,2.6-2.7s-.3-2.4-1.8-2.4-2.1,1.2-3.2,2v4.2c0,.3-.2.5-.5.5s-.5-.2-.5-.5v-3.4c-.5.4-1,.8-1.3,1.1-.2.2-.5.1-.7,0-.2-.2-.1-.5,0-.7l1.9-1.5v-1.1h-1c-.3,0-.5-.2-.5-.5s.2-.5.5-.5h1v-1.8c0-.3.2-.5.5-.5s.5.2.5.5v3.2c1.9-1.5,2.4-1.7,3.2-1.7,2,0,2.8,1.6,2.8,3.3v-.2Z"/>
      <path class="st3" d="M223.4,385h-2.2l-1.3,6.4c0,.3-.3.4-.6.4s-.4-.3-.4-.6l1.3-6.2h-.9c-.3,0-.5-.2-.5-.5s.2-.5.5-.5h1.1l.3-1.3c0-.3.3-.4.6-.4s.4.3.4.6l-.2,1.1h2c.3,0,.5.2.5.5s-.2.5-.5.5h-.1ZM226.3,390.7c.3,0,.5.1.5.4s-.2.5-.4.6h-1.4c-1.2,0-1.9-.7-1.9-1.7v-.4c0-.2.3-.4.6-.4s.4.3.3.6v.3c0,.5.4.6,1,.6h1.3,0ZM225.3,387.1l.2-.3h-1.5c-.3,0-.5-.2-.5-.5s.2-.5.5-.5h2.1c.3,0,.6.2.6.5s-.2.5-.3.9l-.2.4c-.1.2-.5.3-.7.2-.2-.1-.3-.4-.1-.7h-.1Z"/>
      <path class="st3" d="M233.2,389c0,1.1,1,1.9,2.1,1.9s1.4-.8,2-2.5c.1-.3.4-.4.6-.3.2.1.4.4.3.7-.6,1.5-1.4,3-2.9,3s-3.1-1.1-3-3c0-1.7.2-3.9.3-5.9,0-.3.2-.5.5-.5s.5.2.4.5c-.2,2.7-.3,4.9-.3,6h0Z"/>
      <path class="st3" d="M244.8,390.6c0,.7-.6,1.3-1.3,1.3s-1.3-.6-1.3-1.3.6-1.3,1.3-1.3,1.3.6,1.3,1.3ZM244.2,390.6c0-.4-.3-.7-.7-.7s-.7.3-.7.7.3.7.7.7.7-.3.7-.7Z"/>
    </g>
    <g>
      <path class="st3" d="M63.6,203.6l-.7-1.8c0-.1,0-.3.2-.3s.3,0,.3.2l.6,1.7c.1,0,.8-.7,1.2-1h.4v.4c-1.8,1.6-2.3,1.8-2.3,2.4s.4.7,1,.7h1.2c0,0,.3,0,.3.2s0,.3-.2.3h-1.3c-1,0-1.4-.5-1.4-1.2s.3-.9.8-1.4v-.2Z"/>
      <path class="st3" d="M69.8,204.2c0,0-.2.1-.3.1s-.2,0-.2-.2v-2.5c0-.1,0-.2.3-.2s.2.1.2.3c0,.6-.2,1.3,0,2l.2-.2h.3v.3l-.4.2v.2ZM71.7,201.6c0,.9,0,1.6,0,2.2,0,.9-.5,1.6-1.4,2.5,0,.1-.3.1-.4,0,0,0,0-.3,0-.4.9-.9,1.3-1.5,1.3-2.3v-2.2c0-.1,0-.2.2-.3,0,0,.3,0,.3.2v.3Z"/>
      <path class="st3" d="M74.9,204.8c0-.7.6-1.2,1.1-1.4v-1.2h-.4c0,0-.2-.1-.2-.3s0-.2.2-.2h.4v-.4c0-.1,0-.2.3-.2s.2.1.2.3v.3h1.1c0,0,.3.1.3.2s0,.3-.3.3h-1.2v1.1h1.1c0-.2.2-.3.3-.3s.2.2.2.3h0c.5.3.8.7.8,1.3s-.5,1.3-1.1,1.8h-.3v-.4c.5-.4.9-.8.9-1.4s-.2-.6-.5-.7c-.4,1-1.2,2.2-2,2.2s-1-.6-1-1.3h0ZM75.9,205.6c.5,0,1.1-1,1.5-1.8h-.9v.8c0,.1,0,.3-.2.3s-.3,0-.3-.2v-.7c-.5.2-.6.5-.7.8,0,.4.2.9.5.8h0Z"/>
      <path class="st3" d="M81.4,205.8l2.2-2.9h-1.7c0,0-.2,0-.2-.2s0-.2.2-.2h2.3c.2,0,.3,0,.3.2s0,.3-.2.3l-1.3,1.7h.3c.2-.1.3,0,.3.2v1.1h1.3c0,0,.3,0,.3.2s0,.3-.2.3h-1.5c-.2,0-.3-.2-.3-.4v-1h-.5l-.8,1c0,.1-.2.1-.4,0,0,0,0-.2,0-.3h-.1ZM83.5,201.9c0,.1,0,.3-.3.3s-.3-.1-.3-.3v-.5c0-.1,0-.2.3-.2s.3.1.3.2v.5Z"/>
      <path class="st3" d="M89.6,202.6h-2.1c0,0-.3-.1-.3-.3s0-.2.3-.2h2.1v-.7c0-.1,0-.2.3-.2s.2.1.2.3v.7h1.2c0,0,.2.1.2.2s0,.3-.2.3h-1.2v1.7c0,.7-.2,1.4-.7,2.2,0,.1-.2.2-.4.1,0,0-.2-.2,0-.3.2-.4.4-.8.5-1.1h-.3c-.5,0-1-.4-.9-1.2,0-.5.3-.8.8-.8h.4v-.6h0ZM89.6,203.8s-.2-.1-.4-.1-.4.2-.3.5c0,.3.3.5.4.5.2,0,.4-.3.3-.9ZM91,201.4c0-.1,0-.2.2-.2s.2,0,.2.2v.3c0,.1,0,.2-.2.2s-.2,0-.2-.2v-.3ZM91.7,201.4c0-.1,0-.2.2-.2s.2,0,.2.2v.3c0,.1,0,.2-.2.2s-.2,0-.2-.2v-.3Z"/>
      <path class="st3" d="M93.9,205.3l.6.6v.3c0,.1-.2,0-.3,0l-.6-.6v-.3h.3Z"/>
      <path class="st3" d="M100.6,205.2v-.4c0-.1.2-.2.3-.2s.2.2,0,.3v.2c0,.3.3.5,1.1.5s.7,0,1.1-.1c0,0,.3,0,.3.2s0,.3-.2.3c-.4,0-.8.1-1.2,0-.4,0-1.5,0-1.6-1v.2ZM102.7,202.8l.2-.4h-1.9c0,0-.2-.1-.2-.3s0-.2.2-.2h2.3c0,0,.3.1.3.2s0,.3-.2.5l-.2.4c0,.1-.2.2-.3.1,0,0-.2-.2,0-.3h-.1ZM103.7,201.5c0-.1,0-.2.2-.2s.2,0,.2.2v.3c0,.1,0,.2-.2.2s-.2,0-.2-.2v-.3ZM104.4,201.5c0-.1,0-.2.2-.2s.2,0,.2.2v.3c0,.1,0,.2-.2.2s-.2,0-.2-.2v-.3Z"/>
      <path class="st3" d="M106.5,205.9v-3.7c0-.1,0-.2.3-.2s.2.1.2.3c0,1,0,2.4,0,3.3,0,0,0,0,.2-.1h.3c0,.1,0,.3,0,.3s-.2.1-.3.2c0,0-.2.1-.3.1-.2,0-.3-.1-.3-.2h0ZM110.6,204.6c0,0,.2.1.2.3s0,.2-.3.2h-.6v.6c0,.6-.3.8-.7.8s-1-.5-1-1.1.3-.7.8-.7h.4v-1.7h-1c0,0-.3-.1-.3-.3s0-.2.3-.2h1v-.6c0-.1,0-.3.3-.3s.2.1.2.3v.6h.5c0,0,.2.1.2.2s0,.3-.2.3h-.5v1.7h.7ZM109.4,205h-.4c-.3,0-.4.1-.4.3,0,.3.4.6.5.6q.2,0,.2-.4v-.5h.1Z"/>
      <path class="st3" d="M116.8,205.3s.2-.1.3,0c0,.1,0,.3,0,.4-.4.4-.7.5-1.1.6-.6,0-1.1-1.5-1.4-1.5s-.5.2-.8.5l-.3.7c0,.1-.2.2-.3.1,0,0-.2-.2,0-.3l1.9-4.3c0-.1.2-.2.3-.1s.2.2,0,.3l-1.2,2.7c0-.1.3-.2.4-.2.6,0,1.1,1.5,1.4,1.5s.6-.2.8-.5h0Z"/>
      <path class="st3" d="M121,201.9h1.5c0,0,.3.1.3.3s0,.2-.3.2h-1.7l-.3.9c.3.1.6.2.9.4.2-.2.4-.3.5-.4h.3v.4c0,0-.3.2-.4.3.2.1.4.2.6.4,0,0,0,.3,0,.4,0,.1-.2.1-.3,0,0,0-.5-.3-.6-.4-.5.4-.9.8-.9,1.1s0,.6.8.6h.8c0,0,.3,0,.3.2s0,.3-.2.3h-.8c-1.2,0-1.3-.7-1.3-1.1s.4-.9,1-1.4c-.2-.1-.4-.2-.8-.3,0,0-.3-.2-.2-.4l.3-.9h-.7c0,0-.2-.1-.2-.2s0-.3.2-.3h.8l.2-.7c0-.1.2-.2.3-.2s.2.2.2.3l-.2.5h-.1Z"/>
      <path class="st3" d="M127.7,201c.2,0,.4,0,.6.2l1.6,1.2c.1,0,.1.2,0,.3,0,.1-.2.1-.3,0-.4-.3-1.7-1.2-1.8-1.3h-.5s-1.3.9-1.7,1.3h-.3v-.3l1.6-1.2c.2-.1.4-.2.6-.2h.2ZM127.5,206.3l-.5.3c0,0-.3.2-.4.2s-.2-.1-.2-.3v-3.5c0-.2,0-.3.3-.3h1.8c.2,0,.3.1.3.3v1.2c0,.2-.1.3-.3.3h-1.7v1.5l.3-.2h.4v.5ZM126.9,203.1v.3h1.5v-.3s-1.5,0-1.5,0ZM128.3,204.2v-.3h-1.5v.3h1.5ZM127.9,202.3c0,.1,0,.3-.2.3s-.3-.1-.3-.3v-.3c0-.1,0-.3.3-.3s.2.1.2.3v.3ZM129.3,206.1h.2c.1,0,.3.1.3.3s-.1.3-.3.3h0c-.2,0-.4,0-.5-.2l-1.1-1.1v-.4h.4l1.2,1.2h-.2ZM128.8,204.8l.4-.3c.1-.1.3,0,.4,0v.4l-.4.3c-.1,0-.3.1-.4,0v-.4Z"/>
      <path class="st3" d="M132.1,204.6c0,.1-.2.1-.4,0-.1,0-.1-.2,0-.4l1.5-1.7c.1-.1.3-.1.5,0l2.7,2.5c.1,0,.1.3,0,.4,0,.1-.2.1-.3,0l-2.6-2.4-1.4,1.6h0ZM135,202.3c0-.1,0-.2.2-.2s.2,0,.2.2v.3c0,.1,0,.2-.2.2s-.2,0-.2-.2v-.3ZM135.7,202.3c0-.1,0-.2.2-.2s.2,0,.2.2v.3c0,.1,0,.2-.2.2s-.2,0-.2-.2v-.3Z"/>
      <path class="st3" d="M141.8,204.6c.1,0,.2.1.2.3s-.1.2-.3.2c-.4,0-.8,0-1.1-.1v.6c0,.5-.2.9-.8.9s-1-.6-1-1.2.3-.8,1-.8h.3v-2.9c0-.5.1-.3.3-.3s.3.1.3.3v.8h1c.1,0,.3.1.3.2s-.1.3-.3.3h-1v1.6h1.2,0ZM140.1,205.5v-.6h-.3c-.4,0-.5.2-.5.3,0,.3.3.6.6.6s.3-.1.3-.4h-.1Z"/>
      <path class="st3" d="M145.3,203.3c-.1,0-.3,0-.3-.2s0-.3.2-.3c.5-.1,1.6-.3,2-.3.7,0,1,.3,1,1.1,0,1.5-.6,2.3-1.6,3h-.4v-.3c1.1-.8,1.5-1.5,1.5-2.6s-.2-.6-.6-.6-1.3.2-1.8.3h0ZM146.9,202c0,.1-.1.3-.3.3s-.2-.1-.2-.3v-.7c0-.1.1-.3.2-.3s.3.1.3.3v.7Z"/>
      <path class="st3" d="M152,205.7c0,.4-.3.7-.7.7s-.7-.3-.7-.7.3-.7.7-.7.7.3.7.7ZM151.7,205.7c0-.2-.2-.4-.4-.4s-.4.2-.4.4.2.4.4.4.4-.2.4-.4Z"/>
      <path class="st3" d="M157.4,205.3c-.2,0-.3-.2-.3-.4v-2.7c0-.2.1-.3.3-.3h1.1c.2,0,.3.1.3.3v2.7c0,.2-.1.3-.3.3h-1.1ZM157.6,202.4v.9h.7v-.9h-.7ZM158.3,204.8v-1h-.7v1h.7ZM158.6,206.2c.2-.5.6-1.4.6-1.4.1-.4.1-.6.1-.9v-2.3c0-.2.1-.3.3-.3h1.6c.2,0,.3.1.3.3v4.7c0,.2-.1.3-.3.3h-.4c-.1,0-.3-.1-.3-.3s.1-.3.2-.3h.2v-1.9h-1.3c0,.3,0,.4-.2.7l-.6,1.4c0,.1-.2.2-.3.1-.1,0-.2-.2-.1-.3l.2.2ZM161.1,201.8h-1.3v.7h1.3v-.7ZM161.1,203.7v-.8h-1.3v.8h1.3Z"/>
      <path class="st3" d="M167.3,201.5c.2,0,.3.1.3.3v4.2c0,.2-.1.3-.3.4-1.1.2-2.3.2-3.1,0-.2,0-.3-.2-.3-.4v-4.2c0-.2.1-.3.3-.3h3.1ZM167,202h-2.6v1.4h2.6v-1.4ZM167,205.8v-1.8h-2.6v1.8c.7.1,1.7.1,2.6,0Z"/>
      <path class="st3" d="M171.3,204.1h-.4c-.1,0-.3-.1-.3-.2s.1-.3.3-.3h.4c0-.3,0-.5.1-.8h-.5c-.1,0-.2-.1-.2-.2s.1-.3.2-.3h.5c0-.2,0-.6.1-1,0-.1.1-.2.3-.2s.2.1.2.3c0,.3,0,.7-.1.9h.7c.1,0,.3.1.3.3s-.1.2-.3.2h-.7c0,.3,0,.5-.1.8h.9c.1,0,.2.1.2.3s-.1.2-.2.2h-.9v1.1c-.2.6.2.9.8.9s.6-.4.4-1.2c0-.2,0-.3.2-.3s.3,0,.3.2v.5c0,.9-.4,1.3-1,1.3s-1.5-.4-1.4-1.3c0-.3,0-.6.1-1.1h0Z"/>
      <path class="st3" d="M180.5,206.2c0,.2-.1.3-.3.4h-1.2c-.2,0-.3-.2-.3-.4v-2.6h-.8v.4c0,.4,0,.6-.2.8l-1,1.7c0,.1-.2.2-.3,0-.1,0-.2-.2,0-.3.3-.5,1-1.6,1-1.6.2-.3.1-.3.1-.7v-.4h-1c-.1,0-.3-.1-.3-.3s.1-.2.3-.2h3.9c.1,0,.3.1.3.2s-.1.3-.3.3h-1.1v2.5h.9v-.3c0-.1.1-.2.2-.2s.2.1.2.2v.4h0ZM177.2,201.5h2.5c.1,0,.3.1.3.3s-.1.3-.3.3h-2.5c-.1,0-.3-.1-.3-.3s.1-.3.3-.3Z"/>
      <path class="st3" d="M186.3,202h-2.7l-.3.6c0,.1-.2.2-.3.1-.1,0-.2-.2-.1-.3l.7-1.3c0-.1.2-.2.3-.1.1,0,.2.2.1.3v.3c-.1,0,2.3,0,2.3,0,.1,0,.3.1.3.3s-.1.2-.3.2h0ZM184.9,204.7l-.5.5.6.6c.1,0,.1.2,0,.4,0,.1-.3.1-.4,0l-.6-.6-.8.8c0,.1-.3.1-.4,0s-.1-.3,0-.4l.8-.8-.4-.4c-.1,0-.1-.3,0-.4,0-.1.3-.1.4,0l.4.4.5-.5c0-.1.3-.1.4,0,.1,0,.1.3,0,.4ZM186.4,206.7c-.2,0-.3-.2-.3-.3v-2.5h-2.9c-.1,0-.3-.1-.3-.3s.1-.2.3-.2h3c.2,0,.3.1.3.3v2.6h.4v-.3c0-.1.1-.2.2-.2s.2.1.2.2v.5c0,.2-.1.3-.3.4h-.7v-.2ZM183.9,202.9c-.1,0-.3-.1-.3-.3s.1-.2.3-.2h1.9c.1,0,.3.1.3.2s-.1.3-.3.3h-1.9Z"/>
      <path class="st3" d="M189.1,202.6c-.1,0-.3-.1-.3-.2s.1-.3.2-.3h3.4c.1-.1.3,0,.3.1s-.1.3-.2.3h-.6c-.7.8-1.4,1.7-1.4,2.4s.3.7,1,.7.2.1.2.3-.1.2-.3.2c-.9,0-1.5-.5-1.5-1.2s.5-1.5,1.2-2.3h-2.2.2ZM192.3,203.2c0-.1,0-.2.2-.2s.2,0,.2.2v.3c0,.1,0,.2-.2.2s-.2,0-.2-.2v-.3ZM192.9,203.2c0-.1,0-.2.2-.2s.2,0,.2.2v.3c0,.1,0,.2-.2.2s-.2,0-.2-.2v-.3Z"/>
      <path class="st3" d="M196.1,205.8c-.2,0-.3,0-.4-.2-.3-.9-.3-2.3-.1-3.4,0-.1.1-.2.3-.2s.2.2.2.3c-.1,1-.2,2.1,0,2.9l.3-.2c.1,0,.3,0,.3.1s0,.3-.1.3l-.6.3h.1ZM199.1,204.7c-.1-.6-.3-1.1-.6-1.5,0-.1,0-.3.1-.3s.3,0,.3.1c.2.5.5,1,.6,1.6,0,.1,0,.3-.2.3s-.3,0-.3-.2h0Z"/>
      <path class="st3" d="M205.3,204.7c0,1.2-.7,1.7-1.7,1.7s-1.1-.3-1-.9c0-.3.3-.5.6-.5.5,0,.8.2.8.6s0,.2,0,.3c.5,0,.8-.4.8-1.2s-.9-.5-2-.3l-.2.3c0,.1-.3.1-.4,0-.1-.1,0-.3,0-.4l1.8-2.2h-1.1c-.1,0-.3,0-.3-.2s.1-.3.2-.3h1.6c.2,0,.3.2.2.3,0,.2-1.5,1.8-1.5,1.8,1.3-.3,2.1-.2,2.1,1h0ZM203.5,205.6c0-.1-.1-.2-.2-.2s-.2,0-.2.1.2.3.4.3v-.2h0Z"/>
      <path class="st3" d="M210.5,202.7h-1.2l-.7,3.4c0,.1-.2.2-.3.2s-.2-.2-.2-.3l.7-3.3h-.5c-.1,0-.2-.1-.2-.3s.1-.3.2-.3h.6v-.7c.2-.1.3-.2.4-.2s.2.2.2.3v.6c-.1,0,.9,0,.9,0,.1,0,.3.1.3.3s-.1.3-.3.3h.1ZM212,205.7c.1,0,.3,0,.3.2s0,.3-.2.3h-.7c-.6,0-1-.4-1-.9v-.2c0-.1.2-.2.3-.2s.2.2.2.3v.2c0,.2.2.3.5.3h.7-.1ZM211.4,203.8v-.2c.1,0-.7,0-.7,0-.1,0-.3-.1-.3-.2s.1-.3.3-.3h1.1c.1,0,.3.1.3.3s0,.3-.2.5v.2c-.2.1-.4.2-.5,0-.1,0-.1-.2,0-.3h0Z"/>
      <path class="st3" d="M215.4,205.8c-.4,0-1-.5-1-1.6s.4-1,.9-1.3l-.2-.9c0-.1,0-.3.2-.3s.3,0,.3.2l.2.8c.4-.1.8-.2,1.2-.2.1-.2.2-.5.3-.6,0-.1.2-.2.3-.1.1,0,.2.2.1.3,0,.1-.1.3-.2.5.5,0,1.1.5,1.1,1.7s-.5,1.5-1.3,2.1c-.1,0-.3.1-.4,0-.1,0,0-.3,0-.4.9-.7,1.2-1.2,1.2-1.8s-.4-1.2-.8-1.2c-1,2-1.1,2.8-1.9,2.8h0ZM216.7,203c-.3,0-.6.1-.8.2v.8c.2.1,0,.3,0,.3-.1,0-.3,0-.3-.2v-.6c-.4.2-.6.4-.6.7,0,.7.3,1.1.5,1.1.3,0,.4-.3,1.3-2.3h0Z"/>
      <path class="st3" d="M221,206.1v-4.2c0-.1.1-.2.3-.2s.2.1.2.3c-.1,1.4-.1,2.8,0,3.8l.2-.2s.2-.1.3,0v.4l-.4.3c-.1,0-.2.2-.4.2s-.2,0-.3-.2v-.2ZM224.6,206h-.8c-.7,0-1.2-.3-1.2-1s0-.1,0-.2.1-.2.3-.2.2.2.2.3h0c0,.4.2.5.7.5h.7c.1,0,.3,0,.3.2s0,.3-.2.3h0ZM223,202.2h1.5c.2,0,.3.1.3.3s-.4.7-.4.7c0,.1-.2.1-.3,0-.1,0-.1-.2,0-.3v-.2c.1,0-1,0-1,0-.1,0-.3-.1-.3-.3s.1-.3.3-.3h-.1Z"/>
      <path class="st3" d="M228.1,205.7c0,.4-.3.7-.7.7s-.7-.3-.7-.7.3-.7.7-.7.7.3.7.7ZM227.8,205.7c0-.2-.2-.4-.4-.4s-.4.2-.4.4.2.4.4.4.4-.2.4-.4Z"/>
      <path class="st3" d="M64,224.7h-1l-.3.5c0,.1-.2.2-.3.1,0,0-.2-.2,0-.3l.8-1.4c0-.1.2-.2.3-.1,0,0,.2.2,0,.3l-.2.4h.8v-.7c0-.1,0-.2.3-.2s.3.1.3.2v.7h1.3c0,0,.3.1.3.3s0,.2-.3.2h-1.3v.9h1.6c0,0,.2.1.2.2s0,.2-.2.2h-1.6v.2h0l1.6,2.1h0c0,0,.3.1.3.3s0,.2-.3.2h0c-.2,0-.4,0-.5-.3l-1.4-1.8-1.7,2c0,.1-.2.1-.4,0,0,0,0-.2,0-.4l1.7-2c0-.1,0-.2,0-.4h-1.6c0,0-.3-.1-.3-.3s0-.3.3-.3h1.6v-.9l-.2.3Z"/>
      <path class="st3" d="M68.4,228.6c0,.1-.3.1-.4,0s0-.3,0-.4l.3-.3c0-.1.3-.1.4,0s0,.3,0,.4l-.3.3ZM68.6,227.7c-.2,0-.3-.2-.3-.4v-3.3c0-.2,0-.3.3-.3h1.1c.2,0,.3.1.3.3v3.3c0,.2,0,.3-.3.4h-1.1ZM69.5,224.2h-.7v.6h.7v-.6ZM68.8,226h.7v-.7h-.7v.7ZM69.5,227.2v-.7h-.7v.7h.7ZM69.9,227.9l.3.3v.4h-.4l-.3-.3v-.4h.4ZM70.8,225c0,.1-.2.2-.3.1,0,0-.2-.2,0-.3l.6-1.3c0-.1.2-.2.3-.1,0,0,.2.2,0,.3v.3c0,0,1.4,0,1.4,0,0,0,.2.1.2.2s0,.3-.2.3h-1.8l-.2.5ZM72.8,228.3c0,0,.2.1.2.2s0,.3-.3.3h0c-.2,0-.4-.1-.5-.3l-.7-1.1-.7,1.2c0,.1-.2.2-.3,0,0,0-.2-.2,0-.3l.9-1.5-.5-.8v-.3h.3l.4.6.7-1.1c0-.1.2-.2.3,0,0,0,.2.2,0,.3l-.8,1.4.9,1.4h0Z"/>
      <path class="st3" d="M76,227.1c0,.6.6,1,1.1,1s.7-.4,1.1-1.3c0-.2.2-.2.3-.2s.2.2,0,.4c-.3.8-.7,1.6-1.5,1.6s-1.7-.6-1.6-1.6c0-.9,0-2.1.2-3.1,0-.1,0-.2.3-.2s.2.1.2.3c0,1.4-.2,2.6-.2,3.2h0Z"/>
      <path class="st3" d="M83.5,224.9h-1.2l-.7,3.4c0,.1-.2.2-.3.2s-.2-.2-.2-.3l.7-3.3h-.5c0,0-.2-.1-.2-.3s0-.3.2-.3h.6v-.7c.2-.1.3-.2.4-.2s.2.2.2.3v.6c0,0,.9,0,.9,0,0,0,.3.1.3.3s0,.3-.3.3h0ZM85.1,228c0,0,.3,0,.3.2s0,.3-.2.3h-.7c-.6,0-1-.4-1-.9v-.2c0-.1.2-.2.3-.2s.2.2.2.3v.2c0,.2.2.3.5.3h.7-.1ZM84.5,226v-.2c0,0-.7,0-.7,0,0,0-.3-.1-.3-.2s0-.3.3-.3h1.1c0,0,.3.1.3.3s0,.3-.2.5v.2c-.2.1-.4.2-.5,0,0,0,0-.2,0-.3Z"/>
      <path class="st3" d="M90.9,226.7c0-.3-.2-.6-.6-.6s-1.2,0-2.3.2c0,0-.2,0-.2-.2s0-.2.2-.2c1.1-.1,1.9-.2,2.3-.2.6,0,1.1.4,1.1,1s-.5,1.3-1.6,1.6c0,0-.2,0-.3-.1,0-.1,0-.2,0-.3,1.1-.3,1.4-.8,1.4-1.2h0Z"/>
      <path class="st3" d="M94.1,224.9c0,0-.3-.1-.3-.2s0-.3.2-.3h3.4c0-.1.3,0,.3.1s0,.3-.2.3h-.6c-.7.8-1.4,1.7-1.4,2.4s.3.7,1,.7.2.1.2.3,0,.2-.3.2c-.9,0-1.5-.5-1.5-1.2s.5-1.5,1.2-2.3h-2.2.2Z"/>
      <path class="st3" d="M100.5,226.3c0,0-.3-.1-.3-.2s0-.3.2-.3h1.1l1.5-2c0-.1.2-.1.4,0,0,0,0,.2,0,.3l-1.3,1.6h1.5c0,0,.3,0,.3.2s0,.3-.2.3h-.7c-.6.5-1.1,1.1-1.1,1.6s.6.5,1,.4c0,0,.3,0,.3.2s0,.3-.2.3c-.8,0-1.6-.2-1.6-1s.3-1,.9-1.5h-1.8ZM100.9,224c0-.1,0-.3.2-.3s.3.1.3.2v.7c0,.1,0,.3-.2.3s-.3-.1-.3-.3v-.7h0Z"/>
      <path class="st3" d="M110.8,227.7c0,0,.3,0,.3.1s0,.3,0,.4c-.3,0-.6.1-.9,0-.2,0-.3-.2-.3-.4v-3l-1.9,1.4v2.2c0,.1,0,.3-.2.3s-.3-.1-.3-.3v-1.8l-.6.4h-.4v-.3l.9-.7v-.6h-.5c0,0-.3-.1-.2-.3,0-.1,0-.3.3-.2h.5v-1c0-.1,0-.2.3-.2s.2.1.2.2v1.7l1.7-1.2c0,0,.2-.2.4-.2s.3.2.3.3v3.3h.5,0Z"/>
      <path class="st3" d="M112.8,228.1v-3.7c0-.1,0-.2.3-.2s.2.1.2.3c0,1,0,2.4,0,3.3,0,0,0,0,.2-.1h.3c0,.1,0,.3,0,.3s-.2.1-.3.2c0,0-.2.1-.3.1-.2,0-.3-.1-.3-.2h0ZM117,226.9c0,0,.2.1.2.3s0,.2-.3.2h-.6v.6c0,.6-.3.8-.7.8s-1-.5-1-1.1.3-.7.8-.7h.4v-1.7h-1c0,0-.3-.1-.3-.3s0-.2.3-.2h1v-.6c0-.1,0-.3.3-.3s.2.1.2.3v.6h.5c0,0,.2.1.2.2s0,.3-.2.3h-.5v1.7h.7ZM115.8,227.2h-.4c-.3,0-.4.1-.4.3,0,.3.4.6.5.6q.2,0,.2-.4v-.5h.1Z"/>
      <path class="st3" d="M119.7,227.2c0-.1,0-.3.3-.2,0,0,.2.1.2.3,0,.6.2,1,1,1s.2,0,.3.2c0,.2,0,.3-.3.3-1.1,0-1.5-.7-1.5-1.6ZM121.3,224.7h-1.3c0,0-.3-.1-.3-.2s0-.3.3-.3h1.2l-.2-.6c0-.1,0-.3.2-.3s.3,0,.3.2l.2.8h.8c0,0,.3.1.3.3s0,.2-.3.2h-.6l.2.9h.5c0,0,.3.1.3.3s0,.3-.3.3h-.4l.2.8c0,.2,0,.3-.2.3h-.5c0,0-.2-.1-.2-.2s0-.2.2-.2h.2l-.2-.7h-1.7c0,0-.2-.1-.2-.3s0-.3.2-.3h1.5l-.2-.9h0Z"/>
      <path class="st3" d="M129,226.7c0-.3-.2-.6-.6-.6s-1.2,0-2.3.2c0,0-.2,0-.2-.2s0-.2.2-.2c1.1-.1,1.9-.2,2.3-.2.6,0,1.1.4,1.1,1s-.5,1.3-1.6,1.6c0,0-.2,0-.3-.1,0-.1,0-.2,0-.3,1.1-.3,1.4-.8,1.4-1.2h0Z"/>
      <path class="st3" d="M133.4,225.8l-.7-1.8c0-.1,0-.3.2-.3s.3,0,.3.2l.6,1.7c.1,0,.8-.7,1.2-1h.4v.4c-1.8,1.6-2.3,1.8-2.3,2.4s.4.7,1,.7h1.2c.1,0,.3,0,.3.2s-.1.3-.2.3h-1.3c-1,0-1.4-.5-1.4-1.2s.3-.9.8-1.4v-.2Z"/>
      <path class="st3" d="M141.5,228.8c-.2,0-.3-.1-.3-.3s.1-.3.3-.3h.2v-3.6h-1.4c0,.4,0,.6-.2,1l-1.3,2.9c0,.1-.2.2-.4.1-.1,0-.2-.2-.1-.4.3-.7,1.3-2.9,1.3-2.9.1-.4.2-.4.2-.8h-1.2c-.2,0-.3-.1-.3-.3s.1-.3.3-.3h1.2v-.6c0-.1.1-.3.3-.3s.3.1.3.3v.6h1.6c.2,0,.3.1.3.3v4.1c0,.2-.1.3-.3.3h-.4v.2Z"/>
      <path class="st3" d="M144.9,228.3v-4.2c0-.1.1-.2.3-.2s.2.1.2.3c-.1,1.4-.1,2.8,0,3.8l.2-.2s.2-.1.3,0v.4l-.4.3c-.1,0-.2.2-.4.2s-.2,0-.3-.2v-.2ZM148.5,228.2h-.8c-.7,0-1.2-.3-1.2-1s0-.1,0-.2.1-.2.3-.2.2.2.2.3h0c0,.4.2.5.7.5h.7c.1,0,.3,0,.3.2s0,.3-.2.3h0ZM146.8,224.4h1.5c.2,0,.3.1.3.3s-.4.7-.4.7c0,.1-.2.1-.3,0-.1,0-.1-.2,0-.3v-.2c.1,0-1,0-1,0-.1,0-.3-.1-.3-.3s.1-.3.3-.3h-.1Z"/>
      <path class="st3" d="M151,226.7l.3-1.8h-.4c-.1,0-.2-.1-.2-.2s.1-.3.2-.3h.4v-.6c.1-.1.2-.2.4-.2s.2.1.2.3v.5h.6c.1,0,.3.1.3.2s-.1.3-.3.3h-.8l-.3,1.9c0,.1-.2.2-.3.2s-.2-.1-.2-.3h.1ZM154.2,226.9h.8c.1,0,.2.1.2.3s-.1.2-.3.2h-.7v.5c0,.6-.3.8-.7.8s-1-.5-1-1.1.3-.7.8-.7h.5v-1.1c0-.1.1-.3.2-.3s.3.1.3.3v1.1h-.1ZM153.7,227.3h-.4c-.3,0-.3.1-.4.2,0,.3.3.6.5.6s.2-.1.2-.9h0ZM153.8,224.5h1c.1,0,.3.1.3.3s-.1.3-.3.3h-1c-.1,0-.2-.1-.2-.3s.1-.3.2-.3Z"/>
      <path class="st3" d="M160.7,226.7c0-.3-.2-.6-.6-.6s-1.2,0-2.3.2c-.1,0-.2,0-.2-.2s0-.2.2-.2c1.1-.1,1.9-.2,2.3-.2.6,0,1.1.4,1.1,1s-.5,1.3-1.6,1.6c-.1,0-.2,0-.3-.1,0-.1,0-.2.1-.3,1.1-.3,1.4-.8,1.4-1.2h0Z"/>
      <path class="st3" d="M163.9,224.9c-.1,0-.3-.1-.3-.2s.1-.3.2-.3h3.4c.1-.1.3,0,.3.1s-.1.3-.2.3h-.6c-.7.8-1.4,1.7-1.4,2.4s.3.7,1,.7.2.1.2.3-.1.2-.3.2c-.9,0-1.5-.5-1.5-1.2s.5-1.5,1.2-2.3h-2.2.2Z"/>
      <path class="st3" d="M173.6,226.9c0,1.2-.7,1.7-1.7,1.7s-1.1-.3-1-.9c0-.3.3-.5.6-.5.5,0,.8.2.8.6s0,.2,0,.3c.5,0,.8-.4.8-1.2s-.9-.5-2-.3l-.2.3c0,.1-.3.1-.4,0-.1-.1,0-.3,0-.4l1.8-2.2h-1.1c-.1,0-.3,0-.3-.2s.1-.3.2-.3h1.6c.2,0,.3.2.2.3,0,.2-1.5,1.8-1.5,1.8,1.3-.3,2.1-.2,2.1,1h0ZM171.8,227.9c0-.1-.1-.2-.2-.2s-.2,0-.2.1.2.3.4.3v-.2h0Z"/>
      <path class="st3" d="M177.4,227.9c0,.4-.3.7-.7.7s-.7-.3-.7-.7.3-.7.7-.7.7.3.7.7ZM177,227.9c0-.2-.2-.4-.4-.4s-.4.2-.4.4.2.4.4.4.4-.2.4-.4Z"/>
      <path class="st3" d="M62.6,235.7h-.5c0,0-.2-.1-.2-.3s0-.3.2-.3h.5c0,0,.3.1.3.3s0,.3-.3.3ZM62.1,236.5h.5c0,0,.3.1.3.3s0,.3-.3.3h-.5c0,0-.2-.1-.2-.3s0-.3.2-.3ZM62.9,238.5l-.5,1.1c0,.1-.2.2-.3.1,0,0-.2-.2,0-.3l.5-1.1c0-.1.2-.2.3-.1,0,0,.2.2,0,.3ZM66.2,237.3c.2,0,.3.1.3.3v1.7h.2c0,0,.3.1.3.3s0,.3-.3.3h-3.7c0,0-.3-.1-.3-.3s0-.3.3-.3h.4v-1.7c0-.2,0-.3.3-.3h2.5ZM64,236.8c-.2,0-.3-.2-.3-.3v-1.6c0-.2,0-.3.3-.3h2c.2,0,.3.1.3.3v1.6c0,.2,0,.3-.3.3h-2ZM64.4,239.3v-1.5h-.4v1.5h.4ZM65.8,235.1h-1.6v.4h1.6v-.4ZM65.8,236.3v-.4h-1.6v.4h1.6ZM65.2,237.8h-.4v1.5h.4v-1.5ZM66,237.8h-.4v1.5h.4v-1.5Z"/>
      <path class="st3" d="M71.1,234.4v.3h1.5c0,0,.3.1.3.2s0,.3-.3.3h-3.4v.9c0,.3,0,.5,0,.9h0l-.6,1.7c0,.1-.2.2-.3.2,0,0-.2-.2-.2-.3.2-.5.6-1.7.6-1.7,0-.3,0-.5,0-.8v-1.1c0-.2,0-.3.3-.3h1.6v-.3c0-.1,0-.3.2-.3s.3.1.3.3h0ZM70.5,235.7v.3h.8v-.3c0-.1,0-.2.3-.2s.3.1.3.2v.3h.5c0,0,.3.1.3.3s0,.3-.3.3h-.5v.5c0,.2,0,.3-.4.3h-1.1c0,0-.3,0-.3-.4v-.4h-.5c0,0-.3-.1-.3-.3s0-.3.3-.3h.5v-.3c0-.1,0-.2.3-.2s.3.1.3.2h-.2ZM70.8,239.3l-.9.7h-.4v-.3l.9-.7-.3-.2c0,0,0-.2,0-.4,0-.1.2-.1.3,0l.4.3.6-.5h0c0-.2-1.6-.2-1.6-.2,0,0-.3-.1-.3-.2s0-.3.3-.3h1.8c.2,0,.3.1.3.3v.3c0,.2,0,.4-.3.5l-.5.4.8.6h.2c0,0,.3.1.3.3s0,.2-.3.3c-.3,0-.4,0-.6-.2l-.8-.6h0ZM70.5,236.4v.3h.8v-.3h-.8Z"/>
      <path class="st3" d="M74.6,239.4c.6-1.2.8-1.9,1.1-2.8h-.7c0,0-.3,0-.3-.2s0-.3.2-.3h.8v-.8c0-.3,0-.3.2-.3s.3.1.3.2v.8h.8c.6,0,.9.3.9,1.1s0,1.7-.2,2.5c0,.2-.2.3-.4.3h-.4c0,0-.2-.2-.2-.3s0-.2.3-.2h.2c0-.5.2-1.4,0-2.3,0-.4,0-.6-.4-.6h-.8c-.3,1-.6,1.7-1.2,3.1,0,.1-.2.2-.3.1,0,0-.2-.2,0-.3h0ZM78.4,235.2c.2.2.5.6.7.9v.4h-.4c-.2-.2-.5-.6-.7-.9v-.3h.4ZM78.7,234.7c0-.1,0-.2.2-.2s.2,0,.2.2v.3c0,.1,0,.2-.2.2s-.2,0-.2-.2v-.3ZM79.4,234.7c0-.1,0-.2.2-.2s.2,0,.2.2v.3c0,.1,0,.2-.2.2s-.2,0-.2-.2v-.3Z"/>
      <path class="st3" d="M85.1,235.3h-3.8c0,0-.2-.1-.2-.3s0-.3.2-.3h1.7v-.3c0-.1,0-.3.3-.3s.2.1.2.3v.3h1.6c0,0,.3.1.3.3s0,.3-.3.3ZM85.2,239.7c0,.2,0,.3-.3.3h-.4c0,0-.3-.1-.3-.2s0-.3.3-.3h.2v-1.8h-2.8v2.1c0,.1,0,.3-.3.3s-.3-.1-.3-.3v-2.3c0-.2,0-.3.3-.3h3.2c.2,0,.3.1.3.3v2.2h.1ZM82.6,236.9c-.2,0-.3-.2-.3-.4v-.7c0-.2,0-.3.3-.3h1.4c.2,0,.3.1.3.3v.7c0,.2,0,.3-.3.3h-1.4ZM82.4,238.4c0-.2,0-.3.3-.3h1.1c.2,0,.3.1.3.3v.7c0,.2,0,.3-.3.3h-1.1c-.2,0-.3-.2-.3-.4v-.7h0ZM83.8,236h-1v.4h1v-.4ZM83.6,238.6h-.7v.4h.7v-.4Z"/>
      <path class="st3" d="M88.3,237.4c0-.1,0-.3,0-.5l1.8-2c0-.1.3-.1.4,0,0,0,0,.3,0,.4l-1.7,1.9,1.7,2.1v.4h-.4l-1.8-2.2h0Z"/>
      <path class="st3" d="M93.9,237.8l.3-1.8h-.4c0,0-.2-.1-.2-.2s0-.3.2-.3h.4v-.6c0-.1.2-.2.4-.2s.2.1.2.3v.5h.6c0,0,.3.1.3.2s0,.3-.3.3h-.8l-.3,1.9c0,.1-.2.2-.3.2s-.2-.1-.2-.3h.1ZM97,238h.8c0,0,.2.1.2.3s0,.2-.3.2h-.7v.5c0,.6-.3.8-.7.8s-1-.5-1-1.1.3-.7.8-.7h.5v-1.1c0-.1,0-.3.2-.3s.3.1.3.3v1.1h-.1ZM96.5,238.4h-.4c-.3,0-.3.1-.4.2,0,.3.3.6.5.6s.2-.1.2-.8h.1ZM96.7,235.6h1c0,0,.3.1.3.3s0,.3-.3.3h-1c0,0-.2-.1-.2-.3s0-.3.2-.3Z"/>
      <path class="st3" d="M101.5,237.5c0,0-.2.1-.3.1s-.2,0-.2-.2v-2.5c0-.1,0-.2.3-.2s.2.1.2.3c0,.6-.2,1.3,0,2l.2-.2h.3v.3l-.4.2v.2ZM103.4,235c0,.9,0,1.6,0,2.2,0,.8-.5,1.6-1.4,2.5,0,.1-.3.1-.4,0,0,0,0-.3,0-.4.9-.9,1.3-1.5,1.3-2.3v-2.2c0-.1,0-.2.2-.3,0,0,.3,0,.3.2v.3Z"/>
      <path class="st3" d="M108.7,235.9h-2.1c0,0-.2-.1-.2-.2s0-.3.2-.3h2.1v-.7c0-.2,0-.2.2-.2s.3.1.3.3v.7h1.2c0,0,.3.1.3.3s0,.2-.3.2h-1.2v1.7c0,.7-.2,1.4-.6,2.2,0,.1-.2.2-.4.1,0,0-.2-.2,0-.3.2-.4.4-.8.5-1.1h-.3c-.5,0-1-.4-.9-1.2,0-.5.3-.8.8-.8h.4v-.6h0ZM108.7,237.1s-.2-.1-.4-.1-.4.2-.3.5c0,.3.3.5.4.5.2,0,.4-.3.3-.9Z"/>
      <path class="st3" d="M113.3,238.3c0-.1,0-.3.3-.2,0,0,.2.1.2.3,0,.6.2,1,1,1s.2,0,.3.2c0,.2,0,.3-.3.3-1.1,0-1.5-.7-1.5-1.6ZM115,235.8h-1.3c0,0-.2-.1-.2-.2s0-.3.2-.3h1.2l-.2-.6c0-.1,0-.3.2-.3s.3,0,.3.2l.2.7h.8c0,0,.3.1.3.3s0,.2-.3.2h-.6l.2.9h.5c0,0,.2.1.2.3s0,.3-.2.3h-.4l.2.8c0,.2,0,.3-.2.3h-.5c0,0-.2-.1-.2-.2s0-.2.2-.2h.2l-.2-.7h-1.7c0,0-.3-.1-.3-.3s0-.3.3-.3h1.5l-.2-.9ZM116.4,234.8c0-.1,0-.2.2-.2s.2,0,.2.2v.3c0,.1,0,.2-.2.2s-.2,0-.2-.2v-.3ZM117.1,234.8c0-.1,0-.2.2-.2s.2,0,.2.2v.3c0,.1,0,.2-.2.2s-.2,0-.2-.2v-.3Z"/>
      <path class="st3" d="M119.5,236c0,0-.3-.1-.3-.2s0-.3.2-.3h3.4c0-.1.3,0,.3.1s0,.3-.2.3h-.6c-.7.8-1.4,1.7-1.4,2.4s.3.7,1,.7.2.1.2.3,0,.2-.3.2c-.9,0-1.5-.5-1.5-1.2s.5-1.5,1.2-2.3h-2.2.2Z"/>
      <path class="st3" d="M126.1,238.6v-.4c0-.1.2-.2.3-.2s.2.2.2.3v.2c0,.3.3.5,1.1.5s.6,0,1.1-.1c.1,0,.3,0,.3.2s0,.3-.2.3c-.4,0-.8.1-1.2,0-.4,0-1.5,0-1.6-1v.2ZM128.2,236.2l.2-.4h-1.9c0,0-.3-.1-.3-.3s0-.2.3-.2h2.2c.1,0,.3.1.3.2s0,.3-.2.5l-.2.4c0,.1-.2.2-.3.1-.1,0-.2-.2,0-.3h-.1Z"/>
      <path class="st3" d="M132,235.6c0-.1.1-.2.3-.2s.2.1.2.3c0,1-.1,1.8,0,2.8h.3c.1-.2.3,0,.3,0,0,0,0,.3-.2.3l-.6.2c-.2,0-.3,0-.3-.2-.1-.9,0-2.2,0-3.2h0ZM135.9,236.2h-.5v1.1c0,.8-.3,1.5-.9,2.5,0,.1-.2.2-.4,0-.1,0-.2-.2,0-.3.7-1,.8-1.6.9-2.3v-1.1h-1.3c-.1,0-.2-.1-.2-.2s.1-.3.2-.3h1.3c0-.2,0-.5-.1-.7,0-.1,0-.3.2-.3s.3,0,.3.2c0,.3,0,.5.1.8h.5c.1,0,.3.1.3.3s-.1.2-.3.2h-.1ZM135.8,234.8c0-.1,0-.2.2-.2s.2,0,.2.2v.3c0,.1,0,.2-.2.2s-.2,0-.2-.2v-.3ZM136.5,234.8c0-.1,0-.2.2-.2s.2,0,.2.2v.3c0,.1,0,.2-.2.2s-.2,0-.2-.2v-.3Z"/>
      <path class="st3" d="M140.8,237.5c-.2,0-.4,0-.8.2h-.5c-.2,0-.2-.2-.2-.3l.3-1.5h-.5c-.1,0-.3-.1-.3-.3s.1-.3.3-.3h.6v-.7c.1-.1.3-.2.4-.2s.2.2.2.3v.6c-.1,0,1,0,1,0,.1,0,.3.1.3.3s-.1.3-.3.3h-1.2l-.3,1.4c.3,0,.6-.2,1-.2s1.1.3,1,1.1c0,.6-.3,1.4-1.9,1.6-.1,0-.3,0-.3-.2s0-.3.2-.3c.9-.1,1.4-.5,1.5-1.1,0-.5-.1-.7-.5-.7h0Z"/>
      <path class="st3" d="M145.9,237.1h-.6c-.1,0-.2,0-.2-.2s0-.2.2-.2h.6v-.5c0-.1,0-.2.2-.3.1,0,.2,0,.3.2v.5h.9v-.6c0-.1.1-.2.2-.2s.2.1.2.2v.5c.7,0,1.1.2,1.1.8s-.5.9-.9,1c-.1,0-.3,0-.3-.1s0-.2.1-.3c.5-.2.6-.4.7-.6,0-.2-.1-.3-.5-.3s-.9,0-1.3.1l.5,2.5c0,.1,0,.2-.2.3-.1,0-.2,0-.3-.2l-.5-2.5h-.2Z"/>
      <path class="st3" d="M154.3,237.8c0-.3-.2-.6-.6-.6s-1.2,0-2.3.2c-.1,0-.2,0-.2-.2s0-.2.2-.2c1.1-.1,1.9-.2,2.3-.2.6,0,1.1.4,1.1,1s-.5,1.3-1.6,1.6c-.1,0-.2,0-.3-.1,0-.1,0-.2.1-.3,1.1-.3,1.4-.8,1.4-1.2h0Z"/>
      <path class="st3" d="M159.7,236h-1.2l-.7,3.4c0,.1-.2.2-.3.2s-.2-.2-.2-.3l.7-3.3h-.5c-.1,0-.2-.1-.2-.3s.1-.3.2-.3h.6v-.7c.2-.1.3-.2.4-.2s.2.2.2.3v.6c-.1,0,.9,0,.9,0,.1,0,.3.1.3.3s-.1.3-.3.3h.1ZM161.2,239.1c.1,0,.3,0,.3.2s0,.3-.2.3h-.7c-.6,0-1-.4-1-.9v-.2c0-.1.2-.2.3-.2s.2.2.2.3v.2c0,.2.2.3.5.3h.7-.1ZM160.7,237.1v-.2c.1,0-.7,0-.7,0-.1,0-.3-.1-.3-.2s.1-.3.3-.3h1.1c.1,0,.3.1.3.3s0,.3-.2.5v.2c-.2.1-.4.2-.5,0-.1,0-.1-.2,0-.3h0Z"/>
      <path class="st3" d="M163.8,235.6c0-.1.1-.2.3-.2s.2.1.2.3c0,1-.1,1.8,0,2.8h.3c.1-.2.3,0,.3,0,0,0,0,.3-.2.3l-.6.2c-.2,0-.3,0-.3-.2-.1-.9,0-2.2,0-3.2h0ZM167.7,236.2h-.5v1.1c0,.8-.3,1.5-.9,2.5,0,.1-.2.2-.4,0-.1,0-.2-.2,0-.3.7-1,.8-1.6.9-2.3v-1.1h-1.3c-.1,0-.3-.1-.3-.2s.1-.3.3-.3h1.3v-.7c0-.1,0-.3.2-.3s.3,0,.3.2c0,.3,0,.5.1.8h.5c.1,0,.3.1.3.3s-.1.2-.3.2h-.2Z"/>
      <path class="st3" d="M171.2,237.1l-.7-1.8c0-.1,0-.3.2-.3s.3,0,.3.2l.6,1.7c.1,0,.9-.7,1.2-1h.4v.4c-1.8,1.6-2.3,1.8-2.3,2.4s.4.7,1,.7h1.2c.1,0,.3,0,.3.2s0,.3-.2.3h-1.3c-1,0-1.4-.5-1.4-1.2s.3-.9.8-1.4v-.2ZM173.4,235.1c0-.1,0-.2.2-.2s.2,0,.2.2v.3c0,.1,0,.2-.2.2s-.2,0-.2-.2v-.3ZM174,235.1c0-.1,0-.2.2-.2s.2,0,.2.2v.3c0,.1,0,.2-.2.2s-.2,0-.2-.2v-.3Z"/>
      <path class="st3" d="M62.8,246.6h.4v.4l-.7.7h-.4v-.4l.7-.7ZM63.3,250.7l1.9-2.4c0-.1.3-.1.4,0s0,.3,0,.4l-1.9,2.4c0,.1-.3.1-.4,0,0,0,0-.3,0-.4ZM63.7,248.1h.2v-2.4c0-.1,0-.3.3-.3s.3.1.3.3v2.6c0,.2,0,.3-.3.3h-.4c-.2,0-.3-.1-.3-.3s0-.3.3-.3h-.1ZM66,247.7l-.7-.6c0,0,0-.3,0-.4,0-.1.3-.1.4,0l.7.6c0,.1,0,.3,0,.4,0,.1-.3.1-.4,0Z"/>
      <path class="st3" d="M69.7,249.3c0,.6.6,1,1.1,1s.7-.4,1.1-1.3c0-.2.2-.2.3-.2s.2.2,0,.4c-.3.8-.7,1.6-1.5,1.6s-1.7-.6-1.6-1.6c0-.9,0-2.1.2-3.1,0-.1,0-.2.3-.2s.2.1.2.3c0,1.4-.2,2.6-.2,3.2h0Z"/>
      <path class="st3" d="M78.2,250.7c0,.2,0,.3-.3.3h-1.9c-.2,0-.3-.2-.3-.4v-1.4c0-.2,0-.3.3-.3h.7v-.6h-1.8c0,0-.2-.1-.2-.3s0-.3.2-.3h1.8v-.6c0-.1,0-.3.3-.3s.3.1.3.3v.6h1.7c0,0,.2.1.2.3s0,.3-.2.3h-1.7v.6h.7c.2,0,.3.1.3.3v1.4h0ZM76,245.8v.2h1.7v-.2c0-.1,0-.2.3-.2s.2.1.2.2v.2h.6c0,0,.3.1.3.3s0,.3-.3.3h-.6v.2c0,.1,0,.3-.2.3s-.3-.1-.3-.3v-.2h-1.7v.2c0,.1,0,.3-.3.3s-.2-.1-.2-.3v-.2h-.5c0,0-.3-.1-.3-.3s0-.3.3-.3h.5v-.2c0-.1,0-.2.2-.2s.3.1.3.2ZM77.7,249.4h-1.6v1.1h1.6v-1.1Z"/>
      <path class="st3" d="M81.9,248.5c0-.1,0-.3,0-.5l1.8-2c0-.1.3-.1.4,0,0,0,0,.3,0,.4l-1.7,1.9,1.7,2.1v.4h-.4l-1.8-2.2h0Z"/>
      <path class="st3" d="M87.8,247.1c0,0-.3-.1-.3-.2s0-.3.2-.3h3.4c0-.1.3,0,.3.1s0,.3-.2.3h-.6c-.7.8-1.4,1.7-1.4,2.4s.3.7,1,.7.2.1.2.3,0,.2-.3.2c-.9,0-1.5-.5-1.5-1.2s.5-1.5,1.2-2.3h-2.2.2Z"/>
      <path class="st3" d="M93.9,249.8l.6.6v.3c0,.1-.2,0-.3,0l-.6-.6v-.3h.3Z"/>
      <path class="st3" d="M100.3,249.4c0-.5.4-.9,1.2-1.1v-1.4h-.6c0,0-.3-.1-.3-.3s0-.2.3-.2h.6v-.5c0-.1,0-.3.3-.3s.3.1.3.3v.5h.8c0,0,.2.1.2.2s0,.3-.2.3h-.8v1.3h.6c.9,0,1.6.3,1.6,1.2s-.4,1-.8,1.4c0,.1-.3.1-.4,0,0,0,0-.2,0-.3.4-.4.7-.7.7-1.1s-.2-.7-1.1-.7h-.6v.9c0,.8-.3,1.1-.8,1-.3,0-1-.6-1-1.3h0ZM101.3,250.2q.2,0,.2-.5v-.8c-.5.1-.8.3-.8.6s.4.7.6.8h0ZM104.5,247c0,.1,0,.3-.3.3s-.2-.1-.2-.3v-.5c0-.1,0-.3.2-.3s.3.1.3.3v.5Z"/>
      <path class="st3" d="M107.3,250.3c-.2,0-.3,0-.4-.2-.3-.9-.3-2.3,0-3.4,0-.1,0-.2.3-.2s.2.2.2.3c0,1-.2,2.1,0,2.9l.3-.2c0,0,.3,0,.3.1s0,.3,0,.3l-.6.3h0ZM110.3,249.1c0-.6-.3-1.1-.6-1.5,0-.1,0-.3,0-.3s.3,0,.3.1c.2.5.5,1,.6,1.6,0,.1,0,.3-.2.3s-.3,0-.3-.2h0Z"/>
      <path class="st3" d="M114.1,249.3c0,.6.6,1,1.1,1s.7-.4,1.1-1.3c0-.2.2-.2.3-.2s.2.2,0,.4c-.3.8-.7,1.6-1.5,1.6s-1.7-.6-1.6-1.6c0-.9,0-2.1.2-3.1,0-.1,0-.2.3-.2s.2.1.2.3c0,1.4-.2,2.6-.2,3.2h0Z"/>
      <path class="st3" d="M120,250.3c-.2,0-.3,0-.4-.2-.3-.9-.3-2.3,0-3.4,0-.1,0-.2.3-.2s.2.2.2.3c0,1-.2,2.1,0,2.9l.3-.2c0,0,.3,0,.3.1s0,.3,0,.3l-.6.3h0ZM123,249.1c0-.6-.3-1.1-.6-1.5,0-.1,0-.3,0-.3s.3,0,.3.1c.2.5.5,1,.6,1.6,0,.1,0,.3-.2.3s-.3,0-.3-.2h0Z"/>
      <path class="st3" d="M125.7,249.4c0-.5.4-.9,1.2-1.1v-1.4h-.6c0,0-.3-.1-.3-.3s0-.2.3-.2h.6v-.5c0-.1,0-.3.3-.3s.3.1.3.3v.5h.8c.1,0,.2.1.2.2s-.1.3-.2.3h-.8v1.3h.6c.9,0,1.6.3,1.6,1.2s-.4,1-.8,1.4c-.1.1-.3.1-.4,0-.1,0-.1-.2,0-.3.4-.4.7-.7.7-1.1s-.2-.7-1.1-.7h-.6v.9c0,.8-.3,1.1-.8,1-.3,0-1-.6-1-1.3h0ZM126.7,250.2q.2,0,.2-.5v-.8c-.5.1-.8.3-.8.6s.4.7.6.8h0ZM129.9,247c0,.1-.1.3-.3.3s-.2-.1-.2-.3v-.5c0-.1.1-.3.2-.3s.3.1.3.3v.5Z"/>
      <path class="st3" d="M132.4,249.7v-.4c0-.1.2-.2.3-.2s.2.2.2.3v.2c0,.3.3.5,1.1.5s.6,0,1.1-.1c.1,0,.3,0,.3.2s0,.3-.2.3c-.4,0-.8.1-1.2,0-.4,0-1.5,0-1.6-1v.2ZM134.6,247.3l.2-.4h-1.9c-.1,0-.3-.1-.3-.3s.1-.2.3-.2h2.2c.1,0,.3.1.3.2s0,.3-.2.5l-.2.4c0,.1-.2.2-.3.1-.1,0-.2-.2,0-.3h-.1Z"/>
      <path class="st3" d="M138.3,246.7c0-.1.1-.2.3-.2s.2.1.2.3c0,1-.1,1.8,0,2.8h.3c.1-.2.3,0,.3,0,0,0,0,.3-.2.3l-.6.2c-.2,0-.3,0-.3-.2-.1-.9,0-2.2,0-3.2h0ZM142.3,247.3h-.5v1.1c0,.8-.3,1.5-.9,2.5,0,.1-.2.2-.4,0-.1,0-.2-.2,0-.3.7-1,.8-1.6.9-2.3v-1.1h-1.3c-.1,0-.2-.1-.2-.2s.1-.3.2-.3h1.3c0-.2,0-.5-.1-.7,0-.1,0-.3.2-.3s.3,0,.3.2c0,.3,0,.5.1.8h.5c.1,0,.3.1.3.3s-.1.2-.3.2h-.1ZM142.1,245.9c0-.1,0-.2.2-.2s.2,0,.2.2v.3c0,.1,0,.2-.2.2s-.2,0-.2-.2v-.3ZM142.8,245.9c0-.1,0-.2.2-.2s.2,0,.2.2v.3c0,.1,0,.2-.2.2s-.2,0-.2-.2v-.3Z"/>
      <path class="st3" d="M148.5,248.8c.1,0,.3,0,.4.1.1,0,.2.2.2.3s-.2.2-.3.2c-.2,0-.3,0-.5-.1-.1.4-.3.8-.7,1.4,0,.1-.2.2-.4,0-.1,0-.2-.2,0-.3.3-.5.5-.8.6-1.2-.6-.1-1.1-.2-1.6-.2-.2.9-.5,1.4-.8,1.4s-.7-.3-.8-.9c0-.6.4-1,1.2-1,0,0,.2-1,.3-2h-.7c-.1,0-.3-.1-.3-.2s.1-.3.3-.3h.9c.2,0,.3.1.3.3v.2c0,.8-.2,1.5-.3,2.1.5,0,1,.1,1.6.2,0-.2,0-.4.1-.6,0-.1.1-.2.3-.2s.2.1.2.3c0,.3,0,.4-.1.6h.1ZM145.7,249c-.4,0-.6.2-.6.4s.1.4.2.4.3-.4.4-.9h0Z"/>
      <path class="st3" d="M153.4,247.1h-1.2l-.7,3.4c0,.1-.2.2-.3.2s-.2-.2-.2-.3l.7-3.3h-.5c-.1,0-.2-.1-.2-.3s.1-.3.2-.3h.6v-.7c.2-.1.3-.2.4-.2s.2.2.2.3v.6c-.1,0,.9,0,.9,0,.1,0,.3.1.3.3s-.1.3-.3.3h.1ZM154.9,250.2c.1,0,.3,0,.3.2s0,.3-.2.3h-.7c-.6,0-1-.4-1-.9v-.2c0-.1.2-.2.3-.2s.2.2.2.3v.2c0,.2.2.3.5.3h.7-.1ZM154.3,248.2v-.2c.1,0-.7,0-.7,0-.1,0-.3-.1-.3-.2s.1-.3.3-.3h1.1c.1,0,.3.1.3.3s0,.3-.2.5v.2c-.2.1-.4.2-.5,0-.1,0-.1-.2,0-.3h0Z"/>
      <path class="st3" d="M158,250.3c-.2,0-.3,0-.4-.2-.3-.9-.3-2.3-.1-3.4,0-.1.1-.2.3-.2s.2.2.2.3c-.1,1-.2,2.1,0,2.9l.3-.2c.1,0,.3,0,.3.1s0,.3-.1.3l-.6.3h.1ZM161,249.1c-.1-.6-.3-1.1-.6-1.5,0-.1,0-.3.1-.3s.3,0,.3.1c.2.5.5,1,.6,1.6,0,.1,0,.3-.2.3s-.3,0-.3-.2h0Z"/>
      <path class="st3" d="M163.9,250.5v-4.2c0-.1.1-.2.3-.2s.2.1.2.3c-.1,1.4-.1,2.8,0,3.8l.2-.2s.2-.1.3,0v.4l-.4.3c-.1,0-.2.2-.4.2s-.2,0-.3-.2v-.2ZM167.5,250.4h-.8c-.7,0-1.2-.3-1.2-1s0-.1,0-.2.1-.2.3-.2.2.2.2.3h0c0,.4.2.5.7.5h.7c.1,0,.3,0,.3.2s0,.3-.2.3h0ZM165.9,246.6h1.5c.2,0,.3.1.3.3s-.4.7-.4.7c0,.1-.2.1-.3,0-.1,0-.1-.2,0-.3v-.2c.1,0-1,0-1,0-.1,0-.3-.1-.3-.3s.1-.3.3-.3h-.1Z"/>
      <path class="st3" d="M171,250.1c0,.4-.3.7-.7.7s-.7-.3-.7-.7.3-.7.7-.7.7.3.7.7ZM170.7,250.1c0-.2-.2-.4-.4-.4s-.4.2-.4.4.2.4.4.4.4-.2.4-.4Z"/>
      <path class="st3" d="M62.2,271.4c0-.7.6-1.2,1.1-1.4v-1.2h-.4c0,0-.2-.1-.2-.3s0-.2.2-.2h.4v-.4c0-.1,0-.2.3-.2s.2.1.2.3v.3h1.1c0,0,.3.1.3.2s0,.3-.3.3h-1.2v1.1h1.1c0-.2.2-.3.3-.3s.2.2.2.3h0c.5.3.8.7.8,1.3s-.5,1.3-1.1,1.8h-.3v-.4c.5-.4.9-.8.9-1.4s-.2-.6-.5-.7c-.4,1-1.2,2.2-2,2.2s-1-.6-1-1.3h.1ZM63.3,272.2c.5,0,1.1-1,1.5-1.8h-.9v.8c0,.1,0,.3-.2.3s-.3,0-.3-.2v-.7c-.5.2-.6.5-.7.8,0,.4.2.9.5.8h0Z"/>
      <path class="st3" d="M72.1,270.5c0-.8-.7-1.4-1.5-1.4s-1.7.7-1.7,1.5.3,1,.5,1c.4,0,.8-.9.9-1.8,0-.1.2-.2.3-.2s.2.1.2.3c-.2,1.1-.7,2.2-1.4,2.2s-.9-.5-.9-1.5,1-2,2.2-2,2.1.6,2,1.9c0,.8-.4,1.5-1.3,2.3h-.4v-.3c.8-.7,1.1-1.3,1.1-1.9h0Z"/>
      <path class="st3" d="M78.4,268.1c.2,0,.3.1.3.3v4.2c0,.2,0,.3-.3.4-1.1.2-2.3.2-3.1,0-.2,0-.3-.2-.3-.4v-4.2c0-.2,0-.3.3-.3h3.1ZM78.2,268.6h-2.6v1.4h2.6v-1.4ZM78.2,272.4v-1.8h-2.6v1.8c.7.1,1.7.1,2.6,0Z"/>
      <path class="st3" d="M81.2,272l.6.6v.3c0,0-.2,0-.3,0l-.6-.6v-.3h.3Z"/>
      <path class="st3" d="M88.2,269.9c0,0-.3,0-.3-.2s0-.3.2-.3c.5-.1,1.6-.3,2-.3.7,0,1,.3,1,1.1,0,1.5-.6,2.3-1.6,3h-.4v-.3c1.1-.8,1.5-1.5,1.5-2.6s-.2-.6-.6-.6-1.3.2-1.8.3h0ZM89.8,268.6c0,.1,0,.3-.3.3s-.2-.1-.2-.3v-.7c0-.1,0-.3.2-.3s.3.1.3.3v.7Z"/>
      <path class="st3" d="M96.3,268.1v.6h.7c0,0,.2.1.2.3s0,.3-.2.3h-.7v.7h.7c0,0,.2.1.2.3s0,.2-.2.2h-.7v.9c.2,0,.5,0,.8.1,0,0,.2.2.2.3s-.2.2-.3.2h-.7v.5c0,.5-.2.9-.8.9s-1-.6-1-1.1.2-.7.9-.8h.4v-.8h-1.2c0,0-.2-.1-.2-.2s0-.3.2-.3h1.2v-.7h-1.2c0,0-.2-.1-.2-.3s0-.3.2-.3h1.2v-.6c0-.1,0-.2.3-.2s.3.1.3.2v-.2ZM95.8,271.7h-.4c-.2,0-.4,0-.4.3s.3.6.5.6.3-.1.3-.4v-.5Z"/>
      <path class="st3" d="M101,270.7c0-.1,0-.3,0-.5l1.8-2c0-.1.3-.1.4,0,0,0,0,.3,0,.4l-1.7,1.9,1.7,2.1v.4h-.4l-1.8-2.2h0Z"/>
      <path class="st3" d="M106.6,269.3c0,0-.3-.1-.3-.2s0-.3.2-.3h3.4c0-.1.3,0,.3.1s0,.3-.2.3h-.6c-.7.8-1.4,1.7-1.4,2.4s.3.7,1,.7.2.1.2.3,0,.2-.3.2c-.9,0-1.5-.5-1.5-1.2s.5-1.5,1.2-2.3h-2.2.2ZM109.8,269.9c0-.1,0-.2.2-.2s.2,0,.2.2v.3c0,.1,0,.2-.2.2s-.2,0-.2-.2v-.3ZM110.5,269.9c0-.1,0-.2.2-.2s.2,0,.2.2v.3c0,.1,0,.2-.2.2s-.2,0-.2-.2v-.3Z"/>
      <path class="st3" d="M113.3,271.7c0-.1,0-.3.3-.2,0,0,.2.1.2.3,0,.6.2,1,1,1s.2,0,.3.2c0,.2,0,.3-.3.3-1.1,0-1.5-.7-1.5-1.6h0ZM115,269.2h-1.3c0,0-.3-.1-.3-.2s0-.3.3-.3h1.2l-.2-.6c0-.1,0-.3.2-.3s.3,0,.3.2l.2.8h.8c0,0,.3.1.3.3s0,.2-.3.2h-.6l.2.9h.5c0,0,.3.1.3.3s0,.3-.3.3h-.4l.2.8c0,.2,0,.3-.2.3h-.5c0,0-.2-.1-.2-.2s0-.2.2-.2h.2l-.2-.7h-1.7c0,0-.2-.1-.2-.3s0-.3.2-.3h1.5l-.2-.9h0Z"/>
      <path class="st3" d="M119.3,271.1l.3-1.8h-.4c0,0-.2-.1-.2-.2s0-.3.2-.3h.4v-.6c0-.1.2-.2.4-.2s.2.1.2.3v.5h.6c0,0,.3.1.3.2s0,.3-.3.3h-.8l-.3,1.9c0,.1-.2.2-.3.2s-.2-.1-.2-.3h.1ZM122.4,271.3h.8c0,0,.2.1.2.3s0,.2-.3.2h-.7v.5c0,.6-.3.8-.7.8s-1-.5-1-1.1.3-.7.8-.7h.5v-1.1c0-.1,0-.3.2-.3s.3.1.3.3v1.1h-.1ZM121.9,271.7h-.4c-.3,0-.3.1-.4.2,0,.3.3.6.5.6s.2-.1.2-.9h.1ZM122.1,268.9h1c0,0,.3.1.3.3s0,.3-.3.3h-1c0,0-.2-.1-.2-.3s0-.3.2-.3Z"/>
      <path class="st3" d="M125.5,272.6c.6-1.2.8-1.9,1.1-2.8h-.7c0,0-.3,0-.3-.2s0-.3.2-.3h.8v-.8c0-.3,0-.3.2-.3s.3.1.3.2v.8h.8c.6,0,.9.3.9,1.1s0,1.7-.2,2.5c0,.2-.2.3-.4.3h-.4c0,0-.2-.2-.2-.3s0-.2.3-.2h.2c0-.5.2-1.4.1-2.3,0-.4-.1-.6-.4-.6h-.8c-.3,1-.6,1.7-1.2,3.1,0,.1-.2.2-.3.1,0,0-.2-.2,0-.3h0ZM129.3,268.5c.2.2.5.6.7.9v.4h-.4c-.2-.2-.5-.6-.7-.9v-.3h.4Z"/>
      <path class="st3" d="M135.3,271.2c0-.3-.2-.6-.6-.6s-1.2,0-2.3.2c-.1,0-.2,0-.2-.2s0-.2.2-.2c1.1-.1,1.9-.2,2.3-.2.6,0,1.1.4,1.1,1s-.5,1.3-1.6,1.6c-.1,0-.2,0-.3-.1,0-.1,0-.2.1-.3,1.1-.3,1.4-.8,1.4-1.2h0Z"/>
      <path class="st3" d="M140.7,269.3h-1.2l-.7,3.4c0,.1-.2.2-.3.2s-.2-.2-.2-.3l.7-3.3h-.5c-.1,0-.2-.1-.2-.3s.1-.3.2-.3h.6v-.7c.2-.1.3-.2.4-.2s.2.2.2.3v.6c-.1,0,.9,0,.9,0,.1,0,.3.1.3.3s-.1.3-.3.3h.1ZM142.2,272.4c.1,0,.3,0,.3.2s0,.3-.2.3h-.7c-.6,0-1-.4-1-.9v-.2c0-.1.2-.2.3-.2s.2.2.2.3v.2c0,.2.2.3.5.3h.7-.1ZM141.6,270.4v-.2c.1,0-.7,0-.7,0-.1,0-.3-.1-.3-.2s.1-.3.3-.3h1.1c.1,0,.3.1.3.3s0,.3-.2.5v.2c-.2.1-.4.2-.5,0-.1,0-.1-.2,0-.3h0Z"/>
      <path class="st3" d="M145.1,271.9v-.4c0-.1.2-.2.3-.2s.2.2.2.3v.2c0,.3.3.5,1.1.5s.6,0,1.1-.1c.1,0,.3,0,.3.2s0,.3-.2.3c-.4,0-.8.1-1.2,0-.4,0-1.5,0-1.6-1v.2ZM147.3,269.5l.2-.4h-1.9c-.1,0-.3-.1-.3-.3s.1-.2.3-.2h2.2c.1,0,.3.1.3.2s0,.3-.2.5l-.2.4c0,.1-.2.2-.3.1-.1,0-.2-.2,0-.3h-.1Z"/>
      <path class="st3" d="M152.4,270.3l-.7-1.8c0-.1,0-.3.2-.3s.3,0,.3.2l.6,1.7c.1,0,.8-.7,1.2-1h.4v.4c-1.8,1.6-2.3,1.8-2.3,2.4s.4.7,1,.7h1.2c.1,0,.3,0,.3.2s-.1.3-.2.3h-1.3c-1,0-1.4-.5-1.4-1.2s.3-.9.8-1.4v-.2Z"/>
      <path class="st3" d="M158.3,272.3c0,.4-.3.7-.7.7s-.7-.3-.7-.7.3-.7.7-.7.7.3.7.7ZM158,272.3c0-.2-.2-.4-.4-.4s-.4.2-.4.4.2.4.4.4.4-.2.4-.4Z"/>
      <path class="st3" d="M66.6,281.9c0,1-.5,1.5-1.7,1.9,0,0-.3,0-.4-.2,0-.2,0-.3.2-.3,1-.3,1.4-.8,1.4-1.4s-.2-1.3-1-1.3-1.1.6-1.7,1v2.2c0,.1,0,.2-.2.2s-.3-.1-.3-.2v-1.8c-.3.2-.5.4-.7.6h-.4v-.4l1-.8v-.6h-.5c0,0-.3-.1-.3-.2s0-.2.2-.3h.5v-1c0-.1,0-.2.3-.2s.2.1.2.2v1.7c1-.8,1.2-.9,1.7-.9,1.1,0,1.5.9,1.5,1.7h.2Z"/>
      <path class="st3" d="M71.2,280.4h.9c0,0,.3.1.3.2s0,.3-.3.3h-.7l.3,1.2c0,.2,0,.3-.2.3h-.6c0,0-.2-.1-.2-.2s0-.2.2-.2h.3l-.3-1.1h-2c0,0-.3-.1-.3-.3s0-.2.3-.2h1.9l-.2-1c0-.1,0-.3.2-.3s.3,0,.3.2l.3,1.1h-.2ZM69.2,282.5c0,.4,0,.6.2.8.2.2.4.3.8.3s.3.1.3.3,0,.3-.3.3c-.5,0-.9-.2-1.1-.5-.3-.3-.4-.7-.4-1.2s0-.2.3-.2.2.1.2.3h0ZM72,279.5c0-.1,0-.2.2-.2s.2,0,.2.2v.3c0,.1,0,.2-.2.2s-.2,0-.2-.2v-.3ZM72.7,279.5c0-.1,0-.2.2-.2s.2,0,.2.2v.3c0,.1,0,.2-.2.2s-.2,0-.2-.2v-.3Z"/>
      <path class="st3" d="M76.3,281.4l-.7-1.8c0-.1,0-.3.2-.3s.3,0,.3.2l.6,1.7c0,0,.8-.7,1.2-1h.4v.4c-1.8,1.6-2.3,1.8-2.3,2.4s.4.7,1,.7h1.2c0,0,.3,0,.3.2s0,.3-.2.3h-1.3c-1,0-1.4-.5-1.4-1.2s.3-.9.8-1.4v-.2Z"/>
      <path class="st3" d="M85.6,281.9c0,1-.5,1.5-1.7,1.9,0,0-.3,0-.4-.2,0-.2,0-.3.2-.3,1-.3,1.4-.8,1.4-1.4s-.2-1.3-1-1.3-1.1.6-1.7,1v2.2c0,.1,0,.2-.2.2s-.3-.1-.3-.2v-1.8c-.3.2-.5.4-.7.6h-.4v-.4l1-.8v-.6h-.5c0,0-.3-.1-.3-.2s0-.2.2-.3h.5v-1c0-.1,0-.2.3-.2s.2.1.2.2v1.7c1-.8,1.2-.9,1.7-.9,1.1,0,1.5.9,1.5,1.7h.2Z"/>
      <path class="st3" d="M89.7,280.4h-2.1c0,0-.2-.1-.2-.2s0-.3.2-.3h2.1v-.7c0-.2,0-.2.2-.2s.3.1.3.3v.7h1.2c0,0,.3.1.3.3s0,.2-.3.2h-1.2v1.7c0,.7-.2,1.4-.6,2.2,0,.1-.2.2-.4.1,0,0-.2-.2,0-.3.2-.4.4-.8.5-1.1h-.3c-.5,0-1-.4-.9-1.2,0-.5.3-.8.8-.8h.4v-.6h0ZM89.7,281.6s-.2-.1-.4-.1-.4.2-.3.5c0,.3.3.5.4.5.2,0,.4-.3.3-.9Z"/>
      <path class="st3" d="M98.1,283.3c0,0,.3,0,.3.1s0,.3,0,.4c-.3,0-.6.1-.9,0-.2,0-.3-.2-.3-.4v-3l-1.9,1.4v2.2c0,.1,0,.3-.2.3s-.3-.1-.3-.3v-1.8l-.6.4h-.4v-.3l.9-.7v-.6h-.5c0,0-.3-.1-.2-.3,0-.1,0-.3.3-.2h.5v-1c0-.1,0-.2.3-.2s.2.1.2.2v1.7l1.7-1.2c0,0,.2-.2.4-.2s.3.2.3.3v3.3h.5,0Z"/>
      <path class="st3" d="M103.7,282.3c0,0,.2.1.2.3s0,.2-.3.2c-.4,0-.8,0-1.1-.1v.6c0,.5-.2.9-.8.9s-1-.6-1-1.2.3-.8,1-.8h.3v-2.9c0-.5,0-.3.3-.3s.3.1.3.3v.8h1c0,0,.3.1.3.2s0,.3-.3.3h-1v1.6h1.2,0ZM102,283.3v-.6h-.3c-.4,0-.5.2-.5.3,0,.3.3.6.6.6s.3-.1.3-.4h0Z"/>
      <path class="st3" d="M107.2,281c0,0-.3,0-.3-.2s0-.3.2-.3c.5-.1,1.6-.3,2-.3.7,0,1,.3,1,1.1,0,1.5-.6,2.3-1.6,3h-.4v-.3c1.1-.8,1.5-1.5,1.5-2.6s-.2-.6-.6-.6-1.3.2-1.8.3h0ZM108.9,279.7c0,.1,0,.3-.3.3s-.2-.1-.2-.3v-.7c0-.1,0-.3.2-.3s.3.1.3.3v.7Z"/>
      <path class="st3" d="M114.4,281.4l-.7-1.8c0-.1,0-.3.2-.3s.3,0,.3.2l.6,1.7c0,0,.8-.7,1.2-1h.4v.4c-1.8,1.6-2.3,1.8-2.3,2.4s.4.7,1,.7h1.2c0,0,.3,0,.3.2s0,.3-.2.3h-1.3c-1,0-1.4-.5-1.4-1.2s.3-.9.8-1.4v-.2Z"/>
      <path class="st3" d="M119.3,283.1l.6.6v.3c0,0-.2,0-.3,0l-.6-.6v-.3h.3Z"/>
      <path class="st3" d="M126.8,282.6c0,.6.6,1,1.1,1s.7-.4,1.1-1.3c0-.2.2-.2.3-.2s.2.2.1.4c-.3.8-.7,1.6-1.5,1.6s-1.7-.6-1.6-1.6c0-.9,0-2.1.2-3.1,0-.1,0-.2.3-.2s.2.1.2.3c0,1.4-.2,2.6-.2,3.2h0Z"/>
      <path class="st3" d="M132.2,280.4c-.1,0-.3-.1-.3-.2s.1-.3.2-.3h3.4c.1-.1.3,0,.3.1s-.1.3-.2.3h-.6c-.7.8-1.4,1.7-1.4,2.4s.3.7,1,.7.2.1.2.3-.1.2-.3.2c-.9,0-1.5-.5-1.5-1.2s.5-1.5,1.2-2.3h-2.2.2Z"/>
      <path class="st3" d="M140.7,280.4h-1.2l-.7,3.4c0,.1-.2.2-.3.2s-.2-.2-.2-.3l.7-3.3h-.5c-.1,0-.2-.1-.2-.3s.1-.3.2-.3h.6v-.7c.2-.1.3-.2.4-.2s.2.2.2.3v.6c-.1,0,.9,0,.9,0,.1,0,.3.1.3.3s-.1.3-.3.3h.1ZM142.2,283.5c.1,0,.3,0,.3.2s0,.3-.2.3h-.7c-.6,0-1-.4-1-.9v-.2c0-.1.2-.2.3-.2s.2.2.2.3v.2c0,.2.2.3.5.3h.7-.1ZM141.6,281.5v-.2c.1,0-.7,0-.7,0-.1,0-.3-.1-.3-.2s.1-.3.3-.3h1.1c.1,0,.3.1.3.3s0,.3-.2.5v.2c-.2.1-.4.2-.5,0-.1,0-.1-.2,0-.3h0Z"/>
      <path class="st3" d="M145.1,283v-.4c0-.1.2-.2.3-.2s.2.2.2.3v.2c0,.3.3.5,1.1.5s.6,0,1.1-.1c.1,0,.3,0,.3.2s0,.3-.2.3c-.4,0-.8.1-1.2,0-.4,0-1.5,0-1.6-1v.2ZM147.3,280.6l.2-.4h-1.9c-.1,0-.3-.1-.3-.3s.1-.2.3-.2h2.2c.1,0,.3.1.3.2s0,.3-.2.5l-.2.4c0,.1-.2.2-.3.1-.1,0-.2-.2,0-.3h-.1Z"/>
      <path class="st3" d="M152.4,281.4l-.7-1.8c0-.1,0-.3.2-.3s.3,0,.3.2l.6,1.7c.1,0,.8-.7,1.2-1h.4v.4c-1.8,1.6-2.3,1.8-2.3,2.4s.4.7,1,.7h1.2c.1,0,.3,0,.3.2s-.1.3-.2.3h-1.3c-1,0-1.4-.5-1.4-1.2s.3-.9.8-1.4v-.2Z"/>
      <path class="st3" d="M158.3,283.4c0,.4-.3.7-.7.7s-.7-.3-.7-.7.3-.7.7-.7.7.3.7.7ZM158,283.4c0-.2-.2-.4-.4-.4s-.4.2-.4.4.2.4.4.4.4-.2.4-.4Z"/>
      <path class="st3" d="M62.4,292.9c0,0-.3-.1-.3-.2s0-.3.2-.3h1.1l1.5-2c0-.1.2-.1.4,0,0,0,0,.2,0,.3l-1.3,1.6h1.5c0,0,.3,0,.3.2s0,.3-.2.3h-.7c-.6.5-1.1,1.1-1.1,1.6s.6.5,1,.4c0,0,.3,0,.3.2s0,.3-.2.3c-.8,0-1.6-.2-1.6-1s.3-1,.9-1.5h-1.8ZM62.9,290.6c0-.1,0-.3.2-.3s.3.1.3.2v.7c0,.1,0,.3-.2.3s-.3-.1-.3-.3v-.7h0Z"/>
      <path class="st3" d="M72.7,294.4c0,0,.3,0,.3.1s0,.3,0,.4c-.3,0-.6.1-.9,0-.2,0-.3-.2-.3-.4v-3l-1.9,1.4v2.2c0,.1,0,.3-.2.3s-.3-.1-.3-.3v-1.8l-.6.4h-.4v-.3l.9-.7v-.6h-.5c0,0-.3-.1-.2-.3,0-.1,0-.3.3-.2h.5v-1c0-.1,0-.2.3-.2s.2.1.2.2v1.7l1.7-1.2c0,0,.2-.2.4-.2s.3.2.3.3v3.3h.5,0Z"/>
      <path class="st3" d="M76.1,292.9h-.4c0,0-.3-.1-.3-.2s0-.3.3-.3h.4c0-.3,0-.5,0-.7h-.5c0,0-.2-.1-.2-.2s0-.3.2-.3h.5c0-.2,0-.6,0-1,0-.1,0-.2.3-.2s.2.1.2.3c0,.3,0,.7,0,.9h.7c0,0,.3.1.3.3s0,.2-.3.2h-.7c0,.3,0,.5,0,.7h.9c0,0,.2.1.2.3s0,.2-.2.2h-.9v1.1c-.2.6.2.9.8.9s.6-.4.4-1.2c0-.2,0-.3.2-.3s.3,0,.3.2v.5c0,.9-.4,1.3-1,1.3s-1.5-.4-1.4-1.3c0-.3,0-.6,0-1.1h0Z"/>
      <path class="st3" d="M81.3,291.2h1.7v-1.1c0-.2,0-.3.3-.3s.3.1.3.3v1.1h1.8c0,0,.3.1.3.3s0,.3-.3.3h-1.8v.9l1.9,2.4h0c0,0,.3.1.3.3s0,.3-.3.3h0c-.2,0-.4,0-.5-.2l-1.7-2.2-1.8,2.3c0,.1-.3.1-.4,0,0,0,0-.3,0-.4l1.9-2.5v-.9h-1.7c-.2,0-.3-.1-.3-.3s0-.3.3-.3h0Z"/>
      <path class="st3" d="M87.4,293.4h2v-.3h-1.3c0,0-.2-.1-.2-.2s0-.3.2-.3h1.3v-.3h-.9c-.2,0-.3-.2-.3-.3v-.6c0-.2,0-.3.3-.3h.9v-.3h-1.4c0,0-.3-.1-.3-.3s0-.2.3-.2h1.4v-.3c0-.1,0-.3.2-.3s.3.1.3.3v.3h1.5c0,0,.3.1.3.2s0,.3-.3.3h-1.5v.3h.9c.2,0,.3.1.3.3v.6c0,.2,0,.3-.3.3h-.9v.3h1.2c.2,0,.3.1.3.3v.5h.6c0,0,.2.1.2.2s0,.3-.2.3h-.6v.5c0,.2,0,.3-.3.3h-1.2v.5c0,.2,0,.3-.3.3h-.3c0,0-.2-.1-.2-.2s0-.2.2-.2h.2v-.4h-1.3c0,0-.3-.1-.3-.3s0-.2.3-.2h1.3v-.3h-2c0,0-.3-.1-.3-.3s0-.2.3-.2h0ZM89.3,291.9v-.3h-.7v.3h.7ZM89.8,291.5v.3h.7v-.3h-.7ZM89.8,293.4h1v-.3h-1v.3ZM90.8,293.9h-1v.3h1v-.3Z"/>
      <path class="st3" d="M93.9,293.3l.3-1.8h-.4c0,0-.2-.1-.2-.2s0-.3.2-.3h.4v-.6c0-.1.2-.2.4-.2s.2.1.2.3v.5h.6c0,0,.3.1.3.2s0,.3-.3.3h-.8l-.3,1.9c0,.1-.2.2-.3.2s-.2-.1-.2-.3h.1ZM97,293.5h.8c0,0,.2.1.2.3s0,.2-.3.2h-.7v.5c0,.6-.3.8-.7.8s-1-.5-1-1.1.3-.7.8-.7h.5v-1.1c0-.1,0-.3.2-.3s.3.1.3.3v1.1h-.1ZM96.5,294h-.4c-.3,0-.3.1-.4.2,0,.3.3.6.5.6s.2-.1.2-.8h.1ZM96.7,291.1h1c0,0,.3.1.3.3s0,.3-.3.3h-1c0,0-.2-.1-.2-.3s0-.3.2-.3Z"/>
      <path class="st3" d="M100.2,294.2l.6.6v.3c0,0-.2,0-.3,0l-.6-.6v-.3h.3Z"/>
      <path class="st3" d="M111,293c0,1-.5,1.5-1.7,1.9,0,0-.3,0-.4-.2,0-.2,0-.3.2-.3,1-.3,1.4-.8,1.4-1.4s-.2-1.3-1-1.3-1.1.6-1.7,1v2.2c0,.1,0,.2-.2.2s-.3-.1-.3-.2v-1.8c-.3.2-.5.4-.7.6h-.4v-.4l1-.8v-.6h-.5c0,0-.3-.1-.3-.2s0-.2.2-.3h.5v-1c0-.1,0-.2.3-.2s.2.1.2.2v1.7c1-.8,1.2-.9,1.7-.9,1.1,0,1.5.9,1.5,1.7h.2Z"/>
      <path class="st3" d="M115.3,291.5h-1.2l-.7,3.4c0,.1-.2.2-.3.2s-.2-.2-.2-.3l.7-3.3h-.5c0,0-.2-.1-.2-.3s0-.3.2-.3h.6v-.7c.2-.1.3-.2.4-.2s.2.2.2.3v.6c0,0,.9,0,.9,0,0,0,.3.1.3.3s0,.3-.3.3h0ZM116.8,294.6c0,0,.3,0,.3.2s0,.3-.2.3h-.7c-.6,0-1-.4-1-.9v-.2c0-.1.2-.2.3-.2s.2.2.2.3v.2c0,.2.2.3.5.3h.7-.1ZM116.2,292.6v-.2c0,0-.7,0-.7,0,0,0-.3-.1-.3-.2s0-.3.3-.3h1.1c0,0,.3.1.3.3s0,.3-.2.5v.2c-.2.1-.4.2-.5,0,0,0,0-.2,0-.3Z"/>
      <path class="st3" d="M120.5,293.7c0,.6.6,1,1.1,1s.7-.4,1.1-1.3c0-.2.2-.2.3-.2s.2.2,0,.4c-.3.8-.7,1.6-1.5,1.6s-1.7-.6-1.6-1.6c0-.9,0-2.1.2-3.1,0-.1,0-.2.3-.2s.2.1.2.3c0,1.4-.2,2.6-.2,3.2h0Z"/>
      <path class="st3" d="M129.2,292.7c0-.8-.7-1.4-1.5-1.4s-1.7.7-1.7,1.5.3,1,.5,1c.4,0,.8-.9.9-1.8,0-.1.2-.2.3-.2s.2.1.2.3c-.2,1.1-.7,2.2-1.4,2.2s-.9-.5-.9-1.5,1-2,2.2-2,2.1.6,2,1.9c0,.8-.4,1.5-1.3,2.3h-.4v-.3c.8-.7,1.1-1.3,1.1-1.9h0Z"/>
      <path class="st3" d="M135.9,292.7h-3.8c-.1,0-.3-.1-.3-.3s.1-.3.3-.3h3.8c.1,0,.3.1.3.3s-.1.3-.3.3Z"/>
      <path class="st3" d="M138.1,292.3h2.3c.1,0,.3.1.3.3s-.1.3-.3.3h-2.3c-.1,0-.3-.1-.3-.3s.1-.3.3-.3ZM139.6,290.1v.4h.7c.1,0,.2.1.2.3s-.1.3-.2.3h-1.9c-.1,0-.3-.1-.3-.3s.1-.3.3-.3h.7v-.4c0-.1.1-.3.3-.3s.2.1.2.3ZM138.4,291.8v-.4c0-.1.1-.3.3-.3s.3.1.3.3v.4c0,.1-.1.2-.3.2s-.3-.1-.3-.2ZM138.7,295.3c-.2,0-.3-.2-.3-.4v-1.4c0-.2.1-.3.3-.3h1.3c.2,0,.3.1.3.3v1.5c0,.2-.1.3-.3.4h-1.3ZM139.8,293.7h-.9v1.1h.9v-1.1ZM139.7,291.8v-.4c0-.1.1-.3.3-.3s.2.1.2.3v.4c0,.1-.1.2-.2.2s-.3-.1-.3-.2ZM142.9,293.3c0,.2,0,.3-.1.4l-.6.3c-.1,0-.3,0-.3-.1s0-.3.1-.3l.4-.2-.5-1.1v-.6l.4-1h-.8v4.7c0,.1-.1.2-.3.2s-.3-.1-.3-.2v-4.8c0-.2.1-.3.3-.3h1.2c.2,0,.4.2.3.4l-.5,1.3.6,1.4h.1Z"/>
      <path class="st3" d="M145.6,294.5c0,.4-.3.7-.7.7s-.7-.3-.7-.7.3-.7.7-.7.7.3.7.7ZM145.3,294.5c0-.2-.2-.4-.4-.4s-.4.2-.4.4.2.4.4.4.4-.2.4-.4Z"/>
      <path class="st3" d="M66.6,315.2c0,1-.5,1.5-1.7,1.9,0,0-.3,0-.4-.2,0-.2,0-.3.2-.3,1-.3,1.4-.8,1.4-1.4s-.2-1.3-1-1.3-1.1.6-1.7,1v2.2c0,.1,0,.2-.2.2s-.3-.1-.3-.2v-1.8c-.3.2-.5.4-.7.6h-.4v-.4l1-.8v-.6h-.5c0,0-.3-.1-.3-.2s0-.2.2-.3h.5v-1c0-.1,0-.2.3-.2s.2.1.2.2v1.7c1-.8,1.2-.9,1.7-.9,1.1,0,1.5.9,1.5,1.7h.2Z"/>
      <path class="st3" d="M70.9,313.7h-1.2l-.7,3.4c0,.1-.2.2-.3.2s-.2-.2-.2-.3l.7-3.3h-.5c0,0-.2-.1-.2-.3s0-.3.2-.3h.6v-.7c.2-.1.3-.2.4-.2s.2.2.2.3v.6c0,0,.9,0,.9,0,0,0,.3.1.3.3s0,.3-.3.3h0ZM72.4,316.8c0,0,.3,0,.3.2s0,.3-.2.3h-.7c-.6,0-1-.4-1-.9v-.2c0-.1.2-.2.3-.2s.2.2.2.3v.2c0,.2.2.3.5.3h.7-.1ZM71.8,314.9v-.2c0,0-.7,0-.7,0,0,0-.3-.1-.3-.2s0-.3.3-.3h1.1c0,0,.3.1.3.3s0,.3-.2.5v.2c-.2.1-.4.2-.5,0,0,0,0-.2,0-.3Z"/>
      <path class="st3" d="M76,315.9c0,.6.6,1,1.1,1s.7-.4,1.1-1.3c0-.2.2-.2.3-.2s.2.2,0,.4c-.3.8-.7,1.6-1.5,1.6s-1.7-.6-1.6-1.6c0-.9,0-2.1.2-3.1,0-.1,0-.2.3-.2s.2.1.2.3c0,1.4-.2,2.6-.2,3.2h0Z"/>
      <path class="st3" d="M84.8,314.9c0-.8-.7-1.4-1.5-1.4s-1.7.7-1.7,1.5.3,1,.5,1c.4,0,.8-.9.9-1.8,0-.1.2-.2.3-.2s.2.1.2.3c-.2,1.1-.7,2.2-1.4,2.2s-.9-.5-.9-1.5,1-2,2.2-2,2.1.6,2,1.9c0,.8-.4,1.5-1.3,2.3h-.4v-.3c.8-.7,1.1-1.3,1.1-1.9h0Z"/>
      <path class="st3" d="M87.4,317.1c.6-1.2.8-1.9,1.1-2.8h-.7c0,0-.3,0-.3-.2s0-.3.2-.3h.8v-.8c0-.3,0-.3.2-.3s.3.1.3.2v.8h.8c.6,0,.9.3.9,1.1s0,1.7-.2,2.5c0,.2-.2.3-.4.3h-.4c0,0-.2-.2-.2-.3s0-.2.3-.2h.2c0-.5.2-1.4,0-2.3,0-.4,0-.6-.4-.6h-.8c-.3,1-.6,1.7-1.2,3.1,0,.1-.2.2-.3.1,0,0-.2-.2,0-.3h0ZM91.3,312.9c.2.2.5.6.7.9v.4h-.4c-.2-.2-.5-.6-.7-.9v-.3h.4Z"/>
      <path class="st3" d="M95.1,315.2c0,0-.2.1-.3.1s-.2,0-.2-.2v-2.5c0-.1,0-.2.3-.2s.2.1.2.3c0,.6-.2,1.3,0,2l.2-.2h.3v.3l-.4.2v.2ZM97.1,312.7c0,.9,0,1.6,0,2.2,0,.9-.5,1.6-1.4,2.5,0,.1-.3.1-.4,0,0,0,0-.3,0-.4.9-.9,1.3-1.5,1.3-2.3v-2.2c0-.1,0-.2.2-.3,0,0,.3,0,.3.2v.3Z"/>
      <path class="st3" d="M100.1,317.1c.6-1.2.8-1.9,1.1-2.8h-.7c0,0-.3,0-.3-.2s0-.3.2-.3h.8v-.8c0-.3,0-.3.2-.3s.3.1.3.2v.8h.8c.6,0,.9.3.9,1.1s0,1.7-.2,2.5c0,.2-.2.3-.4.3h-.4c0,0-.2-.2-.2-.3s0-.2.3-.2h.2c0-.5.2-1.4,0-2.3,0-.4,0-.6-.4-.6h-.8c-.3,1-.6,1.7-1.2,3.1,0,.1-.2.2-.3.1,0,0-.2-.2,0-.3h0ZM104,312.9c.2.2.5.6.7.9v.4h-.4c-.2-.2-.5-.6-.7-.9v-.3h.4Z"/>
      <path class="st3" d="M107.8,315.2c0,0-.2.1-.3.1s-.2,0-.2-.2v-2.5c0-.1,0-.2.3-.2s.2.1.2.3c0,.6-.2,1.3,0,2l.2-.2h.3v.3l-.4.2v.2ZM109.8,312.7c0,.9,0,1.6,0,2.2,0,.9-.5,1.6-1.4,2.5,0,.1-.3.1-.4,0,0,0,0-.3,0-.4.9-.9,1.3-1.5,1.3-2.3v-2.2c0-.1,0-.2.2-.3,0,0,.3,0,.3.2v.3Z"/>
      <path class="st3" d="M114.1,315.9c0,.6.6,1,1.1,1s.7-.4,1.1-1.3c0-.2.2-.2.3-.2s.2.2,0,.4c-.3.8-.7,1.6-1.5,1.6s-1.7-.6-1.6-1.6c0-.9,0-2.1.2-3.1,0-.1,0-.2.3-.2s.2.1.2.3c0,1.4-.2,2.6-.2,3.2h0Z"/>
      <path class="st3" d="M119.5,313.7c0,0-.3-.1-.3-.2s0-.3.2-.3h3.4c0-.1.3,0,.3.1s0,.3-.2.3h-.6c-.7.8-1.4,1.7-1.4,2.4s.3.7,1,.7.2.1.2.3,0,.2-.3.2c-.9,0-1.5-.5-1.5-1.2s.5-1.5,1.2-2.3h-2.2.2Z"/>
      <path class="st3" d="M129.2,315.8c0,1.2-.7,1.7-1.7,1.7s-1.1-.3-1-.9c0-.3.3-.5.6-.5.5,0,.8.2.8.6s0,.2,0,.3c.5,0,.8-.4.8-1.2s-.9-.5-2-.3l-.2.3c0,.1-.3.1-.4,0s0-.3,0-.4l1.8-2.2h-1.1c0,0-.3,0-.3-.2s0-.3.2-.3h1.6c.2,0,.3.2.2.3,0,.2-1.5,1.8-1.5,1.8,1.3-.3,2.1-.2,2.1,1h0ZM127.4,316.7c0-.1,0-.2-.2-.2s-.2,0-.2.1.2.3.4.3v-.2h0Z"/>
      <path class="st3" d="M133.4,314.7l-.7-1.8c0-.1,0-.3.2-.3s.3,0,.3.2l.6,1.7c.1,0,.8-.7,1.2-1h.4v.4c-1.8,1.6-2.3,1.8-2.3,2.4s.4.7,1,.7h1.2c.1,0,.3,0,.3.2s-.1.3-.2.3h-1.3c-1,0-1.4-.5-1.4-1.2s.3-.9.8-1.4v-.2Z"/>
      <path class="st3" d="M138.8,316.3v-.4c0-.1.2-.2.3-.2s.2.2.2.3v.2c0,.3.3.5,1.1.5s.6,0,1.1-.1c.1,0,.3,0,.3.2s0,.3-.2.3c-.4,0-.8.1-1.2,0-.4,0-1.5,0-1.6-1v.2ZM140.9,313.9l.2-.4h-1.9c-.1,0-.3-.1-.3-.3s.1-.2.3-.2h2.2c.1,0,.3.1.3.2s0,.3-.2.5l-.2.4c0,.1-.2.2-.3.1-.1,0-.2-.2,0-.3h-.1Z"/>
      <path class="st3" d="M145.6,316.7c0,.4-.3.7-.7.7s-.7-.3-.7-.7.3-.7.7-.7.7.3.7.7ZM145.3,316.7c0-.2-.2-.4-.4-.4s-.4.2-.4.4.2.4.4.4.4-.2.4-.4Z"/>
      <path class="st3" d="M66.6,326.3c0,1-.5,1.5-1.7,1.9,0,0-.3,0-.4-.2,0-.2,0-.3.2-.3,1-.3,1.4-.8,1.4-1.4s-.2-1.3-1-1.3-1.1.6-1.7,1v2.2c0,.1,0,.2-.2.2s-.3-.1-.3-.2v-1.8c-.3.2-.5.4-.7.6h-.4v-.4l1-.8v-.6h-.5c0,0-.3-.1-.3-.2s0-.2.2-.3h.5v-1c0-.1,0-.2.3-.2s.2.1.2.2v1.7c1-.8,1.2-.9,1.7-.9,1.1,0,1.5.9,1.5,1.7h.2Z"/>
      <path class="st3" d="M70.9,324.8h-1.2l-.7,3.4c0,.1-.2.2-.3.2s-.2-.2-.2-.3l.7-3.3h-.5c0,0-.2-.1-.2-.3s0-.3.2-.3h.6v-.7c.2-.1.3-.2.4-.2s.2.2.2.3v.6c0,0,.9,0,.9,0,0,0,.3.1.3.3s0,.3-.3.3h0ZM72.4,327.9c0,0,.3,0,.3.2s0,.3-.2.3h-.7c-.6,0-1-.4-1-.9v-.2c0-.1.2-.2.3-.2s.2.2.2.3v.2c0,.2.2.3.5.3h.7-.1ZM71.8,326v-.2c0,0-.7,0-.7,0,0,0-.3-.1-.3-.2s0-.3.3-.3h1.1c0,0,.3.1.3.3s0,.3-.2.5v.2c-.2.1-.4.2-.5,0,0,0,0-.2,0-.3Z"/>
      <path class="st3" d="M76,327c0,.6.6,1,1.1,1s.7-.4,1.1-1.3c0-.2.2-.2.3-.2s.2.2,0,.4c-.3.8-.7,1.6-1.5,1.6s-1.7-.6-1.6-1.6c0-.9,0-2.1.2-3.1,0-.1,0-.2.3-.2s.2.1.2.3c0,1.4-.2,2.6-.2,3.2h0Z"/>
      <path class="st3" d="M80.9,328.2c.6-1.3.8-1.9,1.1-2.8h-.7c0,0-.3,0-.3-.2s0-.3.2-.3h.8v-.8c0-.3,0-.3.2-.3s.3.1.3.2v.8h.8c.6,0,.9.3.9,1.1s0,1.7-.2,2.5c0,.2-.2.3-.4.3h-.4c0,0-.2-.2-.2-.3s0-.2.3-.2h.2c0-.5.2-1.4,0-2.3,0-.4,0-.6-.4-.6h-.8c-.3,1-.6,1.7-1.2,3.1,0,.1-.2.2-.3.1,0,0-.2-.2,0-.3h0ZM84.7,324.1c.2.2.5.6.7.9v.4h-.4c-.2-.2-.5-.6-.7-.9v-.3h.4ZM85,323.5c0-.1,0-.2.2-.2s.2,0,.2.2v.3c0,.1,0,.2-.2.2s-.2,0-.2-.2v-.3ZM85.7,323.5c0-.1,0-.2.2-.2s.2,0,.2.2v.3c0,.1,0,.2-.2.2s-.2,0-.2-.2v-.3Z"/>
      <path class="st3" d="M87.4,328v-3.7c0-.1,0-.2.3-.2s.2.1.2.3c0,1,0,2.4,0,3.3,0,0,0,0,.2-.1h.3c0,.1,0,.3,0,.3s-.2.1-.3.2c0,0-.2.1-.3.1-.2,0-.3-.1-.3-.2h0ZM91.6,326.8c0,0,.2.1.2.3s0,.2-.3.2h-.6v.6c0,.6-.3.8-.7.8s-1-.5-1-1.1.3-.7.8-.7h.4v-1.7h-1c0,0-.2-.1-.2-.3s0-.2.2-.2h1v-.6c0-.1,0-.3.3-.3s.3.1.3.3v.6h.5c0,0,.3.1.3.2s0,.3-.3.3h-.5v1.7h.7-.1ZM90.4,327.2h-.4c-.3,0-.4.1-.4.3,0,.3.4.6.5.6q.2,0,.2-.4v-.5h.1ZM92.3,323.7c0,.3-.2.5-.5.5s-.5-.2-.5-.5.2-.5.5-.5.5.2.5.5ZM92.1,323.7c0-.1,0-.3-.3-.3s-.3.1-.3.3,0,.3.3.3.3-.1.3-.3Z"/>
      <path class="st3" d="M95.1,326.3c0,0-.2.1-.3.1s-.2,0-.2-.2v-2.5c0-.1,0-.2.3-.2s.2.1.2.3c0,.6-.2,1.3,0,2l.2-.2h.3v.3l-.4.2v.2ZM97.1,323.8c0,.9,0,1.6,0,2.2,0,.9-.5,1.6-1.4,2.5,0,.1-.3.1-.4,0,0,0,0-.3,0-.4.9-.9,1.3-1.5,1.3-2.3v-2.2c0-.1,0-.2.2-.3,0,0,.3,0,.3.2v.3Z"/>
      <path class="st3" d="M100.1,328v-3.7c0-.1,0-.2.3-.2s.2.1.2.3c0,1,0,2.4,0,3.3,0,0,0,0,.2-.1h.3c0,.1,0,.3,0,.3s-.2.1-.3.2c0,0-.2.1-.3.1-.2,0-.3-.1-.3-.2h0ZM104.2,326.8c0,0,.2.1.2.3s0,.2-.3.2h-.6v.6c0,.6-.3.8-.7.8s-1-.5-1-1.1.3-.7.8-.7h.4v-1.7h-1c0,0-.2-.1-.2-.3s0-.2.2-.2h1v-.6c0-.1,0-.3.3-.3s.3.1.3.3v.6h.5c0,0,.3.1.3.2s0,.3-.3.3h-.5v1.7h.7-.1ZM103,327.2h-.4c-.3,0-.4.1-.4.3,0,.3.4.6.5.6q.2,0,.2-.4v-.5h.1ZM105,323.7c0,.3-.2.5-.5.5s-.5-.2-.5-.5.2-.5.5-.5.5.2.5.5ZM104.8,323.7c0-.1,0-.3-.3-.3s-.3.1-.3.3,0,.3.3.3.3-.1.3-.3Z"/>
      <path class="st3" d="M107.8,326.3c0,0-.2.1-.3.1s-.2,0-.2-.2v-2.5c0-.1,0-.2.3-.2s.2.1.2.3c0,.6-.2,1.3,0,2l.2-.2h.3v.3l-.4.2v.2ZM109.8,323.8c0,.9,0,1.6,0,2.2,0,.9-.5,1.6-1.4,2.5,0,.1-.3.1-.4,0,0,0,0-.3,0-.4.9-.9,1.3-1.5,1.3-2.3v-2.2c0-.1,0-.2.2-.3,0,0,.3,0,.3.2v.3Z"/>
      <path class="st3" d="M114.1,327c0,.6.6,1,1.1,1s.7-.4,1.1-1.3c0-.2.2-.2.3-.2s.2.2,0,.4c-.3.8-.7,1.6-1.5,1.6s-1.7-.6-1.6-1.6c0-.9,0-2.1.2-3.1,0-.1,0-.2.3-.2s.2.1.2.3c0,1.4-.2,2.6-.2,3.2h0Z"/>
      <path class="st3" d="M119.5,324.8c0,0-.3-.1-.3-.2s0-.3.2-.3h3.4c0-.1.3,0,.3.1s0,.3-.2.3h-.6c-.7.8-1.4,1.7-1.4,2.4s.3.7,1,.7.2.1.2.3,0,.2-.3.2c-.9,0-1.5-.5-1.5-1.2s.5-1.5,1.2-2.3h-2.2.2Z"/>
      <path class="st3" d="M128,324.8h-1.2l-.7,3.4c0,.1-.2.2-.3.2s-.2-.2-.2-.3l.7-3.3h-.5c0,0-.2-.1-.2-.3s0-.3.2-.3h.6v-.7c.2-.1.3-.2.4-.2s.2.2.2.3v.6c0,0,.9,0,.9,0,0,0,.3.1.3.3s-.1.3-.3.3h.1ZM129.5,327.9c.1,0,.3,0,.3.2s0,.3-.2.3h-.7c-.6,0-1-.4-1-.9v-.2c0-.1.2-.2.3-.2s.2.2.2.3v.2c0,.2.2.3.5.3h.7-.1ZM128.9,326v-.2c.1,0-.7,0-.7,0-.1,0-.3-.1-.3-.2s0-.3.3-.3h1.1c.1,0,.3.1.3.3s0,.3-.2.5v.2c-.2.1-.4.2-.5,0-.1,0-.1-.2,0-.3h0Z"/>
      <path class="st3" d="M132.4,327.4v-.4c0-.1.2-.2.3-.2s.2.2.2.3v.2c0,.3.3.5,1.1.5s.6,0,1.1-.1c.1,0,.3,0,.3.2s0,.3-.2.3c-.4,0-.8.1-1.2,0-.4,0-1.5,0-1.6-1v.2ZM134.6,325l.2-.4h-1.9c-.1,0-.3-.1-.3-.3s.1-.2.3-.2h2.2c.1,0,.3.1.3.2s0,.3-.2.5l-.2.4c0,.1-.2.2-.3.1-.1,0-.2-.2,0-.3h-.1Z"/>
      <path class="st3" d="M139.7,325.8l-.7-1.8c0-.1,0-.3.2-.3s.3,0,.3.2l.6,1.7c.1,0,.8-.7,1.2-1h.4v.4c-1.8,1.6-2.3,1.8-2.3,2.4s.4.7,1,.7h1.2c.1,0,.3,0,.3.2s-.1.3-.2.3h-1.3c-1,0-1.4-.5-1.4-1.2s.3-.9.8-1.4v-.2Z"/>
      <path class="st3" d="M145.6,327.9c0,.4-.3.7-.7.7s-.7-.3-.7-.7.3-.7.7-.7.7.3.7.7ZM145.3,327.9c0-.2-.2-.4-.4-.4s-.4.2-.4.4.2.4.4.4.4-.2.4-.4Z"/>
      <path class="st3" d="M64.6,345.6l1.8,1.3c0,0,0,.2,0,.3,0,.1-.2.1-.3,0-.5-.3-1.8-1.3-1.9-1.4h-.2c0,0-1.4,1-1.8,1.3h-.3v-.3l1.8-1.3c0-.1.3-.2.5-.2s.3,0,.5.2h0ZM64,350.4v-1.2h-.9c0,0-.3-.1-.3-.3s0-.2.3-.2h.9v-.9h-1c0,0-.3-.1-.3-.3s0-.3.3-.3h2.5c0,0,.2.1.2.3s0,.3-.2.3h-1v.9h.8c0,0,.3.1.3.2s0,.3-.3.3h-.8v1.2h1.5c0,0,.3.1.3.3s0,.3-.3.3h-3.5c0,0-.3-.1-.3-.3s0-.3.3-.3h1.6,0Z"/>
      <path class="st3" d="M68.3,347.8h2.3c0,0,.3.1.3.3s0,.3-.3.3h-2.3c0,0-.3-.1-.3-.3s0-.3.3-.3ZM69.8,345.6v.4h.7c0,0,.2.1.2.3s0,.3-.2.3h-1.9c0,0-.3-.1-.3-.3s0-.3.3-.3h.7v-.4c0-.1,0-.3.3-.3s.2.1.2.3ZM68.6,347.3v-.4c0-.1,0-.3.3-.3s.3.1.3.3v.4c0,.1,0,.2-.3.2s-.3-.1-.3-.2ZM68.9,350.9c-.2,0-.3-.2-.3-.4v-1.4c0-.2,0-.3.3-.3h1.3c.2,0,.3.1.3.3v1.5c0,.2,0,.3-.3.4h-1.3ZM70,349.2h-.9v1.1h.9v-1.1ZM69.9,347.3v-.4c0-.1,0-.3.3-.3s.2.1.2.3v.4c0,.1,0,.2-.2.2s-.3-.1-.3-.2ZM73.1,348.8c0,.2,0,.3,0,.4l-.6.3c0,0-.3,0-.3-.1s0-.3,0-.3l.4-.2-.5-1.1v-.6l.4-1h-.8v4.7c0,.1,0,.2-.3.2s-.3-.1-.3-.2v-4.8c0-.2,0-.3.3-.3h1.2c.2,0,.4.2.3.4l-.5,1.3.6,1.4h.1Z"/>
      <path class="st3" d="M75.6,347.8h-.8c0,0-.3-.1-.3-.3s0-.3.3-.3h.8v-1.1c0-.1,0-.3.3-.3s.3.1.3.3v1.1h1.4v-1.1c0-.1,0-.2.3-.2s.2.1.2.2v1.1h.7c0,0,.3.1.3.3s0,.2-.3.2h-.7v.8c0,.1,0,.3-.2.3s-.3-.1-.3-.3v-.8h-1.4v2.3c.5.2,1.3.2,1.9,0,0,0,.3,0,.3.2s0,.3-.2.3c-.8.2-1.6.1-2.2,0-.2,0-.3-.2-.3-.4v-2.4h-.1ZM78.5,346.2c0-.1,0-.2.2-.2s.2,0,.2.2v.3c0,.1,0,.2-.2.2s-.2,0-.2-.2v-.3ZM79.2,346.2c0-.1,0-.2.2-.2s.2,0,.2.2v.3c0,.1,0,.2-.2.2s-.2,0-.2-.2v-.3Z"/>
      <path class="st3" d="M81.4,350.2l2.2-2.9h-1.7c0,0-.2,0-.2-.2s0-.2.2-.2h2.3c.2,0,.3,0,.3.2s0,.3-.2.3l-1.3,1.7h.3c.2-.1.3,0,.3.2v1.1h1.3c0,0,.3,0,.3.2s0,.3-.2.3h-1.5c-.2,0-.3-.2-.3-.4v-1h-.5l-.8,1c0,.1-.2.1-.4,0,0,0,0-.2,0-.3h-.1ZM83.5,346.3c0,.1,0,.3-.3.3s-.3-.1-.3-.3v-.5c0-.1,0-.2.3-.2s.3.1.3.2v.5Z"/>
      <path class="st3" d="M91.4,349.7s.2-.1.3,0c0,.1,0,.3,0,.4-.4.4-.7.5-1.1.6-.6,0-1.1-1.5-1.4-1.5s-.5.2-.8.5l-.3.7c0,.1-.2.2-.3.1,0,0-.2-.2,0-.3l1.9-4.3c0-.1.2-.2.3-.1s.2.2,0,.3l-1.2,2.7c0-.1.3-.2.4-.2.6,0,1.1,1.5,1.4,1.5s.6-.2.8-.5h0Z"/>
      <path class="st3" d="M94.1,350.2c0,.1-.2.1-.4,0,0,0,0-.2,0-.3l.6-.7c0-.1.2-.1.4,0,0,0,0,.2,0,.4l-.6.7h0ZM96.7,346.8l-.5.6c0,.1-.3.1-.4,0,0,0,0-.3,0-.4l.5-.5-1.2-.2c0,0-.2-.2-.2-.3s.2-.2.3-.2l1.5.2c0,0,.2.1.2.3s0,.2-.2.4h0ZM96.2,349.8c0-.4-.3-.9-.6-1.4v-.3h.3c.4.7.6,1.2.6,1.6,0,.7-.4,1-.8,1s-.5,0-.7-.1c0,0-.2-.2,0-.3,0-.1.2-.2.3-.1h.4c.3,0,.4-.1.4-.4h.2ZM97.1,347.5c0-.1,0-.2.2-.2s.2,0,.2.2v.3c0,.1,0,.2-.2.2s-.2,0-.2-.2v-.3ZM97.8,349.1l.5.6v.4h-.4l-.5-.6v-.4h.4ZM97.8,347.5c0-.1,0-.2.2-.2s.2,0,.2.2v.3c0,.1,0,.2-.2.2s-.2,0-.2-.2v-.3Z"/>
      <path class="st3" d="M100.2,349.7l.6.6v.3c0,0-.2,0-.3,0l-.6-.6v-.3h.3Z"/>
      <path class="st3" d="M62.9,361.3c-.2,0-.3,0-.4-.2-.3-.9-.3-2.3,0-3.4,0-.1,0-.2.3-.2s.2.2.2.3c0,1-.2,2.1,0,2.9l.3-.2c0,0,.3,0,.3.1s0,.3,0,.3l-.6.3h0ZM65.9,360.1c0-.6-.3-1.1-.6-1.5,0-.1,0-.3,0-.3s.3,0,.3.1c.2.5.5,1,.6,1.6,0,.1,0,.3-.2.3s-.3,0-.3-.2h0Z"/>
      <path class="st3" d="M70.9,358.2h-1.2l-.7,3.4c0,.1-.2.2-.3.2s-.2-.2-.2-.3l.7-3.3h-.5c0,0-.2-.1-.2-.3s0-.3.2-.3h.6v-.7c.2-.1.3-.2.4-.2s.2.2.2.3v.6c0,0,.9,0,.9,0,0,0,.3.1.3.3s0,.3-.3.3h0ZM72.4,361.2c0,0,.3,0,.3.2s0,.3-.2.3h-.7c-.6,0-1-.4-1-.9v-.2c0-.1.2-.2.3-.2s.2.2.2.3v.2c0,.2.2.3.5.3h.7-.1ZM71.8,359.3v-.2c0,0-.7,0-.7,0,0,0-.3-.1-.3-.2s0-.3.3-.3h1.1c0,0,.3.1.3.3s0,.3-.2.5v.2c-.2.1-.4.2-.5,0,0,0,0-.2,0-.3Z"/>
      <path class="st3" d="M77.2,358.2h-1.2l-.7,3.4c0,.1-.2.2-.3.2s-.2-.2-.2-.3l.7-3.3h-.5c0,0-.2-.1-.2-.3s0-.3.2-.3h.6v-.7c.2-.1.3-.2.4-.2s.2.2.2.3v.6c0,0,.9,0,.9,0,0,0,.3.1.3.3s0,.3-.3.3h0ZM78.7,361.2c0,0,.3,0,.3.2s0,.3-.2.3h-.7c-.6,0-1-.4-1-.9v-.2c0-.1.2-.2.3-.2s.2.2.2.3v.2c0,.2.2.3.5.3h.7-.1ZM78.2,359.3v-.2c0,0-.7,0-.7,0,0,0-.3-.1-.3-.2s0-.3.3-.3h1.1c0,0,.3.1.3.3s0,.3-.2.5v.2c-.2.1-.4.2-.5,0,0,0,0-.2,0-.3ZM78.1,357.4c0-.1,0-.2.2-.2s.2,0,.2.2v.3c0,.1,0,.2-.2.2s-.2,0-.2-.2v-.3ZM78.8,357.4c0-.1,0-.2.2-.2s.2,0,.2.2v.3c0,.1,0,.2-.2.2s-.2,0-.2-.2v-.3Z"/>
      <path class="st3" d="M81.6,360.5c0-.1,0-.3.3-.2,0,0,.2.1.2.3,0,.6.2,1,1,1s.2,0,.3.2c0,.2,0,.3-.3.3-1.1,0-1.5-.7-1.5-1.6h0ZM83.3,358h-1.3c0,0-.3-.1-.3-.2s0-.3.3-.3h1.2l-.2-.6c0-.1,0-.3.2-.3s.3,0,.3.2l.2.7h.8c0,0,.3.1.3.3s0,.2-.3.2h-.6l.2.9h.5c0,0,.3.1.3.3s0,.3-.3.3h-.4l.2.8c0,.2,0,.3-.2.3h-.5c0,0-.2-.1-.2-.2s0-.2.2-.2h.2l-.2-.7h-1.7c0,0-.2-.1-.2-.3s0-.3.2-.3h1.5l-.2-.9h0Z"/>
      <path class="st3" d="M90,356.9v.6h.7c0,0,.2.1.2.3s0,.3-.2.3h-.7v.7h.7c0,0,.2.1.2.3s0,.2-.2.2h-.7v.9c.2,0,.5,0,.8.1,0,0,.2.2.2.3s-.2.2-.3.2h-.7v.5c0,.5-.2.9-.8.9s-1-.6-1-1.1.2-.7.9-.8h.4v-.8h-1.2c0,0-.2-.1-.2-.2s0-.3.2-.3h1.2v-.7h-1.2c0,0-.2-.1-.2-.3s0-.3.2-.3h1.2v-.6c0-.1,0-.2.3-.2s.3.1.3.2v-.2ZM89.5,360.5h-.4c-.2,0-.4,0-.4.3s.3.6.5.6.3-.1.3-.4v-.5Z"/>
      <path class="st3" d="M96,358.1h-2.1c0,0-.2-.1-.2-.2s0-.3.2-.3h2.1v-.7c0-.2,0-.2.2-.2s.3.1.3.3v.7h1.2c0,0,.3.1.3.3s0,.2-.3.2h-1.2v1.7c0,.7-.2,1.4-.6,2.2,0,.1-.2.2-.4.1,0,0-.2-.2,0-.3.2-.4.4-.8.5-1.1h-.3c-.5,0-1-.4-.9-1.2,0-.5.3-.8.8-.8h.4v-.6h0ZM96,359.3s-.2-.1-.4-.1-.4.2-.3.5c0,.3.3.5.4.5.2,0,.4-.3.3-.9Z"/>
      <path class="st3" d="M101.2,361.2c0,.4-.3.7-.7.7s-.7-.3-.7-.7.3-.7.7-.7.7.3.7.7ZM100.9,361.2c0-.2-.2-.4-.4-.4s-.4.2-.4.4.2.4.4.4.4-.2.4-.4Z"/>
    </g>
  </g>
  <line class="st1" x1="-9.9" y1="161.9" x2="44.4" y2="161.9"/>
  <line class="st1" x1="-9.9" y1="433.4" x2="44.4" y2="433.4"/>
  <image class="st0" width="1026" height="724" transform="translate(315.2 194.8) scale(.2)" xlink:href="basi-1.png"/>
  <image class="st0" width="625" height="619" transform="translate(687 266.4) scale(.2)" xlink:href="basi-2.png"/>
  <g>
    <path class="st3" d="M297.8,281.4h0c-.2,0-.4,0-.6-.3l-1.8-2.1v1.7h.6c.2,0,.3.1.3.3s-.1.3-.3.3h-.6v1.4c0,.2-.1.3-.3.3s-.3-.1-.3-.3v-1.4h-.6c-.2,0-.3-.1-.3-.3s.1-.3.3-.3h.6v-1.7l-1.9,2.3c0,.1-.3.1-.4,0-.1,0-.1-.3,0-.4l2.1-2.5h-1.6c-.2,0-.3-.1-.3-.3s.1-.3.3-.3h1.9v-1.1c0-.2.1-.3.3-.3s.3.1.3.3v1.1h1.9c.2,0,.3.1.3.3s-.1.3-.3.3h-1.6l2,2.3h.1c.2,0,.3.1.3.3s-.1.3-.3.3h-.1Z"/>
    <path class="st3" d="M303.9,277.2c.2,0,.4.2.4.4v4.6c0,.2-.1.4-.4.4-1.2.2-2.5.2-3.4,0-.2,0-.4-.2-.4-.4v-4.6c0-.2.2-.4.4-.4h3.4ZM303.7,277.8h-2.9v1.6h2.9v-1.6ZM303.7,282v-2h-2.9v2c.8.1,1.9.1,2.9,0Z"/>
    <path class="st3" d="M311,279.8c0-.9-.7-1.5-1.7-1.5s-1.9.8-1.9,1.7.3,1.1.5,1.1c.4,0,.8-1,1-2,0-.1.2-.3.3-.2.1,0,.3.2.2.3-.2,1.2-.8,2.5-1.6,2.5s-1-.6-1-1.7,1.1-2.2,2.4-2.2,2.3.7,2.3,2.1-.5,1.7-1.4,2.5c-.1.1-.3.1-.4,0s-.1-.3,0-.4c.9-.8,1.3-1.5,1.3-2.1h0Z"/>
    <path class="st3" d="M314.1,281.1c0-.5.5-1,1.4-1.2v-1.5h-.6c-.2,0-.3-.1-.3-.3s.1-.3.3-.3h.6v-.5c0-.2.1-.3.3-.3s.3.1.3.3v.5h.8c.2,0,.3.1.3.3s-.1.3-.3.3h-.8v1.4h.6c1,0,1.8.4,1.8,1.3s-.4,1.1-.9,1.6-.3.1-.4,0c-.1,0-.1-.3,0-.4.4-.4.8-.8.7-1.2,0-.3-.3-.8-1.2-.8h-.7v1c0,.9-.3,1.2-.8,1.1-.3,0-1.1-.7-1.1-1.4h0ZM315.3,282q.2,0,.2-.6v-.9c-.5.1-.8.4-.8.6,0,.3.4.8.6.9h0ZM318.8,278.4c0,.2-.1.3-.3.3s-.3-.1-.3-.3v-.6c0-.2.1-.3.3-.3s.3.1.3.3v.6Z"/>
    <path class="st3" d="M321.7,281.4v-.5c0-.1.2-.3.4-.2.1,0,.2.2.2.4v.3c0,.3.3.5,1.2.5s.7,0,1.2-.1c.1,0,.3,0,.3.2s-.1.3-.3.3c-.4,0-.9.1-1.3.1s-1.7,0-1.8-1.1h0ZM324,278.7l.2-.4h-2.1c-.2,0-.3-.1-.3-.3s.1-.3.3-.3h2.5c.2,0,.3.1.3.3s0,.3-.2.5l-.2.4c0,.1-.2.2-.4.1-.1,0-.2-.2-.1-.4h0Z"/>
    <path class="st3" d="M328.2,278.1c0-.2.1-.3.3-.3s.3.1.3.3c0,1.1-.1,2.1,0,3.2h.4c.1-.2.3-.1.3,0s0,.3-.2.3l-.6.2c-.2,0-.4,0-.4-.2-.1-1-.1-2.4,0-3.6h0ZM332.6,278.8h-.5v1.2c0,.9-.3,1.7-1,2.8,0,.1-.3.2-.4,0-.1,0-.2-.2,0-.4.7-1.2.9-1.8,1-2.5v-1.2h-1.5c-.2,0-.3-.1-.3-.3s.1-.3.3-.3h1.4c0-.2,0-.5-.1-.8,0-.2,0-.3.2-.3s.3,0,.3.2c0,.3,0,.6.1.9h.6c.2,0,.3.1.3.3s-.1.3-.3.3h-.1ZM332.4,277.3c0-.1,0-.2.2-.2s.2,0,.2.2v.3c0,.1,0,.2-.2.2s-.2,0-.2-.2v-.3ZM333.2,277.3c0-.1,0-.2.2-.2s.2,0,.2.2v.3c0,.1,0,.2-.2.2s-.2,0-.2-.2v-.3Z"/>
  </g>
  <g>
    <path class="st3" d="M597.6,317h-3.4c0,0-.2-.1-.2-.2s0-.2.2-.2h3.4c0,0,.2.1.2.2s0,.2-.2.2Z"/>
    <path class="st3" d="M603.3,315.8h-3.4c0,0-.2-.1-.2-.2s0-.2.2-.2h3.4c0,0,.2.1.2.2s0,.2-.2.2ZM600.4,318.1c0-.2,0-.3.3-.3h1.7c.2,0,.3.1.3.3v.9c0,.2,0,.3-.3.3h-1.7c-.2,0-.3-.2-.3-.3v-.9ZM602.3,316.6h-1.5c0,0-.2-.1-.2-.2s0-.2.2-.2h1.5c0,0,.2.1.2.2s0,.2-.2.2ZM600.8,317h1.5c0,0,.2.1.2.2s0,.2-.2.2h-1.5c0,0-.2-.1-.2-.2s0-.2.2-.2ZM600.9,318.3v.6h1.3v-.6h-1.3ZM601.8,314.6v.4c0,.1,0,.2-.2.2s-.2-.1-.2-.2v-.4c0-.1,0-.2.2-.2s.2,0,.2.2Z"/>
  </g>
  <g>
    <path class="st3" d="M766.7,227.9c0,1.8-1,2.9-3.2,3.6-.3,0-.6,0-.7-.3,0-.3,0-.5.3-.6,2-.6,2.6-1.5,2.6-2.7s-.3-2.4-1.8-2.4-2.2,1.2-3.2,2v4.2c0,.3-.2.5-.5.5s-.5-.2-.5-.5v-3.5c-.5.4-1,.8-1.4,1.1-.2.2-.5.1-.7,0-.2-.2,0-.5,0-.7l2-1.5v-1.1h-1c-.3,0-.5-.2-.5-.5s.2-.5.5-.5h1v-1.8c0-.3.2-.5.5-.5s.5.2.5.5v3.2c1.9-1.5,2.4-1.7,3.2-1.7,2,0,2.8,1.6,2.8,3.3h.1Z"/>
    <path class="st3" d="M762.8,239h-2.2l-1.4,6.4c0,.3-.3.4-.6.4s-.4-.3-.4-.6l1.3-6.2h-.9c-.3,0-.5-.2-.5-.5s.2-.5.5-.5h1.1l.3-1.3c0-.3.3-.4.6-.4s.4.3.4.6l-.2,1.1h2c.3,0,.5.2.5.5s-.2.5-.5.5h0ZM765.6,244.8c.3,0,.5.1.5.4s-.2.5-.4.6h-1.4c-1.2,0-1.9-.7-1.9-1.7v-.4c0-.2.3-.4.6-.4s.4.3.3.6v.4c0,.5.4.6,1,.6h1.3ZM764.6,241.1l.2-.3h-1.5c-.3,0-.5-.2-.5-.5s.2-.5.5-.5h2.1c.3,0,.6.2.6.5s-.2.5-.4.9l-.2.4c0,.2-.5.3-.7.2s-.3-.4,0-.7h0Z"/>
    <path class="st3" d="M760.5,257c0,1.1,1.1,1.9,2.1,1.9s1.4-.8,2-2.5c0-.3.4-.4.6-.3.2.1.4.4.3.7-.6,1.5-1.4,3-2.9,3s-3.1-1.1-3-3.1c0-1.7.2-4,.3-5.9,0-.3.2-.5.5-.5s.5.2.4.5c-.2,2.7-.3,5-.3,6.1h0Z"/>
    <path class="st3" d="M765.1,268.9c0-1.6-1.3-2.6-2.9-2.6s-3.3,1.3-3.3,2.9.5,1.9.9,1.9c.7,0,1.4-1.8,1.7-3.4,0-.3.3-.4.6-.4s.4.3.4.5c-.3,2-1.3,4.2-2.7,4.3-.7,0-1.8-1-1.7-2.9,0-2.2,1.8-3.8,4.1-3.8s3.9,1.2,3.9,3.5-.8,2.8-2.4,4.3c-.2.2-.5.2-.7,0s-.2-.5,0-.7c1.5-1.4,2.1-2.5,2.2-3.7h0Z"/>
    <path class="st3" d="M758.4,285c0-.9.8-1.6,2.4-2v-2.6h-1.1c-.3,0-.5-.2-.5-.5s.2-.5.5-.5h1.1v-.9c0-.3.2-.5.5-.5s.5.2.5.5v.9h1.4c.3,0,.5.2.5.5s-.2.5-.5.5h-1.4v2.4h1.1c1.8,0,3.1.6,3.1,2.2s-.7,1.9-1.5,2.7c-.2.2-.5.2-.7,0s-.2-.5,0-.7c.7-.7,1.3-1.3,1.3-2s-.4-1.3-2.1-1.3h-1.1v1.7c0,1.5-.6,2-1.4,2s-1.9-1.1-1.9-2.5h-.2ZM760.4,286.5c.3,0,.4-.2.4-1v-1.6c-.9.2-1.4.6-1.4,1,0,.6.7,1.4,1.1,1.5h0ZM766.4,280.4c0,.3-.2.5-.5.5s-.5-.2-.5-.5v-1c0-.3.2-.5.5-.5s.5.2.5.5v1Z"/>
    <path class="st3" d="M759.2,299.4v-.8c0-.3.4-.4.6-.3.3,0,.3.3.3.6v.5c0,.6.5.9,2.1.9s1.2,0,2.1-.2c.2,0,.5,0,.5.4s-.2.5-.4.6c-.8.1-1.6.2-2.2.2s-2.9-.1-3-1.8h0ZM763.3,294.8l.4-.7h-3.7c-.3,0-.5-.2-.5-.5s.2-.5.5-.5h4.3c.3,0,.5.2.5.5s0,.5-.3.9l-.4.7c0,.2-.4.3-.7.2-.2-.1-.3-.4-.2-.6h.1Z"/>
    <path class="st3" d="M758.3,307.6c0-.3.3-.5.5-.4.3,0,.5.2.4.5-.2,1.9-.2,3.5,0,5.4l.6-.2c.2,0,.5,0,.6.3,0,.2,0,.5-.3.6l-1.1.4c-.3,0-.6-.1-.7-.4-.2-1.8-.2-4.2,0-6.1h0ZM765.8,308.8h-.9v2.1c0,1.6-.5,2.9-1.8,4.7-.2.2-.4.3-.7.2-.2-.1-.3-.4-.2-.6,1.3-2,1.6-3.1,1.7-4.3v-2h-2.5c-.3,0-.5-.2-.5-.5s.2-.5.5-.5h2.4c0-.4,0-.9-.2-1.4,0-.3,0-.5.4-.5s.5.1.6.4c0,.5.2,1,.2,1.5h1c.3,0,.5.2.5.5s-.2.5-.5.5h0ZM765.5,306.2c0-.2.2-.4.4-.4s.4.2.4.4v.5c0,.2-.2.4-.4.4s-.4-.2-.4-.4v-.5ZM766.8,306.2c0-.2.2-.4.4-.4s.4.2.4.4v.5c0,.2-.2.4-.4.4s-.4-.2-.4-.4v-.5Z"/>
  </g>
  <g>
    <path class="st3" d="M774.3,225.8c0-.3.2-.5.5-.5h3.8c0,0,.2.1.2.2s0,.2-.2.2h-3.8v1.7c0,.1,0,.2-.2.2s-.2-.1-.2-.2v-1.7h0Z"/>
    <path class="st3" d="M775.5,233.5c-.3,0-.6-.1-.8-.3-.3-.3-.3-.5-.3-.8v-.7c0-.4,0-.6.3-.8.3-.3.5-.3.8-.3h2.1c.3,0,.6.1.8.3.3.3.3.5.3.8v.7c0,.4,0,.6-.3.8-.3.3-.5.3-.8.3h-2.1ZM775.4,230.9c0,0-.2,0-.4.2h0c0,.1,0,.3,0,.5v.9q0,.2,0,.4h0c0,.2.2.2.4.2h2.2c0,0,.2,0,.4-.2h0c0-.1,0-.3,0-.5v-.9q0-.2,0-.4h0c0-.2-.2-.2-.4-.2h-2.2Z"/>
    <path class="st3" d="M774.5,237.6l4.1-1.4c0,0,.3,0,.3.1s0,.3,0,.3l-3.8,1.3,3.8,1.3c0,0,.2.2,0,.3,0,.1-.2.2-.3.1l-4-1.4c0,0-.3-.1-.3-.4s0-.3.3-.4v.2Z"/>
    <path class="st3" d="M774.3,242.9c0-.3.2-.5.5-.5h3.4c.3,0,.5.2.5.5v1.7c0,.3-.2.5-.5.5h-.5c0,0-.2-.1-.2-.2s0-.2.2-.2h.5v-1.8h-1.4v1.8c0,.1,0,.2-.2.2s-.2-.1-.2-.2v-1.8h-1.6v1.8h.4c0,0,.2.1.2.2s0,.2-.2.2h-.3c-.3,0-.5-.2-.5-.5v-1.7h-.1Z"/>
    <path class="st3" d="M778.6,256h-4.1c0,0-.2-.1-.2-.2s0-.2.2-.2h3.2l-3.1-1.3c0,0-.3-.2-.3-.4s0-.3.3-.4l3.1-1.3h-3.2c0,0-.2-.1-.2-.2s0-.2.2-.2h4.1c.2,0,.3.1.3.2s0,.3-.2.4l-3.7,1.5,3.7,1.6c0,0,.2.2.2.3s0,.3-.3.3h0Z"/>
    <path class="st3" d="M778.5,262.1l-2.3-1.5h-1.7c0,0-.2-.1-.2-.2s0-.2.2-.2h1.7l2.3-1.5h.3v.3l-2.1,1.4,2.1,1.3c0,0,0,.2,0,.3,0,.1-.2.1-.3,0h0Z"/>
    <path class="st3" d="M775.5,271.7c-.3,0-.6-.1-.8-.3-.3-.3-.3-.5-.3-.8v-.7c0-.4,0-.6.3-.8.3-.3.5-.3.8-.3h2.1c.3,0,.6.1.8.3.3.3.3.5.3.8v.7c0,.4,0,.6-.3.8-.3.3-.5.3-.8.3h-2.1ZM775.4,269.1c0,0-.2,0-.4.2h0c0,.1,0,.3,0,.5v.9q0,.2,0,.4h0c0,.2.2.2.4.2h2.2c0,0,.2,0,.4-.2h0c0-.1,0-.3,0-.5v-.9q0-.2,0-.4h0c0-.2-.2-.2-.4-.2h-2.2Z"/>
    <path class="st3" d="M777.2,276l-2.7,1.5h-.3v-.3l2.6-1.5-.6-.7h-1.8c0,0-.2-.1-.2-.2s0-.2.2-.2h4.1c0,0,.2.1.2.2s0,.2-.2.2h-1.7l1.8,2v.3h-.3l-1.1-1.2h0Z"/>
    <path class="st3" d="M775.5,283.3c-.3,0-.6-.1-.8-.3-.3-.3-.3-.5-.3-.8v-.7c0-.4,0-.6.3-.8.3-.3.5-.3.8-.3h2.1c.3,0,.6.1.8.3.3.3.3.5.3.8v.7c0,.4,0,.6-.3.8-.3.3-.5.3-.8.3h-2.1ZM775.4,280.7c0,0-.2,0-.4.2h0c0,.1,0,.3,0,.5v.9q0,.2,0,.4h0c0,.2.2.2.4.2h2.2c0,0,.2,0,.4-.2h0c0-.1,0-.3,0-.5v-.9q0-.2,0-.4h0c0-.2-.2-.2-.4-.2h-2.2Z"/>
    <path class="st3" d="M777.3,286c.4,0,.6,0,.9.4l.3.3c.2.3.3.5.3.8v1c0,.3-.2.5-.5.5h-.5c0,0-.2-.1-.2-.2s0-.2.2-.2h.5v-1.1q0-.2,0-.3l-.4-.5s-.2-.2-.3-.2h-1.8q-.2,0-.3.2l-.3.4c0,.1,0,.2,0,.3v1.2h1.6v-.9c0-.1,0-.2.2-.2s.2.1.2.2v.8c0,.3-.2.5-.5.5h-1.5c-.3,0-.5-.2-.5-.5v-1c0-.4,0-.5.3-.8l.2-.2c.2-.2.4-.4.9-.4h1.6-.2Z"/>
    <path class="st3" d="M774.3,292.2c0-.3.2-.5.5-.5h3.4c.3,0,.5.2.5.5v1.7c0,.3-.2.5-.5.5h-.5c0,0-.2-.1-.2-.2s0-.2.2-.2h.5v-1.8h-1.4v1.8c0,.1,0,.2-.2.2s-.2-.1-.2-.2v-1.8h-1.6v1.8h.4c0,0,.2.1.2.2s0,.2-.2.2h-.3c-.3,0-.5-.2-.5-.5v-1.7h-.1Z"/>
  </g>
  <image class="st0" width="431" height="376" transform="translate(548.2 217.5) scale(.2)" xlink:href="basi-3.png"/>
  <rect class="st4" x="576.7" y="228.4" width="44.6" height="14.7"/>
  <g>
    <path class="st3" d="M585.4,239.7c0,.1-.2.2-.3.2s-.2-.2,0-.3l.6-1.9c0-.1.2-.2.3-.2s.2.2.2.3l-.6,1.9h-.1ZM586.6,237.1c0-.1,0-.2.2-.2s.2.1.2.2v2.4c.7.1,1.2,0,1.8,0v-.4c0-.1,0-.2.2-.2s.2.1.2.2v.5c0,.2,0,.3-.3.3-.7.1-1.3.1-2.1,0-.2,0-.3-.2-.3-.3v-2.5h0ZM588.3,236.9c0,.1,0,.2-.2.2s-.2-.1-.2-.2v-.5c0-.1,0-.2.2-.2s.2.1.2.2v.5ZM589.2,236.9c0,.1,0,.2-.2.2s-.2-.1-.2-.2v-.5c0-.1,0-.2.2-.2s.2.1.2.2v.5Z"/>
    <path class="st3" d="M594.2,238c0-.8-.6-1.2-1.4-1.2s-1.5.6-1.5,1.4.2.9.4.9c.3,0,.7-.8.8-1.6,0-.1,0-.2.3-.2s.2.1.2.2c-.2.9-.6,2-1.2,2s-.8-.5-.8-1.3.9-1.8,1.9-1.8,1.8.5,1.8,1.7-.4,1.3-1.1,2h-.3v-.3c.7-.7,1-1.2,1-1.7h-.1Z"/>
    <path class="st3" d="M600.2,240.4c-.2,0-.3,0-.5-.2l-1.2-1.7-1.4,1.8c0,.1-.2.1-.3,0,0,0,0-.2,0-.3l1.6-2v-2.4c0-.1,0-.2.2-.2s.2.1.2.2v2.4l1.4,1.9h0c0,0,.2.1.2.2s0,.2-.2.2h0ZM596.9,236.5c0-.1,0-.2.2-.2s.2.1.2.2v.7c0,.1,0,.2-.2.2s-.2-.1-.2-.2v-.7ZM599.7,236.5c0-.1,0-.2.2-.2s.2.1.2.2v.7c0,.1,0,.2-.2.2s-.2-.1-.2-.2v-.7Z"/>
    <path class="st3" d="M603.2,235.8v.6h.6c.2,0,.3.1.3.3v3.5c0,.2,0,.3-.3.3h-.4c0,0-.2-.1-.2-.2s0-.2.2-.2h.2v-3.2h-.4c0,.4,0,.6,0,1l-.7,2.2c0,.1-.2.2-.3.2s-.2-.2,0-.3c.6-1.8.7-2.2.8-2.4v-.6h-.5c0,0-.2-.1-.2-.2s0-.2.2-.2h.5v-.6c0-.1,0-.2.2-.2s.2.1.2.2v-.2ZM606.3,239.8c0,.2,0,.3-.3.3h-1.2c-.2,0-.3-.2-.3-.3v-3.1c0-.2,0-.3.3-.3h1.2c.2,0,.3.1.3.3v3.1ZM605,236.9v2.8h.9v-2.8h-.9Z"/>
    <path class="st3" d="M607.9,240c0,.1-.2.2-.3.1,0,0-.2-.2,0-.3l.4-1c0-.1.2-.2.3-.1,0,0,.2.2,0,.3l-.4,1ZM608.1,236.6h-.3c0,0-.2-.1-.2-.2s0-.2.2-.2h.3c0,0,.2,0,.2.2s0,.2-.2.2ZM608.1,237.8h-.3c0,0-.2-.1-.2-.2s0-.2.2-.2h.3c0,0,.2,0,.2.2s0,.2-.2.2ZM612.1,240.2l-.4.2c0,0-.3,0-.4-.2l-.3-.9-.4.5s-.2.1-.3,0c0,0,0-.2,0-.3l.5-.7-.3-.9v-1.1h-1.2v2l-.4,1c0,.1-.2.2-.3.1,0,0-.2-.2,0-.3l.4-1v-2.1c0-.2,0-.3.3-.3h1.4v-.4c0-.1,0-.2.2-.2s.2.1.2.2v.4h.5c0,0,.2.1.2.2s0,.2-.2.2h-.5v1l.2.6v-.2c.2,0,.3-.1.4,0s0,.2,0,.3l-.3.4.4,1h.2c0-.2.2-.1.3,0,0,.1,0,.3,0,.3v.2ZM609.6,239.3c-.2,0-.3-.2-.3-.3v-.7c0-.2,0-.3.3-.3h.5c.2,0,.3.1.3.3v.7c0,.2,0,.3-.3.3h-.5ZM610.2,237.2c0,0,.2.1.2.2s0,.2-.2.2h-.6c0,0-.2,0-.2-.2s0-.2.2-.2h.6ZM610,238.9v-.5h-.3v.5h.3ZM611.5,236.1v-.3c0-.1,0-.2.2-.2s.2.1.2.2v.3c0,.1,0,.2-.2.2s-.2,0-.2-.2Z"/>
  </g>
  <polyline class="st2" points="347.9 233.9 342.3 233.9 342.3 334 347.9 334"/>
  <line class="st1" x1="819.6" y1="161.9" x2="873.9" y2="161.9"/>
  <line class="st1" x1="819.6" y1="433.4" x2="873.9" y2="433.4"/>
</svg>