<?xml version="1.0" encoding="UTF-8"?>
<svg id="_レイヤー_1" xmlns="http://www.w3.org/2000/svg" xmlns:xlink="http://www.w3.org/1999/xlink" version="1.1" viewBox="0 0 841.9 595.3">
  <!-- Generator: Adobe Illustrator 29.4.0, SVG Export Plug-In . SVG Version: 2.1.0 Build 152)  -->
  <defs>
    <style>
      .st0 {
        fill: #040000;
      }

      .st1 {
        fill: none;
        stroke: #231815;
        stroke-miterlimit: 10;
        stroke-width: .5px;
      }

      .st2 {
        fill: #231815;
      }

      .st3 {
        fill: #fff;
      }
    </style>
  </defs>
  <rect class="st3" x="2.5" y="161.9" width="839.4" height="271.5"/>
  <g>
    <path class="st2" d="M617,297.5c0,0,.2,0,.2.2s0,.2-.2.2h-.9v1.8c0,.1,0,.2-.2.2s-.2,0-.2-.2v-1.8c0-.2.2-.5.5-.5h.8Z"/>
    <path class="st2" d="M623.7,300.3c0,.9-.5,1.4-1.5,1.7,0,0-.3,0-.3-.1s0-.2.2-.3c.9-.3,1.2-.7,1.2-1.3s0-1.1-.9-1.1-1,.6-1.5.9v2c0,.1,0,.2-.2.2s-.2,0-.2-.2v-1.6c-.2.2-.5.4-.6.5h-.3v-.3l.9-.7v-.5h-.5c0,0-.2,0-.2-.2s0-.2.2-.2h.5v-.9c0-.1,0-.2.2-.2s.2,0,.2.2v1.5c.9-.7,1.1-.8,1.5-.8,1,0,1.3.8,1.3,1.6v-.2Z"/>
    <path class="st2" d="M628.3,299h-1l-.6,3c0,.1,0,.2-.3.2s-.2-.1-.2-.3l.6-2.9h-.4c0,0-.2-.1-.2-.2s0-.2.2-.2h.5v-.6c.2-.1.3-.2.4-.2s.2.1.2.3v.5c0,0,.8,0,.8,0,0,0,.2.1.2.2s0,.2-.2.2ZM629.7,301.7c0,0,.2,0,.3.2,0,.1,0,.3-.2.3h-.7c-.6,0-.9-.3-.9-.8v-.2c0-.1,0-.2.3-.2s.2.1.2.3v.2c0,.2.2.3.5.3h.6,0ZM629.2,300h0c0-.1-.7-.1-.7-.1,0,0-.2-.1-.2-.2s0-.2.2-.2h1c0,0,.3.1.3.2s0,.2-.2.4v.2c-.2.1-.3.1-.4,0,0,0,0-.2,0-.3h0Z"/>
    <path class="st2" d="M633.8,300.9c0,.5.5.9,1,.9s.7-.4,1-1.2c0-.2.2-.2.3-.1,0,0,.2.2,0,.3-.3.7-.7,1.4-1.4,1.4s-1.5-.5-1.4-1.4c0-.8,0-1.9.2-2.8,0-.1,0-.2.2-.2s.2.1.2.2c0,1.3-.2,2.3-.2,2.8h0Z"/>
    <path class="st2" d="M642.4,300c0-.8-.6-1.2-1.4-1.2s-1.5.6-1.5,1.4.2.9.4.9c.3,0,.7-.8.8-1.6,0-.1,0-.2.3-.2s.2.1.2.2c-.2.9-.6,2-1.3,2s-.8-.5-.8-1.3.9-1.8,1.9-1.8,1.8.5,1.8,1.7-.4,1.3-1.1,2h-.3v-.3c.7-.7,1-1.2,1-1.7h0Z"/>
    <path class="st2" d="M645.8,301c0-.4.4-.8,1.1-.9v-1.2h-.5c0,0-.2-.1-.2-.2s0-.2.2-.2h.5v-.4c0-.1,0-.2.2-.2s.2.1.2.2v.4h.7c0,0,.2,0,.2.2s0,.2-.2.2h-.7v1.1h.5c.8,0,1.4.3,1.5,1.1,0,.5-.3.9-.7,1.3h-.3v-.3c.3-.3.6-.6.6-.9s-.2-.6-1-.6h-.5v.8c0,.7-.3,1-.7.9-.3,0-.9-.5-.9-1.2h0ZM646.7,301.7q.2,0,.2-.4v-.7c-.4,0-.7.3-.7.5,0,.3.3.7.5.7h0ZM649.5,298.8c0,.1,0,.2-.2.2s-.2-.1-.2-.2v-.5c0-.1,0-.2.2-.2s.2.1.2.2v.5Z"/>
    <path class="st2" d="M652.7,301.2v-.4c0-.1.2-.2.3-.2s.2.1,0,.3v.2c0,.3.2.4,1,.4h1c0,0,.2,0,.3.2,0,.1,0,.2-.2.3h-1c-.4,0-1.4,0-1.4-.9h0ZM654.6,299.1l.2-.3h-1.7c0,0-.2-.1-.2-.2s0-.2.2-.2h2c0,0,.2,0,.2.2s0,.2,0,.4l-.2.3c0,.1-.2.1-.3,0,0,0,0-.2,0-.3h-.1Z"/>
    <path class="st2" d="M658.8,298.6c0-.1,0-.2.2-.2s.2.1.2.2c0,.9,0,1.6,0,2.5h.3c0-.1.2,0,.3,0,0,.1,0,.2,0,.3l-.5.2c0,0-.3,0-.3-.2v-2.9h-.1ZM662.3,299.1h-.4v1c0,.8-.3,1.3-.8,2.2,0,.1-.2.1-.3,0,0,0,0-.2,0-.3.6-.9.7-1.4.8-2v-.9h-1.2c0,0-.2-.1-.2-.2s0-.2.2-.2h1.1v-.7c0-.1,0-.2.2-.3,0,0,.2,0,.3.2v.7h.5c0,0,.2.1.2.2s0,.2-.2.2h-.2ZM662.2,297.9s0-.2.2-.2.2,0,.2.2v.2s0,.2-.2.2-.2,0-.2-.2v-.2ZM662.8,297.9s0-.2.2-.2.2,0,.2.2v.2s0,.2-.2.2-.2,0-.2-.2v-.2Z"/>
    <path class="st2" d="M665.1,302.5c0,0-.2,0-.2-.2s0-.2.2-.2h.9v-1.8c0-.1,0-.2.2-.2s.2,0,.2.2v1.8c0,.2-.2.5-.5.5h-.8Z"/>
    <path class="st2" d="M671.7,301.8v-3.3c0-.1,0-.2.2-.2s.2.1.2.2c0,.9,0,2.2,0,3,0,0,0,0,.2-.1s.2,0,.3,0v.3c0,0-.2.1-.3.2,0,0-.2.1-.3.1s-.2,0-.2-.2h-.1ZM675.4,300.7c0,0,.2.1.2.3s0,.2-.2.2h-.6v.5c0,.5-.3.7-.6.7s-.9-.5-.9-1,.2-.6.7-.7h.4v-1.5h-.9c0,0-.2-.1-.2-.2s0-.2.2-.2h.9v-.6c0-.1,0-.2.2-.2s.2.1.2.2v.6h.5c0,0,.2,0,.2.2s0,.2-.2.2h-.5v1.5h.6,0ZM674.3,301.1h-.4c-.2,0-.3.1-.3.2,0,.3.3.5.5.5s.2,0,.2-.3v-.4h0Z"/>
    <path class="st2" d="M678.3,301.3l.5.5v.3h-.3l-.5-.5v-.3h.3Z"/>
    <path class="st2" d="M686.4,298.8h-.9l-.2.5c0,.1-.2.1-.3,0,0,0,0-.2,0-.3l.7-1.3c0-.1.2-.2.3,0,0,0,.2.2,0,.3l-.2.4h.7v-.7c0-.1,0-.2.2-.2s.2,0,.2.2v.6h1.2c0,0,.2.1.2.2s0,.2-.2.2h-1.2v.8h1.4c0,0,.2,0,.2.2s0,.2-.2.2h-1.4v.2h0l1.5,1.9h0c0,0,.2.1.2.2s0,.2-.2.2h0c-.2,0-.3,0-.4-.2l-1.3-1.6-1.5,1.8s-.2.1-.3,0c0,0,0-.2,0-.3l1.5-1.8c0-.1,0-.2,0-.3h-1.5c0,0-.2-.1-.2-.2s0-.2.2-.2h1.5v-.8h0Z"/>
    <path class="st2" d="M691.2,302.3s-.2.1-.3,0c0,0,0-.2,0-.3l.3-.3s.2-.1.3,0v.3l-.3.3ZM691.4,301.5c-.2,0-.3-.2-.3-.3v-2.9c0-.2,0-.3.3-.3h1c.2,0,.3.1.3.3v2.9c0,.2,0,.3-.3.3h-1ZM692.2,298.4h-.6v.5h.6v-.5ZM691.5,300h.6v-.6h-.6v.6ZM692.2,301v-.6h-.6v.6h.6ZM692.5,301.7l.3.2v.3h-.3l-.3-.3v-.3h.3ZM693.3,299c0,.1-.2.2-.3.1,0,0-.2-.2,0-.3l.5-1.2c0-.1.2-.2.3-.1,0,0,.2.2,0,.3v.3c0,0,1.3,0,1.3,0,0,0,.2,0,.2.2s0,.2-.2.2h-1.6l-.2.4h0ZM695.1,302c0,0,.2,0,.2.2s0,.2-.2.2h0c-.2,0-.3,0-.4-.2l-.6-1-.7,1.1c0,.1-.2.1-.3,0,0,0,0-.2,0-.3l.8-1.3-.5-.8v-.3h.3l.3.6.6-1c0-.1.2-.1.3,0,0,0,0,.2,0,.3l-.7,1.2.8,1.2h.1Z"/>
    <path class="st2" d="M699.4,298.3h1.4c0,0,.2.1.2.2s0,.2-.2.2h-1.5l-.3.8c.3.1.5.2.8.4.2-.1.4-.3.5-.4h.3v.3c0,0-.3.2-.4.3.2.1.3.2.5.4,0,0,0,.2,0,.3h-.3s-.4-.3-.6-.4c-.4.4-.8.7-.8,1s0,.5.8.5h.7c0,0,.2,0,.3.2,0,.1,0,.2-.2.3h-.7c-1.1,0-1.2-.6-1.2-.9,0-.5.3-.8.9-1.3-.2-.1-.4-.2-.7-.3,0,0-.2-.2-.2-.4l.3-.8h-.6c0,0-.2,0-.2-.2s0-.2.2-.2h.8l.2-.6c0-.1.2-.2.3-.1,0,0,.2.2.2.3v.5h-.5Z"/>
    <path class="st2" d="M706.2,297.5c.2,0,.4,0,.5.2l1.4,1.1c0,0,0,.2,0,.3,0,.1-.2.1-.3,0-.4-.3-1.5-1.1-1.6-1.1h-.4s-1.1.8-1.5,1.1h-.3v-.3l1.4-1.1c0-.1.3-.2.5-.2h.3ZM705.9,302.2l-.4.3c0,0-.2.2-.4.1,0,0-.2,0-.2-.2v-3.1c0-.2,0-.3.3-.3h1.6c.2,0,.3.1.3.3v1.1c0,.2,0,.3-.3.3h-1.5v1.3l.3-.2h.3v.3h0ZM705.4,299.4v.3h1.3v-.3h-1.3ZM706.7,300.3v-.2h-1.3v.3h1.3ZM706.4,298.6c0,.1,0,.2-.2.2s-.2-.1-.2-.2v-.3c0-.1,0-.2.2-.2s.2.1.2.2v.3ZM707.6,302h.2c0,0,.2.1.2.2s0,.2-.2.2h0c-.2,0-.4,0-.5-.2l-1-1v-.3h.3l1,1.1h0ZM707.1,300.9l.4-.3h.3v.3l-.4.3h-.3v-.3Z"/>
    <path class="st2" d="M710.9,300.7s-.2.1-.3,0v-.3l1.4-1.5c0-.1.3-.1.4,0l2.4,2.3v.3h-.3l-2.3-2.2-1.3,1.4h0ZM713.5,298.6s0-.2.2-.2.2,0,.2.2v.2s0,.2-.2.2-.2,0-.2-.2v-.2ZM714.1,298.6s0-.2.2-.2.2,0,.2.2v.2s0,.2-.2.2-.2,0-.2-.2v-.2Z"/>
    <path class="st2" d="M717.5,298.9c0,0-.2,0-.2-.2s0-.2.2-.2h3.1c0-.1.2,0,.2.1s0,.2-.2.2h-.5c-.7.7-1.2,1.5-1.2,2.1s.3.6.9.6.2.1.2.2,0,.2-.2.2c-.8,0-1.3-.4-1.3-1.1s.5-1.4,1.1-2.1h-2v.2Z"/>
    <path class="st2" d="M723.3,301l.8-1v-.2h-.5c0,0-.2,0-.2-.2s0-.2.2-.2h.5v-1.4c0-.1,0-.2.2-.2s.2,0,.2.2v1.4h.4c0,0,.2,0,.2.2s0,.2-.2.2h-.4v.2l.4.4s0,.2,0,.3-.2.1-.3,0h-.2c0-.1,0,1.5,0,1.5,0,.1,0,.2-.2.2s-.2-.1-.2-.2v-1.5l-.5.6c0,.1-.2.1-.3,0,0,0,0-.2,0-.3h0ZM723.6,298.5c0-.1,0-.2.2-.2s.2,0,.2.2v.4c0,.1,0,.2-.2.2s-.2,0-.2-.2v-.4ZM724.8,298.5c0-.1,0-.2.2-.2s.2,0,.2.2v.4c0,.1,0,.2-.2.2s-.2,0-.2-.2v-.4ZM725.3,302.1h1v-.2h-.5c0,0-.2,0-.2-.2s0-.2.2-.2h.5v-.2h-.5c-.2,0-.3-.2-.3-.3v-.9c0-.2,0-.3.3-.3h1.4c.2,0,.3.1.3.3v.9c0,.2,0,.3-.3.3h-.5v.2h.5c0,0,.2,0,.2.2s0,.2-.2.2h-.5v.2h.9c0,0,.2,0,.2.2s0,.2-.2.2h-2.3c0,0-.2,0-.2-.2s0-.2.2-.2h0ZM725.4,299.1h2.2c0,0,.2,0,.2.2s0,.2-.2.2h-2.2c0,0-.2,0-.2-.2s0-.2.2-.2ZM727.4,298.6c0,.2,0,.3-.3.3h-1.3c-.2,0-.3-.2-.3-.3v-.8c0-.2,0-.3.3-.3h1.3c.2,0,.3.1.3.3v.8ZM725.9,300.3h.4v-.2h-.4v.2ZM726.3,300.9v-.2h-.4v.2h.4ZM727,297.9h-.9v.2h.9v-.2ZM727,298.5h0c0-.1-.9-.1-.9-.1h0c.3.2.6.2.9.1ZM726.7,300.3h.4v-.2h-.4v.2ZM726.7,300.9h.4v-.2h-.4v.2Z"/>
    <path class="st2" d="M730.5,302v-3.8c0-.1,0-.2.2-.2s.2.1.2.2c0,1.3,0,2.5,0,3.4l.2-.2s.2-.1.3,0v.3l-.3.3s-.2.2-.3.1c0,0-.2,0-.2-.2h-.1ZM733.7,301.9h-.7c-.6,0-1.1-.3-1.1-.9s0-.1,0-.2,0-.2.3-.2.2.2,0,.3h0c0,.3.2.4.7.4h.6c0,0,.2,0,.2.2s0,.2-.2.3h.1ZM732.3,298.5h1.3c0,0,.3.1.3.3s-.3.6-.3.6c0,.1-.2.1-.3,0,0,0,0-.2,0-.3v-.2c0,0-.9,0-.9,0,0,0-.2-.1-.2-.2s0-.2.2-.2h0Z"/>
    <path class="st2" d="M738.7,298.9h-1.9c0,0-.2,0-.2-.2s0-.2.2-.2h1.9v-.6c0-.1,0-.2.2-.2s.2.1.2.2v.6h1c0,0,.2.1.2.2s0,.2-.2.2h-1v1.5c0,.6-.2,1.3-.6,1.9,0,.1-.2.2-.3,0,0,0,0-.2,0-.3.2-.4.4-.7.4-1h-.2c-.4,0-.9-.3-.8-1,0-.4.3-.7.7-.7h.4v-.6.2ZM738.7,300s-.2-.1-.4-.1-.3.2-.3.4c0,.3.2.5.4.5s.4-.2.3-.8Z"/>
    <path class="st2" d="M746.5,300.8c0,1.1-.6,1.5-1.5,1.5s-1-.3-.9-.8c0-.2.2-.4.5-.4s.7.2.7.6,0,.2,0,.2c.4,0,.7-.4.7-1.1s-.8-.5-1.8-.3l-.2.3c0,.1-.2.1-.3,0,0,0,0-.2,0-.3l1.6-2h-1c0,0-.2,0-.2-.2s0-.2.2-.2h1.4c.2,0,.3.1.2.3,0,.2-1.3,1.6-1.3,1.6,1.1-.2,1.9-.2,1.9.9h0ZM744.9,301.6c0-.1,0-.2-.2-.2s-.2,0-.2.1.2.2.3.3v-.2h.1Z"/>
    <path class="st2" d="M750.1,302.4s-.2.1-.3,0c0,0,0-.2,0-.3.2-.2.5-.7.5-.7,0-.1,0-.2,0-.4v-.4c0-.1,0-.2.2-.2s.2.1.2.2v.7l.5.2v-1.9h-.9c0,0-.2,0-.2-.2s0-.2.2-.2h2.4c0,0,.2.1.2.2s0,.2-.2.2h-1v.6h.8c0,0,.2.1.2.2s0,.2-.2.2h-.8v1l1.2.5h.3c0,0,.2.1.2.2s0,.2-.2.2h-.5l-2.1-.9h0l-.5.8h-.1ZM750.3,298.7c0,.1,0,.2-.2.2s-.2-.1-.2-.2v-.4c0-.2,0-.3.3-.3h1.3v-.4c0-.1,0-.2.2-.2s.2.1.2.2v.4h1.3c.2,0,.3.1.3.3v.4c0,.1,0,.2-.2.2s-.2-.1-.2-.2v-.3h-2.8v.2h0Z"/>
    <path class="st2" d="M758.2,297.5c.2,0,.4,0,.5.2l1.4,1.1c0,0,0,.2,0,.3,0,.1-.2.1-.3,0-.4-.3-1.5-1.1-1.6-1.1h-.4s-1.1.8-1.5,1.1h-.3v-.3l1.4-1.1c0-.1.3-.2.5-.2h.3ZM758,302.2l-.4.3c0,0-.2.2-.4.1,0,0-.2,0-.2-.2v-3.1c0-.2,0-.3.3-.3h1.6c.2,0,.3.1.3.3v1.1c0,.2,0,.3-.3.3h-1.5v1.3l.3-.2h.3v.3h0ZM757.5,299.4v.3h1.3v-.3h-1.3ZM758.8,300.3v-.2h-1.3v.3h1.3ZM758.4,298.6c0,.1,0,.2-.2.2s-.2-.1-.2-.2v-.3c0-.1,0-.2.2-.2s.2.1.2.2v.3ZM759.6,302h.2c0,0,.2.1.2.2s0,.2-.2.2h0c-.2,0-.4,0-.5-.2l-1-1v-.3h.3l1,1.1h0ZM759.1,300.9l.4-.3h.3v.3l-.4.3h-.3v-.3Z"/>
    <path class="st2" d="M763,301.2c0,.1-.2.2-.3.1,0,0-.2-.2,0-.3l.6-1.7v-1.4c0-.2,0-.3.3-.3h2.7c.2,0,.3.1.3.3v.6c0,.2,0,.3-.3.3h-2.5v.6l-.6,1.8h-.1ZM766.5,302.5h-3.2c0,0-.2-.1-.2-.2s0-.2.2-.2h1.4v-.4h-.7c0,0-.2,0-.2-.2s0-.2.2-.2h.7v-.3c0-.1,0-.2.2-.2s.2.1.2.2v.3h.8c0,0,.2.1.2.2s0,.2-.2.2h-.8v.4h1.3c0,0,.2.1.2.2s0,.2-.2.2h0ZM763.7,298.1v.3h2.4v-.3h-2.4ZM764.1,300.1l.2-.5h-.4c0,0-.2-.1-.2-.2s0-.2.2-.2h2.3c0,0,.2.1.2.2s0,.2-.2.2h-1.4l-.2.5h1v-.4c0-.1.2,0,.3,0l.3.5h0v.3h-.3c-.6,0-1.3.1-1.9,0,0,0-.2-.1-.2-.2s0-.2.3-.2h0Z"/>
    <path class="st2" d="M769.4,298.9c0,0-.2,0-.2-.2s0-.2.2-.2h3.1c0-.1.2,0,.2.1s0,.2-.2.2h-.5c-.7.7-1.2,1.5-1.2,2.1s.3.6.9.6.2.1.2.2,0,.2-.2.2c-.8,0-1.3-.4-1.3-1.1s.5-1.4,1.1-2.1h-2v.2ZM772.2,299.5s0-.2.2-.2.2,0,.2.2v.2s0,.2-.2.2-.2,0-.2-.2v-.2ZM772.8,299.5s0-.2.2-.2.2,0,.2.2v.2s0,.2-.2.2-.2,0-.2-.2v-.2Z"/>
    <path class="st2" d="M777.8,298.9h-1.9c0,0-.2,0-.2-.2s0-.2.2-.2h1.9v-.6c0-.1,0-.2.2-.2s.2.1.2.2v.6h1c0,0,.2.1.2.2s0,.2-.2.2h-1v1.5c0,.6-.2,1.3-.6,1.9,0,.1-.2.2-.3,0,0,0,0-.2,0-.3.2-.4.4-.7.4-1h-.2c-.4,0-.9-.3-.8-1,0-.4.3-.7.7-.7h.4v-.6.2ZM777.8,300s-.2-.1-.4-.1-.3.2-.3.4c0,.3.2.5.4.5s.4-.2.3-.8Z"/>
    <path class="st2" d="M783.2,301.6c0,.4-.3.6-.6.6s-.6-.3-.6-.6.3-.6.6-.6.6.3.6.6ZM783,301.6c0-.2-.2-.3-.3-.3s-.3.2-.3.3.2.4.3.4.3-.2.3-.4Z"/>
    <path class="st2" d="M790.9,300.5v1.9c0,.1,0,.2-.2.2s-.2-.1-.2-.2v-1.9l-1.4,1.5h-.3v-.3l1.4-1.5h-1.3c0,0-.2,0-.2-.2s0-.2.2-.2h1.6v-1.2h-1.2c0,0-.2,0-.2-.2s0-.2.2-.2h1.2v-.6c0-.1,0-.2.2-.2s.2.1.2.2v.6h1.2c0,0,.2,0,.2.2s0,.2-.2.2h-1.2v1.2h1.6c0,0,.2,0,.2.2s0,.2-.2.2h-1.3l1.3,1.5h0c0,0,.2.1.2.2s0,.2-.2.2h0c-.2,0-.4,0-.5-.2l-1.2-1.4h.1ZM789.8,298.9v.4c0,.1,0,.2-.2.2s-.2-.1-.2-.2v-.4c0-.1,0-.2.2-.2s.2.1.2.2ZM791.5,299.4v-.4c0-.1,0-.2.2-.2s.2.1.2.2v.4c0,.1,0,.2-.2.2s-.2,0-.2-.2Z"/>
    <path class="st2" d="M617.8,313.2c0,.1-.2.2-.3.1,0,0,0-.2,0-.3.4-.9.5-1.1.7-1.6v-1.5c0-.2,0-.3.3-.3h1.2v-.4c0-.1,0-.2.2-.2s.2.1.2.2v.4h1.4c0,0,.2,0,.2.2s0,.2-.2.2h-2.9v.8c0,.3,0,.5,0,.8l-.6,1.5h-.1ZM620.2,310.7v.4h1c0,0,.2,0,.2.2s0,.2-.2.2h-1v.7h.8c.2,0,.3.1.3.3v1.3c0,.2,0,.3-.3.3h-1.9c-.2,0-.3-.2-.3-.3v-1.3c0-.2,0-.3.3-.3h.7v-1.6c0-.1,0-.2.2-.2s.2.1.2.2h0ZM620.8,313.7v-1.1h-1.6v1.1h1.6Z"/>
    <path class="st2" d="M627.2,310.9h.9c0,0,.2.1.2.2s0,.2-.2.2h-1.6l-1.9,1.5h-.3v-.3l1.5-1.1h-1.3c0,0-.2-.1-.2-.2s0-.2.2-.2h1.4v-.6h-.8c0,0-.2-.1-.2-.2s0-.2.2-.2h.8v-.4c0-.1,0-.2.2-.2s.2.1.2.2v.4h1.1c0,0,.2,0,.2.2s0,.2-.2.2h-1.1v.6h.4v-.3c0-.1,0-.2.2-.2s.2.1.2.2v.3h0ZM627.6,313.8c0,.2,0,.3-.3.3h-1.4c-.2,0-.3-.2-.3-.3v-1.6c0-.2,0-.3.3-.3h1.4c.2,0,.3.1.3.3v1.6ZM626,312.8h1.1v-.4h-1.1v.4ZM627.1,313.7v-.5h-1.1v.5h1.1Z"/>
    <path class="st2" d="M630.8,313.5v-3.3c0-.1,0-.2.2-.2s.2.1.2.2c0,.9,0,2.2,0,3,0,0,0,0,.2-.1h.3v.3c0,0-.2.1-.3.2,0,0-.2.1-.3.1s-.2,0-.2-.2h-.1ZM634.5,312.4c0,0,.2.1.2.3s0,.2-.2.2h-.6v.5c0,.5-.3.7-.6.7s-.9-.5-.9-1,.2-.6.7-.7h.4v-1.5h-.9c0,0-.2-.1-.2-.2s0-.2.2-.2h.9v-.6c0-.1,0-.2.2-.2s.2.1.2.2v.6h.5c0,0,.2,0,.2.2s0,.2-.2.2h-.5v1.5h.6,0ZM633.5,312.8h-.4c-.2,0-.3.1-.3.2,0,.3.3.5.5.5s.2,0,.2-.3v-.4h0Z"/>
    <path class="st2" d="M637.4,313l.5.5v.3h-.3l-.5-.5v-.3h.3Z"/>
    <path class="st2" d="M644.3,313.8h-.3v-.3c1.8-1.7,2.3-2.1,2.3-3.3h-1.7c0,0-.2-.1-.2-.2s0-.2.2-.2h1.9c.2,0,.3.1.3.3,0,.9,0,1.2-.6,1.9l1.4,1.5s0,.3,0,.3h-.3l-1.3-1.5c-.4.4-.9,1-1.6,1.6h-.1Z"/>
    <path class="st2" d="M650.7,310.2h3c0,0,.3.1.3.3,0,.9-.6,1.4-1.6,2.1l.4.7v.3h-.3l-.9-1.5v-.3h.3l.3.5c.9-.7,1.3-1.1,1.4-1.7h-2.9c0,0-.2-.1-.2-.2s0-.2.2-.2h0Z"/>
    <path class="st2" d="M657.8,312.4l-.7.7s-.2.1-.3,0c0,0,0-.2,0-.3l.7-.7s.2-.1.3,0c0,0,0,.2,0,.3ZM659,313.7c0,.2,0,.3-.3.3h-.4c0,0-.2-.1-.2-.2s0-.2.2-.2h.3v-2.7h-1.4c0,0-.2-.1-.2-.2s0-.2.2-.2h1.4v-.8c0-.1,0-.2.2-.2s.2.1.2.2v.8h1.2c0,0,.2.1.2.2s0,.2-.2.2h-1.2v2.8h0ZM660.1,312.1l.6.7v.3h-.3l-.6-.7v-.3h.3Z"/>
    <path class="st2" d="M663.5,310.6c0,0-.2,0-.2-.2s0-.2.2-.2h3.1c0-.1.2,0,.2.1s0,.2-.2.2h-.5c-.7.7-1.2,1.5-1.2,2.1s.3.6.9.6.2.1.2.2,0,.2-.2.2c-.8,0-1.3-.4-1.3-1.1s.5-1.4,1.1-2.1h-2v.2ZM666.3,311.2s0-.2.2-.2.2,0,.2.2v.2s0,.2-.2.2-.2,0-.2-.2v-.2ZM666.9,311.2s0-.2.2-.2.2,0,.2.2v.2s0,.2-.2.2-.2,0-.2-.2v-.2Z"/>
    <path class="st2" d="M673.7,309.2c0,0,.2,0,.2.2s0,.2-.2.2h-.9v1.8c0,.1,0,.2-.2.2s-.2,0-.2-.2v-1.8c0-.2.2-.5.5-.5h.8Z"/>
    <path class="st2" d="M678,310.5h-.9l-.2.5c0,.1-.2.1-.3,0,0,0,0-.2,0-.3l.7-1.3c0-.1.2-.2.3,0,0,0,.2.2,0,.3l-.2.4h.7v-.7c0-.1,0-.2.2-.2s.2,0,.2.2v.6h1.2c0,0,.2.1.2.2s0,.2-.2.2h-1.2v.8h1.4c0,0,.2,0,.2.2s0,.2-.2.2h-1.4v.2h0l1.5,1.9h0c0,0,.2.1.2.2s0,.2-.2.2h0c-.2,0-.3,0-.4-.2l-1.3-1.6-1.5,1.8s-.2.1-.3,0c0,0,0-.2,0-.3l1.5-1.8c0-.1,0-.2,0-.3h-1.5c0,0-.2-.1-.2-.2s0-.2.2-.2h1.5v-.8h0Z"/>
    <path class="st2" d="M682.8,314s-.2.1-.3,0c0,0,0-.2,0-.3l.3-.3s.2-.1.3,0v.3l-.3.3ZM683,313.2c-.2,0-.3-.2-.3-.3v-2.9c0-.2,0-.3.3-.3h1c.2,0,.3.1.3.3v2.9c0,.2,0,.3-.3.3h-1ZM683.8,310.1h-.6v.5h.6v-.5ZM683.2,311.7h.6v-.6h-.6v.6ZM683.8,312.7v-.6h-.6v.6h.6ZM684.2,313.4l.3.2v.3h-.3l-.3-.3v-.3h.3ZM685,310.7c0,.1-.2.2-.3.1,0,0-.2-.2,0-.3l.5-1.2c0-.1.2-.2.3-.1,0,0,.2.2,0,.3v.3c0,0,1.3,0,1.3,0,0,0,.2,0,.2.2s0,.2-.2.2h-1.6l-.2.4h0ZM686.8,313.7c0,0,.2,0,.2.2s0,.2-.2.2h0c-.2,0-.3,0-.4-.2l-.6-1-.7,1.1c0,.1-.2.1-.3,0,0,0,0-.2,0-.3l.8-1.3-.5-.8v-.3h.3l.3.6.6-1c0-.1.2-.1.3,0,0,0,0,.2,0,.3l-.7,1.2.8,1.2h.1Z"/>
    <path class="st2" d="M690.3,310.7h-.9c0,0-.2,0-.2-.2s0-.2.2-.2h.9c0,0,.2.1.2.2s0,.2-.2.2ZM689.5,314.2c-.2,0-.3-.2-.3-.3v-.8c0-.2,0-.3.3-.3h.7c.2,0,.3.1.3.3v.8c0,.2,0,.3-.3.3h-.7ZM690,311.5h-.3c0,0-.2-.1-.2-.2s0-.2.2-.2h.3c0,0,.2.1.2.2s0,.2-.2.2ZM689.7,311.9h.3c0,0,.2.1.2.2s0,.2-.2.2h-.3c0,0-.2-.1-.2-.2s0-.2.2-.2ZM690.1,309.8c0,.1,0,.2-.2.2s-.2,0-.2-.2v-.3c0-.1,0-.2.2-.2s.2.1.2.2v.3ZM689.6,313.3v.5h.4v-.5h-.4ZM693.3,313.9h0c0,0,.2.1.2.2s0,.2-.2.2h0c-.2,0-.4,0-.5-.2l-.8-1-1,1.1h-.3v-.3c.3-.3,1.1-1.2,1.1-1.3v-.9c0-.1,0-.2.2-.2s.2.1.2.2v.9l1,1.2h0ZM692.1,310.7l-.9.9h-.3v-.3c.3-.3.9-1,1-1.1v-.9c0-.1,0-.2.2-.2s.2,0,.2.2v.9l.9,1h0c0,0,.2.1.2.2s0,.2-.2.2h0c-.2,0-.4,0-.5-.2l-.7-.8h0ZM691.4,309.7v.4c0,.1,0,.2-.2.2s-.2-.1-.2-.2v-.4c0-.1,0-.2.2-.2s.2.1.2.2ZM690.9,312.2c0-.1,0-.2.2-.2s.2,0,.2.2v.4c0,.1,0,.2-.2.2s-.2,0-.2-.2v-.4ZM693.2,309.7v.4c0,.1,0,.2-.2.2s-.2-.1-.2-.2v-.4c0-.1,0-.2.2-.2s.2.1.2.2ZM692.8,312.2c0-.1,0-.2.2-.2s.2,0,.2.2v.4c0,.1,0,.2-.2.2s-.2,0-.2-.2v-.4Z"/>
    <path class="st2" d="M695.8,314.2c0,0-.2,0-.2-.2s0-.2.2-.2h.9v-1.8c0-.1,0-.2.2-.2s.2,0,.2.2v1.8c0,.2-.2.5-.5.5h-.8Z"/>
    <path class="st2" d="M704,310h1.4c0,0,.2.1.2.2s0,.2-.2.2h-1.5l-.3.8c.3.1.5.2.8.4.2-.1.4-.3.5-.4h.3v.3c0,0-.3.2-.4.3.2.1.3.2.5.4,0,0,0,.2,0,.3h-.3s-.4-.3-.6-.4c-.4.4-.8.7-.8,1s0,.5.8.5h.7c0,0,.2,0,.3.2,0,.1,0,.2-.2.3h-.7c-1.1,0-1.2-.6-1.2-.9,0-.5.3-.8.9-1.3-.2-.1-.4-.2-.7-.3,0,0-.2-.2-.2-.4l.3-.8h-.6c0,0-.2,0-.2-.2s0-.2.2-.2h.8l.2-.6c0-.1.2-.2.3-.1,0,0,.2.2.2.3v.5h-.5Z"/>
    <path class="st2" d="M712.9,314.1h0c-.2,0-.3,0-.4-.2l-1.6-2.5-1.6,2.6c0,.1-.2.2-.3,0,0,0-.2-.2,0-.3l1.8-2.8-.6-1v-.3c0,0,.3,0,.3.1l2.5,4h0c0,0,.2.1.2.2s0,.2-.2.2h-.1Z"/>
    <path class="st2" d="M718.3,314.2c0,0-.2-.1-.2-.2s0-.2.2-.2h.2v-3.2h-1.2c0,.4,0,.5-.2.9l-1.2,2.6c0,.1-.2.2-.3.1,0,0-.2-.2,0-.3.3-.6,1.2-2.5,1.2-2.6,0-.3,0-.4.2-.7h-1.1c0,0-.2-.1-.2-.2s0-.2.2-.2h1.1v-.5c0-.1,0-.2.2-.2s.2.1.2.2v.5h1.4c.2,0,.3.1.3.3v3.6c0,.2,0,.3-.3.3h-.4v-.2Z"/>
    <path class="st2" d="M723,312.6c0,.5.5.9,1,.9s.7-.4,1-1.2c0-.2.2-.2.3-.1,0,0,.2.2,0,.3-.3.7-.7,1.4-1.4,1.4s-1.5-.5-1.4-1.4c0-.8,0-1.9.2-2.8,0-.1,0-.2.2-.2s.2.1.2.2c0,1.3-.2,2.3-.2,2.8h0Z"/>
    <path class="st2" d="M730.7,309.6v.5h.6c0,0,.2.1.2.2s0,.2-.2.2h-.6v.6h.6c0,0,.2.1.2.2s0,.2-.2.2h-.6v.8h.7c0,0,.2.1.2.3s0,.2-.3.2h-.7v.5c0,.4-.2.8-.7.8s-.9-.5-.9-1,.2-.7.8-.7h.4v-.8h-1c0,0-.2,0-.2-.2s0-.2.2-.2h1v-.6h-1c0,0-.2-.1-.2-.2s0-.2.2-.2h1v-.5c0-.1,0-.2.2-.2s.2,0,.2.2h0ZM730.2,312.8h-.3c-.2,0-.3,0-.4.2,0,.3.2.5.5.6.2,0,.2-.1.2-.3v-.5h0Z"/>
    <path class="st2" d="M736.9,310.6h-1.9c0,0-.2,0-.2-.2s0-.2.2-.2h1.9v-.6c0-.1,0-.2.2-.2s.2.1.2.2v.6h1c0,0,.2.1.2.2s0,.2-.2.2h-1v1.5c0,.6-.2,1.3-.6,1.9,0,.1-.2.2-.3,0,0,0,0-.2,0-.3.2-.4.4-.7.4-1h-.2c-.4,0-.9-.3-.8-1,0-.4.3-.7.7-.7h.4v-.6.2ZM736.9,311.7s-.2-.1-.4-.1-.3.2-.3.4c0,.3.2.5.4.5s.4-.2.3-.8Z"/>
    <path class="st2" d="M742.4,313.4c0,.4-.3.6-.6.6s-.6-.3-.6-.6.3-.6.6-.6.6.3.6.6ZM742.1,313.4c0-.2-.2-.3-.3-.3s-.3.2-.3.3.2.4.3.4.3-.2.3-.4Z"/>
    <path class="st2" d="M748.2,311.9c0,0-.2,0-.2-.2s0-.2.2-.2h1l1.3-1.8s.2-.1.3,0c0,0,0,.2,0,.3l-1.1,1.4h1.4c0,0,.2,0,.2.2s0,.2-.2.2h-.6c-.5.5-1,1-1,1.4s.5.4.9.4.2,0,.2.2,0,.2-.2.2c-.7,0-1.4-.2-1.4-.9s.3-.9.8-1.4h-1.6v.2ZM748.6,309.9c0-.1,0-.2.2-.2s.2,0,.2.2v.6c0,.1,0,.2-.2.2s-.2-.1-.2-.2v-.6Z"/>
    <path class="st2" d="M757.7,311.7c0-.8-.6-1.2-1.4-1.2s-1.5.6-1.5,1.4.2.9.4.9c.3,0,.7-.8.8-1.6,0-.1,0-.2.3-.2s.2.1.2.2c-.2.9-.6,2-1.3,2s-.8-.5-.8-1.3.9-1.8,1.9-1.8,1.8.5,1.8,1.7-.4,1.3-1.1,2h-.3v-.3c.7-.7,1-1.2,1-1.7h0Z"/>
    <path class="st2" d="M764.9,314.1h0c-.2,0-.3,0-.4-.2l-1.6-2.5-1.6,2.6c0,.1-.2.2-.3,0,0,0-.2-.2,0-.3l1.8-2.8-.6-1v-.3c0,0,.3,0,.3.1l2.5,4h0c0,0,.2.1.2.2s0,.2-.2.2h-.1Z"/>
    <path class="st2" d="M770.4,314.2c0,0-.2-.1-.2-.2s0-.2.2-.2h.2v-3.2h-1.2c0,.4,0,.5-.2.9l-1.2,2.6c0,.1-.2.2-.3.1,0,0-.2-.2,0-.3.3-.6,1.2-2.5,1.2-2.6,0-.3,0-.4.2-.7h-1.1c0,0-.2-.1-.2-.2s0-.2.2-.2h1.1v-.5c0-.1,0-.2.2-.2s.2.1.2.2v.5h1.4c.2,0,.3.1.3.3v3.6c0,.2,0,.3-.3.3h-.4v-.2Z"/>
    <path class="st2" d="M777.7,313.9c0,.2,0,.3-.3.3h-.4c0,0-.2-.1-.2-.2s0-.2.2-.2h.3v-3.2h-1.2v.6l.8.7s0,.2,0,.3c0,0-.2.1-.3,0l-.7-.7-.8.7h-.3v-.3l.8-.8v-.6h-1.1v3.4c0,.1,0,.2-.2.2s-.2-.1-.2-.2v-3.5c0-.2,0-.3.3-.3h1.3v-.7c0-.1,0-.2.2-.2s.2,0,.2.2v.7h1.3c.2,0,.3.1.3.3v3.5h0Z"/>
    <path class="st2" d="M782.4,311c.2,0,.3,0,.4.2l1.4,1s0,.2,0,.3c0,.1-.2.1-.3,0-.4-.3-1.5-1-1.6-1.1h-.3s-1.1.8-1.5,1h-.3v-.3l1.4-1c.2-.1.3-.2.5-.2h.3ZM782.6,309.3v.3h1.3c.2,0,.3.1.3.3v.4c0,.1,0,.2-.2.2s-.2-.1-.2-.2v-.2h-2.8v.2c0,.1,0,.2-.2.2s-.2-.1-.2-.2v-.4c0-.2,0-.3.3-.3h1.3v-.3c0-.1,0-.2.2-.2s.2.1.2.2h0ZM781,310.6l.5-.3h.3v.3l-.5.3h-.3v-.3ZM783.1,312.3c.2,0,.3.1.3.3v1.3c0,.2,0,.3-.3.3h-1.5c-.2,0-.3-.2-.3-.3v-1.3c0-.2,0-.3.3-.3h1.5ZM781.8,312.7v1.1h1.1v-1.1h-1.1ZM783.2,310.3l.5.3c0,0,0,.2,0,.3,0,.1-.2.1-.3,0l-.5-.3c0,0,0-.2,0-.3,0-.1.2-.1.3,0Z"/>
    <path class="st2" d="M788.6,310h1.4c0,0,.2.1.2.2s0,.2-.2.2h-1.5l-.3.8c.3.1.5.2.8.4.2-.1.4-.3.5-.4h.3v.3c0,0-.3.2-.4.3.2.1.3.2.5.4,0,0,0,.2,0,.3h-.3s-.4-.3-.6-.4c-.4.4-.8.7-.8,1s0,.5.8.5h.7c0,0,.2,0,.3.2,0,.1,0,.2-.2.3h-.7c-1.1,0-1.2-.6-1.2-.9,0-.5.3-.8.9-1.3-.2-.1-.4-.2-.7-.3,0,0-.2-.2-.2-.4l.3-.8h-.6c0,0-.2,0-.2-.2s0-.2.2-.2h.8l.2-.6c0-.1.2-.2.3-.1,0,0,.2.2.2.3v.5h-.5Z"/>
    <path class="st2" d="M619,323.6h-.3c0,0-.2,0-.2-.2s0-.2.2-.2h.4v-.7h-.4c0,0-.2,0-.2-.2s0-.2.2-.2h.5v-.9c0-.1,0-.2.3-.2s.2.1.2.2v.8h.6c0,0,.2.1.2.2s0,.2-.2.2h-.7v.7h.8c0,0,.2.1.2.2s0,.2-.2.2h-.8v.9c-.2.5.2.8.7.8s.6-.4.4-1.1c0-.1,0-.3.2-.3s.3,0,.3.2v.5c0,.8-.3,1.1-.9,1.2-.7,0-1.3-.4-1.3-1.2s0-.5,0-1h0Z"/>
    <path class="st2" d="M625.7,323.2l-.6-1.6c0-.1,0-.2,0-.3,0,0,.2,0,.3.1l.5,1.5s.8-.6,1.1-.9h.3v.3c-1.6,1.4-2,1.6-2,2.1s.3.6.8.6h1.1c0,0,.2,0,.2.2s0,.2-.2.2h-1.1c-.9,0-1.3-.4-1.3-1.1s.2-.8.7-1.3v.2Z"/>
    <path class="st2" d="M631.1,325.4v-3.8c0-.1,0-.2.2-.2s.2.1.2.2c0,1.3,0,2.5,0,3.4l.2-.2s.2-.1.3,0v.3l-.3.3s-.2.2-.3.1c0,0-.2,0-.2-.2h-.1ZM634.3,325.4h-.7c-.6,0-1.1-.3-1.1-.9s0-.1,0-.2,0-.2.3-.2.2.2,0,.3h0c0,.3.2.4.7.4h.6c0,0,.2,0,.2.2s0,.2-.2.3h.1ZM632.9,321.9h1.3c0,0,.3.1.3.3s-.3.6-.3.6c0,.1-.2.1-.3,0,0,0,0-.2,0-.3v-.2c0,0-.9,0-.9,0,0,0-.2-.1-.2-.2s0-.2.2-.2h0Z"/>
    <path class="st2" d="M637.4,324.8l.5.5v.3h-.3l-.5-.5v-.3h.3Z"/>
    <path class="st2" d="M644.3,324.7v-.4c0-.1.2-.2.3-.2s.2.1,0,.3v.2c0,.3.2.4,1,.4h1c0,0,.2,0,.3.2,0,.1,0,.2-.2.3h-1c-.4,0-1.4,0-1.4-.9h0ZM646.2,322.5l.2-.3h-1.7c0,0-.2-.1-.2-.2s0-.2.2-.2h2c0,0,.2,0,.2.2s0,.2,0,.4l-.2.3c0,.1-.2.1-.3,0,0,0,0-.2,0-.3h-.1Z"/>
    <path class="st2" d="M650.4,322c0-.1,0-.2.2-.2s.2.1.2.2c0,.9,0,1.6,0,2.5h.3c0-.1.2,0,.3,0,0,.1,0,.2,0,.3l-.5.2c0,0-.3,0-.3-.2v-2.9h-.1ZM653.9,322.6h-.4v1c0,.8-.3,1.3-.8,2.2,0,.1-.2.1-.3,0,0,0,0-.2,0-.3.6-.9.7-1.4.8-2v-.9h-1.2c0,0-.2-.1-.2-.2s0-.2.2-.2h1.1v-.7c0-.1,0-.2.2-.3,0,0,.2,0,.3.2v.7h.5c0,0,.2.1.2.2s0,.2-.2.2h-.2ZM653.8,321.4s0-.2.2-.2.2,0,.2.2v.2s0,.2-.2.2-.2,0-.2-.2v-.2ZM654.4,321.4s0-.2.2-.2.2,0,.2.2v.2s0,.2-.2.2-.2,0-.2-.2v-.2Z"/>
    <path class="st2" d="M656.9,324.5h3.8c0,0,.2.1.2.2s0,.2-.2.2h-3.8c0,0-.2-.1-.2-.2s0-.2.2-.2ZM657.7,325.4l-.5.5h-.3v-.3l.5-.4h.3v.3h0ZM659.8,321.1c.2,0,.3.1.3.3v2.4c0,.2,0,.3-.3.3h-2.1c-.2,0-.3-.2-.3-.3v-2.4c0-.2,0-.3.3-.3h2.1ZM657.9,321.5v.4h1.8v-.4h-1.8ZM657.9,322.8h1.8v-.4h-1.8v.4ZM659.6,323.6v-.4h-1.8v.4h1.8ZM660.6,325.5s0,.2,0,.3c0,.1-.2.1-.3,0l-.5-.5s0-.2,0-.3c0,0,.2-.1.3,0l.5.5Z"/>
    <path class="st2" d="M667.3,322.3s0,.2,0,.3c0,0-.2.1-.3,0-.3-.3-1.2-1-1.5-1.2h-.5s-.9.8-1.5,1.2h-.3v-.3c.4-.3,1.1-.9,1.4-1.1,0-.1.3-.2.5-.2h.3c.2,0,.4,0,.5.2l1.4,1.1h0ZM664.1,322.6h2.3c0,0,.2.1.2.2s0,.2-.2.2h-2.3c0,0-.2-.1-.2-.2s0-.2.2-.2ZM666.6,325.5c0,.2,0,.3-.3.3h-2c-.2,0-.3-.2-.3-.3v-1.5c0-.2,0-.3.3-.3h2c.2,0,.3.1.3.3v1.5ZM666.1,325.4v-1.2h-1.7v1.3h1.7Z"/>
    <path class="st2" d="M671.5,321.7h1.4c0,0,.2.1.2.2s0,.2-.2.2h-1.5l-.3.8c.3.1.5.2.8.4.2-.1.4-.3.5-.4h.3v.3c0,0-.3.2-.4.3.2.1.3.2.5.4,0,0,0,.2,0,.3h-.3s-.4-.3-.6-.4c-.4.4-.8.7-.8,1s0,.5.8.5h.7c0,0,.2,0,.3.2,0,.1,0,.2-.2.3h-.7c-1.1,0-1.2-.6-1.2-.9,0-.5.3-.8.9-1.3-.2-.1-.4-.2-.7-.3,0,0-.2-.2-.2-.4l.3-.8h-.6c0,0-.2,0-.2-.2s0-.2.2-.2h.8l.2-.6c0-.1.2-.2.3-.1,0,0,.2.2.2.3v.5h-.5Z"/>
    <path class="st2" d="M676.4,321.9h.9c0,0,.2.1.2.2s0,.2-.2.2h-.9c0,0-.2-.1-.2-.2s0-.2.2-.2ZM676.5,325.8c-.2,0-.3-.2-.3-.3v-.8c0-.2,0-.3.3-.3h.7c.2,0,.3.1.3.3v.8c0,.2,0,.3-.3.3h-.7ZM677,323.1h-.3c0,0-.2-.1-.2-.2s0-.2.2-.2h.3c0,0,.2,0,.2.2s0,.2-.2.2ZM676.7,323.5h.3c0,0,.2.1.2.2s0,.2-.2.2h-.3c0,0-.2,0-.2-.2s0-.2.2-.2ZM677.1,321.1v.3c0,.1,0,.2-.2.2s-.2-.1-.2-.2v-.3c0-.1,0-.2.2-.2s.2.1.2.2ZM676.7,324.9v.5h.4v-.5h-.4ZM680.4,325.6c0,.2,0,.3-.3.3h-.4c0,0-.2-.1-.2-.2s0-.2.2-.2h.2v-3.7h-1.5v2.6l-.3,1.2c0,.1-.2.2-.3.2s-.2-.2-.2-.3l.3-1.2v-2.6c0-.2,0-.3.3-.3h1.9c.2,0,.3.1.3.3v4.1-.2ZM679.7,323.5h-1c0,0-.2,0-.2-.2s0-.2.2-.2h.3v-.4h-.2c0,0-.2,0-.2-.2s0-.2.2-.2h.2v-.3c0-.1,0-.2.2-.2s.2,0,.2.2v.3h.2c0,0,.2,0,.2.2s0,.2-.2.2h-.2v.4h.3c0,0,.2,0,.2.2s0,.2-.2.2ZM679.7,324.8c0,.2,0,.3-.3.3h-.6c-.2,0-.3-.2-.3-.3v-.7c0-.2,0-.3.3-.3h.6c.2,0,.3.1.3.3v.7ZM679.3,324.7v-.5h-.3v.5h.3Z"/>
    <path class="st2" d="M682.8,323.3l.5-.4h0c-.2,0-.3-.1-.3-.3v-.4c0-.2,0-.3.3-.3h.3v-.2h-.6c0,0-.2,0-.2-.2s0-.2.2-.2h.6v-.2c0-.1,0-.2.2-.2s.2.1.2.2v.2h.5c0,0,.2,0,.2.2s0,.2-.2.2h-.5v.2h.3c.2,0,.3.1.3.3v.4c0,.2,0,.3-.3.3h0l.3.2s0,.2,0,.3h-.3l-.3-.2v.4c0,.1,0,.2-.2.2s-.2-.1-.2-.2v-.3l-.5.4h-.3v-.3h.2ZM685,324.3v.3h.8c0,0,.2.1.2.2s0,.2-.2.2h-.8v.4h1.5c0,0,.2.1.2.2s0,.2-.2.2h-3.5c0,0-.2-.1-.2-.2s0-.2.2-.2h.6v-.6c0-.1,0-.2.2-.2s.2,0,.2.2v.6h.5v-1.1h-1.1c0,0-.2,0-.2-.2s0-.2.2-.2h2.8c0,0,.2.1.2.2s0,.2-.2.2h-1.2ZM683.5,322.2h-.2v.2h.2v-.2ZM684,322.2v.2h.2v-.2h-.2ZM686.6,321.8h-1.3v.2c-.2.1-.3.2-.4.1,0,0-.2-.2,0-.3l.4-.9c0-.1.2-.2.3-.1,0,0,.2.2,0,.3v.2h1c0,0,.2.1.2.2s0,.2-.2.2h0ZM686.6,323.8c0,0-.3,0-.4-.1l-.5-.4c0,.2-.3.4-.5.5h-.3v-.3c0-.1.3-.3.5-.5l-.2-.2v-.3c0,0,.2-.1.3,0l.2.2c0-.1.2-.3.4-.4h.3v.3c0,.1-.2.3-.4.4l.5.5h0c0,0,.2.1.2.2s0,.2-.2.2h.1Z"/>
    <path class="st2" d="M690.3,325.1c0,.4-.3.6-.6.6s-.6-.3-.6-.6.3-.6.6-.6.6.3.6.6ZM690,325.1c0-.2-.2-.3-.3-.3s-.3.2-.3.3.2.4.3.4.3-.2.3-.4Z"/>
    <path class="st2" d="M696,324.3c0-.7.5-1.1,1-1.2v-1h-.4c0,0-.2-.1-.2-.2s0-.2.2-.2h.4v-.3c0-.1,0-.2.2-.2s.2.1.2.2v.3h1c0,0,.2,0,.2.2s0,.2-.2.2h-1v.9h1c0-.2.2-.3.3-.2,0,0,.2.2,0,.3h0c.4.2.7.6.7,1.1s-.4,1.2-1,1.6h-.3v-.3c.5-.4.8-.7.8-1.3s-.2-.5-.4-.6c-.4.9-1.1,1.9-1.8,1.9s-.9-.5-.9-1.2h.1ZM696.9,325c.5,0,1-.9,1.3-1.6h-.8v.7c0,.1,0,.2-.2.2s-.2,0-.2-.2v-.6c-.4.2-.6.5-.6.7,0,.4.2.8.5.7h0Z"/>
    <path class="st2" d="M702.5,324l.2-1.6h-.3c0,0-.2,0-.2-.2s0-.2.2-.2h.4v-.5c0-.1.2-.2.3-.2s.2.1.2.3v.5h.6c0,0,.2,0,.2.2s0,.2-.2.2h-.7l-.2,1.7c0,.1,0,.2-.3.2s-.2-.1-.2-.3h0ZM705.3,324.1h.7c0,0,.2.1.2.3s0,.2-.2.2h-.6v.4c0,.5-.2.7-.7.7s-.9-.4-.9-1,.3-.6.7-.7h.4v-1c0-.1,0-.2.2-.2s.2.1.2.2v1h0ZM704.8,324.6h-.3c-.2,0-.3,0-.3.2s.3.6.4.6c.2,0,.2-.1.2-.8h0ZM704.9,322h.9c0,0,.2.1.2.3s0,.2-.2.2h-.9c0,0-.2-.1-.2-.3s0-.2.2-.2Z"/>
    <path class="st2" d="M711.1,322.4h-1l-.6,3c0,.1,0,.2-.3.2s-.2-.1-.2-.3l.6-2.9h-.4c0,0-.2-.1-.2-.2s0-.2.2-.2h.5v-.6c.2-.1.3-.2.4-.2s.2.1.2.3v.5c0,0,.8,0,.8,0,0,0,.2.1.2.2s0,.2-.2.2ZM712.4,325.1c0,0,.2,0,.3.2,0,.1,0,.3-.2.3h-.7c-.6,0-.9-.3-.9-.8v-.2c0-.1,0-.2.3-.2s.2.1.2.3v.2c0,.2.2.3.5.3h.6,0ZM711.9,323.4h0c0-.1-.7-.1-.7-.1,0,0-.2-.1-.2-.2s0-.2.2-.2h1c0,0,.3.1.3.2s0,.2-.2.4v.2c-.2.1-.3.1-.4,0,0,0,0-.2,0-.3h0Z"/>
    <path class="st2" d="M717.6,322.4h-1l-.6,3c0,.1,0,.2-.3.2s-.2-.1-.2-.3l.6-2.9h-.4c0,0-.2-.1-.2-.2s0-.2.2-.2h.5v-.6c.2-.1.3-.2.4-.2s.2.1.2.3v.5c0,0,.8,0,.8,0,0,0,.2.1.2.2s0,.2-.2.2ZM718.9,325.1c0,0,.2,0,.3.2,0,.1,0,.3-.2.3h-.7c-.6,0-.9-.3-.9-.8v-.2c0-.1,0-.2.3-.2s.2.1.2.3v.2c0,.2.2.3.5.3h.6,0ZM718.4,323.4h0c0-.1-.7-.1-.7-.1,0,0-.2-.1-.2-.2s0-.2.2-.2h1c0,0,.3.1.3.2s0,.2-.2.4v.2c-.2.1-.3.1-.4,0,0,0,0-.2,0-.3h0ZM718.4,321.7s0-.2.2-.2.2,0,.2.2v.2s0,.2-.2.2-.2,0-.2-.2v-.2ZM719,321.7s0-.2.2-.2.2,0,.2.2v.2s0,.2-.2.2-.2,0-.2-.2v-.2Z"/>
    <path class="st2" d="M722,322c0-.1,0-.2.2-.2s.2.1.2.2c0,.9,0,1.6,0,2.5h.3c0-.1.2,0,.3,0,0,.1,0,.2,0,.3l-.5.2c0,0-.3,0-.3-.2v-2.9h-.1ZM725.6,322.6h-.4v1c0,.8-.2,1.3-.8,2.2,0,.1-.2.1-.3,0s0-.2,0-.3c.6-.9.7-1.4.8-2v-.9h-1.2c0,0-.2-.1-.2-.2s0-.2.2-.2h1.1v-.7c0-.1,0-.2.2-.3,0,0,.2,0,.3.2v.7h.5c0,0,.2.1.2.2s0,.2-.2.2h-.2Z"/>
    <path class="st2" d="M731.7,323.4c0-.8-.6-1.2-1.4-1.2s-1.5.6-1.5,1.4.2.9.4.9c.3,0,.7-.8.8-1.6,0-.1,0-.2.3-.2s.2.1.2.2c-.2.9-.6,2-1.3,2s-.8-.5-.8-1.3.9-1.8,1.9-1.8,1.8.5,1.8,1.7-.4,1.3-1.1,2h-.3v-.3c.7-.7,1-1.2,1-1.7h0Z"/>
    <path class="st2" d="M735,324.4c0-.4.4-.8,1.1-.9v-1.2h-.5c0,0-.2-.1-.2-.2s0-.2.2-.2h.5v-.4c0-.1,0-.2.2-.2s.2.1.2.2v.4h.7c0,0,.2,0,.2.2s0,.2-.2.2h-.7v1.1h.5c.8,0,1.4.3,1.5,1.1,0,.5-.3.9-.7,1.3h-.3v-.3c.3-.3.6-.6.6-.9s-.2-.6-1-.6h-.5v.8c0,.7-.3,1-.7.9-.3,0-.9-.5-.9-1.2h0ZM736,325.1q.2,0,.2-.4v-.7c-.4,0-.7.3-.7.5,0,.3.3.7.5.7h0ZM738.8,322.3c0,.1,0,.2-.2.2s-.2-.1-.2-.2v-.5c0-.1,0-.2.2-.2s.2.1.2.2v.5Z"/>
    <path class="st2" d="M741.9,324.7v-.4c0-.1.2-.2.3-.2s.2.1,0,.3v.2c0,.3.2.4,1,.4h1c0,0,.2,0,.3.2,0,.1,0,.2-.2.3h-1c-.4,0-1.4,0-1.4-.9h0ZM743.8,322.5l.2-.3h-1.7c0,0-.2-.1-.2-.2s0-.2.2-.2h2c0,0,.2,0,.2.2s0,.2,0,.4l-.2.3c0,.1-.2.1-.3,0,0,0,0-.2,0-.3h-.1Z"/>
    <path class="st2" d="M748,322c0-.1,0-.2.2-.2s.2.1.2.2c0,.9,0,1.6,0,2.5h.3c0-.1.2,0,.3,0,0,.1,0,.2,0,.3l-.5.2c0,0-.3,0-.3-.2v-2.9h-.1ZM751.5,322.6h-.4v1c0,.8-.3,1.3-.8,2.2,0,.1-.2.1-.3,0,0,0,0-.2,0-.3.6-.9.7-1.4.8-2v-.9h-1.2c0,0-.2-.1-.2-.2s0-.2.2-.2h1.1v-.7c0-.1,0-.2.2-.3,0,0,.2,0,.3.2v.7h.5c0,0,.2.1.2.2s0,.2-.2.2h-.2ZM751.4,321.4s0-.2.2-.2.2,0,.2.2v.2s0,.2-.2.2-.2,0-.2-.2v-.2ZM752,321.4s0-.2.2-.2.2,0,.2.2v.2s0,.2-.2.2-.2,0-.2-.2v-.2Z"/>
    <path class="st2" d="M754.8,325.8s-.2.1-.3,0c0,0,0-.2,0-.3.2-.2.5-.7.5-.7,0-.1,0-.2,0-.4v-.4c0-.1,0-.2.2-.2s.2.1.2.2v.7l.5.2v-1.9h-.9c0,0-.2,0-.2-.2s0-.2.2-.2h2.4c0,0,.2.1.2.2s0,.2-.2.2h-1v.6h.8c0,0,.2.1.2.2s0,.2-.2.2h-.8v1l1.2.5h.3c0,0,.2.1.2.2s0,.2-.2.2h-.5l-2.1-.9h0l-.5.8h-.1ZM755,322.1c0,.1,0,.2-.2.2s-.2-.1-.2-.2v-.4c0-.2,0-.3.3-.3h1.3v-.4c0-.1,0-.2.2-.2s.2.1.2.2v.4h1.3c.2,0,.3.1.3.3v.4c0,.1,0,.2-.2.2s-.2-.1-.2-.2v-.3h-2.8v.2h0Z"/>
    <path class="st2" d="M762.9,320.9c.2,0,.4,0,.5.2l1.4,1.1c0,0,0,.2,0,.3,0,.1-.2.1-.3,0-.4-.3-1.5-1.1-1.6-1.1h-.4s-1.1.8-1.5,1.1h-.3v-.3l1.4-1.1c0-.1.3-.2.5-.2h.3ZM762.7,325.6l-.4.3c0,0-.2.2-.4.1,0,0-.2,0-.2-.2v-3.1c0-.2,0-.3.3-.3h1.6c.2,0,.3.1.3.3v1.1c0,.2,0,.3-.3.3h-1.5v1.3l.3-.2h.3v.3h0ZM762.1,322.8v.3h1.3v-.3h-1.3ZM763.4,323.7v-.2h-1.3v.3h1.3ZM763.1,322.1c0,.1,0,.2-.2.2s-.2-.1-.2-.2v-.3c0-.1,0-.2.2-.2s.2.1.2.2v.3ZM764.3,325.4h.2c0,0,.2.1.2.2s0,.2-.2.2h0c-.2,0-.4,0-.5-.2l-1-1v-.3h.3l1,1.1h0ZM763.8,324.3l.4-.3h.3v.3l-.4.3h-.3v-.3Z"/>
    <path class="st2" d="M769.1,321.7h1.4c0,0,.2.1.2.2s0,.2-.2.2h-1.5l-.3.8c.3.1.5.2.8.4.2-.1.4-.3.5-.4h.3v.3c0,0-.3.2-.4.3.2.1.3.2.5.4,0,0,0,.2,0,.3h-.3s-.4-.3-.6-.4c-.4.4-.8.7-.8,1s0,.5.8.5h.7c0,0,.2,0,.3.2,0,.1,0,.2-.2.3h-.7c-1.1,0-1.2-.6-1.2-.9,0-.5.3-.8.9-1.3-.2-.1-.4-.2-.7-.3,0,0-.2-.2-.2-.4l.3-.8h-.6c0,0-.2,0-.2-.2s0-.2.2-.2h.8l.2-.6c0-.1.2-.2.3-.1,0,0,.2.2.2.3v.5h-.5Z"/>
    <path class="st2" d="M777.4,321.2c.2,0,.3.1.3.3v4.2c0,.2,0,.3-.3.3h-.3c0,0-.2-.1-.2-.2s0-.2.2-.2h.2v-1.3h-1.1v1.4c0,.1,0,.2-.2.2s-.2-.1-.2-.2v-1.4h-1c0,.2-.3,1.1-.5,1.5,0,.1-.2.2-.3.1,0,0-.2-.2,0-.3,0-.4.4-1.4.4-1.4,0-.4,0-.6,0-.9v-1.8c0-.2,0-.3.3-.3h2.8-.1ZM775.7,323.7v-.8h-.9v.3h0v.4h.9ZM774.8,322.4h.9v-.8h-.9v.8ZM777.2,321.6h-1.1v.8h1.1v-.8ZM777.2,323.7v-.8h-1.1v.8h1.1Z"/>
    <path class="st2" d="M783.4,322.2h.7c0,0,.2,0,.2.2s0,.2-.2.2h-3.6c0,0-.2,0-.2-.2s0-.2.2-.2h.8v-.3c0-.1,0-.2.2-.2s.2.1.2.2v.3h1.2v-.3c0-.1,0-.2.2-.2s.2.1.2.2v.3h0ZM781,324.9c0-.1.2-.1.3,0,0,0,0,.2,0,.3l-.4.6s-.2.1-.3,0c0,0,0-.2,0-.3l.5-.6h0ZM782.6,321v.2h1.1c0,0,.2,0,.2.2s0,.2-.2.2h-2.7c0,0-.2,0-.2-.2s0-.2.2-.2h1.1v-.2c0-.1,0-.2.2-.2s.2,0,.2.2h.1ZM781.5,324.5c-.2,0-.3-.2-.3-.3v-1.1c0-.2,0-.3.3-.3h1.6c.2,0,.3.1.3.3v1.1c0,.2,0,.3-.3.3h-1.7.1ZM783,323.3h-1.3v.2h1.3v-.2ZM783,324.1v-.2h-1.3v.2h1.3ZM783.3,325.2c0-.1,0-.2.2-.2s.2.1.2.2v.4c0,.2,0,.3-.3.3h-1.4c-.2,0-.3-.2-.3-.3v-.6c0-.1,0-.2.2-.2s.2,0,.2.2v.5h1.1v-.2h0ZM782.7,324.8c0-.1,0-.2.2-.2s.2,0,.2.2v.3c0,.1,0,.2-.2.2s-.2-.1-.2-.2v-.3ZM783.8,324.8c0-.1,0-.2.2-.2s.2,0,.2.2v.3c0,.1,0,.2-.2.2s-.2-.1-.2-.2v-.3Z"/>
    <path class="st2" d="M788.1,324.3c0,.5.5.9,1,.9s.7-.4,1-1.2c0-.2.2-.2.3-.1,0,0,.2.2,0,.3-.3.7-.7,1.4-1.4,1.4s-1.5-.5-1.4-1.4c0-.8,0-1.9.2-2.8,0-.1,0-.2.2-.2s.2.1.2.2c0,1.3-.2,2.3-.2,2.8h0Z"/>
    <path class="st2" d="M622.2,333v.5h.6c0,0,.2.1.2.2s0,.2-.2.2h-.6v.6h.6c0,0,.2.1.2.2s0,.2-.2.2h-.6v.8h.7c0,0,.2.1.2.3s0,.2-.3.2h-.7v.5c0,.4-.2.8-.7.8s-.9-.5-.9-1,.2-.7.8-.7h.4v-.8h-1c0,0-.2,0-.2-.2s0-.2.2-.2h1v-.6h-1c0,0-.2-.1-.2-.2s0-.2.2-.2h1v-.5c0-.1,0-.2.2-.2s.2,0,.2.2h0ZM621.7,336.2h-.3c-.2,0-.3,0-.4.2,0,.3.2.5.5.6.2,0,.2-.1.2-.3v-.5h0Z"/>
    <path class="st2" d="M628.4,334h-1.9c0,0-.2,0-.2-.2s0-.2.2-.2h1.9v-.6c0-.1,0-.2.2-.2s.2.1.2.2v.6h1c0,0,.2.1.2.2s0,.2-.2.2h-1v1.5c0,.6-.2,1.3-.6,1.9,0,.1-.2.2-.3,0,0,0,0-.2,0-.3.2-.4.4-.7.4-1h-.2c-.4,0-.9-.3-.8-1,0-.4.3-.7.7-.7h.4v-.6.2ZM628.4,335.1s-.2-.1-.4-.1-.3.2-.3.4c0,.3.2.5.4.5s.4-.2.3-.8Z"/>
    <path class="st2" d="M633.9,336.8c0,.4-.3.6-.6.6s-.6-.3-.6-.6.3-.6.6-.6.6.3.6.6ZM633.6,336.8c0-.2-.2-.3-.3-.3s-.3.2-.3.3.2.4.3.4.3-.2.3-.4Z"/>
    <path class="st2" d="M641.7,333v.5h.6c0,0,.2.1.2.2s0,.2-.2.2h-.6v.6h.6c0,0,.2.1.2.2s0,.2-.2.2h-.6v.8h.7c0,0,.2.1.2.3s0,.2-.3.2h-.7v.5c0,.4-.2.8-.7.8s-.9-.5-.9-1,.2-.7.8-.7h.4v-.8h-1c0,0-.2,0-.2-.2s0-.2.2-.2h1v-.6h-1c0,0-.2-.1-.2-.2s0-.2.2-.2h1v-.5c0-.1,0-.2.2-.2s.2,0,.2.2h0ZM641.2,336.2h-.3c-.2,0-.3,0-.4.2,0,.3.2.5.5.6.2,0,.2-.1.2-.3v-.5h0Z"/>
    <path class="st2" d="M648.1,334.1h-1l-.6,3c0,.1,0,.2-.3.2s-.2-.1-.2-.3l.6-2.9h-.4c0,0-.2-.1-.2-.2s0-.2.2-.2h.5v-.6c.2-.1.3-.2.4-.2s.2.1.2.3v.5c0,0,.8,0,.8,0,0,0,.2.1.2.2s0,.2-.2.2ZM649.4,336.8c0,0,.2,0,.3.2,0,.1,0,.3-.2.3h-.7c-.6,0-.9-.3-.9-.8v-.2c0-.1,0-.2.3-.2s.2.1.2.3v.2c0,.2.2.3.5.3h.6,0ZM649,335.1h0c0-.1-.7-.1-.7-.1,0,0-.2-.1-.2-.2s0-.2.2-.2h1c0,0,.3.1.3.2s0,.2-.2.4v.2c-.2.1-.3.1-.4,0,0,0,0-.2,0-.3h0Z"/>
    <path class="st2" d="M655.6,333.3l1.3,3.7c0,.1,0,.3,0,.3q-.2,0-.3-.2l-.2-.7h-1.9l-.3.7c0,.1-.2.2-.3.2-.2,0-.2-.2,0-.3l1.3-3.7c0-.2.2-.2.3-.2s.3,0,.3.2ZM656.1,336l-.8-2.2-.8,2.2h1.6Z"/>
    <path class="st2" d="M660,337.1c0,.1,0,.2-.2.2s-.2-.1-.2-.2v-3.9c0-.1,0-.2.2-.2s.2,0,.2.2v3.9Z"/>
    <path class="st2" d="M663.9,337.1c.5-1.1.8-1.7,1-2.5h-.6c0,0-.2,0-.2-.2s0-.2.2-.2h.7v-.7c0-.3,0-.2.2-.2s.2,0,.2.2v.7h.7c.5,0,.8.3.8.9s0,1.6-.2,2.3c0,.2-.2.3-.3.3h-.4c0,0-.2-.2-.2-.3s0-.2.2-.2h.2c0-.4,0-1.3,0-2s0-.5-.4-.5h-.7c-.3.9-.5,1.5-1.1,2.7,0,.1-.2.2-.3.1,0,0-.2-.2,0-.3h.2ZM667.3,333.4c.2.2.5.5.6.8v.3h-.3c-.2-.2-.5-.6-.6-.8v-.3h.3ZM667.6,332.9s0-.2.2-.2.2,0,.2.2v.2s0,.2-.2.2-.2,0-.2-.2v-.2ZM668.2,332.9s0-.2.2-.2.2,0,.2.2v.2s0,.2-.2.2-.2,0-.2-.2v-.2Z"/>
    <path class="st2" d="M670.7,336c0-.7.5-1.1,1-1.2v-1h-.4c0,0-.2-.1-.2-.2s0-.2.2-.2h.4v-.3c0-.1,0-.2.2-.2s.2.1.2.2v.3h1c0,0,.2,0,.2.2s0,.2-.2.2h-1v.9h1c0-.2.2-.3.3-.2,0,0,.2.2,0,.3h0c.4.2.7.6.7,1.1s-.4,1.2-1,1.6h-.3v-.3c.5-.4.8-.7.8-1.3s-.2-.5-.4-.6c-.4.9-1.1,1.9-1.8,1.9s-.9-.5-.9-1.2h.1ZM671.6,336.7c.5,0,1-.9,1.3-1.6h-.8v.7c0,.1,0,.2-.2.2s-.2,0-.2-.2v-.6c-.4.2-.6.5-.6.7,0,.4.2.8.5.7h0Z"/>
    <path class="st2" d="M677.2,335.7l.2-1.6h-.3c0,0-.2,0-.2-.2s0-.2.2-.2h.4v-.5c0-.1.2-.2.3-.2s.2.1.2.3v.5h.6c0,0,.2,0,.2.2s0,.2-.2.2h-.7l-.2,1.7c0,.1,0,.2-.3.2s-.2-.1-.2-.3h0ZM680,335.9h.7c0,0,.2.1.2.3s0,.2-.2.2h-.6v.4c0,.5-.2.7-.7.7s-.9-.4-.9-1,.3-.6.7-.7h.4v-1c0-.1,0-.2.2-.2s.2.1.2.2v1h0ZM679.5,336.3h-.3c-.2,0-.3,0-.3.2s.3.6.4.6c.2,0,.2-.1.2-.8h0ZM679.6,333.7h.9c0,0,.2.1.2.3s0,.2-.2.2h-.9c0,0-.2-.1-.2-.3s0-.2.2-.2Z"/>
    <path class="st2" d="M685.8,334.1h-1l-.6,3c0,.1,0,.2-.3.2s-.2-.1-.2-.3l.6-2.9h-.4c0,0-.2-.1-.2-.2s0-.2.2-.2h.5v-.6c.2-.1.3-.2.4-.2s.2.1.2.3v.5c0,0,.8,0,.8,0,0,0,.2.1.2.2s0,.2-.2.2ZM687.1,336.8c0,0,.2,0,.3.2,0,.1,0,.3-.2.3h-.7c-.6,0-.9-.3-.9-.8v-.2c0-.1,0-.2.3-.2s.2.1.2.3v.2c0,.2.2.3.5.3h.6,0ZM686.6,335.1h0c0-.1-.7-.1-.7-.1,0,0-.2-.1-.2-.2s0-.2.2-.2h1c0,0,.3.1.3.2s0,.2-.2.4v.2c-.2.1-.3.1-.4,0,0,0,0-.2,0-.3h0Z"/>
    <path class="st2" d="M690.4,337.1v-3.8c0-.1,0-.2.2-.2s.2.1.2.2c0,1.3,0,2.5,0,3.4l.2-.2s.2-.1.3,0v.3l-.3.3s-.2.2-.3.1c0,0-.2,0-.2-.2h-.1ZM693.6,337.1h-.7c-.6,0-1.1-.3-1.1-.9s0-.1,0-.2,0-.2.3-.2.2.2,0,.3h0c0,.3.2.4.7.4h.6c0,0,.2,0,.2.2s0,.2-.2.3h.1ZM692.1,333.6h1.3c0,0,.3.1.3.3s-.3.6-.3.6c0,.1-.2.1-.3,0,0,0,0-.2,0-.3v-.2c0,0-.9,0-.9,0,0,0-.2-.1-.2-.2s0-.2.2-.2h0Z"/>
    <path class="st2" d="M699.9,337.2v-3.1h-2.7v3.3c0,.1,0,.2-.2.2s-.2,0-.2-.2v-3.4c0-.2,0-.3.3-.3h3.1c.2,0,.3.1.3.3v3.4c0,.2,0,.3-.3.3h-.4c0,0-.2,0-.2-.2s0-.2.2-.2h.3-.2ZM697.5,333.2l1-.7h.3v.3l-1,.7h-.3v-.3ZM698.1,336.4c-.3,0-.3-.2-.3-.4v-1c0-.2,0-.3.3-.3h1c.2,0,.3.1.3.3v1c0,.2,0,.3-.3.3h-1ZM698.9,336v-.7h-.6v.7h.6Z"/>
    <path class="st2" d="M703.3,333.7c0-.1,0-.2.2-.2s.2.1.2.2c0,.9,0,1.6,0,2.5h.3c0-.1.2,0,.3,0,0,.1,0,.2,0,.3l-.5.2c0,0-.3,0-.3-.2v-2.9h-.1ZM706.8,334.3h-.4v1c0,.8-.2,1.3-.8,2.2,0,.1-.2.1-.3,0s0-.2,0-.3c.6-.9.7-1.4.8-2v-.9h-1.2c0,0-.2-.1-.2-.2s0-.2.2-.2h1.1v-.7c0-.1,0-.2.2-.3,0,0,.2,0,.3.2v.7h.5c0,0,.2.1.2.2s0,.2-.2.2h-.2Z"/>
    <path class="st2" d="M709.9,334.1c0,0-.2,0-.2-.2s0-.2.2-.2h3.1c0-.1.2,0,.2.1s0,.2-.2.2h-.5c-.7.7-1.2,1.5-1.2,2.1s.3.6.9.6.2.1.2.2,0,.2-.2.2c-.8,0-1.3-.4-1.3-1.1s.5-1.4,1.1-2.1h-2v.2Z"/>
    <path class="st2" d="M718.2,333.7c0-.2,0-.3,0-.5l.2-.4s.2-.1.2,0c0,0,0,.2,0,.2l-.3.5c0,0,.3,0,.3.3h0c0,.3,0,.4-.3.4s-.3,0-.3-.3h0v-.2ZM719.2,333.7c0-.2,0-.3,0-.5l.2-.4s.2-.1.2,0c0,0,0,.2,0,.2l-.3.5c0,0,.3,0,.3.3h0c0,.3,0,.4-.3.4s-.3,0-.3-.3h0v-.2Z"/>
    <path class="st2" d="M722.8,336.2c0-.4.4-.8,1.1-.9v-1.2h-.5c0,0-.2-.1-.2-.2s0-.2.2-.2h.5v-.4c0-.1,0-.2.2-.2s.2.1.2.2v.4h.7c0,0,.2,0,.2.2s0,.2-.2.2h-.7v1.1h.5c.8,0,1.4.3,1.5,1.1,0,.5-.3.9-.7,1.3h-.3v-.3c.3-.3.6-.6.6-.9s-.2-.6-1-.6h-.5v.8c0,.7-.3,1-.7.9-.3,0-.9-.5-.9-1.2h0ZM723.7,336.8q.2,0,.2-.4v-.7c-.4,0-.7.3-.7.5,0,.3.3.7.5.7h0ZM726.5,334c0,.1,0,.2-.2.2s-.2-.1-.2-.2v-.5c0-.1,0-.2.2-.2s.2.1.2.2v.5Z"/>
    <path class="st2" d="M729.6,336.4v-.4c0-.1.2-.2.3-.2s.2.1,0,.3v.2c0,.3.2.4,1,.4h1c0,0,.2,0,.3.2,0,.1,0,.2-.2.3h-1c-.4,0-1.4,0-1.4-.9h0ZM731.5,334.2l.2-.3h-1.7c0,0-.2-.1-.2-.2s0-.2.2-.2h2c0,0,.2,0,.2.2s0,.2,0,.4l-.2.3c0,.1-.2.1-.3,0,0,0,0-.2,0-.3h-.1Z"/>
    <path class="st2" d="M735.7,333.7c0-.1,0-.2.2-.2s.2.1.2.2c0,.9,0,1.6,0,2.5h.3c0-.1.2,0,.3,0,0,.1,0,.2,0,.3l-.5.2c0,0-.3,0-.3-.2v-2.9h-.1ZM739.2,334.3h-.4v1c0,.8-.3,1.3-.8,2.2,0,.1-.2.1-.3,0,0,0,0-.2,0-.3.6-.9.7-1.4.8-2v-.9h-1.2c0,0-.2-.1-.2-.2s0-.2.2-.2h1.1v-.7c0-.1,0-.2.2-.3,0,0,.2,0,.3.2v.7h.5c0,0,.2.1.2.2s0,.2-.2.2h-.2ZM739.1,333.1s0-.2.2-.2.2,0,.2.2v.2s0,.2-.2.2-.2,0-.2-.2v-.2ZM739.7,333.1s0-.2.2-.2.2,0,.2.2v.2s0,.2-.2.2-.2,0-.2-.2v-.2Z"/>
    <path class="st2" d="M742.4,337.1v-3.8c0-.1,0-.2.2-.2s.2.1.2.2c0,1.3,0,2.5,0,3.4l.2-.2s.2-.1.3,0v.3l-.3.3s-.2.2-.3.1c0,0-.2,0-.2-.2h-.1ZM745.6,337.1h-.7c-.6,0-1.1-.3-1.1-.9s0-.1,0-.2,0-.2.3-.2.2.2,0,.3h0c0,.3.2.4.7.4h.6c0,0,.2,0,.2.2s0,.2-.2.3h.1ZM744.2,333.6h1.3c0,0,.3.1.3.3s-.3.6-.3.6c0,.1-.2.1-.3,0,0,0,0-.2,0-.3v-.2c0,0-.9,0-.9,0,0,0-.2-.1-.2-.2s0-.2.2-.2h0Z"/>
    <path class="st2" d="M752.2,335.2h-3.4c0,0-.2-.1-.2-.2s0-.2.2-.2h3.4c0,0,.2.1.2.2s0,.2-.2.2Z"/>
    <path class="st2" d="M758.8,334h-3.4c0,0-.2-.1-.2-.2s0-.2.2-.2h3.4c0,0,.2.1.2.2s0,.2-.2.2ZM755.9,336.3c0-.2,0-.3.3-.3h1.7c.2,0,.3.1.3.3v.9c0,.2,0,.3-.3.3h-1.7c-.2,0-.3-.2-.3-.3v-.9ZM757.8,334.8h-1.5c0,0-.2-.1-.2-.2s0-.2.2-.2h1.5c0,0,.2.1.2.2s0,.2-.2.2ZM756.3,335.2h1.5c0,0,.2.1.2.2s0,.2-.2.2h-1.5c0,0-.2-.1-.2-.2s0-.2.2-.2ZM756.4,336.5v.6h1.3v-.6h-1.3ZM757.3,332.8v.4c0,.1,0,.2-.2.2s-.2-.1-.2-.2v-.4c0-.1,0-.2.2-.2s.2,0,.2.2Z"/>
    <path class="st2" d="M763.2,332.4v1.5h-.3v-1.5c0,0,.3,0,.3,0ZM764.3,332.4v1.5h-.3v-1.5c0,0,.3,0,.3,0Z"/>
    <path class="st2" d="M769.8,333.4h1.4c0,0,.2.1.2.2s0,.2-.2.2h-1.5l-.3.8c.3.1.5.2.8.4.2-.1.4-.3.5-.4h.3v.3c0,0-.3.2-.4.3.2.1.3.2.5.4,0,0,0,.2,0,.3h-.3s-.4-.3-.6-.4c-.4.4-.8.7-.8,1s0,.5.8.5h.7c0,0,.2,0,.3.2,0,.1,0,.2-.2.3h-.7c-1.1,0-1.2-.6-1.2-.9,0-.5.3-.8.9-1.3-.2-.1-.4-.2-.7-.3,0,0-.2-.2-.2-.4l.3-.8h-.6c0,0-.2,0-.2-.2s0-.2.2-.2h.8l.2-.6c0-.1.2-.2.3-.1,0,0,.2.2.2.3v.5h-.5Z"/>
    <path class="st2" d="M775.9,333.2l-.2.4h.9v-.8c0-.1,0-.2.2-.2s.2.1.2.2v.8h1.2c0,0,.2,0,.2.2s0,.2-.2.2h-1.2v1h.9c0,0,.2.1.2.2s0,.2-.2.2h-.9v1.4h1.5c0,0,.2.1.2.2s0,.2-.2.2h-3.5c0,0-.2-.1-.2-.2s0-.2.2-.2h1.6v-1.4h-1c0,0-.2-.1-.2-.2s0-.2.2-.2h1v-1h-1.1l-.3.6c0,.1-.2.1-.3,0,0,0,0-.2,0-.3l.8-1.5c0-.1.2-.1.3,0,0,0,0,.2,0,.3h-.1Z"/>
    <path class="st2" d="M781.3,337.3c0,.1-.2.2-.3.1,0,0-.2-.2,0-.3,0-.4.4-1.2.4-1.2,0-.2,0-.5,0-.8v-1.3c0-.2,0-.3.3-.3h1.8v-.6c0-.1,0-.2.2-.2s.2,0,.2.2v.6h.6c0,0,.2.1.2.2s0,.2-.2.2h-.6v.5l.3.8.2-.2h.3v.3l-.3.3.5,1.4h.2c0-.2.3-.1.3,0s0,.3,0,.3l-.3.2c0,0-.3,0-.4-.2,0-.3-.3-.9-.5-1.4l-.5.5h-.3c0,0,0-.2,0-.3l.6-.6c-.2-.6-.4-1.1-.4-1.1v-.5h-1.6v.7h.8c.2,0,.3.1.3.3v1.7c0,.2,0,.3-.3.3h-.4c0,0-.2,0-.2-.2s0-.2.2-.2h.2v-1.3h-.7c0,.4,0,.5,0,.9l-.4,1.2h0ZM785.3,333.4c0,.1,0,.2-.2.2s-.2,0-.2-.2v-.4c0-.1,0-.2.2-.2s.2.1.2.2v.4Z"/>
    <path class="st2" d="M788.6,336.8c0,.4-.3.6-.6.6s-.6-.3-.6-.6.3-.6.6-.6.6.3.6.6ZM788.3,336.8c0-.2-.2-.3-.3-.3s-.3.2-.3.3.2.4.3.4.3-.2.3-.4Z"/>
    <path class="st2" d="M639.1,349.3s-.2.1-.3,0c0,0,0-.2,0-.3.2-.2.5-.7.5-.7,0-.1,0-.2,0-.4v-.4c0-.1,0-.2.2-.2s.2.1.2.2v.7l.5.2v-1.9h-.9c0,0-.2,0-.2-.2s0-.2.2-.2h2.4c0,0,.2.1.2.2s0,.2-.2.2h-1v.6h.8c0,0,.2.1.2.2s0,.2-.2.2h-.8v1l1.2.5h.3c0,0,.2.1.2.2s0,.2-.2.2h-.5l-2.1-.9h0l-.5.8h-.1ZM639.3,345.6c0,.1,0,.2-.2.2s-.2-.1-.2-.2v-.4c0-.2,0-.3.3-.3h1.3v-.4c0-.1,0-.2.2-.2s.2.1.2.2v.4h1.3c.2,0,.3.1.3.3v.4c0,.1,0,.2-.2.2s-.2-.1-.2-.2v-.3h-2.8v.2h0Z"/>
    <path class="st2" d="M647.2,344.3c.2,0,.4,0,.5.2l1.4,1.1c0,0,0,.2,0,.3,0,.1-.2.1-.3,0-.4-.3-1.5-1.1-1.6-1.1h-.4s-1.1.8-1.5,1.1h-.3v-.3l1.4-1.1c0-.1.3-.2.5-.2h.3ZM647,349l-.4.3c0,0-.2.2-.4.1,0,0-.2,0-.2-.2v-3.1c0-.2,0-.3.3-.3h1.6c.2,0,.3.1.3.3v1.1c0,.2,0,.3-.3.3h-1.5v1.3l.3-.2h.3v.3h0ZM646.4,346.2v.3h1.3v-.3h-1.3ZM647.7,347.1v-.2h-1.3v.3h1.3ZM647.4,345.5c0,.1,0,.2-.2.2s-.2-.1-.2-.2v-.3c0-.1,0-.2.2-.2s.2.1.2.2v.3ZM648.6,348.9h.2c0,0,.2.1.2.2s0,.2-.2.2h0c-.2,0-.4,0-.5-.2l-1-1v-.3h.3l1,1.1h0ZM648.1,347.7l.4-.3h.3v.3l-.4.3h-.3v-.3Z"/>
    <path class="st2" d="M653.1,346.7l-.6-1.6c0-.1,0-.2,0-.3,0,0,.2,0,.3.1l.5,1.5s.8-.6,1.1-.9h.3v.3c-1.6,1.4-2,1.6-2,2.1s.3.6.8.6h1.1c0,0,.2,0,.2.2s0,.2-.2.2h-1.1c-.9,0-1.3-.4-1.3-1.1s.2-.8.7-1.3v.2Z"/>
    <path class="st2" d="M659,348.6c0,0-.3,0-.3-.1-.2-.8-.2-2,0-3,0-.1,0-.2.3-.2s.2.1.2.3c0,.9,0,1.9,0,2.6h.3c0-.2.2-.2.3,0v.3l-.5.2h-.2ZM661.6,347.6c0-.5-.3-1-.5-1.3v-.3c0,0,.2,0,.3,0,.2.4.4.9.5,1.4,0,.1,0,.2-.2.3,0,0-.2,0-.3-.2h.2Z"/>
    <path class="st2" d="M667.8,347.5c0-.3-.2-.5-.5-.5s-1.1,0-2.1.2c0,0-.2,0-.2-.2s0-.2.2-.2c.9,0,1.7-.2,2.1-.2s1,.3,1,.9-.4,1.1-1.5,1.5c0,0-.2,0-.3-.1,0,0,0-.2,0-.2,1-.3,1.2-.7,1.2-1.1h0Z"/>
    <path class="st2" d="M672.4,347.7c0,.5.5.9,1,.9s.7-.4,1-1.2c0-.2.2-.2.3-.1,0,0,.2.2,0,.3-.3.7-.7,1.4-1.4,1.4s-1.5-.5-1.4-1.4c0-.8,0-1.9.2-2.8,0-.1,0-.2.2-.2s.2.1.2.2c0,1.3-.2,2.3-.2,2.8h0Z"/>
    <path class="st2" d="M680.4,346.5h-.6v1.1h.8c0,0,.2.1.2.2s0,.2-.2.2h-.8v.4c0,.4-.2.6-.6.6s-.7-.3-.8-.9c0-.3.3-.6.7-.6h.2v-2.1c0-.5,0-.2.2-.2s.2,0,.2.2v.5h.6c0,0,.2,0,.2.2s0,.2-.2.2v.2ZM679.3,348.4v-.4h-.2c-.3,0-.4.1-.4.2,0,.2.3.4.4.4s.2,0,.2-.2Z"/>
    <path class="st2" d="M684.5,348.9v-3.8c0-.1,0-.2.2-.2s.2.1.2.2c0,1.3,0,2.5,0,3.4l.2-.2s.2-.1.3,0v.3l-.3.3s-.2.2-.3.1c0,0-.2,0-.2-.2h-.1ZM687.7,348.8h-.7c-.6,0-1.1-.3-1.1-.9s0-.1,0-.2,0-.2.3-.2.2.2,0,.3h0c0,.3.2.4.7.4h.6c0,0,.2,0,.2.2s0,.2-.2.3h.1ZM686.3,345.3h1.3c0,0,.3.1.3.3s-.3.6-.3.6c0,.1-.2.1-.3,0,0,0,0-.2,0-.3v-.2c0,0-.9,0-.9,0,0,0-.2-.1-.2-.2s0-.2.2-.2h0Z"/>
    <path class="st2" d="M690.9,348.2l.5.5v.3h-.3l-.5-.5v-.3h.3Z"/>
    <path class="st2" d="M697.4,347.7c0-.7.5-1.1,1-1.2v-1h-.4c0,0-.2-.1-.2-.2s0-.2.2-.2h.4v-.3c0-.1,0-.2.2-.2s.2.1.2.2v.3h1c0,0,.2,0,.2.2s0,.2-.2.2h-1v.9h1c0-.2.2-.3.3-.2,0,0,.2.2,0,.3h0c.4.2.7.6.7,1.1s-.4,1.2-1,1.6h-.3v-.3c.5-.4.8-.7.8-1.3s-.2-.5-.4-.6c-.4.9-1.1,1.9-1.8,1.9s-.9-.5-.9-1.2h.1ZM698.3,348.4c.5,0,1-.9,1.3-1.6h-.8v.7c0,.1,0,.2-.2.2s-.2,0-.2-.2v-.6c-.4.2-.6.5-.6.7,0,.4.2.8.5.7h0Z"/>
    <path class="st2" d="M703.9,347.4l.2-1.6h-.3c0,0-.2,0-.2-.2s0-.2.2-.2h.4v-.5c0-.1.2-.2.3-.2s.2.1.2.3v.5h.6c0,0,.2,0,.2.2s0,.2-.2.2h-.7l-.2,1.7c0,.1,0,.2-.3.2s-.2-.1-.2-.3h0ZM706.7,347.6h.7c0,0,.2.1.2.3s0,.2-.2.2h-.6v.4c0,.5-.2.7-.7.7s-.9-.4-.9-1,.3-.6.7-.7h.4v-1c0-.1,0-.2.2-.2s.2.1.2.2v1h0ZM706.2,348h-.3c-.2,0-.3,0-.3.2s.3.6.4.6c.2,0,.2-.1.2-.8h0ZM706.4,345.5h.9c0,0,.2.1.2.3s0,.2-.2.2h-.9c0,0-.2-.1-.2-.3s0-.2.2-.2Z"/>
    <path class="st2" d="M712.5,345.8h-1l-.6,3c0,.1,0,.2-.3.2s-.2-.1-.2-.3l.6-2.9h-.4c0,0-.2-.1-.2-.2s0-.2.2-.2h.5v-.6c.2-.1.3-.2.4-.2s.2.1.2.3v.5c0,0,.8,0,.8,0,0,0,.2.1.2.2s0,.2-.2.2ZM713.8,348.5c0,0,.2,0,.3.2,0,.1,0,.3-.2.3h-.7c-.6,0-.9-.3-.9-.8v-.2c0-.1,0-.2.3-.2s.2.1.2.3v.2c0,.2.2.3.5.3h.6,0ZM713.3,346.8h0c0-.1-.7-.1-.7-.1,0,0-.2-.1-.2-.2s0-.2.2-.2h1c0,0,.3.1.3.2s0,.2-.2.4v.2c-.2.1-.3.1-.4,0,0,0,0-.2,0-.3h0Z"/>
    <path class="st2" d="M717.1,348.9v-3.8c0-.1,0-.2.2-.2s.2.1.2.2c0,1.3,0,2.5,0,3.4l.2-.2s.2-.1.3,0v.3l-.3.3s-.2.2-.3.1c0,0-.2,0-.2-.2h-.1ZM720.3,348.8h-.7c-.6,0-1.1-.3-1.1-.9s0-.1,0-.2,0-.2.3-.2.2.2,0,.3h0c0,.3.2.4.7.4h.6c0,0,.2,0,.2.2s0,.2-.2.3h.1ZM718.8,345.3h1.3c0,0,.3.1.3.3s-.3.6-.3.6c0,.1-.2.1-.3,0,0,0,0-.2,0-.3v-.2c0,0-.9,0-.9,0,0,0-.2-.1-.2-.2s0-.2.2-.2h0Z"/>
    <path class="st2" d="M723.4,347.9c0-.4.4-.8,1.1-.9v-1.2h-.5c0,0-.2-.1-.2-.2s0-.2.2-.2h.5v-.4c0-.1,0-.2.2-.2s.2.1.2.2v.4h.7c0,0,.2,0,.2.2s0,.2-.2.2h-.7v1.1h.5c.8,0,1.4.3,1.5,1.1,0,.5-.3.9-.7,1.3h-.3v-.3c.3-.3.6-.6.6-.9s-.2-.6-1-.6h-.5v.8c0,.7-.3,1-.7.9-.3,0-.9-.5-.9-1.2h0ZM724.4,348.6q.2,0,.2-.4v-.7c-.4,0-.7.3-.7.5,0,.3.3.7.5.7h0ZM727.2,345.7c0,.1,0,.2-.2.2s-.2-.1-.2-.2v-.5c0-.1,0-.2.2-.2s.2.1.2.2v.5Z"/>
    <path class="st2" d="M731.2,346.7l-.6-1.6c0-.1,0-.2,0-.3,0,0,.2,0,.3.1l.5,1.5s.8-.6,1.1-.9h.3v.3c-1.6,1.4-2,1.6-2,2.1s.3.6.8.6h1.1c0,0,.2,0,.2.2s0,.2-.2.2h-1.1c-.9,0-1.3-.4-1.3-1.1s.2-.8.7-1.3v.2Z"/>
    <path class="st2" d="M737.4,346.8l-.6-1.6c0-.1,0-.2,0-.3,0,0,.2,0,.3.1l.5,1.5s.8-.6,1.1-.9h.3v.3c-1.6,1.4-2,1.6-2,2.1s.4.6.9.6h1.1c0,0,.2,0,.2.2s0,.2-.2.2h-1.1c-.9,0-1.3-.4-1.3-1.1s.2-.8.7-1.3v.2ZM739.4,345s0-.2.2-.2.2,0,.2.2v.2c0,.1,0,.2-.2.2s-.2,0-.2-.2v-.2ZM740,345s0-.2.2-.2.2,0,.2.2v.2c0,.1,0,.2-.2.2s-.2,0-.2-.2v-.2Z"/>
    <path class="st2" d="M743,345.4c0-.1,0-.2.2-.2s.2.1.2.2c0,.9,0,1.6,0,2.5h.3c0-.1.2,0,.3,0,0,.1,0,.2,0,.3l-.5.2c0,0-.3,0-.3-.2v-2.9h-.1ZM746.5,346h-.4v1c0,.8-.2,1.3-.8,2.2,0,.1-.2.1-.3,0s0-.2,0-.3c.6-.9.7-1.4.8-2v-.9h-1.2c0,0-.2-.1-.2-.2s0-.2.2-.2h1.1v-.7c0-.1,0-.2.2-.3,0,0,.2,0,.3.2v.7h.5c0,0,.2.1.2.2s0,.2-.2.2h-.2Z"/>
    <path class="st2" d="M750.5,347.7c0,.5.5.9,1,.9s.7-.4,1-1.2c0-.2.2-.2.3-.1,0,0,.2.2,0,.3-.3.7-.7,1.4-1.4,1.4s-1.5-.5-1.4-1.4c0-.8,0-1.9.2-2.8,0-.1,0-.2.2-.2s.2.1.2.2c0,1.3-.2,2.3-.2,2.8h0Z"/>
    <path class="st2" d="M758.1,344.7v.5h.6c0,0,.2.1.2.2s0,.2-.2.2h-.6v.6h.6c0,0,.2.1.2.2s0,.2-.2.2h-.6v.8h.7c0,0,.2.1.2.3s0,.2-.3.2h-.7v.5c0,.4-.2.8-.7.8s-.9-.5-.9-1,.2-.7.8-.7h.4v-.8h-1c0,0-.2,0-.2-.2s0-.2.2-.2h1v-.6h-1c0,0-.2-.1-.2-.2s0-.2.2-.2h1v-.5c0-.1,0-.2.2-.2s.2,0,.2.2h0ZM757.6,347.9h-.3c-.2,0-.3,0-.4.2,0,.3.2.5.5.6.2,0,.2-.1.2-.3v-.5h0Z"/>
    <path class="st2" d="M764.3,345.8h-1.9c0,0-.2,0-.2-.2s0-.2.2-.2h1.9v-.6c0-.1,0-.2.2-.2s.2.1.2.2v.6h1c0,0,.2.1.2.2s0,.2-.2.2h-1v1.5c0,.6-.2,1.3-.6,1.9,0,.1-.2.2-.3,0,0,0,0-.2,0-.3.2-.4.4-.7.4-1h-.2c-.4,0-.9-.3-.8-1,0-.4.3-.7.7-.7h.4v-.6.2ZM764.3,346.8s-.2-.1-.4-.1-.3.2-.3.4c0,.3.2.5.4.5s.4-.2.3-.8Z"/>
    <path class="st2" d="M769.8,348.5c0,.4-.3.6-.6.6s-.6-.3-.6-.6.3-.6.6-.6.6.3.6.6ZM769.5,348.5c0-.2-.2-.3-.3-.3s-.3.2-.3.3.2.4.3.4.3-.2.3-.4Z"/>
  </g>
  <path class="st2" d="M478.1,211.3c0-.4.4-.8,1.1-.9v-1.2h-.5c-.1,0-.2-.1-.2-.2s.1-.2.2-.2h.5v-.4c0-.1.1-.2.2-.2s.2.1.2.2v.4h.7c.1,0,.2,0,.2.2s0,.2-.2.2h-.7v1.1h.5c.8,0,1.4.3,1.5,1.1,0,.5-.3.9-.7,1.3h-.3v-.3c.3-.3.6-.6.6-.9s-.2-.6-1-.6h-.5v.8c0,.7-.3,1-.7.9-.3,0-.9-.5-.9-1.2h0ZM479,212q.2,0,.2-.4v-.7c-.4,0-.7.3-.7.5,0,.3.3.7.5.7h0ZM481.9,209c0,.1-.1.2-.2.2s-.2-.1-.2-.2v-.5c0-.1,0-.2.2-.2s.2.1.2.2v.5Z"/>
  <path class="st2" d="M485.2,211.5v-.4c0-.1.2-.2.3-.2s.2.1.1.3v.2c0,.3.2.4,1,.4h1c.1,0,.2,0,.3.2,0,.1,0,.2-.2.3h-1c-.4,0-1.4,0-1.4-.9h-.1ZM487.1,209.3l.2-.3h-1.7c-.1,0-.2-.1-.2-.2s.1-.2.2-.2h2.1c.1,0,.2,0,.2.2s0,.2-.1.4l-.2.3c0,.1-.2.1-.3,0-.1,0-.1-.2,0-.3h-.1Z"/>
  <path class="st2" d="M491.3,208.8c0-.1.1-.2.2-.2s.2.1.2.2c0,.9-.1,1.6,0,2.6h.3c.1-.1.2,0,.3,0,0,.1,0,.2-.1.3l-.5.2c-.1,0-.3,0-.3-.2v-3h-.1ZM495,209.3h-.4v1c0,.8-.3,1.3-.8,2.3,0,.1-.2.1-.3,0-.1,0-.1-.2,0-.3.6-.9.7-1.4.8-2.1v-.9h-1.2c-.1,0-.2-.1-.2-.2s0-.2.2-.2h1.1v-.7c0-.1,0-.2.2-.3.1,0,.2,0,.3.2v.7h.5c.1,0,.2.1.2.2s-.1.2-.2.2h-.2ZM494.8,208.1s0-.2.2-.2.2,0,.2.2v.2s0,.2-.2.2-.2,0-.2-.2v-.2ZM495.6,208.1s0-.2.2-.2.2,0,.2.2v.2s0,.2-.2.2-.2,0-.2-.2v-.2Z"/>
  <path class="st2" d="M498.2,210.5h-.3v-.3l1.4-1.1c.2-.1.3-.2.5-.2h.2c.2,0,.3,0,.4.2.3.3,1.1.8,1.4,1.1,0,0,.1.2,0,.3,0,0-.2.1-.3,0-.3-.3-1.1-.9-1.4-1.1h-.4c-.3.3-1.2.9-1.5,1.2h0ZM500.7,208.6h0c0-.1-1.5-.1-1.5-.1h0c0,.3-.1.4-.2.4s-.2-.1-.2-.2h0c0-.1-.5-.1-.5-.1-.1,0-.2-.1-.2-.2s.1-.2.2-.2h.5v-.2c0-.1,0-.2.2-.2s.2.1.2.2v.2h1.5v-.2c0-.1,0-.2.2-.2s.2.1.2.2v.2h.6c.1,0,.2.1.2.2s-.1.2-.2.2h-.6c0,.3-.1.4-.2.4s-.2-.1-.2-.2v-.2ZM499,211.9l-.5.4h-.3v-.3l.5-.4h.3v.3ZM498.6,210.6h1.1v-.5c0-.1.1-.2.2-.2s.2,0,.2.2v.5h1c.1,0,.2.1.2.2s0,.2-.2.2h-1v1.4c0,.2-.1.3-.3.3h-.4c-.1,0-.2-.1-.2-.2s.1-.2.2-.2h.2v-1.3h-1.1c-.1,0-.2-.1-.2-.2s.1-.2.2-.2h.1ZM501.3,212.3l-.5-.4v-.3c0-.1.2,0,.3,0l.5.4v.3c0,.1-.2,0-.3,0Z"/>
  <path class="st2" d="M465.8,387.9l-.6-1.6c0-.1,0-.2.1-.3.1,0,.2,0,.3.1l.5,1.5s.8-.6,1.1-.9h.3v.3c-1.6,1.4-2.1,1.6-2.1,2.2s.3.6.8.6h1.1c.1,0,.2,0,.2.2s0,.2-.2.2h-1.1c-.9,0-1.3-.4-1.3-1.1s.2-.8.7-1.3v.2Z"/>
  <path class="st2" d="M471.7,387.6c-.1,0-.2,0-.3-.2,0-.1,0-.2.2-.3.4,0,1.4-.3,1.8-.3.6,0,.9.3.9,1,0,1.3-.5,2.1-1.5,2.8h-.3v-.3c1-.7,1.3-1.3,1.3-2.4s-.2-.6-.6-.5c-.2,0-1.2.2-1.6.3h.1ZM473.3,386.4c0,.1-.1.2-.2.2s-.2-.1-.2-.2v-.6c0-.1.1-.2.2-.2s.2.1.2.2v.6Z"/>
  <path class="st2" d="M477.9,389.9s-.2.1-.3,0c0,0-.1-.2,0-.3l.5-.6s.2-.1.3,0c0,0,.1.2,0,.3l-.5.6ZM480.4,386.8l-.5.5h-.3v-.3l.4-.5-1-.2c-.1,0-.2-.1-.2-.3s.1-.2.3-.2l1.4.2c.1,0,.2.1.2.3s-.1.2-.2.3v.2ZM480,389.6c0-.3-.3-.8-.5-1.3v-.3h.3c.3.6.6,1,.6,1.4,0,.6-.3.9-.7.9h-.6c-.1,0-.2-.2-.1-.3,0-.1.2-.2.3-.1s.2,0,.4,0,.3,0,.4-.4h-.1ZM481.4,389l.5.6v.3h-.3l-.5-.6v-.3h.3Z"/>
  <path class="st2" d="M487.8,388.1c0-.8-.6-1.2-1.4-1.2s-1.5.6-1.5,1.4.2.9.4.9c.3,0,.7-.8.8-1.6,0-.1.1-.2.3-.2s.2.1.2.2c-.2.9-.6,2.1-1.3,2.1s-.8-.5-.8-1.3.9-1.8,1.9-1.8,1.8.5,1.8,1.7-.4,1.3-1.1,2.1h-.3v-.3c.7-.7,1-1.2,1-1.7h0Z"/>
  <path class="st2" d="M491.2,389.5c0,.1-.2.1-.3,0,0,0-.1-.2,0-.3l.5-.5s.2-.1.3,0c.1,0,.1.2,0,.3l-.5.5ZM492.4,387.8h-1.1c-.1,0-.2-.1-.2-.2s0-.2.2-.2h1.5v-.6h-1c-.1,0-.2,0-.2-.2s.1-.2.2-.2h1v-.5c0-.1.1-.2.2-.2s.2.1.2.2v.5h1c.1,0,.2.1.2.2s-.1.2-.2.2h-1v.6h1.6c.1,0,.2.1.2.2s-.1.2-.2.2h-1v2.6c0,.2-.1.3-.3.3h-.4c-.1,0-.2-.1-.2-.2s.1-.2.2-.2h.3v-2.5h-.6v.6c0,.4,0,.6-.2.9l-.5,1c0,.1-.2.2-.3,0-.1,0-.2-.2,0-.3.2-.3.5-1,.5-1,.1-.3.1-.5.1-.7v-.6h0ZM494.7,388.6l.5.5v.3h-.3l-.5-.5v-.3h.3Z"/>
  <path class="st2" d="M500,387h-1l-.6,3.1c0,.1-.1.2-.3.2s-.2-.1-.2-.3l.6-3h-.4c-.1,0-.2-.1-.2-.2s0-.2.2-.2h.5v-.6c.2-.1.3-.2.4-.2s.2.1.2.3v.5c-.1,0,.8,0,.8,0,.1,0,.2.1.2.2s-.1.2-.2.2ZM501.4,389.9c.1,0,.2,0,.3.2,0,.1,0,.3-.2.3h-.7c-.6,0-.9-.3-.9-.8v-.2c0-.1.1-.2.3-.2s.2.1.2.3v.2c0,.2.2.3.5.3h.6-.1ZM500.9,388h0c0-.1-.7-.1-.7-.1-.1,0-.2-.1-.2-.2s.1-.2.2-.2h1c.1,0,.3.1.3.2s0,.2-.2.4v.2c-.2.1-.3.1-.4,0-.1,0-.1-.2,0-.3h0ZM500.8,386.4s0-.2.2-.2.2,0,.2.2v.2s0,.2-.2.2-.2,0-.2-.2v-.2ZM501.4,386.4s0-.2.2-.2.2,0,.2.2v.2s0,.2-.2.2-.2,0-.2-.2v-.2Z"/>
  <path class="st2" d="M505.6,389.1c0,.5.5.9,1,.9s.7-.4,1-1.2c0-.2.2-.2.3-.1.1,0,.2.2.1.3-.3.7-.7,1.4-1.4,1.4s-1.5-.5-1.4-1.4c0-.8.1-1.9.2-2.9,0-.1.1-.2.2-.2s.2.1.2.2c0,1.3-.2,2.4-.2,2.9h0Z"/>
  <path class="st2" d="M36.2,193.8c0,1.5-.8,2.5-2.8,3.1-.2,0-.5,0-.6-.2,0-.2.1-.4.3-.5,1.6-.5,2.2-1.3,2.3-2.4,0-1-.3-2.1-1.5-2.1s-1.8,1-2.8,1.6v3.6c0,.2-.2.4-.4.4s-.4-.2-.4-.4v-3c-.4.4-.9.7-1.1.9-.2.1-.4.1-.6,0-.1-.2-.1-.4,0-.6l1.6-1.3v-1h-.8c-.2,0-.4-.2-.4-.4s.2-.4.4-.4h.8v-1.5c0-.2.2-.4.4-.4s.4.2.4.4v2.7c1.6-1.2,2.1-1.4,2.8-1.4,1.7,0,2.5,1.4,2.4,2.8v.2Z"/>
  <path class="st2" d="M32.8,203.3h-1.8l-1.1,5.4c0,.2-.2.3-.5.3s-.4-.3-.3-.5l1.1-5.3h-.7c-.2,0-.4-.2-.4-.4s.2-.4.4-.4h.9l.2-1.1c0-.2.3-.4.5-.3.2,0,.3.3.3.5l-.2.9h1.7c.2,0,.4.2.4.4s-.2.4-.4.4h-.1ZM35.3,208.2c.2,0,.4,0,.4.3s-.1.5-.3.5h-1.2c-1,0-1.6-.6-1.6-1.4v-.3c0-.2.2-.4.5-.3.2,0,.3.2.3.5v.3c0,.4.4.5.8.5h1.1ZM34.4,205l.2-.3h-1.3c-.2,0-.4-.2-.4-.4s.2-.4.4-.4h1.8c.2,0,.5.2.5.4s-.1.4-.3.7l-.2.3c-.1.2-.4.2-.6.1-.2-.1-.2-.4,0-.5h-.1Z"/>
  <path class="st2" d="M31,218.5c0,.9.9,1.6,1.7,1.6s1.2-.7,1.7-2.2c0-.3.3-.3.5-.2.2,0,.3.3.2.6-.5,1.3-1.2,2.6-2.5,2.6s-2.7-.9-2.6-2.6c0-1.4.2-3.4.3-5,0-.2.2-.4.4-.4s.4.2.4.4c-.1,2.3-.3,4.2-.3,5.1h0Z"/>
  <path class="st2" d="M34.9,228.7c0-1.3-1.1-2.3-2.5-2.3s-2.8,1.1-2.8,2.5.4,1.6.7,1.6c.6,0,1.2-1.5,1.4-2.9,0-.2.2-.4.5-.3.2,0,.4.2.3.4-.3,1.7-1.1,3.6-2.3,3.6s-1.5-.8-1.4-2.5c0-1.8,1.5-3.2,3.5-3.3,1.6,0,3.4,1,3.3,3,0,1.2-.7,2.5-2.1,3.7-.2.2-.4.2-.6,0-.2-.2-.2-.4,0-.6,1.2-1.2,1.8-2.2,1.8-3.1h0Z"/>
  <path class="st2" d="M29.1,242.4c0-.7.7-1.4,2.1-1.7v-2.2h-.9c-.2,0-.4-.2-.4-.4s.2-.4.4-.4h.9v-.8c0-.2.2-.4.4-.4s.4.2.4.4v.8h1.2c.2,0,.4.2.4.4s-.2.4-.4.4h-1.2v2.1h.9c1.5,0,2.7.5,2.7,1.9s-.6,1.6-1.3,2.3c-.2.2-.4.2-.6,0-.2-.1-.2-.4,0-.5.6-.6,1.1-1.1,1.1-1.7s-.4-1.1-1.8-1.1h-.9v1.4c0,1.3-.5,1.7-1.2,1.6-.5,0-1.6-1-1.6-2.2h0ZM30.8,243.7c.3,0,.3-.1.3-.8v-1.3c-.8.2-1.2.5-1.2.9s.6,1.2.9,1.2h0ZM35.9,238.4c0,.2-.2.4-.4.4s-.4-.2-.4-.4v-.8c0-.2.2-.4.4-.4s.4.2.4.4v.8Z"/>
  <path class="st2" d="M29.8,254.7v-.7c0-.2.3-.4.5-.3.2,0,.3.3.2.5v.4c0,.5.4.7,1.8.8.4,0,1,0,1.7-.2.2,0,.4,0,.5.3,0,.2-.2.4-.4.5-.6.1-1.3.2-1.8.2s-2.5,0-2.6-1.5ZM33.3,250.8l.3-.6h-3.1c-.2,0-.4-.2-.4-.4s.2-.4.4-.4h3.6c.2,0,.4.2.4.4s0,.4-.2.8l-.3.6c0,.2-.3.3-.5.2s-.3-.3-.2-.5h0Z"/>
  <path class="st2" d="M29,261.6c0-.2.2-.4.4-.4s.4.2.4.4c-.1,1.6-.2,3,0,4.6l.5-.2c.2,0,.4,0,.5.2s0,.4-.3.5l-.9.3c-.2,0-.5,0-.5-.4-.2-1.5-.1-3.5,0-5.2v.2ZM35.4,262.7h-.7v1.7c0,1.3-.5,2.5-1.5,4-.1.2-.4.2-.6.1-.2-.1-.2-.3-.1-.5,1.1-1.6,1.3-2.6,1.4-3.7v-1.7h-2.2c-.2,0-.4-.2-.4-.4s.2-.4.4-.4h2.1c0-.3,0-.8-.2-1.2,0-.2.1-.4.3-.5s.4.1.5.3c0,.4.1.8.2,1.3h.8c.2,0,.4.2.4.4s-.2.4-.4.4v.2ZM35.2,260.4c0-.2.1-.3.3-.3s.3.1.3.3v.4c0,.2-.1.3-.3.3s-.3-.1-.3-.3v-.4ZM36.3,260.4c0-.2.1-.3.3-.3s.3.1.3.3v.4c0,.2-.1.3-.3.3s-.3-.1-.3-.3v-.4Z"/>
  <path class="st2" d="M42.7,192c0-.2.2-.4.4-.4h3.2c.1,0,.2,0,.2.2s0,.2-.2.2h-3.2v1.4c0,.1,0,.2-.2.2s-.2,0-.2-.2v-1.4Z"/>
  <path class="st2" d="M43.7,198.5c-.3,0-.5,0-.7-.3-.2-.2-.3-.4-.3-.7v-.6c0-.4.1-.5.3-.7s.4-.3.7-.3h1.7c.3,0,.5,0,.7.3.2.2.3.4.3.7v.6c0,.4-.1.5-.3.7s-.4.3-.7.3h-1.7ZM43.6,196.4c-.1,0-.2,0-.3.1h0s-.1.1-.1.3v.7c0,.1,0,.2.1.3h0c.1.1.2.1.3.1h1.9c.1,0,.2,0,.3-.1h0s.1-.1.1-.3v-.7c0-.1,0-.2-.1-.3h0c-.1-.1-.2-.1-.3-.1h-1.9Z"/>
  <path class="st2" d="M42.8,202l3.5-1.2c.1,0,.2,0,.3.1,0,.1,0,.2-.1.3l-3.2,1.1,3.2,1.1c.1,0,.2.2.1.3,0,.1-.2.2-.3.1l-3.5-1.2s-.2-.1-.2-.3.1-.3.2-.3h0Z"/>
  <path class="st2" d="M42.7,206.5c0-.2.2-.4.4-.4h2.9c.2,0,.4.2.4.4v1.4c0,.2-.2.4-.4.4h-.4c-.1,0-.2,0-.2-.2s0-.2.2-.2h.4v-1.5h-1.2v1.5c0,.1,0,.2-.2.2s-.2,0-.2-.2v-1.5h-1.3v1.5h.3c.1,0,.2,0,.2.2s0,.2-.2.2h-.3c-.2,0-.4-.2-.4-.4v-1.4h.1Z"/>
  <path class="st2" d="M46.3,217.7h-3.5c-.1,0-.2,0-.2-.2s0-.2.2-.2h2.8l-2.7-1.1c-.1,0-.2-.2-.2-.3,0-.2,0-.3.2-.3l2.7-1.1h-2.8c-.1,0-.2,0-.2-.2s0-.2.2-.2h3.5q.2,0,.2.2t-.2.3l-3.1,1.3,3.1,1.3c.1,0,.2.2.2.3s0,.2-.2.2Z"/>
  <path class="st2" d="M46.3,222.9l-1.9-1.2h-1.4c-.1,0-.2,0-.2-.2s0-.2.2-.2h1.4l1.9-1.3h.3c.1,0,0,.2,0,.3l-1.7,1.1,1.7,1.1s.1.2,0,.3c0,0-.2.1-.3,0h0Z"/>
  <path class="st2" d="M43.7,231.1c-.3,0-.5,0-.7-.3-.2-.2-.3-.4-.3-.7v-.6c0-.4.1-.5.3-.7s.4-.3.7-.3h1.7c.3,0,.5,0,.7.3.2.2.3.4.3.7v.6c0,.4-.1.5-.3.7s-.4.3-.7.3h-1.7ZM43.6,228.9c-.1,0-.2,0-.3.1h0s-.1.1-.1.3v.7c0,.1,0,.2.1.3h0c.1.1.2.1.3.1h1.9c.1,0,.2,0,.3-.1h0s.1-.1.1-.3v-.7c0-.1,0-.2-.1-.3h0c-.1-.1-.2-.1-.3-.1h-1.9Z"/>
  <path class="st2" d="M45.2,234.8l-2.3,1.3h-.3v-.3l2.2-1.2-.5-.6h-1.5c-.1,0-.2,0-.2-.2s0-.2.2-.2h3.5c.1,0,.2,0,.2.2s0,.2-.2.2h-1.4l1.5,1.7v.3h-.3l-.9-1v-.2Z"/>
  <path class="st2" d="M43.7,240.9c-.3,0-.5,0-.7-.3-.2-.2-.3-.4-.3-.7v-.6c0-.4.1-.5.3-.7s.4-.3.7-.3h1.7c.3,0,.5,0,.7.3.2.2.3.4.3.7v.6c0,.4-.1.5-.3.7s-.4.3-.7.3h-1.7ZM43.6,238.8c-.1,0-.2,0-.3.1h0s-.1.1-.1.3v.7c0,.1,0,.2.1.3h0c.1.1.2.1.3.1h1.9c.1,0,.2,0,.3-.1h0s.1-.1.1-.3v-.7c0-.1,0-.2-.1-.3h0c-.1-.1-.2-.1-.3-.1h-1.9Z"/>
  <path class="st2" d="M45.3,243.2c.3,0,.5,0,.7.3l.2.2c.2.2.3.4.3.7v.8c0,.2-.2.4-.4.4h-.4c-.1,0-.2,0-.2-.2s0-.2.2-.2h.4v-.9c0-.1,0-.2-.1-.3l-.3-.4s-.2-.1-.3-.1h-1.5c-.1,0-.2,0-.3.1l-.3.3c-.1.1-.1.2-.1.3v1h1.3v-.7c0-.1,0-.2.2-.2s.2,0,.2.2v.7c0,.2-.2.4-.4.4h-1.2c-.2,0-.4-.2-.4-.4v-.8c0-.3,0-.4.3-.7l.2-.2c.2-.2.3-.3.7-.3h1.3-.1Z"/>
  <path class="st2" d="M42.7,248.5c0-.2.2-.4.4-.4h2.9c.2,0,.4.2.4.4v1.4c0,.2-.2.4-.4.4h-.4c-.1,0-.2,0-.2-.2s0-.2.2-.2h.4v-1.5h-1.2v1.5c0,.1,0,.2-.2.2s-.2,0-.2-.2v-1.5h-1.3v1.5h.3c.1,0,.2,0,.2.2s0,.2-.2.2h-.3c-.2,0-.4-.2-.4-.4v-1.4h.1Z"/>
  <path class="st2" d="M28.3,383c-.1-.3-.5-.7-.9-1h0c1.7.1,1.4,1.3.8,1h.1ZM28.1,385.2c0-.2.6-1.4,1.6-3.6h.2c-.3,1.1-1,3-1.2,3.4,0,.2-.1.5-.1.7,0,.4.2.7.2,1.4s-.2.5-.4.5-.2-.1-.3-.4c.1-.8,0-1.4-.1-1.6,0,0-.2,0-.4-.1v-.2h.4s.1,0,.2-.2h-.1ZM28.9,381.5c-.1-.4-.6-.8-.9-1h0c1.7.2,1.4,1.4.8,1h.1ZM31.8,385.9h0c-.4.4-1.1.9-1.9,1.5,0,0,0,.2-.1.2l-.4-.6c.4-.2,1.4-.6,2.6-1.1h-.1ZM33.9,383.2l.4-.5s.4.3.7.6c0,0,0,.1-.2.1h-5.3v-.2h4.4ZM31.1,385.4c-.2-.5-.7-1-1.2-1.4h0c2.2.4,1.8,1.7,1.1,1.4h.1ZM31.2,381c0,.1,0,.2-.3.2v2.2h-.5v-2.5h.8ZM32.8,380.3c0,.1,0,.2-.3.2v2.8h-.5v-3.1h.8ZM33.7,381.6l.4-.5s.4.3.7.6c0,0,0,.1-.2.1h-2.2v-.2s1.2,0,1.2,0ZM34.4,387.6c-.3-.6-1.2-1.3-1.8-1.7h0c2.7.5,2.5,2.1,1.7,1.7h.1ZM34.6,384.2s-.2.1-.3,0c-.5.4-1.1.8-1.6,1.1h0c.4-.5.9-1.1,1.3-1.7l.7.5h-.1Z"/>
  <path class="st2" d="M35.6,385.2h0c1.4-.9,3-2.5,3.5-3.6l1,.2s-.1.1-.3.1c.7,1,2.1,1.8,3.5,2.4h0c-.2.2-.4.4-.5.6-1.3-.6-2.6-1.6-3.1-2.9-.7,1.2-2.3,2.5-3.9,3.2h-.2ZM38.3,380.7c-.4.7-1.2,1.6-2.3,2.3h0c.8-.8,1.5-1.9,1.8-2.7l.8.4s-.1.1-.3,0h-.1ZM37.4,387.6h0v-3.5l.6.3h3.4v.2h-3.4v2.8s-.2.2-.4.2h-.2ZM41.2,387.1h-3.7v-.2h3.7v.2ZM42.1,382.5c-.3-.7-1.2-1.5-1.9-2.1h0c2.9.9,2.6,2.5,1.8,2.1h.1ZM41.2,384.1l.7.5s-.2.1-.3.2v2.7s-.3.2-.4.2h0v-3.2h0l.3-.3h-.3Z"/>
  <path class="st2" d="M46,381.1h1.2v.3h-1.2v-.3ZM46,386.8h2.5v.3h-2.6v-.2h.1ZM46.8,384.2v-3.2h.7v6.1h-.7v-2.8h0ZM47.2,384.3h.8c1.2,0,1.7-.6,1.7-1.5s-.5-1.4-1.5-1.4h-1v-.3h1.1c1.5,0,2.2.6,2.2,1.7s-.7,1.7-2.5,1.7h-.8v-.3h0Z"/>
  <path class="st2" d="M50.9,386.8h1.8v.3h-1.8v-.2h0ZM53.5,381.1h.4l2.1,6.1h-.7l-1.8-5.5h.2c0,.1-1.7,5.5-1.7,5.5h-.3s1.9-6.1,1.9-6.1ZM52.3,384.7h2.5v.3h-2.6v-.3h.1ZM54.2,386.8h2.4v.3h-2.4v-.2h0Z"/>
  <path class="st2" d="M57.1,381.1h1.2v.3h-1.2v-.3ZM57.1,386.8h2.5v.3h-2.5v-.2h0ZM58,384.2v-3.2h.7v6.1h-.7v-2.8h0ZM60.8,386.6l-.4-1.4c-.2-.7-.4-.9-1.1-.9h-.9v-.3h1.2c.9,0,1.4-.6,1.4-1.3s-.5-1.2-1.4-1.2h-1.1v-.3h1.2c1.3,0,2.1.5,2.1,1.5s-.6,1.4-1.8,1.5h0c.9,0,1.1.3,1.3,1l.5,1.6-.3-.2h1.1v.3h-.7c-.5,0-.8-.2-.8-.5l-.2.2Z"/>
  <path class="st2" d="M63,384c0-1.9,1.3-3.2,3-3.2s1.1.1,1.7.4v1.3h-.3l-.3-1.4h.4v.4c-.4-.3-.8-.5-1.3-.5-1.3,0-2.4,1-2.4,2.9s.9,2.9,2.3,2.9,1-.1,1.4-.5v.3h-.4c0,.1.3-1.2.3-1.2h.4v1.3c-.5.3-1.1.4-1.7.4-1.7,0-3-1.1-3-3.1h-.1Z"/>
  <path class="st2" d="M68.6,384c0-1.9,1.2-3.1,2.7-3.1s2.7,1.1,2.7,3.1-1.2,3.1-2.7,3.1-2.7-1.1-2.7-3.1ZM73.2,384c0-1.5-.6-2.9-1.9-2.9s-1.9,1.3-1.9,2.9.6,2.9,1.9,2.9,1.9-1.3,1.9-2.9Z"/>
  <path class="st2" d="M77,381.1h1.2v.3h-1.2v-.3ZM77,386.8h2.5v.3h-2.6v-.2h.1ZM77.8,384.2v-3.2h.7v6.1h-.7v-2.8h0ZM78.2,384.3h.8c1.2,0,1.7-.6,1.7-1.5s-.5-1.4-1.5-1.4h-1v-.3h1.1c1.5,0,2.2.6,2.2,1.7s-.7,1.7-2.5,1.7h-.8v-.3h0Z"/>
  <path class="st2" d="M82.3,384c0-1.9,1.2-3.1,2.7-3.1s2.7,1.1,2.7,3.1-1.2,3.1-2.7,3.1-2.7-1.1-2.7-3.1ZM86.8,384c0-1.5-.6-2.9-1.9-2.9s-1.9,1.3-1.9,2.9.6,2.9,1.9,2.9,1.9-1.3,1.9-2.9Z"/>
  <path class="st2" d="M88.6,381.1h1.2v.3h-1.2v-.3ZM88.6,386.8h2.5v.3h-2.6v-.2h.1ZM89.4,384.2v-3.2h.7v6.1h-.7v-2.8h0ZM89.7,384.3h.8c1.2,0,1.7-.6,1.7-1.5s-.5-1.4-1.5-1.4h-1v-.3h1.1c1.5,0,2.2.6,2.2,1.7s-.7,1.7-2.5,1.7h-.8v-.3h0Z"/>
  <path class="st2" d="M93.7,381.1h2.5v.2h-2.5v-.3h0ZM94.5,384.7v-3.7h.7v3.6c0,1.5.6,2.1,1.5,2.1s1.6-.6,1.6-2.2v-3.5h.3v3.6c0,1.6-.7,2.5-2.2,2.5s-2.2-.7-2.2-2.4h.1ZM97.4,381.1h2.2v.2h-2.2v-.3h0Z"/>
  <path class="st2" d="M100.2,381.1h1.2v.3h-1.2v-.3ZM100.2,386.8h2.5v.3h-2.6v-.2h.1ZM101.2,384.2v-3.2h.7v6.1h-.7v-2.8h0ZM101.5,384.3h.8c1.2,0,1.7-.6,1.7-1.5s-.5-1.4-1.5-1.4h-1v-.3h1.1c1.5,0,2.2.6,2.2,1.7s-.7,1.7-2.5,1.7h-.8v-.3h0Z"/>
  <path class="st2" d="M27.9,397.9h3.3v.3h-3.3v-.3ZM31.2,398.8v.3h-1.4v2.2h-.3v-2.2h-1.4v-.3h3.3-.1Z"/>
  <path class="st2" d="M33,400.2v-2.2h-.7c0,.1,0,0,0,0l1-.3h0v3.6h-.4v-1.1h.1ZM32.3,401.2h1.6v.2h-1.7v-.2Z"/>
  <path class="st2" d="M34.5,400.7s.1-.1.2-.1.2,0,.2.2v.4c.1,0,0-.1,0-.1.2,0,.3.1.5.1.6,0,.9-.3.9-1s-.3-.9-.8-.9-.4,0-.6.1h-.1v-1.7h1.8v.3h-1.6v-.2,1.5h-.1c.3-.2.5-.2.8-.2.7,0,1.1.4,1.1,1s-.5,1.1-1.2,1.1-.9-.2-1-.7v.2Z"/>
  <path class="st2" d="M37.3,399.5c0-1.3.5-1.8,1.1-1.8s1.1.5,1.1,1.8-.5,1.8-1.1,1.8-1.1-.5-1.1-1.8ZM39.1,399.5c0-1.3-.4-1.7-.7-1.7s-.7.4-.7,1.7.3,1.7.7,1.7.7-.4.7-1.7Z"/>
  <path class="st2" d="M40,399.8h1.2v.2h-1.2v-.2Z"/>
  <path class="st2" d="M41.8,400.5c0-.4.3-.7.9-1h.1c-.5.3-.6.5-.6.9s.3.7.7.7.7-.3.7-.7-.2-.6-.9-.9c-.6-.2-.8-.6-.8-1s.4-.9,1-.9.9.3.9.8-.2.7-.8.9h0c.4-.3.6-.5.6-.9s-.2-.6-.6-.6-.6.2-.6.6.2.6.8.9c.7.3.9.6.9,1.1s-.4.9-1.1.9-1-.3-1-.8h-.2Z"/>
  <path class="st2" d="M44.4,400.7s.1-.1.2-.1.2,0,.2.2v.4c.1,0,0-.2,0-.2.2,0,.3.1.5.1.5,0,.8-.3.8-.8s-.3-.8-.9-.8h-.2v-.2h.2c.5,0,.8-.3.8-.8s-.2-.7-.7-.7-.3,0-.5.1h.2c0-.1-.1.3-.1.3,0,.2-.1.2-.2.2s-.2,0-.2-.1c0-.5.5-.7,1-.7s1,.3,1,.8-.3.8-1,.9h0c.7,0,1.1.4,1.1.9s-.5,1-1.1,1-.9-.2-1-.7v.2Z"/>
  <path class="st2" d="M47.7,401.3l1.5-3.4v.2h-1.9v-.3h2.2v.2l-1.3,3.4h-.4,0Z"/>
  <path class="st2" d="M50.4,401.3l1.5-3.4v.2h-1.9v-.3h2.2v.2l-1.3,3.4h-.4,0Z"/>
  <path class="st2" d="M56.1,399.9h0c-.5.7-1.3,1.3-2.3,1.6h0c.8-.4,1.5-1,1.9-1.6h.4-.1ZM57.5,397.9l.2-.3s.3.2.5.4h-4.3c0-.1,3.6-.1,3.6-.1ZM54.6,398.4l.3.2h2.5c0,.1-2.6.1-2.6.1v1.5s-.1.1-.3.1h0v-1.9h.1ZM57.4,399.2h0c0,.1-2.7.1-2.7.1h0c0-.1,2.7-.1,2.7-.1ZM57.4,399.9h0c0,.1-2.7.1-2.7.1h0c0-.1,2.7-.1,2.7-.1ZM56.4,397.3s0,.1-.2.1v4.2s-.1.1-.3.1h0v-4.5h.5ZM58.4,401.3h0c-.1,0-.2.2-.3.3-.8-.3-1.5-.8-1.9-1.5h0c.4.5,1.3,1,2.2,1.2h.1ZM57.3,398.5l.2-.2.4.3h-.2v1.4s-.2.1-.3.1h0v-1.7h-.1Z"/>
  <path class="st2" d="M60.3,400.4h-.2c-.3.3-.8.7-1.4.9h0c.5-.4.9-.8,1.2-1.2l.4.2h0ZM62.5,397.9l.3-.3s.3.2.5.4h-4.4c0-.1,3.7-.1,3.7-.1h-.1ZM59.6,398.4h.3c0,.1,2.3.1,2.3.1h0c0,.1-2.4.1-2.4.1v1.2s-.1.1-.3.1h0v-1.5h.1ZM62.2,399.6h0c0,.1-2.5.1-2.5.1h0c0-.1,2.5-.1,2.5-.1ZM61.2,399.6v1.6c0,.2,0,.4-.5.5,0,0,0-.2-.1-.2,0,0-.2,0-.5-.1h.7q.1,0,.1,0v-1.5h.3v-.3ZM61.4,397.3s0,.1-.2.1v.6h-.3v-.8h.5ZM62.8,401.5c-.2-.3-.7-.8-1.1-1.1h0c1.6.5,1.4,1.3,1.1,1.1ZM62,398.6l.2-.2.4.3h-.2v1.1s-.2.1-.3.1h0v-1.4h-.1Z"/>
  <path class="st2" d="M66.4,397.6h-.2c-.5.9-1.3,1.9-2.6,2.6h0c1.1-.7,1.9-1.8,2.4-2.9l.4.2h0ZM65.8,398.8l.2-.3s.2.2.4.3h-2.7c0-.1,2.2-.1,2.2-.1h-.1ZM65.2,398l.2-.3s.2.2.4.3h-1.9c0-.1,1.4-.1,1.4-.1h-.1ZM64.2,399.3h.3v2.2s0,.1-.2.1h0v-2.2h-.1ZM65.7,401.1h0c0,.1-1.3.1-1.3.1h0c0-.1,1.3-.1,1.3-.1ZM65.7,400.2h0c0,.1-1.3.1-1.3.1h0c0-.1,1.3-.1,1.3-.1ZM65.8,399.5h0c0,.1-1.3.1-1.3.1h0c0-.1,1.3-.1,1.3-.1ZM65.1,397.3s0,.1-.2.1v1.5h-.3v-1.6h.5ZM65.5,399.5l.2-.2.4.3h-.2v1.7s-.2.1-.3.1h0v-2.1h-.1ZM66.5,397.4l.4.2h0v4s-.1.1-.3.1h0v-4.3h-.1ZM67.8,397.6h0c0,.1-1.2.1-1.2.1h0c0-.1,1.2-.1,1.2-.1ZM67.6,397.6l.2-.2.4.4h-.2c-.2.3-.5.9-.7,1.2.6.4.8.8.8,1.2s-.2.7-.7.7v-.2h-.3.5c.1,0,.2-.2.2-.4,0-.4-.2-.7-.6-1.1.1-.4.4-1.1.5-1.5h-.1Z"/>
  <path class="st2" d="M69.1,398.9c0-.2-.3-.4-.5-.6h0c1,0,.8.8.5.6ZM69,400.2c0-.1.3-.9.9-2.2h0c-.2.6-.6,1.8-.7,2.1v.4c0,.2.1.4.1.8s-.1.3-.3.3-.1,0-.2-.2v-.9h-.2c0-.1.2-.1.2-.1h.1c0-.1.1-.2.1-.2ZM69.5,398c0-.2-.3-.5-.5-.6h0c1,.1.9.8.5.6ZM71.2,400.7h0c-.3.3-.6.6-1.1.9h0c0,.1-.3-.3-.3-.3.3,0,.9-.4,1.5-.7h-.1ZM72.4,399l.2-.3s.3.2.4.4h-3.4c0-.1,2.7-.1,2.7-.1h.1ZM70.8,400.3c-.1-.3-.4-.6-.7-.8h0c1.2.2,1.1,1,.7.8ZM70.9,397.7s0,.1-.2.1v1.3h-.3v-1.4h.5ZM71.8,397.3s0,.1-.2.1v1.6h-.3v-1.8h.5ZM72.3,398.1l.2-.3s.2.2.4.3h-1.3c0-.1.7-.1.7-.1h0ZM72.8,401.7c-.2-.3-.7-.8-1.1-1h0c1.6.3,1.5,1.2,1,1h.1ZM72.9,399.6h-.2c-.3.3-.7.5-1,.7h0c.2-.3.5-.6.8-1,0,0,.4.3.4.3Z"/>
  <path class="st2" d="M73.5,400.2h0c.8-.5,1.8-1.4,2.1-2.2h.6q0,.2-.2.2c.4.6,1.2,1.1,2.1,1.4h0c-.1,0-.3.2-.3.3-.8-.4-1.5-1-1.8-1.7-.4.7-1.3,1.4-2.4,1.8h0ZM75.1,397.6c-.3.4-.8,1-1.3,1.3h0c.5-.5.9-1.1,1.1-1.6l.5.2h-.3ZM74.6,401.7h0v-2.1l.3.2h2.1c0,.1-2.1.1-2.1.1v1.6s-.1.1-.3.1h0ZM76.9,401.4h-2.2c0-.1,2.2-.1,2.2-.1h0ZM77.4,398.6c-.2-.4-.7-.9-1.1-1.2h0c1.7.5,1.5,1.4,1.1,1.2ZM76.8,399.5l.4.3h-.2v1.6s-.2.1-.3.1h0v-1.9h0l.2-.2h-.1Z"/>
  <path class="st2" d="M78.8,397.5l.4.2h0v3.9s-.1.1-.3.1h0v-4.2h-.1ZM82,397.7l.2-.3s.3.2.4.4h-3.8c0-.1,3.1-.1,3.1-.1h.1ZM82.2,401.2l.3-.3s.3.2.5.4h-4c0-.1,3.3-.1,3.3-.1h-.1ZM82.1,398.2h-.2c-.6,1.2-1.4,2.2-2.5,2.7h0c.8-.6,1.7-1.7,2.3-3l.5.2h-.1ZM81.9,400.7c-.2-.5-1-1.4-2.3-2.2h0c3,1.3,2.7,2.6,2.2,2.2h.1Z"/>
  <path class="st2" d="M87.1,399.7l.2-.3s.3.2.4.4h-4.4c0-.1,3.8-.1,3.8-.1ZM83.9,397.7c.2.6,0,.9-.2,1-.1,0-.3.1-.4,0,0-.1,0-.2.1-.3.2-.1.3-.4.3-.8h.2ZM87.4,397.9h0c0,.1-3.5.1-3.5.1h0c0-.1,3.5-.1,3.5-.1ZM86.6,398.7l.2-.3s.3.2.4.3h-3.3c0-.1,2.6-.1,2.6-.1h.1ZM85.7,398.7v2.5c0,.2,0,.4-.5.5,0,0,0-.2-.1-.2,0,0-.2,0-.5-.1h.8v-2.5h.3v-.2ZM85.9,397.3s0,.1-.2.1v.6h-.3v-.8h.5ZM87.2,397.9l.2-.2.4.4h-.2c-.1.2-.4.4-.5.5h0c0-.2.2-.5.3-.7h-.2Z"/>
  <path class="st2" d="M88.7,397.6l.3.2h3.2c0,.1-3.2.1-3.2.1v3.6s-.1.1-.2.1h0v-4h-.1ZM92.1,399.3h0c0,.1-3.3.1-3.3.1h0c0-.1,3.3-.1,3.3-.1ZM92.1,401.1h0c0,.1-3.3.1-3.3.1h0c0-.1,3.3-.1,3.3-.1ZM90.6,397.8v3.4h-.3v-3.4h.3ZM91.9,397.8l.2-.2.4.3h-.2v3.5s-.2.1-.3.1h0v-3.8h-.1Z"/>
  <path class="st2" d="M94.3,397.5s0,.1-.2.1v1.5c0,.9-.2,1.9-.9,2.6h0c.6-.7.7-1.6.7-2.6v-1.7h.5-.1ZM95.7,397.7s0,.1-.2.1v3.3s-.1.1-.2.1h0v-3.6h.5-.1ZM97.4,397.5s0,.1-.2.1v4s-.1.1-.3.1h0v-4.3h.5Z"/>
  <path class="st2" d="M98.3,397.5l.3.2h1.5c0,.1-1.5.1-1.5.1v3.3s-.1.1-.2.1h0v-3.7h-.1ZM100.1,399h0c0,.1-1.7.1-1.7.1h0c0-.1,1.7-.1,1.7-.1ZM100,400.5h0c0,.1-1.6.1-1.6.1h0c0-.1,1.6-.1,1.6-.1ZM99.4,397.6v3h-.3v-3h.3ZM99.9,397.6l.2-.2.4.3h-.2v3.1s-.1.1-.3.1h0v-3.4h-.1ZM102,397.7l.2-.3s.3.2.4.4h-2.2c0-.1,1.4-.1,1.4-.1h.1ZM101.8,397.8v3.5c0,.3,0,.4-.5.5,0,0,0-.2-.1-.2,0,0-.2,0-.5-.1h.7c.2,0,.1,0,.1-.1v-3.4h.3v-.2Z"/>
  <path class="st2" d="M104.1,401.2h2.2v.2h-2.2v-.2ZM105.1,400.1v-2.3h-.7c0,.1,0,0,0,0l1.1-.3h0v3.8h-.4v-1.2Z"/>
  <path class="st2" d="M109,400.7s.1-.1.2-.1.2,0,.3.7v-.2c0,.1.3.2.6.2.6,0,.9-.4.9-1s-.3-.9-.9-.9-.5,0-.7.2h-.1v-1.8h2.1v.3h-1.8v-.2c.1,0,0,1.5,0,1.5h0c.2-.2.5-.3.8-.3.8,0,1.2.5,1.2,1.1s-.5,1.2-1.3,1.2-1-.3-1.1-.7h-.1Z"/>
  <path class="st2" d="M112.8,399.6v-.2h2.5v.2h-2.5Z"/>
  <path class="st2" d="M116.9,401.2h2.2v.2h-2.2v-.2ZM117.8,400.1v-2.3h-.7c0,.1,0,0,0,0l1.1-.3h0v3.8h-.4v-1.2Z"/>
  <path class="st2" d="M122.3,398.9c0-.2-.3-.4-.5-.6h0c1,0,.8.8.5.6ZM122.2,400.2c0-.1.3-.9.9-2.2h0c-.2.6-.6,1.8-.7,2.1v.4c0,.2.1.4.1.8s-.1.3-.3.3-.1,0-.2-.2v-.9h-.2c0-.1.2-.1.2-.1h.1c0-.1.1-.2.1-.2ZM122.8,398c0-.2-.3-.5-.5-.6h0c1,.1.9.8.5.6ZM124.5,400.7h0c-.3.3-.6.6-1.1.9h0c0,.1-.3-.3-.3-.3.3,0,.9-.4,1.5-.7h-.1ZM125.7,399l.2-.3s.3.2.4.4h-3.4c0-.1,2.7-.1,2.7-.1h.1ZM124,400.3c-.1-.3-.4-.6-.7-.8h0c1.2.2,1.1,1,.7.8ZM124.2,397.7s0,.1-.2.1v1.3h-.3v-1.4h.5ZM125.1,397.3s0,.1-.2.1v1.6h-.3v-1.8h.5ZM125.6,398.1l.2-.3s.2.2.4.3h-1.3c0-.1.7-.1.7-.1h0ZM126,401.7c-.2-.3-.7-.8-1.1-1h0c1.6.3,1.5,1.2,1,1h.1ZM126.2,399.6h-.2c-.3.3-.7.5-1,.7h0c.2-.3.5-.6.8-1,0,0,.4.3.4.3Z"/>
  <path class="st2" d="M126.8,400.2h0c.8-.5,1.8-1.4,2.1-2.2h.6q0,.2-.2.2c.4.6,1.2,1.1,2.1,1.4h0c-.1,0-.3.2-.3.3-.8-.4-1.5-1-1.8-1.7-.4.7-1.3,1.4-2.4,1.8h0ZM128.4,397.6c-.3.4-.8,1-1.3,1.3h0c.5-.5.9-1.1,1.1-1.6l.5.2h-.3ZM127.8,401.7h0v-2.1l.3.2h2.1c0,.1-2.1.1-2.1.1v1.6s-.1.1-.3.1h0ZM130.1,401.4h-2.2c0-.1,2.2-.1,2.2-.1h0ZM130.6,398.6c-.2-.4-.7-.9-1.1-1.2h0c1.7.5,1.5,1.4,1.1,1.2ZM130,399.5l.4.3h-.2v1.6s-.2.1-.3.1h0v-1.9h0l.2-.2h-.1Z"/>
  <path class="st2" d="M133.2,399.1c0-.1-.2-.2-.3-.3h.3c.2,0,.5.3.5.5s-.1.1-.2.2c-.4.5-1.1,1.1-1.7,1.4h0c.6-.5,1.5-1.4,1.5-1.8h-.1ZM135.5,400.3c-.3-.6-.7-1.1-1.2-1.6h0c.7.3,1.5,1,1.6,1.6,0,.2,0,.3-.2.3s-.1,0-.2-.3h0ZM134.9,398.3c0-.3.2-.5.5-.5s.5.2.5.5-.2.5-.5.5-.5-.2-.5-.5ZM135.8,398.3c0-.2-.2-.4-.4-.4s-.4.2-.4.4.2.4.4.4.4-.2.4-.4Z"/>
  <path class="st2" d="M28.5,407.5c0-.1-.2-.2-.4-.2h0c0-.1.2-.1.3-.1.2,0,.5.2.5.3s0,.1-.1.2c-.2.7-.6,1.5-1.5,2.1h0c.8-.7,1.2-1.7,1.2-2.4h0ZM29.5,409.3v-2.4c0-.1-.1-.2-.4-.2h0c.1-.1.2-.2.3-.2.2,0,.5.2.5.3s0,.1-.1.3v1.9h0c.7-.3,1.4-.8,1.8-1.3h0c-.4.7-1.1,1.2-1.8,1.6-.1,0-.2.2-.3.2s-.3-.2-.3-.3h.3Z"/>
  <path class="st2" d="M32.8,409.2v-.3h0c.1,0,.2.2.4.2s1.9-.2,2.3-.2.4.1.4.2,0,.1-.2.1h-.7c-.3,0-1,0-1.3.1-.3,0-.3.1-.4.1s-.3-.2-.4-.3h0ZM35.5,407.3h0c-.2,0-1.5.1-1.8.2-.1,0-.2.1-.3.1s-.3-.2-.4-.4v-.3h0s.2.2.3.2c.2,0,1.6-.1,1.9-.2.2,0,.2-.1.3-.1s.4.2.4.3-.1.1-.2.3c0,.2-.2,1-.3,1.6h-.3c0-.6.2-1.5.2-1.8h.2Z"/>
  <path class="st2" d="M38.9,408c0-.2.2-.4.4-.4s.4.2.4.4-.2.4-.4.4-.4-.2-.4-.4Z"/>
  <path class="st2" d="M43.2,409v-2.3c0-.1-.1-.2-.4-.2h0c.1-.1.2-.2.3-.1.2,0,.5.2.5.3s0,.1-.1.3v2.1c0,.5.1.5.7.5s1.1-.2,1.2-.2.4,0,.4.2,0,.1-.2.2c-.2,0-.7.1-1.4.1s-1-.1-1-.8h0ZM45.2,407.3v-.2s0-.1-.1-.2h.2c.1,0,.3.3.3.4s-.1.1-.3.2c-.4.2-1.1.5-1.9.7v-.2c.7-.2,1.4-.6,1.7-.8h.1Z"/>
  <path class="st2" d="M47.6,409.5v-.2h0s.2.2.3.2,1.4-.1,2.1-.2h.3c.2,0,.5.2.5.3s0,.1-.1.1-.4,0-.8-.1c-.4,0-1.1,0-1.5.1h-.3c-.1,0-.3-.2-.3-.3h-.1ZM49.7,408h0c-.1,0-.6.1-.8.2h-.2s-.3-.1-.3-.3v-.2h0s.2.2.3.2c.2,0,.8-.1.9-.1,0,0,.1-.1.2-.1s.4.2.4.3-.1.1-.1.2c0,.2-.2.8-.3,1.2h-.3c0-.4.2-1.1.2-1.3h0Z"/>
  <path class="st2" d="M52.2,408.1v-.3h0c.1.1.2.3.4.3.4,0,2.2-.1,2.4-.1h.6c.2,0,.4,0,.4.2s0,.1-.2.1h-.6c-.3,0-1.6,0-2.1.1-.3,0-.3.1-.5.1s-.4-.2-.4-.4h0Z"/>
  <path class="st2" d="M58.1,408.6v-1.8h-.2c0-.1.2-.1.3-.1.2,0,.5.2.5.3v1.8q0,.2-.2.2c-.2,0-.2-.2-.2-.3h-.2ZM59.7,407.9v-1.2s0-.2-.1-.2h-.3c.1-.1.2-.2.3-.2.2,0,.5.2.5.3v1.4c0,1.1-.6,1.8-1.7,2.3h0c.9-.6,1.4-1.2,1.4-2.3h-.1Z"/>
  <path class="st2" d="M62.8,408.1c0-.2-.2-.3-.3-.4h0c.1,0,.3.1.3.2.2.2.3.3.3.5s0,.2-.1.2c-.2,0-.2-.2-.3-.4h.1ZM65,407.7s0-.1-.3-.2h.2c.2,0,.4.2.4.4s0,.1-.1.2c-.4.8-1,1.6-2.3,2.1h0c1.3-.7,2.1-2.1,2.1-2.4h0ZM63.6,407.9c0-.1-.2-.3-.2-.4h0c.1,0,.3.1.4.2.2.1.3.3.3.5s0,.2-.2.2-.1-.2-.3-.4h0Z"/>
  <path class="st2" d="M68.6,406.5s-.1-.2-.3-.2h.3c.2,0,.4.2.4.3s0,.1-.1.2c-.4.7-1,1.3-1.7,1.7h0c.7-.6,1.5-1.6,1.5-1.9h-.1ZM70,407.1h0c-.1,0-.6,0-.8.1h-.3c-.1,0-.2,0-.3-.2h0c0-.1.2,0,.2,0h1c.1,0,.2-.1.2-.1,0,0,.4.2.4.3s-.2.1-.2.2c-.7,1.2-1.6,2.3-3.1,2.8h0c1.2-.7,2.5-2.1,2.8-3h.1Z"/>
  <path class="st2" d="M72.5,409.1v-2.3c0-.1-.1-.2-.4-.2h0c.1-.1.2-.2.3-.1.2,0,.5.2.5.3s0,.1-.1.3v2.1c0,.5.1.5.7.5s1.1-.2,1.2-.2.4,0,.4.2,0,.1-.2.2c-.2,0-.7.1-1.4.1s-1-.1-1-.8h0ZM74.5,407.4v-.2s0-.1-.1-.2h.2c.1,0,.3.3.3.4s-.1.1-.3.2c-.4.2-1.1.5-1.9.7v-.2c.7-.2,1.4-.6,1.7-.8h.1ZM75.1,407c0-.1-.2-.3-.4-.4h0c.2,0,.4.1.5.3.1.1.2.2.2.3,0,0,0,.1-.1.1l-.2-.2h0ZM75.5,406.6c-.1-.1-.2-.2-.4-.4h0c.2,0,.4.1.5.2s.2.2.2.3c0,0,0,.1-.1.1l-.2-.2Z"/>
  <path class="st2" d="M77.8,407.5c0-.1-.2-.2-.4-.2h0c0-.1.2-.1.3-.1.2,0,.5.2.5.3s0,.1-.1.2c-.2.7-.6,1.5-1.5,2.1h0c.8-.7,1.2-1.7,1.2-2.4h0ZM78.6,409.3v-2.4c0-.1-.1-.2-.4-.2h0c.1-.1.2-.2.3-.2.2,0,.5.2.5.3s0,.1-.1.3v1.9h0c.7-.3,1.4-.8,1.8-1.3h.1c-.4.7-1.1,1.2-1.8,1.6-.1,0-.2.2-.3.2s-.3-.2-.3-.3h.2Z"/>
  <path class="st2" d="M82.7,406.3h.7v.2h-.7v-.2ZM82.7,409.8h.7v.2h-.7v-.2ZM83.2,408.2v-1.9h.4v1.6h0v1.9h-.4v-1.6ZM83.4,409.8h.6c.6,0,1-.3,1-.8s-.3-.8-1-.8h-.5c0-.1.5-.1.5-.1.6,0,.9-.3.9-.8s-.2-.7-.9-.7h-.6v-.2h.7c.8,0,1.1.3,1.1.8s-.3.8-1.1.9h0c.9,0,1.2.4,1.2.9s-.4.9-1.4.9h-.7v-.2h.2Z"/>
  <path class="st2" d="M86.1,409.8h1.9v.2h-1.9v-.2ZM86.9,408.8v-2.1h-.7c0,.1,0,0,0,0l1-.3h0v3.5h-.4v-1.1h.1Z"/>
  <path class="st2" d="M88.7,406.3h.7v.2h-.7v-.2ZM88.7,409.8h1.5v.2h-1.5v-.2ZM89.2,408.2v-1.9h.4v1.7h0v1.8h-.4v-1.6ZM90.9,406.4h.2c0,.1-1.7.1-1.7.1v-.2h1.8v.9h-.2l-.2-.8h.1ZM89.4,408h1.2v.2h-1.2v-.2ZM90.5,408.1h0v-.6h.2v1.2h-.2v-.5h0Z"/>
  <path class="st2" d="M35,327.2s0,.1-.2.1h-7.3v-.2h6.3l.4-.5s.5.4.8.6ZM30.8,333.9h0v-6.8h.5v6.6s-.2.2-.4.2h-.1ZM33.8,331.1c-.5-.7-1.7-1.5-2.7-2.1h0c3.4.8,3.4,2.4,2.6,2.1h.1Z"/>
  <path class="st2" d="M38.3,331.4h0c-.5.4-1.2.9-2.3,1.4,0,0,0,.2-.2.2l-.3-.7c.5-.1,1.5-.5,2.8-.9ZM38.4,328.9v.2h-2.5v-.2h2.5ZM38.9,326.8c0,.1,0,.2-.3.2v6.7s-.2.2-.4.2h-.1v-7.2h.8ZM40.7,326.8c0,.1,0,.2-.3.2v5.8c0,.2,0,.3.4.3h1.4s.1,0,.2-.1c0-.1.2-.6.3-1.1h.1v1.2c.2,0,.3.1.3.2,0,.3-.3.3-1.5.3h-.8c-.6,0-.8-.2-.8-.6v-6.3h.8-.1ZM43.1,328.5s-.2.1-.3,0c-.5.5-1.5,1.1-2.5,1.6h0c.7-.6,1.6-1.5,2.2-2.2l.7.5h-.1Z"/>
  <path class="st2" d="M44.7,329.4c-.1-.3-.6-.8-.9-1h0c1.7.1,1.4,1.3.8,1h.1ZM44.5,331.3c.1-.2.8-1.4,1.8-3.5h.1c-.4,1-1.2,3-1.3,3.4,0,.2-.1.5-.1.7,0,.4.2.7.2,1.4s-.2.5-.4.5-.2-.1-.3-.4c.1-.8,0-1.4-.1-1.5-.1,0-.2-.1-.4-.1v-.2h.4s.1,0,.2-.2h-.1ZM45.4,327.6c-.1-.4-.6-.8-.9-1.1h0c1.8.2,1.4,1.4.8,1.1h.1ZM46.8,326.9v-.2l.6.3h0v2.2c0,1.5-.2,3.5-1.8,4.7h-.1c1.2-1.4,1.4-3.1,1.4-4.7v-2.2h-.1ZM50.5,327v.2h-3.3v-.2h3.3ZM50.4,329.6v.2h-3.2v-.2h3.2ZM51.4,333.3h0c-.2,0-.4.2-.5.5-1.2-.8-1.9-2.3-2.2-4.2h.1c.3,1.7,1.2,3.1,2.6,3.7ZM50,327l.3-.3.6.5s-.2.1-.3.2v2.9s-.3.2-.4.2h0v-3.4h-.2Z"/>
  <path class="st2" d="M28,344.2h3.8v.4h-3.8v-.4ZM31.8,345.4v.4h-1.7v2.6h-.4v-2.6h-1.7v-.4h3.9Z"/>
  <path class="st2" d="M34.1,347v-2.6h-.8c0,.1,0,0,0,0l1.2-.3h0v4.2h-.5v-1.3h.1ZM33.3,348.1h2.1v.2h-2.1v-.2Z"/>
  <path class="st2" d="M35.7,347.5c0-.1.1-.2.2-.2s.2,0,.3.3l.2.5-.2-.2c.2.1.4.2.6.2.6,0,1-.4,1-1.1s-.4-1-1-1-.5,0-.7.1h-.1v-2.1h2.2v.4h-1.9v-.3c.1,0,0,1.7,0,1.7h-.2c.3-.2.6-.3.9-.3.8,0,1.3.4,1.3,1.2s-.6,1.3-1.4,1.3-1-.3-1.1-.8v.2Z"/>
  <path class="st2" d="M39,347.5c0-.1.1-.2.2-.2s.2,0,.3.3l.2.5-.2-.2c.2.1.4.2.6.2.6,0,1-.4,1-1.1s-.4-1-1-1-.5,0-.7.1h-.1v-2.1h2.2v.4h-1.9v-.3c.1,0,0,1.7,0,1.7h-.2c.3-.2.6-.3.9-.3.8,0,1.3.4,1.3,1.2s-.6,1.3-1.4,1.3-1-.3-1.1-.8v.2Z"/>
  <path class="st2" d="M42.2,346.6h1.4v.3h-1.4v-.3Z"/>
  <path class="st2" d="M44.1,346.2c0-1.5.6-2.2,1.3-2.2s1.3.6,1.3,2.2-.6,2.2-1.3,2.2-1.3-.6-1.3-2.2ZM46.4,346.2c0-1.5-.4-1.9-.8-1.9s-.8.5-.8,1.9.4,1.9.8,1.9.8-.5.8-1.9Z"/>
  <path class="st2" d="M47.3,346.2c0-1.5.6-2.2,1.3-2.2s1.3.6,1.3,2.2-.6,2.2-1.3,2.2-1.3-.6-1.3-2.2ZM49.6,346.2c0-1.5-.4-1.9-.8-1.9s-.8.5-.8,1.9.4,1.9.8,1.9.8-.5.8-1.9Z"/>
  <path class="st2" d="M50.6,347.5c0-.1.1-.2.2-.2s.2,0,.3.3l.2.5-.2-.2c.2.1.4.2.6.2.6,0,1-.4,1-1s-.3-1-1-1h-.3v-.2h.2c.5,0,.9-.3.9-.9s-.3-.8-.8-.8-.4,0-.6.2l.2-.2-.2.5c0,.2-.1.3-.3.3s-.2,0-.2-.1c0-.6.6-.8,1.1-.8s1.1.4,1.1,1-.4,1-1.1,1.1h0c.9,0,1.3.4,1.3,1.1s-.5,1.1-1.3,1.1-1.1-.3-1.2-.8h.1Z"/>
  <path class="st2" d="M53.8,347.5c0-.1.1-.2.2-.2s.2,0,.3.3l.2.5-.2-.2c.2.1.4.2.6.2.6,0,1-.4,1-1s-.3-1-1-1h-.3v-.2h.2c.5,0,.9-.3.9-.9s-.3-.8-.8-.8-.4,0-.6.2l.2-.2-.2.5c0,.2-.1.3-.3.3s-.2,0-.2-.1c0-.6.6-.8,1.1-.8s1.1.4,1.1,1-.4,1-1.1,1.1h0c.9,0,1.3.4,1.3,1.1s-.5,1.1-1.3,1.1-1.1-.3-1.2-.8h.1Z"/>
  <path class="st2" d="M61.1,346.7h0c-.6.9-1.5,1.5-2.7,1.9h0c.9-.5,1.7-1.2,2.3-1.9,0,0,.4,0,.4,0ZM62.7,344.2l.3-.4s.3.3.5.4h-5v-.2h4.1v.2ZM59.2,344.8l.4.2h2.9v.2h-3v1.8s-.2.1-.3.1h0v-2.3h0ZM62.5,345.8v.2h-3.1v-.2h3.1ZM62.5,346.6v.2h-3.1v-.2h3.1ZM61.4,343.5s0,.1-.2.2v4.9s-.2.1-.3.1h0v-5.2h.6-.1ZM63.7,348.1h0c-.2,0-.3.2-.3.4-.9-.3-1.7-1-2.3-1.8h0c.5.6,1.5,1.2,2.5,1.4h.1ZM62.3,344.9l.2-.2.5.3s-.1,0-.2.1v1.7s-.2.1-.3.1h0v-2.1h-.2Z"/>
  <path class="st2" d="M66,347.3h-.2c-.3.4-1,.8-1.6,1.1h0c.5-.4,1.1-1,1.4-1.4l.5.3h-.1ZM68.4,344.2l.3-.4s.3.3.5.4h-5.1v-.2h4.2v.2ZM65.1,344.8l.4.2h2.7v.2h-2.7v1.4s-.2.1-.3.1h0v-1.9h-.1ZM68.1,346.3v.2h-2.9v-.2h2.9ZM66.9,346.3v1.8c0,.3,0,.5-.6.5,0-.1,0-.2-.1-.3,0,0-.3-.1-.6-.1h.8q.1,0,.1-.1v-1.8s.4,0,.4,0ZM67.1,343.5s0,.1-.2.2v.7h-.4v-.9h.6ZM68.7,348.4c-.2-.4-.9-.9-1.3-1.3h0c1.8.6,1.7,1.5,1.2,1.3h.1ZM67.9,345l.2-.2.5.4s-.1,0-.2.1v1.3s-.2.1-.3.1h0v-1.7h-.2Z"/>
  <path class="st2" d="M73.1,343.9h-.2c-.5,1-1.5,2.4-3,3.1h0c1.3-.9,2.4-2.2,2.8-3.4l.5.2h-.1ZM72.2,345.4l.2-.3s.3.2.5.4h-3.1v-.2h2.5-.1ZM71.6,344.3l.2-.3s.3.2.4.4h-2.3v-.2h1.6ZM70.5,346l.4.2h0v2.4s-.1.1-.3.1h0v-2.7h-.1ZM72.2,348v.2h-1.5v-.2h1.5ZM72.2,347.1v.2h-1.5v-.2h1.5ZM72.2,346.2v.2h-1.5v-.2h1.5ZM71.5,343.5s0,.1-.2.2v1.7h-.4v-1.9h.6ZM72,346.2l.2-.2.4.3s-.1,0-.2.1v2.1s-.2.1-.3.1h0v-2.5h-.1ZM73.2,343.7l.4.2h0v4.7s-.1.1-.3.1h0v-5h-.1ZM74.7,343.9v.2h-1.4v-.2h1.4ZM74.5,343.9l.2-.2.4.4h-.3c-.2.4-.6,1.1-.8,1.4.7.5.9,1,.9,1.4s-.2.8-.8.8v-.3h-.3.7c.1,0,.2-.2.2-.4,0-.4-.2-.9-.7-1.3.2-.4.5-1.2.6-1.7h-.1Z"/>
  <path class="st2" d="M80.1,345l.3-.3s.3.2.5.4h-5.2v-.2h4.5-.1ZM77.1,343.6s0,.1-.2.2v4.7s-.2.1-.3.1h0v-5.1h.6-.1ZM79.8,348l.3-.4s.3.3.5.4h-4v-.2h3.2v.2ZM78.5,343.5s0,.1-.2.2v3.5s-.2.1-.3.1h0v-3.8h.6-.1ZM79.6,346.7v.2h-1.5v-.2h1.5ZM79.9,343.6s0,.1-.2.2v3.3s-.2.1-.3.1h0v-3.7h.6-.1Z"/>
  <path class="st2" d="M81.8,343.9l.4.2h3.7v.2h-3.7v4.2s-.1.1-.3.1h0v-4.7h-.1ZM85.9,346v.2h-3.9v-.2h3.9ZM85.9,347.9v.2h-3.9v-.2h3.9ZM84.1,344.1v3.9h-.4v-3.9h.4ZM85.7,344.1l.2-.2.5.4s-.1,0-.2.1v4.1s-.2.1-.3.1h0v-4.5h-.2Z"/>
  <path class="st2" d="M87.1,347h0c1-.6,2.2-1.7,2.4-2.6l.7.2h-.2c.5.8,1.4,1.4,2.5,1.7h0c-.2.1-.3.3-.3.4-.9-.4-1.7-1.1-2.2-1.9-.5.8-1.6,1.7-2.7,2.2h-.2ZM89,343.8c-.3.5-.9,1.1-1.5,1.5h0c.5-.5,1-1.3,1.2-1.8l.6.3h-.3ZM88.2,348.7h0v-2.5l.4.2h2.4v.2h-2.4v1.9s-.2.1-.3.1h-.1ZM90.9,348.3h-2.6v-.2h2.6v.2ZM91.6,345c-.2-.5-.8-1.1-1.3-1.4h0c1.9.6,1.8,1.7,1.3,1.4ZM90.9,346.2l.5.4s-.1,0-.2.1v1.8s-.2.1-.3.1h0v-2.3h0l.2-.2h-.2Z"/>
  <path class="st2" d="M93.3,343.8l.4.2h0v4.6s-.1.1-.3.1h0v-4.9h-.1ZM97,344l.3-.3s.3.2.5.4h-4.3v-.2h3.6-.1ZM97.2,348.1l.3-.4s.3.3.5.4h-4.6v-.2h3.8v.2ZM97.1,344.6s-.1.1-.2,0c-.7,1.4-1.7,2.6-2.9,3.2h0c1-.7,2.1-2.1,2.6-3.5l.6.3h-.1ZM96.9,347.5c-.3-.6-1.2-1.6-2.6-2.6h0c3.4,1.5,3.1,3,2.6,2.6Z"/>
  <path class="st2" d="M100.5,343.7s0,.1-.2.1c-.4,1-1,2.1-1.6,2.7h0c.5-.7,1-1.8,1.3-3l.6.2h-.1ZM99.5,344.9h.4q0,.2-.2.2v3.4s-.2.1-.3.1h0v-3.6l.2-.2h-.1ZM103,345.1l.2-.4s.3.2.5.3c0,0,0,.1-.1.1l-3.6.4v-.2l2.9-.3h.1ZM101.9,343.6s0,.1-.2.2c0,1.7.3,3.5,1.5,4.3h.2c0-.1.2-.4.3-.6h0v.9c.2.2.2.3.1.4-.1.2-.5,0-.8-.2-1.3-.9-1.7-2.8-1.7-4.9h.6ZM102.8,344.4c-.1-.2-.4-.5-.6-.7h0c1.2.2,1,.9.6.7Z"/>
  <path class="st2" d="M104.8,343.9l.4.2h3.7v.2h-3.7v4.2s-.1.1-.3.1h0v-4.7h-.1ZM108.9,346v.2h-3.9v-.2h3.9ZM108.9,347.9v.2h-3.9v-.2h3.9ZM107,344.1v3.9h-.4v-3.9h.4ZM108.6,344.1l.2-.2.5.4s-.1,0-.2.1v4.1s-.2.1-.3.1h0v-4.5h-.2Z"/>
  <path class="st2" d="M111.2,348c1.7-1.8,2.1-2.3,2.1-3s-.3-.9-.9-.9-.5,0-.7.2l.3-.2c-.2.7-.2.8-.4.8s-.2,0-.2-.2c.1-.5.6-.8,1.2-.8s1.2.4,1.2,1.1-.5,1.2-2.4,3h2.7v.4h-2.9v-.3h0Z"/>
  <path class="st2" d="M120,344.1l.3-.4s.3.3.6.5h-5.1v-.2h4.2ZM118.6,344.1v3.9c0,.3,0,.5-.7.6,0-.1,0-.2-.2-.3-.1,0-.3-.1-.6-.2h.9c.1,0,.2,0,.2-.1v-3.9s.4,0,.4,0Z"/>
  <path class="st2" d="M122.3,343.7l.4.2h3v.2h-3.1v4.5s-.1.1-.3.1h0v-5h0ZM125.7,345.2v.2h-3.2v-.2h3.2ZM125.7,346.7v.2h-3.2v-.2h3.2ZM125.7,348v.2h-3.2v-.2h3.2ZM125.4,343.9l.2-.3.5.4s-.1.1-.3.1v4.4s-.2.1-.3.1h0v-4.8h-.1Z"/>
  <path class="st2" d="M128.5,347.5c0-.1.1-.2.2-.2.2,0,.3,0,.4.8l-.2-.2c.2.2.4.2.8.2.7,0,1-.4,1-1s-.4-1-1.1-1h-.3v-.2h.3c.6,0,1-.3,1-1s-.3-.8-.8-.8-.5,0-.8.2l.3-.2c-.2.7-.3.8-.4.8s-.2,0-.2-.1c0-.6.7-.8,1.3-.8s1.2.4,1.2,1-.4,1-1.2,1.1h0c.9,0,1.3.4,1.3,1.1s-.6,1.1-1.4,1.1-1.2-.3-1.3-.8h-.1Z"/>
  <path class="st2" d="M134.1,346.6c0-1.3,1-2.6,2.8-2.8v.2c-1.4.3-2.3,1.3-2.3,2.7s.3,1.5.9,1.5.9-.4.9-1.2-.3-1.1-.9-1.1-.7.2-1,.6h0c.3-.6.7-.8,1.3-.8s1.2.5,1.2,1.2-.6,1.4-1.4,1.4-1.5-.7-1.5-1.7Z"/>
  <path class="st2" d="M27.3,356.3v-.2h2.9v.2h-2.9Z"/>
  <path class="st2" d="M32,358.1h2.6v.2h-2.5v-.2h-.1ZM33,356.8v-2.6l-.8.2v-.2l1.3-.3h0v4.4h-.5v-1.4h0Z"/>
  <path class="st2" d="M37.6,357.6c0-.1.1-.2.2-.2.2,0,.3,0,.4.8l-.2-.2c.2.1.5.2.8.2.7,0,1.1-.4,1.1-1.2s-.4-1.1-1-1.1-.6,0-.9.2h-.1v-2.2h2.4v.4h-2.3v-.3c.1,0,0,1.8,0,1.8h0c.3-.2.6-.3,1-.3.9,0,1.4.5,1.4,1.3s-.6,1.4-1.5,1.4-1.2-.3-1.3-.8h0Z"/>
  <path class="st2" d="M47.9,354.2h.8v.2h-.8v-.2ZM47.9,358.1h.8v.2h-.8v-.2ZM48.5,356.3v-2.3h.5v1.9h0v2.3h-.5v-1.9h0ZM48.7,358.1h.7c.7,0,1.1-.3,1.1-.9s-.4-.9-1.2-.9h-.6v-.2h.6c.7,0,1.1-.3,1.1-.9s-.3-.8-1-.8h-.7v-.2h.8c.9,0,1.3.4,1.3,1s-.4.9-1.3,1h0c1,0,1.4.4,1.4,1s-.4,1.1-1.6,1.1h-.8v-.2h.2Z"/>
  <path class="st2" d="M51.7,356.2c0-1.3.8-2.2,1.8-2.2s1.8.8,1.8,2.2-.8,2.2-1.8,2.2-1.8-.8-1.8-2.2ZM55,356.2c0-1.1-.4-1.9-1.3-1.9s-1.3.9-1.3,1.9.4,1.9,1.3,1.9,1.3-.9,1.3-1.9Z"/>
  <path class="st2" d="M56.8,354.6h0v-.2h-.6v-.2h1l2.5,3.6h0v-3.6h.2v4.2h-.2l-2.6-3.8h-.3ZM56.1,358.1h1.4v.2h-1.4s0-.2,0-.2ZM56.6,354.3h.2v4.1h-.2v-4h0ZM58.7,354.2h1.4v.2h-1.4s0-.2,0-.2Z"/>
  <path class="st2" d="M60.6,354.2h1.6v.2h-1.7v-.2h.1ZM61.3,356.7v-2.6h.5v2.6c0,1,.4,1.4,1.1,1.4s1.1-.4,1.1-1.5v-2.5h.2v2.6c0,1.1-.5,1.7-1.4,1.7s-1.4-.5-1.4-1.6h-.1ZM63.2,354.2h1.4v.2h-1.4s0-.2,0-.2Z"/>
  <path class="st2" d="M65.3,358.1v-.8h.3l.2.9h-.3v-.3c.4.3.6.3,1,.3.6,0,1-.3,1-.8s-.2-.6-.8-.9h-.2c-.7-.4-1-.7-1-1.3s.6-1.1,1.3-1.1.7.1,1,.3v.8h-.3l-.2-.9h.3v.3c-.3-.2-.5-.3-.8-.3-.5,0-.9.2-.9.7s.3.7.7.8h.3c.8.5,1.1.8,1.1,1.3s-.6,1.1-1.4,1.1-.9-.1-1.2-.3v.2Z"/>
  <path class="st2" d="M69.9,354.2h3.4v1.1h-.2l-.2-1.1.2.2h-3.1l.2-.2-.2,1.1h-.2v-1.1h.1ZM70.7,358.1h1.7v.2h-1.8v-.2h.1ZM71.3,356.3v-2.3h.5v4.2h-.5v-1.9Z"/>
  <path class="st2" d="M73.8,354.2h.8v.2h-.8v-.2ZM73.8,358.1h1.7v.2h-1.7s0-.2,0-.2ZM74.4,356.3v-2.3h.5v2.1h0v2.1h-.5v-1.9h0ZM76.3,358l-.3-1c-.1-.5-.3-.6-.8-.6h-.7v-.2h.8c.6,0,1-.4,1-.9s-.3-.9-1-.9h-.8v-.2h.9c.9,0,1.4.4,1.4,1s-.4,1-1.3,1.1h0c.6,0,.8.2.9.7l.3,1.1h-.2c0-.1.7,0,.7,0v.2h-.5c-.4,0-.5-.1-.6-.4h.2Z"/>
  <path class="st2" d="M77.9,354.2h1.6v.2h-1.7v-.2h.1ZM78.4,356.7v-2.6h.5v2.6c0,1,.4,1.4,1.1,1.4s1.1-.4,1.1-1.5v-2.5h.2v2.6c0,1.1-.5,1.7-1.4,1.7s-1.4-.5-1.4-1.6h-.1ZM80.4,354.2h1.4v.2h-1.4s0-.2,0-.2Z"/>
  <path class="st2" d="M82.5,356.2c0-1.3.9-2.2,2.1-2.2s.8,0,1.2.3v.9h-.2l-.2-1h.3v.3c-.3-.2-.6-.3-.9-.3-.9,0-1.6.7-1.6,1.9s.7,1.9,1.6,1.9.7,0,1-.3v.2h-.3l.2-.9h.2v.9c-.4.2-.8.3-1.2.3-1.2,0-2.1-.8-2.1-2.2h-.1Z"/>
  <path class="st2" d="M86.4,354.2h1.7v.2h-1.7s0-.2,0-.2ZM86.4,358.1h1.7v.2h-1.6v-.2h-.1ZM87,356.3v-2.3h.5v4.2h-.5v-1.9h0ZM87.2,356.8h.2c0-.1,2.2-2.8,2.2-2.8h.3l-2.6,3.1v-.3h-.1ZM88.1,356l.3-.4,1.5,2.7h-.5l-1.2-2.3h-.1ZM88.8,354.2h1.4v.2h-1.4s0-.2,0-.2ZM88.8,358.1h1.4v.2h-1.5v-.2h.1Z"/>
  <path class="st2" d="M630.1,279.7c-.2.2-.5.3-.7,0-.2-.2-.3-.5,0-.7.4-.5,1.1-1.5,1.1-1.5.2-.3.3-.4.3-.9v-.8c0-.3.2-.5.5-.5s.5.2.5.5v1.4l1.2.5v-4.1h-1.9c-.3,0-.5-.2-.5-.5s.2-.5.5-.5h5.1c.3,0,.5.2.5.5s-.2.5-.5.5h-2.3v1.3h1.6c.3,0,.5.2.5.5s-.2.5-.5.5h-1.6v2.3l2.6,1h.6c.3,0,.5.2.5.5s-.2.5-.5.5c-.5,0-.8,0-1.2-.1l-4.5-1.9h0l-1.2,1.6h-.1ZM630.5,271.7c0,.3-.2.5-.5.5s-.5-.2-.5-.5v-.9c0-.3.3-.6.6-.6h2.9v-.8c0-.3.2-.5.5-.5s.5.2.5.5v.8h2.9c.3,0,.6.3.6.6v.9c0,.3-.2.5-.5.5s-.5-.2-.5-.5v-.5h-6.1v.5h.1Z"/>
  <path class="st2" d="M647.8,269c.4,0,.8.1,1.1.3l3.2,2.3c.2.2.3.4.1.7-.2.2-.4.3-.7.1-.8-.6-3.3-2.4-3.4-2.5h-.9c-.2.1-2.5,1.8-3.4,2.5-.2.2-.5.1-.7-.1s-.1-.5.1-.7l3.1-2.3c.3-.2.7-.3,1.1-.3h.4ZM647.3,279.2l-.9.6c-.2.1-.5.3-.8.3s-.4-.2-.4-.5v-6.8c0-.3.3-.6.6-.6h3.6c.3,0,.6.3.6.6v2.4c0,.3-.3.6-.6.7-1.1,0-2.2.1-3.2,0v2.9l.6-.4c.3-.2.6,0,.7.1.1.2,0,.5-.2.7h0ZM646.1,273.1v.5h2.9v-.5h-2.9ZM649,275.1v-.5h-2.9v.6h2.9ZM648.2,271.5c0,.3-.2.5-.5.5s-.5-.2-.5-.5v-.6c0-.3.2-.5.5-.5s.5.2.5.5v.6ZM650.8,278.9h.3c.3,0,.5.2.5.5s-.2.5-.5.5h-.2c-.4,0-.8-.2-1-.4l-2.2-2.2c-.2-.2-.2-.5,0-.7s.5-.2.7,0l2.3,2.4h.1ZM649.8,276.3l.7-.6c.3-.2.5-.2.7,0s.1.5,0,.7l-.8.6c-.2.2-.5.2-.7,0s-.1-.5,0-.7h.1Z"/>
  <path class="st2" d="M658.1,277.1c0,.3-.4.4-.6.3-.2,0-.4-.3-.3-.6l1.3-3.8c.1-.4.2-1,.2-1.2v-1.7c0-.3.3-.6.6-.6h6c.3,0,.6.3.6.6v1.2c0,.3-.3.6-.6.6-1.6.1-4,.2-5.5,0,0,.3,0,.7-.2,1.2l-1.3,3.9h-.1ZM665.8,279.9h-6.9c-.3,0-.5-.2-.5-.5s.2-.5.5-.5h3.1v-.8h-1.6c-.3,0-.5-.2-.5-.5s.2-.5.5-.5h1.6v-.6c0-.3.2-.5.5-.5s.5.2.5.5v.6h1.7c.3,0,.5.2.5.5s-.2.5-.5.5h-1.7v.8h2.9c.3,0,.5.2.5.5s-.2.5-.5.5h-.1ZM659.7,270.4v.6c1.4,0,3.6.1,5.2,0v-.6h-5.2ZM660.6,274.8l.4-1.1h-.9c-.3,0-.5-.2-.5-.5s.2-.5.5-.5h4.9c.3,0,.5.2.5.5s-.2.5-.5.5h-3l-.5,1.1h2.3v-.2c-.2-.2-.1-.5,0-.6.2-.1.5,0,.6.2l.7,1.1h0c0,.2,0,.5-.2.7-.2.1-.4,0-.6-.1v-.2c-1.3.2-2.9.2-4.2.1-.3,0-.5-.3-.4-.5,0-.3.3-.5.6-.4h.3Z"/>
  <path class="st2" d="M680.3,268.9c.2,0,.4.2.4.4s-.2.4-.4.4h-1.9v4c0,.2-.2.4-.4.4s-.4-.2-.4-.4v-3.9c0-.5.4-1,1-1h1.8-.1Z"/>
  <path class="st2" d="M694.9,275.1c0,1.8-1,3-3.3,3.7-.3,0-.6,0-.7-.3-.1-.3.1-.5.3-.6,2.1-.6,2.7-1.5,2.7-2.8s-.3-2.5-1.8-2.5-2.3,1.2-3.3,2.1v4.3c0,.3-.2.5-.5.5s-.5-.2-.5-.5v-3.5c-.5.4-1,.8-1.3,1.1-.2.2-.5.1-.7,0-.2-.2-.1-.5,0-.7l1.9-1.5v-1.1h-1c-.3,0-.5-.2-.5-.5s.2-.5.5-.5h1v-1.8c0-.3.2-.5.5-.5s.5.2.5.5v3.3c1.9-1.5,2.5-1.7,3.3-1.7,2.1,0,2.9,1.6,2.9,3.4v-.2Z"/>
  <path class="st2" d="M705,272.2h-2.3l-1.3,6.6c0,.3-.3.4-.6.4s-.4-.3-.4-.6l1.3-6.4h-.9c-.3,0-.5-.2-.5-.5s.2-.5.5-.5h1.1l.3-1.3c0-.3.3-.4.6-.4s.4.3.4.6l-.2,1.1h2.1c.3,0,.5.2.5.5s-.2.5-.5.5h-.1ZM707.9,278.2c.3,0,.5.1.5.4s-.2.5-.4.6h-1.4c-1.2,0-1.9-.7-1.9-1.7v-.4c0-.2.3-.4.6-.4s.4.3.3.6v.3c0,.5.4.6,1,.6h1.3ZM706.9,274.4l.2-.3h-1.5c-.3,0-.5-.2-.5-.5s.2-.5.5-.5h2.2c.3,0,.6.2.6.5s-.2.5-.3.9l-.2.4c-.1.2-.5.3-.7.2-.2-.1-.3-.4-.1-.7h-.1Z"/>
  <path class="st2" d="M716.9,276.4c0,1.1,1,1.9,2.2,1.9s1.4-.8,2.1-2.6c.1-.3.4-.4.6-.3.2.1.4.4.3.7-.6,1.5-1.4,3.1-3,3.1s-3.2-1.1-3.1-3.1c0-1.7.2-4.1.3-6.1,0-.3.2-.5.5-.5s.5.2.4.5c-.2,2.8-.3,5.1-.3,6.2h0Z"/>
  <path class="st2" d="M735.8,274.5c0-1.6-1.3-2.7-3-2.7s-3.4,1.3-3.4,3,.5,1.9.9,1.9c.7,0,1.4-1.8,1.7-3.5,0-.3.3-.4.6-.4s.4.3.4.5c-.3,2.1-1.3,4.3-2.8,4.4-.7,0-1.8-1-1.7-3,0-2.3,1.8-3.9,4.2-3.9s4,1.2,4,3.6-.8,2.9-2.5,4.4c-.2.2-.5.2-.7,0s-.2-.5,0-.7c1.5-1.4,2.2-2.6,2.3-3.8h-.1Z"/>
  <path class="st2" d="M743.1,276.7c0-.9.8-1.6,2.4-2.1v-2.7h-1c-.3,0-.5-.2-.5-.5s.2-.5.5-.5h1v-.9c0-.3.2-.5.5-.5s.5.2.5.5v.9h1.4c.3,0,.5.2.5.5s-.2.5-.5.5h-1.4v2.5h1.1c1.8,0,3.2.6,3.2,2.3s-.7,1.9-1.5,2.8c-.2.2-.5.2-.7,0s-.2-.5,0-.6c.7-.7,1.3-1.3,1.3-2.1s-.4-1.3-2.2-1.3h-1.1v1.7c0,1.5-.6,2.1-1.4,1.9-.6,0-1.9-1.1-1.9-2.6h-.1ZM745.1,278.2c.3,0,.4-.2.4-1v-1.6c-.9.2-1.4.6-1.4,1,0,.6.7,1.4,1.1,1.5h-.1ZM751.2,272c0,.3-.2.5-.5.5s-.5-.2-.5-.5v-1c0-.3.2-.5.5-.5s.5.2.5.5v1Z"/>
  <path class="st2" d="M758.1,277.2v-.8c0-.3.4-.4.6-.3.3,0,.3.3.3.6v.5c0,.6.5.9,2.2.9s1.2,0,2.2-.2c.2,0,.5,0,.5.4s-.2.5-.4.6c-.8.1-1.6.2-2.3.2s-3-.1-3.1-1.8h0ZM762.3,272.5l.4-.7h-3.7c-.3,0-.5-.2-.5-.5s.2-.5.5-.5h4.4c.3,0,.5.2.5.5s-.1.5-.3.9l-.4.7c-.1.2-.4.3-.6.2s-.3-.4-.2-.6h-.1Z"/>
  <path class="st2" d="M771.3,271.4c0-.3.3-.5.5-.4.3,0,.5.2.4.5-.2,1.9-.2,3.6,0,5.5l.6-.2c.2,0,.5,0,.6.3s0,.5-.3.6l-1.1.4c-.3,0-.6-.1-.6-.4-.2-1.8-.2-4.2,0-6.3h-.1ZM779,272.6h-.9v2.1c0,1.6-.5,3-1.8,4.8-.2.2-.4.3-.7.2-.2-.1-.3-.4-.2-.6,1.3-2.1,1.6-3.1,1.6-4.4v-2.1h-2.6c-.3,0-.5-.2-.5-.5s.2-.5.5-.5h2.5c0-.4-.1-.9-.2-1.4,0-.3.1-.5.4-.5s.5.1.6.4c0,.5.2,1,.2,1.5h1c.3,0,.5.2.5.5s-.2.5-.5.5h.1ZM778.7,269.9c0-.2.2-.4.4-.4s.4.2.4.4v.5c0,.2-.2.4-.4.4s-.4-.2-.4-.4v-.5ZM780.1,269.9c0-.2.2-.4.4-.4s.4.2.4.4v.5c0,.2-.2.4-.4.4s-.4-.2-.4-.4v-.5Z"/>
  <path class="st2" d="M785.1,279.8c-.2,0-.4-.2-.4-.4s.2-.4.4-.4h1.9v-4c0-.2.2-.4.4-.4s.4.2.4.4v3.9c0,.5-.4,1-1,1h-1.8.1Z"/>
  <path class="st2" d="M29.5,305.7l-1.5.3c-.1,0-.2,0-.2-.2,0-.4,0-1.1.4-1.4.7-.5,1.6-.8,3.4-.8s2.7.3,3.4.8c.4.3.4,1.1.4,1.4s0,.2-.2.2l-1.5-.3c-.2,0-.2-.2-.1-.3l.3-.9h-.9v.5c0,.6.4,1,1,1.6.6.5.8,1.2.8,1.9s0,.4-.4.4h-5.6c-.3,0-.4-.1-.4-.4,0-.7.2-1.4.8-1.9.6-.6,1-1,1-1.6v-.5h-.9l.3.9c0,.1,0,.3-.1.3h.1ZM33,307.3c0-.8-.6-1.4-1.4-1.4s-1.4.6-1.4,1.4.6,1.4,1.4,1.4,1.4-.6,1.4-1.4ZM30.9,305.4h1.4v-.8h-1.4s0,.8,0,.8Z"/>
  <path class="st2" d="M37.4,306.4c0-1.5.6-2.2,1.3-2.2s1.3.6,1.3,2.2-.6,2.1-1.3,2.1-1.3-.6-1.3-2.1ZM39.4,306.4c0-1.4-.4-1.9-.8-1.9s-.8.5-.8,1.9.4,1.9.8,1.9.8-.4.8-1.9Z"/>
  <path class="st2" d="M40.7,308.3c1.2-.4,1.8-1.2,1.8-2.5s-.3-1.4-.8-1.4-.8.4-.8,1,.4,1,.9,1,.6-.1.8-.4h0c-.2.4-.6.6-1,.6-.7,0-1.2-.4-1.2-1.2s.6-1.3,1.3-1.3,1.3.6,1.3,1.6-.8,2.2-2.3,2.6h-.1Z"/>
  <path class="st2" d="M43.6,306.4c0-1.5.6-2.2,1.3-2.2s1.3.6,1.3,2.2-.6,2.1-1.3,2.1-1.3-.6-1.3-2.1ZM45.8,306.4c0-1.4-.4-1.9-.8-1.9s-.8.5-.8,1.9.4,1.9.8,1.9.8-.4.8-1.9Z"/>
  <path class="st2" d="M46.8,306.7h1.4v.3h-1.4v-.3Z"/>
  <path class="st2" d="M50.4,307.2v-2.6h.1l-.8,1.2-.8,1.2v-.2h2.7v.3h-2.9v-.3l1.8-2.8h.3v4.2h-.4v-1.2h0Z"/>
  <path class="st2" d="M52.1,308.2h2.3v.2h-2.3s0-.2,0-.2ZM53.1,307.1v-2.4h-.8c0,.1,0,0,0,0l1.2-.3h0v4.1h-.5v-1.3h.1Z"/>
  <path class="st2" d="M55.1,306.4c0-1.5.6-2.2,1.3-2.2s1.3.6,1.3,2.2-.6,2.1-1.3,2.1-1.3-.6-1.3-2.1ZM57.2,306.4c0-1.4-.4-1.9-.8-1.9s-.8.5-.8,1.9.4,1.9.8,1.9.8-.4.8-1.9Z"/>
  <path class="st2" d="M58.2,307.6c0-.1.1-.2.2-.2s.2,0,.3.3l.2.5-.2-.2c.2.1.4.2.6.2.6,0,1-.4,1-1s-.4-1-.9-1-.5,0-.7.1h-.1v-1.9h2.2v.4h-1.9v-.3c.1,0,0,1.7,0,1.7h-.2c.3-.2.6-.3.9-.3.8,0,1.3.4,1.3,1.2s-.6,1.3-1.4,1.3-1-.3-1.1-.8h-.1Z"/>
  <path class="st2" d="M61.4,306.7h1.4v.3h-1.4v-.3Z"/>
  <path class="st2" d="M63.4,308.1c.4-.4.7-.8,1-1.1.6-.6.8-1.1.8-1.6s-.3-.8-.8-.8-.4,0-.6.2l.2-.2-.2.5c0,.2-.1.3-.3.3s-.2,0-.2-.2c0-.6.6-.9,1.2-.9s1.1.4,1.1,1-.3.9-1.2,1.8c-.2.2-.6.6-.9.9v-.2h2.3v.4h-2.6v-.3l.2.2Z"/>
  <path class="st2" d="M66.7,308.3c1.2-.4,1.8-1.2,1.8-2.5s-.3-1.4-.8-1.4-.8.4-.8,1,.4,1,.9,1,.6-.1.8-.4h0c-.2.4-.6.6-1,.6-.7,0-1.2-.4-1.2-1.2s.6-1.3,1.3-1.3,1.3.6,1.3,1.6-.8,2.2-2.3,2.6h-.1Z"/>
  <path class="st2" d="M69.7,306.4c0-1.5.6-2.2,1.3-2.2s1.3.6,1.3,2.2-.6,2.1-1.3,2.1-1.3-.6-1.3-2.1ZM71.8,306.4c0-1.4-.4-1.9-.8-1.9s-.8.5-.8,1.9.4,1.9.8,1.9.8-.4.8-1.9Z"/>
  <path class="st2" d="M73.1,308.2h2.3v.2h-2.3s0-.2,0-.2ZM74,307.1v-2.4h-.8c0,.1,0,0,0,0l1.2-.3h0v4.1h-.5v-1.3h.1Z"/>
  <path class="st2" d="M98,307.2v-1.3h-.5v-.2l.9-.2h0v3h-.5v-1.3h.1ZM97.5,308.3h1.4v.2h-1.4s0-.2,0-.2ZM97.8,304.4c0-.2.1-.3.3-.3s.3.1.3.3-.2.3-.3.3-.3-.1-.3-.3Z"/>
  <path class="st2" d="M99.8,307.2v-1.2h-.5v-.2l.9-.2h0v3.1h-.5v-1.3h.1ZM99.3,308.3h1.4v.2h-1.4s0-.2,0-.2ZM101.7,307.2v-.6c0-.5-.2-.8-.5-.8s-.6.2-1,.6v-.2h0c.4-.5.7-.7,1.1-.7s.8.3.8,1.1v1.9h-.5v-1.3h.1ZM101.3,308.3h1.4v.2h-1.4s0-.2,0-.2ZM103.6,307.2v-.6c0-.6-.2-.8-.5-.8s-.6.1-1,.6v-.2h0c.4-.5.7-.7,1.1-.7s.8.3.8,1v1.9h-.5v-1.3h.1ZM103.1,308.3h1.4v.2h-1.4s0-.2,0-.2Z"/>
  <path class="st2" d="M105,307c0-1,.7-1.5,1.4-1.5s1.4.5,1.4,1.5-.7,1.5-1.4,1.5-1.4-.5-1.4-1.5ZM107.3,307c0-.9-.3-1.4-.9-1.4s-.9.5-.9,1.4.3,1.3.9,1.3.9-.5.9-1.3Z"/>
  <path class="st2" d="M108.9,307.2v-3h-.5v-.2l.9-.2h0v4.6h-.5v-1.3h.1ZM108.4,308.3h1.4v.2h-1.4s0-.2,0-.2ZM109.1,307.2h0l.8-.8.8-.8h.3l-1.9,1.9v-.2h0ZM109.7,306.8l.3-.3,1,1.8h.4v.2h-.8l-1-1.7h.1ZM110,305.5h1.4v.2h-1.4s0-.2,0-.2Z"/>
  <path class="st2" d="M111.8,307c0-1,.7-1.5,1.4-1.5s1.4.5,1.4,1.5-.7,1.5-1.4,1.5-1.4-.5-1.4-1.5ZM114.2,307c0-.9-.3-1.4-.9-1.4s-.9.5-.9,1.4.3,1.3.9,1.3.9-.5.9-1.3Z"/>
  <path class="st2" d="M115.2,309.2c0-.3.2-.6.7-.8h0c-.3.3-.4.4-.4.7s.3.6.8.6c.8,0,1.2-.3,1.2-.7s-.1-.5-.6-.5h-1.1c-.3,0-.4-.3-.4-.5s.1-.4.5-.7h.1c-.2.2-.3.3-.3.5s.1.3.4.3h.8c.7,0,1,.3,1,.7s-.6,1-1.6,1-1.2-.3-1.2-.7h.1ZM115.4,306.5c0-.6.4-1,1.1-1s.6.1.8.3h0c.2.2.3.4.3.7,0,.6-.4,1-1.1,1s-1.1-.4-1.1-1ZM117.2,306.5c0-.5-.3-.8-.7-.8s-.7.3-.7.8.3.8.7.8.7-.3.7-.8ZM117.2,305.7h0l.8-.2h0v.4h-.9v-.2Z"/>
  <path class="st2" d="M118.5,307c0-.9.6-1.5,1.4-1.5s1.2.5,1.2,1.2,0,.2,0,.3h-2.4v-.2h1.6c.2,0,.3,0,.3-.3,0-.5-.3-.8-.7-.8s-.9.5-.9,1.3.4,1.3,1.1,1.3.7-.1.9-.4h0c-.2.5-.6.7-1.1.7-.8,0-1.4-.5-1.4-1.5h-.1Z"/>
  <path class="st2" d="M124.4,307.6h0l.3-1.7.3-.2h0l-.3,1.8c0,.4,0,.5.3.5.5,0,1-.6,1-1.6s-.7-1.8-1.8-1.8-2.5,1.2-2.5,2.7.9,2.1,1.9,2.1.8,0,1.1-.2h0c-.4.3-.8.4-1.2.4-1.2,0-2.2-.8-2.2-2.2s1.1-2.9,2.8-2.9,1.9.8,1.9,2.1-.7,1.7-1.3,1.7-.6-.2-.6-.6h.2ZM122.9,307.4c0-.8.7-1.8,1.4-1.8s.4.1.5.4v.2c-.2-.2-.4-.3-.6-.3-.5,0-1,.8-1,1.5s.2.6.4.6.4,0,.7-.5h0c-.3.4-.6.7-.9.7s-.7-.3-.7-.8h.2Z"/>
  <path class="st2" d="M126.8,309.2c0-.3.2-.6.7-.8h0c-.3.3-.4.4-.4.7s.3.6.8.6c.8,0,1.2-.3,1.2-.7s-.1-.5-.6-.5h-1.1c-.3,0-.4-.3-.4-.5s.1-.4.5-.7h.1c-.2.2-.3.3-.3.5s.1.3.4.3h.8c.7,0,1,.3,1,.7s-.6,1-1.6,1-1.2-.3-1.2-.7h.1ZM127,306.5c0-.6.4-1,1.1-1s.6.1.8.3h0c.2.2.3.4.3.7,0,.6-.4,1-1.1,1s-1.1-.4-1.1-1ZM128.8,306.5c0-.5-.3-.8-.7-.8s-.7.3-.7.8.3.8.7.8.7-.3.7-.8ZM128.8,305.7h0l.8-.2h0v.4h-.9v-.2Z"/>
  <path class="st2" d="M130.6,307.2v-1.2h-.5v-.2l.9-.2h0v3.1h-.5v-1.3h.1ZM130.1,308.3h1.4v.2h-1.4s0-.2,0-.2ZM132.5,307.2v-.6c0-.5-.2-.8-.5-.8s-.6.2-1,.6v-.2h0c.4-.5.7-.7,1.1-.7s.8.3.8,1.1v1.9h-.5v-1.3h.1ZM131.9,308.3h1.4v.2h-1.4v-.2h0ZM134.3,307.2v-.6c0-.6-.2-.8-.5-.8s-.6.1-1,.6v-.2h0c.4-.5.7-.7,1.1-.7s.8.3.8,1v1.9h-.5v-1.3h.1ZM133.9,308.3h1.4v.2h-1.4v-.2h0Z"/>
  <path class="st2" d="M135.7,307.8c0-.4.3-.7,1-.9.3,0,.7-.2,1-.3h0c-.3.2-.6.3-.9.4-.5.2-.7.4-.7.7s.2.5.5.5.5-.1.9-.6v.3h0c-.3.4-.6.6-1,.6s-.8-.3-.8-.7ZM137.5,307.9v-1.4c0-.6-.2-.8-.6-.8s-.4,0-.7.2l.2-.2v.4c-.1.2-.2.3-.4.3s-.2,0-.2-.2c.1-.5.5-.7,1.2-.7s1,.3,1,1v1.4c0,.3,0,.4.2.4s.2,0,.3-.1h0c-.1.3-.3.4-.5.4-.3,0-.5-.2-.5-.6h0Z"/>
  <path class="st2" d="M139.4,307.2v-1.3h-.5v-.2l.9-.2h0v3h-.5v-1.3h.1ZM138.9,308.3h1.4v.2h-1.4v-.2h0ZM139.2,304.4c0-.2.1-.3.3-.3s.3.1.3.3-.2.3-.3.3-.3-.1-.3-.3Z"/>
  <path class="st2" d="M140.8,308.3h1.6v.2h-1.5v-.2h-.1ZM141.3,307.2v-3h-.5v-.2l.9-.2h0v4.6h-.5v-1.3h.1Z"/>
  <path class="st2" d="M143,308.2c0-.2.1-.3.3-.3s.3.2.3.3-.1.3-.3.3-.3-.2-.3-.3Z"/>
  <path class="st2" d="M144.6,307.1c0-1,.7-1.6,1.5-1.6s.9.3,1,.7c0,.1-.1.2-.2.2s-.2,0-.3-.3v-.5c-.1,0,.1.2.1.2-.2-.2-.4-.2-.6-.2-.6,0-1,.5-1,1.3s.4,1.3,1.1,1.3.6-.1.9-.4h0c-.2.5-.6.7-1.1.7-.8,0-1.4-.6-1.4-1.5h0Z"/>
  <path class="st2" d="M147.7,307c0-1,.7-1.5,1.4-1.5s1.4.5,1.4,1.5-.7,1.5-1.4,1.5-1.4-.5-1.4-1.5ZM150,307c0-.9-.3-1.4-.9-1.4s-.9.5-.9,1.4.3,1.3.9,1.3.9-.5.9-1.3Z"/>
  <path class="st2" d="M151.5,307.2v-1.2h-.5v-.2l.9-.2h0v3.1h-.5v-1.3h.1ZM151,308.3h1.4v.2h-1.4v-.2h0ZM153.5,307.2v-.6c0-.5-.2-.8-.5-.8s-.6.2-1,.6v-.2h0c.4-.5.7-.7,1.1-.7s.8.3.8,1.1v1.9h-.5v-1.3h.1ZM153,308.3h1.4v.2h-1.4v-.2h0ZM155.3,307.2v-.6c0-.6-.2-.8-.5-.8s-.6.1-1,.6v-.2h0c.4-.5.7-.7,1.1-.7s.8.3.8,1v1.9h-.5v-1.3h.1ZM154.8,308.3h1.4v.2h-1.4v-.2h0Z"/>
  <path class="st0" d="M93.6,303.8h-7.5s-.1,0-.1.1v4.8s0,.1.1.1h7.5s.1,0,.1-.1v-4.8s0-.1-.1-.1ZM86.2,304.2l2.4,2.2-2.4,2.2v-4.2h0ZM89.8,307.2l-3.5-3.1h6.9l-3.5,3.1h.1ZM88.7,306.6l1,.9h0l1-.9,2.4,2.2h-6.9l2.4-2.2h.1ZM91.1,306.4l2.4-2.2v4.2l-2.4-2.2h0Z"/>
  <path class="st2" d="M225.7,209.3h0c-.2,0-.4,0-.5-.2l-1.4-1.7v1.4h.5c.1,0,.2,0,.2.2s-.1.2-.2.2h-.5v1.1c0,.1,0,.2-.2.2s-.2-.1-.2-.2v-1.1h-.5c-.1,0-.2-.1-.2-.2s.1-.2.2-.2h.5v-1.4l-1.5,1.9s-.2.1-.3,0c0,0-.1-.2,0-.3l1.7-2.1h-1.3c-.1,0-.2-.1-.2-.2s.1-.2.2-.2h1.5v-.9c0-.1.1-.2.2-.2s.2.1.2.2v.9h1.5c.1,0,.2.1.2.2s-.1.2-.2.2h-1.3l1.6,1.9h.1c.1,0,.2,0,.2.2s-.1.2-.2.2h-.1Z"/>
  <path class="st2" d="M231.7,205.8c.2,0,.3.1.3.3v3.8c0,.2-.1.3-.3.3-1,.1-2.1.1-2.9,0-.2,0-.3-.2-.3-.3v-3.8c0-.2.1-.3.3-.3h2.9ZM231.5,206.3h-2.5v1.3h2.5v-1.3ZM231.5,209.8v-1.6h-2.5v1.6c.6.1,1.6.1,2.5,0Z"/>
  <path class="st2" d="M238.3,208c0-.8-.6-1.2-1.4-1.2s-1.5.6-1.5,1.4.2.9.4.9c.3,0,.7-.8.8-1.6,0-.1.1-.2.3-.2s.2.1.2.2c-.2.9-.6,2.1-1.3,2.1s-.8-.5-.8-1.3.9-1.8,1.9-1.8,1.8.5,1.8,1.7-.4,1.3-1.1,2.1h-.3v-.3c.7-.7,1-1.2,1-1.7h0Z"/>
  <path class="st2" d="M241.7,209.1c0-.4.4-.8,1.1-.9v-1.2h-.5c-.1,0-.2-.1-.2-.2s.1-.2.2-.2h.5v-.4c0-.1.1-.2.2-.2s.2.1.2.2v.4h.7c.1,0,.2,0,.2.2s0,.2-.2.2h-.7v1.1h.5c.8,0,1.4.3,1.5,1.1,0,.5-.3.9-.7,1.3h-.3v-.3c.3-.3.6-.6.6-.9s-.2-.6-1-.6h-.5v.8c0,.7-.3,1-.7.9-.3,0-.9-.5-.9-1.2h0ZM242.8,209.8q.2,0,.2-.4v-.7c-.4,0-.7.3-.7.5,0,.3.3.7.5.7h0ZM245.6,206.8c0,.1-.1.2-.2.2s-.2-.1-.2-.2v-.5c0-.1,0-.2.2-.2s.2.1.2.2v.5Z"/>
  <path class="st2" d="M248.3,209.9v-3.4c0-.1.1-.2.2-.2s.2.1.2.2c0,.9-.1,2.2,0,3.1,0,0,.1,0,.2-.1h.3v.3c-.1,0-.2.1-.3.2-.1,0-.2.1-.3.1s-.2,0-.2-.2h-.1ZM252,208.8c.1,0,.2.1.2.3s-.1.2-.2.2h-.6v.5c0,.5-.3.7-.7.7s-.9-.5-.9-1,.2-.6.7-.7h.4v-1.5h-.9c-.1,0-.2-.1-.2-.2s.1-.2.2-.2h.9v-.6c0-.1,0-.2.2-.2s.2.1.2.2v.6h.5c.1,0,.2,0,.2.2s-.1.2-.2.2h-.5v1.5h.7ZM251,209.1h-.3c-.2,0-.3.1-.3.2,0,.3.3.5.5.5s.2,0,.2-.3v-.4h-.1ZM251.9,206s0-.2.2-.2.2,0,.2.2v.2s0,.2-.2.2-.2,0-.2-.2v-.2ZM252.5,206s0-.2.2-.2.2,0,.2.2v.2s0,.2-.2.2-.2,0-.2-.2v-.2Z"/>
  <path class="st2" d="M258.6,209.4s.2-.1.3,0c.1,0,0,.3,0,.4-.4.3-.6.5-1,.5-.6,0-.9-1.3-1.2-1.3s-.4.2-.7.5l-.3.6c0,.1-.2.2-.3.1-.1,0-.2-.2-.1-.3l1.7-3.9c0-.1.2-.2.3-.1.1,0,.2.2.1.3l-1,2.6c0-.1.3-.2.4-.2.5,0,1,1.3,1.2,1.3s.5-.2.7-.4h-.1Z"/>
  <path class="st2" d="M264.2,206.9h.8c.1,0,.2,0,.2.2s-.1.2-.2.2h-.7l.3,1.1c0,.1,0,.3-.2.3h-.5c-.1,0-.2,0-.2-.2s0-.2.2-.2h.2l-.2-1h-1.8c-.1,0-.2-.1-.2-.2s.1-.2.2-.2h1.7l-.2-.9c0-.1,0-.2.2-.3.1,0,.2,0,.3.2l.3,1h-.2ZM262.3,208.9c0,.4,0,.5.2.7.1.2.4.2.7.3.1,0,.2.1.2.2s-.1.2-.2.2c-.4,0-.8-.2-1-.4s-.3-.6-.3-1,.1-.2.2-.2.2.1.2.2h0ZM265,206.1s0-.2.2-.2.2,0,.2.2v.2s0,.2-.2.2-.2,0-.2-.2v-.2ZM265.6,206.1s0-.2.2-.2.2,0,.2.2v.2s0,.2-.2.2-.2,0-.2-.2v-.2Z"/>
  <path class="st2" d="M269,209.8c-.1,0-.3,0-.3-.1-.2-.8-.2-2.1-.1-3.1,0-.1.1-.2.3-.2s.2.1.2.3c-.1.9-.1,1.9,0,2.7h.3c.1-.2.2-.2.3,0v.3l-.5.2h-.2ZM271.8,208.8c-.1-.5-.3-1-.5-1.3v-.3c0-.1.2,0,.3,0,.2.4.4.9.5,1.4,0,.1,0,.2-.2.3-.1,0-.2,0-.3-.2h.2Z"/>
  <path class="st2" d="M223.9,384.9h-1l-.6,3.1c0,.1-.1.2-.3.2s-.2-.1-.2-.3l.6-3h-.4c-.1,0-.2-.1-.2-.2s0-.2.2-.2h.5v-.6c.2-.1.3-.2.4-.2s.2.1.2.3v.5c-.1,0,.8,0,.8,0,.1,0,.2.1.2.2s-.1.2-.2.2ZM225.2,387.6c.1,0,.2,0,.3.2,0,.1,0,.3-.2.3h-.7c-.6,0-.9-.3-.9-.8v-.2c0-.1.1-.2.3-.2s.2.1.2.3v.2c0,.2.2.3.5.3h.6-.1ZM224.7,385.9h0c0-.1-.7-.1-.7-.1-.1,0-.2-.1-.2-.2s.1-.2.2-.2h1c.1,0,.3.1.3.2s0,.2-.2.4v.2c-.2.1-.3.1-.4,0-.1,0-.1-.2,0-.3h0Z"/>
  <path class="st2" d="M228.7,386.9c0-.1.1-.2.2-.2s.2.1.2.2c0,.5.2.8.8.9.1,0,.2,0,.2.2s-.1.3-.2.2c-1,0-1.3-.6-1.3-1.4h.1ZM230.2,384.6h-1.2c-.1,0-.2,0-.2-.2s.1-.2.2-.2h1.1v-.6c-.2-.1,0-.2,0-.3.1,0,.2,0,.3.2l.2.7h.7c.1,0,.2.1.2.2s-.1.2-.2.2h-.6l.2.8h.5c.1,0,.2.1.2.2s-.1.2-.2.2h-.4l.2.7c0,.1,0,.3-.2.3h-.5c-.1,0-.2,0-.2-.2s0-.2.2-.2h.2l-.2-.6h-1.5c-.1,0-.2-.1-.2-.2s0-.2.2-.2h1.4l-.2-.8Z"/>
  <path class="st2" d="M235.5,387.1v-.4c0-.1.2-.2.3-.2s.2.1.1.3v.2c0,.3.2.4,1,.4h1c.1,0,.2,0,.3.2,0,.1,0,.2-.2.3h-1c-.4,0-1.4,0-1.4-.9h-.1ZM237.4,385l.2-.3h-1.7c-.1,0-.2-.1-.2-.2s.1-.2.2-.2h2.1c.1,0,.2,0,.2.2s0,.2-.1.4l-.2.3c0,.1-.2.1-.3,0-.1,0-.1-.2,0-.3h-.1Z"/>
  <path class="st2" d="M245.2,386.4h.4c.1,0,.2.2.2.3s-.2.2-.3.2-.3,0-.4-.1c-.1.4-.3.7-.6,1.2,0,.1-.2.1-.3,0-.1,0-.1-.2,0-.3.3-.4.4-.8.5-1.1-.6-.1-1-.2-1.4-.2-.2.8-.4,1.2-.7,1.2s-.7-.2-.7-.8.4-.9,1.1-.9c0,0,.2-.9.3-1.8h-.6c-.1,0-.2,0-.2-.2s.1-.2.2-.2h.8c.2,0,.3.1.3.3v.2c0,.7-.2,1.3-.3,1.8.5,0,.9,0,1.4.2,0-.2,0-.3.1-.5,0-.1.1-.2.2-.2s.2.1.2.2c0,.2,0,.4-.1.5v.2ZM242.8,386.5c-.4,0-.5.2-.6.4,0,.2.1.4.2.4,0,0,.2-.4.3-.8h.1Z"/>
  <path class="st2" d="M248.4,386.9c0-.4.4-.8,1.1-.9v-1.2h-.5c-.1,0-.2-.1-.2-.2s.1-.2.2-.2h.5v-.4c0-.1.1-.2.2-.2s.2.1.2.2v.4h.7c.1,0,.2,0,.2.2s0,.2-.2.2h-.7v1.1h.5c.8,0,1.4.3,1.5,1.1,0,.5-.3.9-.7,1.3h-.3v-.3c.3-.3.6-.6.6-.9s-.2-.6-1-.6h-.5v.8c0,.7-.3,1-.7.9-.3,0-.9-.5-.9-1.2h0ZM249.4,387.6q.2,0,.2-.4v-.7c-.4,0-.7.3-.7.5,0,.3.3.7.5.7h0ZM252.3,384.6c0,.1-.1.2-.2.2s-.2-.1-.2-.2v-.5c0-.1,0-.2.2-.2s.2.1.2.2v.5Z"/>
  <path class="st2" d="M255.5,387.1v-.4c0-.1.2-.2.3-.2s.2.1.1.3v.2c0,.3.2.4,1,.4h1c.1,0,.2,0,.3.2,0,.1,0,.2-.2.3h-1c-.4,0-1.4,0-1.4-.9h-.1ZM257.4,385l.2-.3h-1.7c-.1,0-.2-.1-.2-.2s.1-.2.2-.2h2.1c.1,0,.2,0,.2.2s0,.2-.1.4l-.2.3c0,.1-.2.1-.3,0-.1,0-.1-.2,0-.3h-.1Z"/>
  <path class="st2" d="M261.7,384.4c0-.1.1-.2.2-.2s.2.1.2.2c0,.9-.1,1.6,0,2.6h.3c.1-.1.2,0,.3,0,0,.1,0,.2-.1.3l-.5.2c-.1,0-.3,0-.3-.2v-3h-.1ZM265.3,385h-.4v1c0,.8-.3,1.3-.8,2.3,0,.1-.2.1-.3,0-.1,0-.1-.2,0-.3.6-.9.7-1.4.8-2.1v-.9h-1.2c-.1,0-.2-.1-.2-.2s0-.2.2-.2h1.1v-.7c0-.1,0-.2.2-.3.1,0,.2,0,.3.2v.7h.5c.1,0,.2.1.2.2s-.1.2-.2.2h-.2ZM265.2,383.7s0-.2.2-.2.2,0,.2.2v.2s0,.2-.2.2-.2,0-.2-.2v-.2ZM265.8,383.7s0-.2.2-.2.2,0,.2.2v.2s0,.2-.2.2-.2,0-.2-.2v-.2Z"/>
  <path class="st1" d="M261.4,382.6c7.4-4.8,14.8-9.6,22.2-14.5"/>
  <path class="st1" d="M243.3,214.6c7.4,4.8,14.8,9.6,22.2,14.5"/>
  <path class="st1" d="M485.6,214.6c-10.6,6.1-21.1,12-31.8,18.1"/>
  <path class="st1" d="M454.8,366.5c7.4,4.8,14.8,9.6,22.2,14.5"/>
  <image width="1288" height="977" transform="translate(239 195.4) scale(.2)" xlink:href="gano-1.png"/>
</svg>