<?xml version="1.0" encoding="UTF-8"?>
<svg id="_レイヤー_1" xmlns="http://www.w3.org/2000/svg" xmlns:xlink="http://www.w3.org/1999/xlink" version="1.1" viewBox="0 0 670.7 182.7">
  <!-- Generator: Adobe Illustrator 29.4.0, SVG Export Plug-In . SVG Version: 2.1.0 Build 152)  -->
  <defs>
    <style>
      .st0 {
        isolation: isolate;
      }

      .st1 {
        fill: none;
        stroke: #231815;
        stroke-miterlimit: 10;
        stroke-width: .2px;
      }

      .st2 {
        fill: #231815;
      }
    </style>
  </defs>
  <image class="st0" width="881" height="639" transform="translate(256.5 19.9) scale(.2)" xlink:href="いかが-1.png"/>
  <image class="st0" width="1074" height="1069" transform="translate(553.5 61.6) scale(.1)" xlink:href="いかが-2.png"/>
  <g>
    <path class="st2" d="M236,79.8h0c-.2,0-.3,0-.5-.2l-1.4-1.7v1.4h.5c.1,0,.2,0,.2.2s-.1.2-.2.2h-.5v1.1s0,.2-.2.2-.2,0-.2-.2v-1.1h-.5c-.1,0-.2,0-.2-.2s.1-.2.2-.2h.5v-1.4l-1.5,1.9h-.3c-.1,0-.1-.2,0-.3l1.7-2h-1.3c-.1,0-.2,0-.2-.2s.1-.2.2-.2h1.5v-.9s.1-.2.2-.2.2,0,.2.2v.9h1.5c.1,0,.2,0,.2.2s-.1.2-.2.2h-1.3l1.6,1.9h.1c.1,0,.2,0,.2.2s-.1.2-.2.2h-.1Z"/>
    <path class="st2" d="M240.9,76.5c.2,0,.3,0,.3.3v3.7c0,.2-.1.3-.3.3h-2.7c-.2,0-.3-.2-.3-.3v-3.7c0-.2.1-.3.3-.3h2.7ZM240.7,76.9h-2.3v1.3h2.3v-1.3ZM240.7,80.3v-1.6h-2.3v1.6h2.3Z"/>
    <path class="st2" d="M246.6,78.5c0-.7-.6-1.2-1.4-1.2s-1.5.6-1.5,1.4.2.9.4.9c.3,0,.7-.8.8-1.6,0,0,.1-.2.3-.2s.2,0,.2.2c-.2.9-.6,2-1.2,2s-.8-.5-.8-1.3.9-1.8,1.9-1.8,1.8.5,1.8,1.7-.4,1.3-1.1,2h-.3v-.3c.7-.7,1-1.2,1-1.7h0Z"/>
    <path class="st2" d="M249,79.6c0-.4.4-.8,1.1-.9v-1.2h-.5c-.1,0-.2,0-.2-.2s.1-.2.2-.2h.5v-.4s.1-.2.2-.2.2,0,.2.2v.4h.7c.1,0,.2,0,.2.2s0,.2-.2.2h-.7v1.1h.5c.8,0,1.4.3,1.5,1,0,.5-.3.9-.7,1.3h-.3v-.3c.3-.3.6-.6.6-.9s-.2-.6-1-.6h-.5v.8c0,.7-.3.9-.7.9s-.9-.5-.9-1.2h0ZM250,80.3c.1,0,.2-.1.2-.4v-.7c-.4,0-.7.3-.7.5,0,.3.3.7.5.7h0ZM252.8,77.4s-.1.2-.2.2-.2,0-.2-.2v-.5s0-.2.2-.2.2,0,.2.2v.5Z"/>
    <path class="st2" d="M255,79.8v-.4s.2-.2.3-.2.2,0,.1.3v.2c0,.3.2.4,1,.4h1c.1,0,.2,0,.3.2,0,0,0,.2-.2.3h-1c-.4,0-1.4,0-1.4-.9h-.1ZM257,77.7l.2-.3h-1.7c-.1,0-.2,0-.2-.2s.1-.2.2-.2h2c.1,0,.2,0,.2.2s0,.2-.1.4l-.2.3h-.3c-.1,0-.1-.2,0-.3h-.1Z"/>
    <path class="st2" d="M260.3,77.1s.1-.2.2-.2.2,0,.2.2c0,.9-.1,1.6,0,2.5h.6s0,.2-.1.3l-.5.2c-.1,0-.3,0-.3-.2v-2.8h-.1ZM263.8,77.7h-.4v1c0,.7-.3,1.3-.8,2.2h-.3c-.1,0-.1-.2,0-.3.6-.9.7-1.4.8-2v-.9h-1.2c-.1,0-.2,0-.2-.2s0-.2.2-.2h1.1v-.7s0-.2.2-.3c.1,0,.2,0,.3.2v.7h.5c.1,0,.2,0,.2.2s-.1.2-.2.2h-.2ZM263.6,76.5s0-.2.2-.2.2,0,.2.2v.2s0,.2-.2.2-.2,0-.2-.2v-.2ZM264.3,76.5s0-.2.2-.2.2,0,.2.2v.2s0,.2-.2.2-.2,0-.2-.2v-.2Z"/>
  </g>
  <g>
    <path class="st2" d="M475.2,108.2h-2.7c-.1,0-.2,0-.2-.2s0-.2.2-.2h2.7c.1,0,.2,0,.2.2s0,.2-.2.2Z"/>
    <path class="st2" d="M479.8,107.2h-2.7s-.2,0-.2-.2,0-.2.2-.2h2.7s.2,0,.2.2,0,.2-.2.2ZM477.5,109.1s0-.2.2-.2h1.3c.1,0,.2,0,.2.2v.7s0,.2-.2.2h-1.3c-.1,0-.2,0-.2-.3v-.7h0ZM479,107.9h-1.2s-.2,0-.2-.2,0-.2.2-.2h1.2s.2,0,.2.2,0,.2-.2.2ZM477.8,108.2h1.2s.2,0,.2.2,0,.2-.2.2h-1.2s-.2,0-.2-.2,0-.2.2-.2ZM477.9,109.3v.5h1.1v-.5h-1.1ZM478.6,106.3v.3s0,.2-.2.2-.2,0-.2-.2v-.3s0-.2.2-.2.2,0,.2.2Z"/>
  </g>
  <g>
    <path class="st2" d="M610.7,37.1c0,1.5-.8,2.3-2.6,2.9-.2,0-.5,0-.6-.2,0-.2,0-.4.3-.5,1.6-.5,2.1-1.2,2.1-2.2s-.2-1.9-1.5-1.9-1.7.9-2.6,1.6v3.4c0,.2-.2.4-.4.4s-.4-.2-.4-.4v-2.8c-.4.3-.8.7-1.1.9h-.5v-.5l1.6-1.2v-.9h-.8c-.2,0-.4-.2-.4-.4s.2-.4.4-.4h.8v-1.5c0-.2.2-.4.4-.4s.4.2.4.4v2.5c1.5-1.2,1.9-1.3,2.6-1.3,1.6,0,2.3,1.3,2.2,2.6h0Z"/>
    <path class="st2" d="M607.5,45.9h-1.8l-1.1,5.1c0,.2-.2.3-.5.3s-.3-.2-.3-.5l1-5h-.7c-.2,0-.4-.2-.4-.4s.2-.4.4-.4h.9l.2-1c0-.2.3-.3.5-.3s.3.3.3.5l-.2.9h1.6c.2,0,.4.2.4.4s-.2.4-.4.4h0ZM609.8,50.6c.2,0,.4,0,.4.3s0,.4-.3.5h-1.1c-1,0-1.5-.5-1.5-1.4v-.3c0-.2.2-.4.5-.3.2,0,.3.2.3.4v.3c0,.4.3.5.8.5h1-.1ZM609,47.6l.2-.3h-1.2c-.2,0-.4-.2-.4-.4s.2-.4.4-.4h1.7c.2,0,.4.2.4.4s0,.4-.3.7l-.2.3c0,.2-.4.2-.5,0-.2,0-.2-.3,0-.5h0v.2Z"/>
    <path class="st2" d="M605.7,60.3c0,.9.8,1.5,1.7,1.5s1.1-.6,1.6-2c0-.3.3-.3.5-.2.2,0,.3.3.2.5-.4,1.2-1.1,2.4-2.3,2.4s-2.5-.9-2.4-2.4c0-1.4.2-3.2.3-4.7,0-.2.2-.4.4-.4s.4.2.4.4c0,2.1-.3,4-.3,4.9h-.1Z"/>
    <path class="st2" d="M609.4,69.8c0-1.3-1-2.1-2.3-2.1s-2.6,1.1-2.6,2.3.4,1.5.7,1.5c.5,0,1.1-1.4,1.4-2.7,0-.2.2-.3.4-.3s.4.2.3.4c-.3,1.6-1,3.4-2.1,3.4s-1.4-.8-1.4-2.3,1.5-3,3.3-3.1c1.5,0,3.1.9,3.1,2.8s-.6,2.3-1.9,3.5h-.6v-.5c1.2-1.1,1.7-2,1.7-2.9h0Z"/>
    <path class="st2" d="M604,82.7c0-.7.6-1.3,1.9-1.6v-2.1h-.8c-.2,0-.4-.2-.4-.4s.2-.4.4-.4h.8v-.7c0-.2.2-.4.4-.4s.4.2.4.4v.7h1.2c.2,0,.4.2.4.4s-.2.4-.4.4h-1.2v1.9h.9c1.4,0,2.5.5,2.5,1.8s-.6,1.5-1.2,2.2c-.2.2-.4.2-.6,0-.2,0-.2-.4,0-.5.6-.5,1-1.1,1-1.6s-.3-1-1.7-1.1h-.9v1.4c0,1.2-.5,1.6-1.1,1.6s-1.5-.9-1.5-2h-.1ZM605.6,83.9q.3,0,.3-.8v-1.2c-.7.2-1.1.5-1.1.8s.5,1.1.8,1.2ZM610.4,79c0,.2-.2.4-.4.4s-.4-.2-.4-.4v-.8c0-.2.2-.4.4-.4s.4.2.4.4v.8Z"/>
    <path class="st2" d="M604.6,94.2v-.7c0-.2.3-.3.5-.3s.3.3.2.5v.4c0,.4.4.7,1.7.8.4,0,1,0,1.6-.2.2,0,.4,0,.4.3s0,.4-.3.5c-.6,0-1.3.2-1.8,0-.7,0-2.3,0-2.4-1.5h0v.2ZM607.9,90.5l.3-.5h-2.9c-.2,0-.4-.2-.4-.4s.2-.4.4-.4h3.4c.2,0,.4.2.4.4s0,.4-.2.7l-.3.6c0,.2-.3.3-.5.2-.2,0-.3-.3,0-.5h-.2Z"/>
    <path class="st2" d="M603.9,100.7c0-.2.2-.4.4-.4s.4.2.3.4c0,1.5-.2,2.8,0,4.3l.5-.2c.2,0,.4,0,.4.2s0,.4-.2.5l-.9.3c-.2,0-.5,0-.5-.3-.2-1.4,0-3.3,0-4.9h0ZM609.9,101.7h-.7v1.6c0,1.3-.4,2.3-1.4,3.8,0,.2-.4.2-.5,0-.2,0-.2-.3,0-.5,1-1.6,1.2-2.4,1.3-3.5v-1.6h-2c-.2,0-.4-.2-.4-.4s.2-.4.4-.4h1.9c0-.3,0-.7-.2-1.1,0-.2,0-.4.3-.4s.4,0,.4.3,0,.8.2,1.2h.8c.2,0,.4.2.4.4s-.2.4-.4.4h0v.2ZM609.7,99.6c0-.2,0-.3.3-.3s.3,0,.3.3v.4c0,.2,0,.3-.3.3s-.3,0-.3-.3v-.4ZM610.8,99.6c0-.2,0-.3.3-.3s.3,0,.3.3v.4c0,.2,0,.3-.3.3s-.3,0-.3-.3v-.4Z"/>
  </g>
  <g>
    <path class="st2" d="M616.8,35.4c0-.2.2-.4.4-.4h3s.2,0,.2.2,0,.2-.2.2h-3v1.4s0,.2-.2.2-.2,0-.2-.2v-1.3h0Z"/>
    <path class="st2" d="M617.7,41.5c-.3,0-.5,0-.7-.3-.2-.2-.3-.4-.3-.7v-.6c0-.3,0-.5.3-.7.2-.2.4-.3.7-.3h1.7c.3,0,.5,0,.7.3.2.2.3.4.3.7v.6c0,.3,0,.5-.3.7s-.4.3-.7.3h-1.7ZM617.6,39.5h-.3v1.3h2.4v-1.3h-2.1Z"/>
    <path class="st2" d="M616.9,44.8l3.2-1.1h.2v.2l-3,1.1,3,1s.2,0,0,.2c0,0,0,.2-.2,0l-3.2-1.1s-.2,0-.2-.3,0-.3.2-.3h0v.3Z"/>
    <path class="st2" d="M616.8,49c0-.2.2-.4.4-.4h2.7c.2,0,.4.2.4.4v1.4c0,.2-.2.4-.4.4h-.4s-.2,0-.2-.2,0-.2.2-.2h.4v-1.4h-1.1v1.5s0,.2-.2.2-.2,0-.2-.2v-1.5h-1.2v1.4h.3s.2,0,.2.2,0,.2-.2.2h-.3c-.2,0-.4-.2-.4-.4v-1.4Z"/>
    <path class="st2" d="M620.1,59.5h-3.3s-.2,0-.2-.2,0-.2.2-.2h2.6l-2.5-1s-.2-.2-.2-.3,0-.3.2-.3l2.5-1h-2.6s-.2,0-.2-.2,0-.2.2-.2h3.3c.1,0,.2,0,.2.2s0,.2-.2.3l-2.9,1.2,2.9,1.3s.2.2.2.3,0,.2-.2.2h0Z"/>
    <path class="st2" d="M620.1,64.4l-1.8-1.2h-1.4s-.2,0-.2-.2,0-.2.2-.2h1.4l1.9-1.2h.3v.3l-1.7,1.1,1.7,1v.3h-.4Z"/>
    <path class="st2" d="M617.7,72c-.3,0-.5,0-.7-.3-.2-.2-.3-.4-.3-.7v-.6c0-.3,0-.5.3-.7.2-.2.4-.3.7-.3h1.7c.3,0,.5,0,.7.3.2.2.3.4.3.7v.6c0,.3,0,.5-.3.7s-.4.3-.7.3h-1.7ZM617.6,70h-.3v1.3h2.4v-1.3h-2.1Z"/>
    <path class="st2" d="M619.1,75.5l-2.1,1.2h-.3v-.3l2.1-1.2-.5-.6h-1.5s-.2,0-.2-.2,0-.2.2-.2h3.3s.2,0,.2.2,0,.2-.2.2h-1.4l1.4,1.6v.3h-.3l-.9-1h.2Z"/>
    <path class="st2" d="M617.7,81.3c-.3,0-.5,0-.7-.3-.2-.2-.3-.4-.3-.7v-.6c0-.3,0-.5.3-.7.2-.2.4-.3.7-.3h1.7c.3,0,.5,0,.7.3.2.2.3.4.3.7v.6c0,.3,0,.5-.3.7s-.4.3-.7.3h-1.7ZM617.6,79.2h-.3v1.3h2.4v-1.3h-2.1Z"/>
    <path class="st2" d="M619.1,83.4c.3,0,.5,0,.7.3l.2.2c.2.2.3.4.3.7v.8c0,.2-.2.4-.4.4h-.4s-.2,0-.2-.2,0-.2.2-.2h.4v-1.2l-.3-.4h-2l-.3.3v1.2h1.2v-.7s0-.2.2-.2.2,0,.2.2v.7c0,.2-.2.4-.4.4h-1.2c-.2,0-.4-.2-.4-.4v-.8c0-.3,0-.4.3-.7l.2-.2c.2-.2.3-.3.7-.3h1.3-.3Z"/>
    <path class="st2" d="M616.8,88.4c0-.2.2-.4.4-.4h2.7c.2,0,.4.2.4.4v1.4c0,.2-.2.4-.4.4h-.4s-.2,0-.2-.2,0-.2.2-.2h.4v-1.4h-1.1v1.5s0,.2-.2.2-.2,0-.2-.2v-1.5h-1.2v1.4h.3s.2,0,.2.2,0,.2-.2.2h-.3c-.2,0-.4-.2-.4-.4v-1.4Z"/>
  </g>
  <g>
    <path class="st2" d="M465.8,46.5h-.2s-.1,0-.1-.2l.5-1.5h.2s.1,0,.1.2l-.5,1.5ZM466.8,44.4s0-.2.2-.2.2,0,.2.2v1.9h1.4v-.3s0-.2.2-.2.2,0,.2.2v.4s0,.2-.2.3h-1.7c-.1,0-.2,0-.2-.3v-2s-.1,0-.1,0ZM468.1,44.3s0,.2-.2.2-.2,0-.2-.2v-.4s0-.2.2-.2.2,0,.2.2v.4ZM468.8,44.3s0,.2-.2.2-.2,0-.2-.2v-.4s0-.2.2-.2.2,0,.2.2v.4Z"/>
    <path class="st2" d="M472.9,45.1c0-.6-.5-1-1.1-1s-1.2.5-1.2,1.1.2.7.3.7c.3,0,.5-.7.6-1.3,0,0,.1-.2.2-.2,0,0,.2,0,.1.2-.1.8-.5,1.6-1,1.6s-.7-.4-.6-1.1c0-.8.7-1.4,1.5-1.4s1.5.4,1.4,1.3c0,.5-.3,1.1-.9,1.6h-.3v-.2c.6-.5.8-.9.8-1.4h.2Z"/>
    <path class="st2" d="M477.6,47.1c-.1,0-.3,0-.4-.2l-1-1.3-1.1,1.4h-.3v-.3l1.2-1.6v-1.9s0-.2.2-.2.2,0,.2.2v1.9l1.1,1.5h0c.1,0,.2,0,.2.2s0,.2-.2.2h0ZM475,44s0-.2.2-.2.2,0,.2.2v.5s0,.2-.2.2-.2,0-.2-.2v-.5ZM477.2,44s0-.2.2-.2.2,0,.2.2v.5s0,.2-.2.2-.2,0-.2-.2v-.5Z"/>
    <path class="st2" d="M480,43.4v.5h.4c.1,0,.2,0,.2.2v2.8s0,.2-.2.2h-.3s-.2,0-.2-.2,0-.2.2-.2h.2v-2.6h-.3c0,.3,0,.5-.1.8l-.6,1.7s-.1.2-.2,0c0,0-.1,0-.1-.2.5-1.4.6-1.7.6-1.9v-.5h-.4s-.2,0-.2-.2,0-.2.2-.2h.4v-.5s0-.2.2-.2.2,0,.2.2v.2h0ZM482.5,46.6s0,.2-.2.3h-.9c-.1,0-.2,0-.2-.3v-2.5s.1-.2.2-.2h1c.1,0,.2,0,.2.2v2.5h-.1ZM481.4,44.2v2.2h.7v-2.2h-.7Z"/>
    <path class="st2" d="M483.8,46.8h-.2s-.1,0,0-.2l.3-.8h.2s.1,0,0,.2l-.3.8ZM484,44h-.2s-.2,0-.2-.2,0-.2.2-.2h.2s.2,0,.2.2,0,.2-.2.2ZM484,45h-.2s-.2,0-.2-.2,0-.2.2-.2h.2s.2,0,.2.2,0,.2-.2.2ZM487.1,46.9l-.3.2h-.3l-.3-.7-.3.4h-.3v-.3l.4-.5-.3-.7v-.9h-1v1.6l-.3.8h-.2s-.1,0-.1-.2l.3-.8v-1.6s0-.2.2-.2h1.1v-.3s0-.2.2-.2.2,0,.2.2v.3h.4s.2,0,.2.2,0,.2-.2.2h-.4v.8l.2.5h0c0-.2.2-.2.3-.2v.3l-.2.3.3.8h.4v.2-.2h0ZM485.1,46.2c-.1,0-.2,0-.2-.3v-.5s.1-.2.2-.2h.4c.1,0,.2,0,.2.2v.5s0,.2-.2.2h-.4ZM485.6,44.5s.2,0,.2.2,0,.2-.2.2h-.5s-.2,0-.2-.2,0-.2.2-.2h.5ZM485.5,45.9v-.4h-.2v.4h.2ZM486.7,43.6v-.3s0-.2.2-.2.2,0,.2.2v.3s0,.2-.2.2-.2,0-.2-.2Z"/>
  </g>
  <g>
    <path class="st2" d="M46.8,151.7v-.7c0-.2.3-.3.5-.3s.3.2.2.5v.4c0,.4.4.7,1.7.7s1,0,1.6-.2c.2,0,.4,0,.4.3s0,.4-.3.5c-.6,0-1.3.2-1.7.1-.7,0-2.3,0-2.4-1.4h0ZM50.1,148.1l.3-.5h-2.9c-.2,0-.4-.2-.4-.4s.2-.4.4-.4h3.4c.2,0,.4.2.4.4s0,.4-.2.7l-.3.6c0,.2-.3.2-.5.2s-.2-.3,0-.5h-.2Z"/>
    <path class="st2" d="M55.7,147.2c0-.2.2-.4.4-.4s.4.2.3.4c0,1.5-.2,2.8,0,4.3l.5-.2c.2,0,.4,0,.4.2s0,.4-.2.5l-.9.3c-.2,0-.5,0-.5-.3-.2-1.4,0-3.3,0-4.8ZM61.6,148.1h-.7v1.6c0,1.3-.4,2.3-1.4,3.7,0,.2-.4.2-.5.1-.2,0-.2-.3,0-.5,1-1.6,1.2-2.4,1.3-3.4v-1.6h-2c-.2,0-.4-.2-.4-.4s.2-.4.4-.4h1.9c0-.3,0-.7-.2-1.1,0-.2,0-.4.3-.4s.4.1.4.3c0,.4,0,.8.2,1.2h.8c.2,0,.4.2.4.4s-.2.4-.4.4h0ZM61.4,146.1c0-.2,0-.3.3-.3s.3.1.3.3v.4c0,.2,0,.3-.3.3s-.3-.1-.3-.3v-.4ZM62.5,146.1c0-.2,0-.3.3-.3s.3.1.3.3v.4c0,.2,0,.3-.3.3s-.3-.1-.3-.3v-.4Z"/>
    <path class="st2" d="M68.8,147.8h-1.7l-1.1,5.1c0,.2-.2.3-.5.3s-.3-.2-.3-.5l1-4.9h-.7c-.2,0-.4-.2-.4-.4s.2-.4.4-.4h.9l.2-1c0-.2.2-.3.5-.3s.3.2.3.5l-.2.9h1.6c.2,0,.4.2.4.4s-.2.4-.4.4h0ZM71.1,152.5c.2,0,.4,0,.4.3s0,.4-.3.5h-1.1c-1,0-1.5-.5-1.5-1.4v-.3c0-.2.2-.4.5-.3.2,0,.3.2.3.4v.3c0,.4.3.5.8.5h1-.1ZM70.3,149.5l.2-.2h-1.2c-.2,0-.4-.2-.4-.4s.2-.4.4-.4h1.7c.2,0,.4.2.4.4s0,.4-.3.7l-.2.3c0,.2-.4.2-.5.1-.2-.1-.2-.3,0-.5h0Z"/>
    <path class="st2" d="M77,149.3l-1-2.8c0-.2,0-.4.2-.5.2,0,.4,0,.5.2l.9,2.5c.2-.1,1.3-1.1,1.8-1.6.2-.1.4-.1.5,0v.5c-2.7,2.4-3.4,2.7-3.4,3.6s.6,1.1,1.4,1.1,1.3,0,1.8-.1c.2,0,.4.1.4.3s-.2.4-.4.4h-1.9c-1.5,0-2.2-.7-2.2-1.8s.4-1.4,1.2-2.2l.2.4h0Z"/>
    <path class="st2" d="M85.1,151.7v-.7c0-.2.3-.3.5-.3s.3.2.2.5v.4c0,.4.4.7,1.7.7s1,0,1.6-.2c.2,0,.4,0,.4.3s0,.4-.3.5c-.6,0-1.3.2-1.7.1-.7,0-2.3,0-2.4-1.4h0ZM88.4,148.1l.3-.5h-2.9c-.2,0-.4-.2-.4-.4s.2-.4.4-.4h3.4c.2,0,.4.2.4.4s0,.4-.2.7l-.3.6c0,.2-.3.2-.5.2s-.2-.3,0-.5h-.2Z"/>
    <path class="st2" d="M99.4,151c0,1.8-1.1,2.5-3.5,2.5s-.4-.2-.4-.4,0-.4.3-.4c1.7,0,2.7-.4,2.8-1.3.2-1.2-.5-1.5-1.3-1.4-.5,0-1.7.5-1.9.6l-.2.2c-.2.2-.4.3-.6.2s-.2-.4,0-.5l2.8-3.8h-1.5c-.2.1-.4,0-.4-.3s.2-.4.4-.4h2.1c.2-.1.4,0,.4.2s0,.4-.3.7l-2,2.7c.3,0,.8-.3,1.2-.3,1.4-.3,2.2.5,2.2,1.5v.2h0Z"/>
    <path class="st2" d="M105.5,149.9h-.6c-.2,0-.4-.2-.4-.4s.2-.4.4-.4h.6c0-.4,0-.7.2-1.1h-.7c-.2,0-.4-.2-.4-.4s.2-.4.4-.4h.8c0-.4,0-1,.2-1.4,0-.2.2-.4.4-.3.2,0,.4.2.3.4,0,.4,0,1-.2,1.4h1c.2,0,.4.2.4.4s-.2.4-.4.4h-1.1c0,.4,0,.7-.2,1.1h1.3c.2,0,.4.2.4.4s-.2.4-.4.4h-1.4l-.2,1.6c0,.9.5,1.4,1.4,1.4s1-.7.7-1.8c0-.2,0-.4.3-.5.2,0,.4,0,.5.3v.8c0,1.3-.6,1.9-1.6,2-1.1,0-2.3-.7-2.2-2,0-.5,0-.8.2-1.7l.2-.2h0Z"/>
    <path class="st2" d="M113.2,151.8l.9.9v.5c0,.1-.3.1-.5,0l-.9-.9v-.5c0-.1.3-.1.5,0Z"/>
    <path class="st2" d="M122.8,151.3c0-.7.6-1.3,1.9-1.6v-2h-.8c-.2,0-.4-.2-.4-.4s.2-.4.4-.4h.8v-.7c0-.2.2-.4.4-.4s.4.2.4.4v.7h1.1c.2,0,.4.2.4.4s-.2.4-.4.4h-1.1v1.9h.9c1.4,0,2.4.5,2.5,1.8,0,.9-.6,1.5-1.2,2.1-.2.2-.4.2-.6,0-.2-.1-.2-.4,0-.5.6-.5,1-1.1,1-1.6s-.3-1-1.7-1h-.9v1.4c0,1.2-.5,1.6-1.1,1.6s-1.5-.9-1.5-2h-.1ZM124.4,152.5c.3,0,.3-.1.3-.8v-1.2c-.7.2-1.1.5-1.1.8s.5,1.1.8,1.2ZM129.1,147.6c0,.2-.2.4-.4.4s-.4-.2-.4-.4v-.8c0-.2.2-.4.4-.4s.4.2.4.4v.8Z"/>
    <path class="st2" d="M133.3,152.6c-.2.1-.5,0-.6-.2-.4-1.4-.4-3.4-.2-5.1,0-.2.2-.4.4-.3.2,0,.3.2.3.4-.2,1.5-.2,3.2,0,4.4l.4-.2c.2-.1.4,0,.5.2,0,.2,0,.4-.2.5l-.8.4h.2ZM137.9,150.8c-.2-.9-.5-1.6-.9-2.3,0-.2,0-.4.2-.5s.4,0,.5.2c.4.7.7,1.5.9,2.4,0,.2,0,.4-.3.5-.2,0-.4,0-.5-.3h.1Z"/>
    <path class="st2" d="M143.7,151.1c0,.9.8,1.5,1.7,1.5s1.1-.6,1.6-2c0-.3.3-.3.5-.2.2,0,.3.3.2.5-.4,1.2-1.1,2.4-2.3,2.4s-2.5-.9-2.4-2.4c0-1.4.2-3.2.3-4.7,0-.2.2-.4.4-.4s.4.2.4.4c-.1,2.1-.3,3.9-.3,4.8h0Z"/>
    <path class="st2" d="M152.5,152.6c-.2.1-.5,0-.6-.2-.4-1.4-.4-3.4-.2-5.1,0-.2.2-.4.4-.3.2,0,.3.2.3.4-.2,1.5-.2,3.2,0,4.4l.4-.2c.2-.1.4,0,.5.2,0,.2,0,.4-.2.5l-.8.4h.2ZM157,150.8c-.2-.9-.5-1.6-.9-2.3,0-.2,0-.4.2-.5s.4,0,.5.2c.4.7.7,1.5.9,2.4,0,.2,0,.4-.3.5-.2,0-.4,0-.5-.3h.1Z"/>
    <path class="st2" d="M167.7,150c0,1.5-.8,2.3-2.5,2.9-.2,0-.5,0-.6-.2,0-.2.1-.4.3-.5,1.6-.5,2.1-1.2,2.1-2.2s-.2-1.9-1.4-1.9-1.7.9-2.5,1.6v3.3c0,.2-.2.4-.4.4s-.4-.2-.4-.4v-2.7c-.4.3-.8.7-1.1.9-.2.1-.4.1-.5,0-.1-.2-.1-.4,0-.5l1.6-1.2v-.9h-.8c-.2,0-.4-.2-.4-.4s.2-.4.4-.4h.8v-1.5c0-.2.2-.4.4-.4s.4.2.4.4v2.5c1.5-1.2,1.9-1.3,2.5-1.3,1.6,0,2.3,1.3,2.2,2.6h-.1Z"/>
    <path class="st2" d="M174.2,147.8h-1.7l-1.1,5.1c0,.2-.2.3-.5.3s-.3-.2-.3-.5l1-4.9h-.7c-.2,0-.4-.2-.4-.4s.2-.4.4-.4h.9l.2-1c0-.2.2-.3.5-.3s.3.2.3.5l-.2.9h1.6c.2,0,.4.2.4.4s-.2.4-.4.4h0ZM176.4,152.5c.2,0,.4,0,.4.3s-.1.4-.3.5h-1.1c-1,0-1.5-.5-1.5-1.4v-.3c0-.2.2-.4.5-.3.2,0,.3.2.3.4v.3c0,.4.3.5.8.5h1,0ZM175.6,149.5l.2-.2h-1.2c-.2,0-.4-.2-.4-.4s.2-.4.4-.4h1.7c.2,0,.4.2.4.4s-.1.4-.3.7l-.2.3c-.1.2-.4.2-.5.1-.2-.1-.2-.3,0-.5h0Z"/>
    <path class="st2" d="M182,151.1c0,.9.8,1.5,1.7,1.5s1.1-.6,1.6-2c0-.3.3-.3.5-.2.2,0,.3.3.2.5-.4,1.2-1.1,2.4-2.3,2.4s-2.5-.9-2.4-2.4c0-1.4.2-3.2.3-4.7,0-.2.2-.4.4-.4s.4.2.4.4c-.1,2.1-.3,3.9-.3,4.8h0Z"/>
    <path class="st2" d="M191.2,152.4c0,.6-.5,1.1-1.1,1.1s-1.1-.5-1.1-1.1.5-1.1,1.1-1.1,1.1.5,1.1,1.1ZM190.8,152.4c0-.3-.3-.6-.6-.6s-.6.3-.6.6.3.6.6.6.6-.3.6-.6Z"/>
  </g>
  <g>
    <path class="st2" d="M46.5,37.4l-.5-1.5v-.3h.3l.5,1.3s.7-.6,1-.8h.3v.3c-1.4,1.2-1.8,1.4-1.8,1.9s.3.6.8.6h1s.2,0,.2.2,0,.2-.2.2h-1c-.8,0-1.1-.4-1.1-.9s.2-.7.6-1.1h-.2.1Z"/>
    <path class="st2" d="M51.5,37.8h-.5v-2s0-.2.2-.2.2,0,.2.2v1.6h.2c0-.2.2-.2.3,0v.3l-.3.2h-.1ZM53,35.8v1.8c0,.7-.4,1.3-1.1,2h-.3v-.3c.7-.7,1-1.2,1.1-1.8v-1.7s0-.2.2-.2.2,0,.2.2h-.1Z"/>
    <path class="st2" d="M55.6,38.3c0-.6.4-1,.9-1.1v-.9h-.3s-.2,0-.2-.2,0-.2.2-.2h.3v-.3s0-.2.2-.2.2,0,.2.2v.3h.9s.2,0,.2.2,0,.2-.2.2h-.9v.8h.9s.2-.2.3,0c0,0,.2,0,0,.3h0c.4.2.6.5.6,1s-.4,1-.9,1.4h-.3v-.3c.4-.3.7-.7.7-1.1s0-.5-.4-.6c-.3.8-.9,1.7-1.6,1.7s-.8-.5-.8-1.1h.2ZM56.4,39c.4,0,.9-.8,1.2-1.4h-.7v.6s0,.2-.2.2-.2,0-.2-.2v-.6c-.4,0-.5.4-.5.7s.2.7.4.7Z"/>
    <path class="st2" d="M60.8,39.1l1.8-2.3h-1.4s-.2,0-.2-.2,0-.2.2-.2h1.8s.2,0,.2.2,0,.2-.2.2l-1,1.3h.3c.2,0,.3,0,.3.2v.9h1s.2,0,.2.2,0,.2-.2.2h-1.2s-.3,0-.3-.3v-.8h-.4l-.6.8h-.3v-.3h0ZM62.4,36s0,.2-.2.2-.2,0-.2-.2v-.4s0-.2.2-.2.2,0,.2.2v.4Z"/>
    <path class="st2" d="M67.4,36.6h-1.7s-.2,0-.2-.2,0-.2.2-.2h1.7v-.6s0-.2.2-.2.2,0,.2.2v.6h.9s.2,0,.2.2,0,.2-.2.2h-.9v1.4c0,.5-.2,1.1-.5,1.7h-.3v-.3c.2-.3.3-.6.4-.9h-.2c-.4,0-.8-.3-.8-.9s.2-.6.6-.7h.4v-.5s0,.2,0,.2ZM67.4,37.6h-.3c-.2,0-.3.2-.3.4s.2.4.3.4c.2,0,.3-.2.2-.7h.1ZM68.4,35.6s0-.2.2-.2.2,0,.2.2v.2s0,.2-.2.2-.2,0-.2-.2v-.2ZM69,35.6s0-.2.2-.2.2,0,.2.2v.2s0,.2-.2.2-.2,0-.2-.2v-.2Z"/>
    <path class="st2" d="M70.8,38.8l.5.5v.3h-.3l-.5-.5v-.3h.3Z"/>
    <path class="st2" d="M76.1,38.7v-.3s.2-.2.3,0v.5c0,.2.2.4.9.4h.9s.2,0,.2.2,0,.2-.2.2h-.9c-.3,0-1.2,0-1.3-.8h0v-.2ZM77.8,36.8l.2-.3h-1.5s-.2,0-.2-.2,0-.2.2-.2h1.8s.2,0,.2.2v.4l-.2.3h-.3v-.3h-.2ZM78.6,35.7s0-.2.2-.2.2,0,.2.2v.2s0,.2-.2.2-.2,0-.2-.2v-.2ZM79.2,35.7s0-.2.2-.2.2,0,.2.2v.2s0,.2-.2.2-.2,0-.2-.2v-.2Z"/>
    <path class="st2" d="M80.8,39.2v-3s0-.2.2-.2.2,0,.2.2v2.7h.4v.3h-.2s-.2,0-.3.2c0,0-.2,0-.2-.2h0ZM84.1,38.2s.2,0,.2.2,0,.2-.2.2h-.5v.5c0,.5-.2.6-.6.6s-.8-.4-.8-.9.2-.6.7-.6h.3v-1.4h-.8s-.2,0-.2-.2,0-.2.2-.2h.8v-.5s0-.2.2-.2.2,0,.2.2v.5h.4s.2,0,.2.2,0,.2-.2.2h-.4v1.4h.6,0ZM83.2,38.5h-.3c-.2,0-.3,0-.3.2,0,.3.3.5.4.5s.2,0,.2-.3c0,0,0-.4,0-.4Z"/>
    <path class="st2" d="M89,38.8h.3v.3c-.3.3-.6.4-.9.5-.5,0-.8-1.2-1.1-1.2s-.4.2-.6.4l-.3.6s-.2.2-.3,0c0,0-.2-.2,0-.3l1.5-3.4s.2-.2.3,0c0,0,.2.2,0,.3l-.9,2.2s.2-.2.3-.2c.5,0,.9,1.2,1.1,1.2s.5-.2.6-.4Z"/>
    <path class="st2" d="M92.4,36h1.2s.2,0,.2.2,0,.2-.2.2h-1.3l-.2.7c.3,0,.5.2.7.3,0,0,.3-.3.4-.3h.3v.3s-.2.2-.3.3c.2,0,.3.2.5.3v.3h-.3s-.4-.3-.5-.3c-.4.3-.7.6-.7.9,0,0,0,.4.7.4h.6s.2,0,.2.2,0,.2-.2.2h-.7c-1,0-1.1-.6-1.1-.8,0-.4.3-.7.8-1.1-.2,0-.4-.2-.6-.3,0,0-.2,0-.2-.3l.2-.7h-.6s-.2,0-.2-.2,0-.2.2-.2h.7l.2-.6s0-.2.2,0c0,0,.2,0,0,.3v.4h0v-.2Z"/>
    <path class="st2" d="M97.8,35.3h.5l1.3.9v.3h-.3c-.4-.2-1.3-1-1.4-1h-.4s-1,.8-1.4,1h-.3v-.3l1.3-.9h.7ZM97.6,39.5l-.4.3h-.3s-.2,0-.2-.2v-2.8s0-.3.3-.3h1.5s.3,0,.3.3v1s0,.3-.3.3h-1.3v1.2l.3-.2h.3v.3h-.2ZM97.1,37v.2h1.2v-.2h-1.2ZM98.3,37.8v-.2h-1.2v.2h1.2ZM98,36.4s0,.2-.2.2-.2,0-.2-.2v-.3s0-.2.2-.2.2,0,.2.2v.3ZM99,39.4h0s.2,0,.2.2,0,.2-.2.2h0c-.2,0-.3,0-.4-.2l-.9-.9v-.3h.3l.9,1h0ZM98.6,38.3l.3-.3h.3v.3l-.3.3h-.3v-.3Z"/>
    <path class="st2" d="M101.3,38.2h-.3v-.3l1.2-1.3h.4l2.2,2v.3h-.3l-2.1-2s-1.1,1.3-1.1,1.3ZM103.6,36.3s0-.2.2-.2.2,0,.2.2v.2s0,.2-.2.2-.2,0-.2-.2v-.2ZM104.1,36.3s0-.2.2-.2.2,0,.2.2v.2s0,.2-.2.2-.2,0-.2-.2v-.2Z"/>
    <path class="st2" d="M109,38.2s.2,0,.2.2,0,.2-.2.2h-.9v.4c0,.4-.2.7-.6.7s-.8-.5-.8-.9.3-.6.8-.6h.2v-2.3c0-.4,0-.2.2-.2s.2,0,.2.2v.7h.8s.2,0,.2.2,0,.2-.2.2h-.8v1.3h.9ZM107.7,38.9v-.4h-.2c-.3,0-.4,0-.4.3s.2.5.5.5.2,0,.2-.3h0Z"/>
    <path class="st2" d="M111.8,37.1s-.2,0-.2-.2,0-.2.2-.2c.4,0,1.3-.3,1.6-.3.5,0,.8.3.8.9,0,1.2-.5,1.8-1.3,2.4h-.3v-.3c.9-.6,1.2-1.2,1.2-2.1s-.2-.5-.5-.5-1,.2-1.4.3h0ZM113.1,36.1s0,.2-.2.2-.2,0-.2-.2v-.5s0-.2.2-.2.2,0,.2.2v.5Z"/>
    <path class="st2" d="M117.2,39.1c0,.3-.3.6-.6.6s-.6-.2-.6-.6.3-.6.6-.6.6.3.6.6ZM116.9,39.1c0-.2,0-.3-.3-.3s-.3,0-.3.3,0,.3.3.3.3,0,.3-.3Z"/>
    <path class="st2" d="M121.5,38.7s-.3,0-.3-.3v-2.2s0-.3.3-.3h.9s.3,0,.3.2v2.2s0,.3-.3.3h-.9ZM121.7,36.4v.7h.6v-.7h-.6ZM122.2,38.3v-.8h-.6v.8h.6ZM122.5,39.5c0-.4.5-1.1.5-1.1v-2.6s0-.3.3-.3h1.3s.3,0,.3.3v3.8s0,.3-.3.3h-.3s-.2,0-.2-.2,0-.2.2-.2h.2v-1.5h-1v.6l-.5,1.1s-.2.2-.3,0c0,0-.2-.2,0-.3h-.2ZM124.5,35.9h-1v.5h1v-.5ZM124.5,37.5v-.6h-1v.6h1Z"/>
    <path class="st2" d="M129.4,35.7c.1,0,.3,0,.3.3v3.3s-.1.3-.3.3h-2.5s-.3-.2-.3-.3v-3.3s0-.3.3-.3h2.5ZM129.2,36.1h-2.1v1.2h2.1v-1.2ZM129.2,39.1v-1.5h-2.1v1.5h2.1Z"/>
    <path class="st2" d="M132.6,37.7h-.3c-.1,0-.2,0-.2-.2s0-.2.2-.2h.3v-.6h-.4c-.1,0-.2,0-.2-.2s0-.2.2-.2h.4v-.8s.1-.2.2-.2.2,0,.2.2v.7h.6c.1,0,.2,0,.2.2s0,.2-.2.2h-.6v.6h.7c.1,0,.2,0,.2.2s0,.2-.2.2h-.8v.8c-.2.5.2.8.6.7.3,0,.5-.4.4-.9,0,0,0-.2.1-.3.1,0,.2,0,.3.2v.4c0,.7-.3,1-.8,1s-1.2-.3-1.1-1.1c0-.3,0-.4.1-.9v.2h.1Z"/>
    <path class="st2" d="M140,39.4s-.1.3-.3.3h-.9c-.1,0-.3,0-.3-.3v-2.1h-.6v.3c0,.3,0,.4-.1.6l-.8,1.3h-.3c-.1,0-.1-.2,0-.3.2-.4.8-1.3.8-1.3.1-.2,0-.3.1-.5v-.3h-.8c-.1,0-.2,0-.2-.2s.1-.2.2-.2h3.1c.1,0,.2,0,.2.2s0,.2-.2.2h-.9v2h.7v-.2s0-.2.2-.2.2,0,.2.2v.5h0ZM137.3,35.7h2c.1,0,.2,0,.2.2s0,.2-.2.2h-2c-.1,0-.2,0-.2-.2s0-.2.2-.2Z"/>
    <path class="st2" d="M144.6,36.1h-2.2l-.2.5h-.3s-.1-.2,0-.3l.6-1.1h.3s.1.2,0,.3v.2c-.1,0,1.9,0,1.9,0,.1,0,.2,0,.2.2s0,.2-.2.2c0,0-.1,0-.1,0ZM143.5,38.3l-.4.4.5.4v.3h-.3l-.5-.4-.6.7h-.3c-.1,0,0-.2,0-.3l.6-.7-.3-.3v-.3h.3l.3.3.4-.4h.3c.1,0,0,.2,0,.3ZM144.7,39.8c-.1,0-.3,0-.3-.3v-2h-2.3c-.1,0-.2,0-.2-.2s0-.2.2-.2h2.4c.1,0,.3,0,.3.2v2h.3v-.3s0-.2.2-.2.2,0,.2.2v.4s-.1.3-.3.3h-.6.1ZM142.7,36.8c-.1,0-.2,0-.2-.2s0-.2.2-.2h1.5c.1,0,.2,0,.2.2s0,.2-.2.2h-1.5Z"/>
    <path class="st2" d="M146.9,36.6c-.1,0-.2,0-.2-.2s0-.2.2-.2h3s0,.2-.2.2h-.5c-.6.6-1.1,1.3-1.1,1.9s.3.5.8.6c.1,0,.2,0,.2.2s0,.2-.2.2c-.7,0-1.2-.4-1.2-1s.4-1.2.9-1.9h-1.8.1v.2ZM149.3,37.1s0-.2.2-.2.2,0,.2.2v.2s0,.2-.2.2-.2,0-.2-.2v-.2ZM149.9,37.1s0-.2.2-.2.2,0,.2.2v.2s0,.2-.2.2-.2,0-.2-.2v-.2Z"/>
    <path class="st2" d="M152.4,39.2h-.3c-.2-.7-.2-1.8-.1-2.7,0,0,.1-.2.2-.2s.2,0,.2.2c-.1.8-.1,1.7,0,2.3h.2c0-.2.2,0,.3,0v.3l-.4.2h0ZM154.8,38.2c-.1-.5-.3-.9-.5-1.2v-.3h.3c.2.4.4.8.5,1.3,0,0,0,.2-.1.3h-.2Z"/>
    <path class="st2" d="M159.8,38.3c0,1-.5,1.3-1.3,1.4-.4,0-.9-.3-.8-.7,0-.2.2-.4.5-.4s.6.2.6.5,0,0,0,.2c.4,0,.7-.3.7-1s-.7-.4-1.6-.3l-.2.2h-.3c-.1,0,0-.2,0-.3l1.4-1.8h-.9c-.1,0-.2,0-.2-.2s0-.2.2-.2h1.2c.2,0,.3,0,.2.3l-1.2,1.4c1-.2,1.7-.2,1.7.8h0ZM158.4,39h-.4s.1.2.3.2v-.2h0Z"/>
    <path class="st2" d="M163.9,36.7h-.9l-.6,2.7s-.1.2-.2.2-.2,0-.2-.2l.5-2.6h-.4c-.1,0-.2,0-.2-.2s0-.2.2-.2h.5v-.5c.1,0,.2-.2.3-.2s.2,0,.2.2v.5h.7c.1,0,.2,0,.2.2s0,.2-.2.2h0ZM165.1,39.1c.1,0,.2,0,.2.2s0,.2-.2.2h-.6c-.5,0-.8-.3-.8-.7v-.2s.1-.2.2-.2.2,0,.1.2h0c0,.3.2.3.4.4h.7ZM164.7,37.5h-.6c-.1,0-.2,0-.2-.2s0-.2.2-.2h.9c.1,0,.2,0,.2.2s0,.2-.1.4v.2h-.4s-.1-.2,0-.3h0Z"/>
    <path class="st2" d="M167.9,39.1c-.3,0-.8-.4-.8-1.3s.3-.8.7-1v-.8c-.2,0,0-.2,0-.2.1,0,.2,0,.2.2v.6c.4,0,.7-.2,1.1-.2,0-.2.2-.4.2-.5s.2,0,.3,0,.1.2.1.3c0,0-.1.2-.2.4.4,0,.9.4.9,1.3s-.4,1.2-1.1,1.7h-.3v-.3c.7-.6,1-1,1-1.4,0-.6-.3-.9-.7-.9-.8,1.6-.9,2.3-1.5,2.3h.1v-.2ZM168.9,36.9c-.2,0-.5,0-.7.2v.6c.1,0,0,.2,0,.2-.1,0-.2,0-.2-.2v-.5c-.3,0-.5.3-.5.5,0,.5.3.9.4.9.2,0,.3-.2,1-1.8h0Z"/>
    <path class="st2" d="M172.3,39.4v-3.4s.1-.2.2-.2.2,0,.2.2c0,1.1-.1,2.2,0,3h.1c0-.2.2-.2.3-.2v.3l-.3.3h-.3c-.1,0-.2,0-.2-.2h0v.2ZM175.2,39.3h-.6c-.6,0-1-.2-1-.8s0,0,0-.2c0,0,.1-.2.3-.2s.2,0,.1.3h0c0,.3.2.4.6.4h.6c.1,0,.2,0,.2.2s0,.2-.2.2h0ZM173.9,36.2h1.2c.1,0,.2,0,.2.2s-.3.5-.3.5h-.3s-.1-.2,0-.3h-.9c-.1,0-.2,0-.2-.2s0-.2.2-.2h.1Z"/>
    <path class="st2" d="M178,39.1c0,.3-.3.6-.6.6s-.6-.2-.6-.6.3-.6.6-.6.6.3.6.6ZM177.8,39.1c0-.2-.1-.3-.3-.3s-.3,0-.3.3.1.3.3.3.3,0,.3-.3Z"/>
    <path class="st2" d="M46.8,54.2h-.8l-.2.4h-.3v-.3l.6-1.2h.3v.3l-.2.3h.6v-.6s0-.2.2-.2.2,0,.2.2v.6h1.1s.2,0,.2.2,0,.2-.2.2h-1.1v.7h1.3s.2,0,.2.2,0,.2-.2.2h-1.3v.2h0l1.3,1.7h0s.2,0,.2.2,0,.2-.2.2h0c-.2,0-.3,0-.4-.2l-1.1-1.5-1.3,1.6h-.3v-.3l1.4-1.6v-.3h-1.3s-.2,0-.2-.2,0-.2.2-.2h1.3v-.7h0Z"/>
    <path class="st2" d="M50.4,57.3h-.3v-.3l.3-.3h.3v.3l-.3.3ZM50.5,56.6s-.3,0-.3-.3v-2.6s0-.3.2-.3h.9s.3,0,.3.2v2.6s0,.3-.3.3h-.9,0ZM51.3,53.9h-.6v.5h.6v-.5ZM50.7,55.3h.6v-.5h-.6v.5ZM51.3,56.2v-.6h-.6v.6h.6ZM51.6,56.8l.2.2v.3h-.3l-.2-.2v-.3h.3ZM52.3,54.4s-.2.2-.3,0c0,0-.2-.2,0-.3l.5-1.1s.2-.2.3,0c0,0,.2.2,0,.3v.3h1.1s.2,0,.2.2,0,.2-.2.2h-1.4s-.2.4-.2.4ZM53.9,57.1s.2,0,.2.2,0,.2-.2.2h0c-.2,0-.3,0-.4-.2l-.6-.9-.6,1h-.3v-.3l.7-1.2-.4-.7v-.3h.3l.3.5.5-.9h.3v.3l-.6,1.1.7,1.1h0Z"/>
    <path class="st2" d="M56.5,56.1c0,.5.4.8.9.8s.6-.3.9-1c0,0,.2-.2.3,0,0,0,.2.2,0,.3-.2.6-.6,1.3-1.2,1.3s-1.3-.5-1.3-1.3v-2.5c0-.8,0-.2.2-.2s.2,0,.2.2v2.5h0,0Z"/>
    <path class="st2" d="M62.5,54.4h-.9l-.6,2.7s0,.2-.2.2-.2,0-.2-.2l.5-2.6h-.4s-.2,0-.2-.2,0-.2.2-.2h.5v-.5s.2-.2.3-.2.2,0,.2.2v.5h.7s.2,0,.2.2,0,.2-.2.2h.1ZM63.7,56.8s.2,0,.2.2,0,.2-.2.2h-.6c-.5,0-.8-.3-.8-.7v-.2s0-.2.2-.2.2,0,0,.2h0c0,.3.2.3.4.4h.8ZM63.3,55.3h-.6s-.2,0-.2-.2,0-.2.2-.2h.9s.2,0,.2.2v.6h-.4v-.3h-.1Z"/>
    <path class="st2" d="M68.4,55.9c0-.3-.2-.5-.5-.5s-1,0-1.8.2c0,0-.2,0-.2-.2,0,0,0-.2.2-.2.8,0,1.5,0,1.8-.2.5,0,.9.3.9.8s-.4,1-1.3,1.3h-.2v-.2c.9-.3,1.1-.6,1.1-1h0Z"/>
    <path class="st2" d="M70.9,54.4s-.2,0-.2-.2,0-.2.2-.2h3s0,.2-.2.2h-.5c-.6.6-1.1,1.3-1.1,1.9s.3.5.8.6c0,0,.2,0,.2.2s0,.2-.2.2c-.7,0-1.2-.4-1.2-1s.4-1.2.9-1.9h-1.8v.2Z"/>
    <path class="st2" d="M76,55.5s-.2,0-.2-.2,0-.2.2-.2h.9l1.2-1.6h.3v.3l-1,1.3h1.2s.2,0,.2.2,0,.2-.2.2h-.5c-.4.4-.9.9-.9,1.3s.5.4.8.4.2,0,.2.2,0,.2-.2.2c-.6,0-1.3-.2-1.2-.8,0-.5.3-.8.7-1.2h-1.5ZM76.4,53.7s0-.2.2-.2.2,0,.2.2v.5s0,.2-.2.2-.2,0-.2-.2v-.5Z"/>
    <path class="st2" d="M84.2,56.7h.2v.3h-.7c-.2,0-.3-.2-.3-.3v-2.4l-1.5,1.1v1.8s0,.2-.2.2-.2,0-.2-.2v-1.5l-.5.3h-.3v-.3l.7-.5v-.5h-.4s-.2,0-.2-.2,0-.2.2-.2h.4v-.8s0-.2.2-.2.2,0,.2.2v1.4l1.3-1h.3c.1,0,.2,0,.2.3v2.6h.7,0Z"/>
    <path class="st2" d="M85.9,56.9v-3s0-.2.2-.2.2,0,.2.2v2.7h.4v.3h-.2s-.2,0-.3.2c0,0-.2,0-.2-.2h0ZM89.2,56s.2,0,.2.2,0,.2-.2.2h-.5v.5c0,.5-.2.6-.6.6s-.8-.4-.8-.9.2-.6.7-.6h.3v-1.4h-.8s-.2,0-.2-.2,0-.2.2-.2h.8v-.5s0-.2.2-.2.2,0,.2.2v.5h.4s.2,0,.2.2,0,.2-.2.2h-.4v1.4h.6,0ZM88.3,56.3h-.3c-.2,0-.3,0-.3.2,0,.3.3.5.4.5s.2,0,.2-.3c0,0,0-.4,0-.4Z"/>
    <path class="st2" d="M91.4,56.3s0-.2.2-.2.2,0,.2.2c0,.4.2.8.8.8s.2,0,.2.2,0,.2-.2.2c-.9,0-1.2-.6-1.2-1.3h0ZM92.7,54.3h-1.1s-.2,0-.2-.2,0-.2.2-.2h1v-.5c-.2,0,0-.2,0-.2h.2v.6h.8s.2,0,.2.2,0,.2-.2.2h-.5l.2.7h.4s.2,0,.2.2,0,.2-.2.2h-.3l.2.7s0,.2-.2.2h-.4s-.2,0-.2-.2,0-.2.2-.2h.2v-.5h-1.5s-.2,0-.2-.2,0-.2.2-.2h1.2l-.2-.7h0Z"/>
    <path class="st2" d="M98.8,55.9c0-.3-.2-.5-.5-.5s-1,0-1.8.2c0,0-.2,0-.2-.2,0,0,0-.2.2-.2.8,0,1.5,0,1.8-.2.5,0,.9.3.9.8s-.4,1-1.3,1.3h-.2v-.2c.9-.3,1.1-.6,1.1-1h0Z"/>
    <path class="st2" d="M102.3,55.2l-.5-1.5v-.3h.3l.5,1.3s.7-.6,1-.8h.3v.3c-1.4,1.2-1.8,1.4-1.8,1.9s.3.6.8.6h1s.2,0,.2.2,0,.2-.2.2h-1c-.8,0-1.1-.4-1.1-.9s.2-.7.6-1.1h-.2,0Z"/>
    <path class="st2" d="M108.8,57.5s-.2,0-.2-.2,0-.2.2-.2h.2v-2.9h-1.1c0,.3,0,.4-.2.8l-1.1,2.3s-.2.2-.3,0-.2-.2,0-.3c.3-.6,1.1-2.3,1.1-2.3v-.6h-1s-.2,0-.2-.2,0-.2.2-.2h1v-.5s0-.2.2-.2.2,0,.2.2v.5h1.3s.3,0,.3.3v3.2s0,.3-.3.3h-.3,0Z"/>
    <path class="st2" d="M111.5,57.1v-3.4s0-.2.2-.2.2,0,.2.2v3h0c0-.2.2-.2.3-.2v.3l-.3.3h-.3c-.1,0-.2,0-.2-.2h0v.2ZM114.4,57.1h-.6c-.6,0-1-.2-1-.8s0,0,0-.2c0,0,0-.2.3-.2s.2,0,0,.3h0c0,.3.2.4.6.4h.6s.2,0,.2.2,0,.2-.2.2h0ZM113.1,54h1.2s.2,0,.2.2-.3.5-.3.5h-.3v-.3h-.9s-.2,0-.2-.2,0-.2.2-.2h.1Z"/>
    <path class="st2" d="M116.4,55.8l.2-1.4h-.3s-.2,0-.2-.2,0-.2.2-.2h.4v-.5s.2-.2.3-.2.2,0,.2.2v.4h.5s.2,0,.2.2,0,.2-.2.2h-.6l-.2,1.5s0,.2-.2.2-.2,0-.2-.2h-.1ZM118.9,56h.6s.2,0,.2.2,0,.2-.2.2h-.6v.4c0,.5-.2.7-.6.7s-.8-.4-.8-.9.3-.6.6-.6h.4v-.9s0-.2.2-.2.2,0,.2.2c0,0,0,.9,0,.9ZM118.5,56.3h-.3c-.2,0-.3,0-.3.2s.2.5.4.5.2,0,.2-.7ZM118.6,54.1h.8s.2,0,.2.2,0,.2-.2.2h-.8s-.2,0-.2-.2,0-.2.2-.2Z"/>
    <path class="st2" d="M124.1,55.9c0-.3-.2-.5-.5-.5s-1,0-1.8.2c0,0-.2,0-.2-.2,0,0,0-.2.2-.2.8,0,1.5,0,1.8-.2.5,0,.9.3.9.8s-.4,1-1.3,1.3h-.2v-.2c.9-.3,1.1-.6,1.1-1h0Z"/>
    <path class="st2" d="M126.7,54.4s-.2,0-.2-.2,0-.2.2-.2h3s0,.2-.2.2h-.5c-.6.6-1.1,1.3-1.1,1.9s.3.5.8.6c.1,0,.2,0,.2.2s0,.2-.2.2c-.7,0-1.2-.4-1.2-1s.4-1.2.9-1.9h-1.8,0v.2Z"/>
    <path class="st2" d="M134.4,56c0,1-.5,1.3-1.3,1.4-.4,0-.9-.3-.8-.7,0-.2.2-.4.5-.4s.6.2.6.5,0,0,0,.2c.4,0,.7-.3.7-1s-.7-.4-1.6-.3l-.2.2h-.3c-.1,0,0-.2,0-.3l1.4-1.8h-.9c-.1,0-.2,0-.2-.2s0-.2.2-.2h1.2c.2,0,.3,0,.2.3l-1.2,1.4c1-.2,1.7-.2,1.7.8h0ZM133,56.8h-.4s.1.2.3.2v-.2h0Z"/>
    <path class="st2" d="M137.4,56.8c0,.3-.3.6-.6.6s-.6-.2-.6-.6.3-.6.6-.6.6.3.6.6ZM137.2,56.8c0-.2-.1-.3-.3-.3s-.3,0-.3.3.1.3.3.3.3,0,.3-.3Z"/>
    <path class="st2" d="M45.7,63h-.4s-.2,0-.2-.2,0-.2.2-.2h.4s.2,0,.2.2,0,.2-.2.2ZM45.4,63.7h.4s.2,0,.2.2,0,.2-.2.2h-.4s-.2,0-.2-.2,0-.2.2-.2ZM46,65.2l-.4.9h-.3v-.3l.4-.9h.3v.3ZM48.6,64.3s.3,0,.3.3v1.4h.2s.2,0,.2.2,0,.2-.2.2h-2.9s-.2,0-.2-.2,0-.2.2-.2h.3v-1.3s0-.3.3-.3h1.9,0ZM46.8,63.9s-.3,0-.3-.3v-1.3s0-.3.3-.3h1.6s.3,0,.3.2v1.3s0,.3-.3.3h-1.6ZM47.2,65.9v-1.2h-.3v1.2h.3ZM48.3,62.5h-1.3v.3h1.3v-.3ZM48.3,63.5v-.3h-1.3v.3h1.3ZM47.8,64.7h-.3v1.2h.3v-1.2ZM48.5,64.7h-.3v1.2h.3v-1.2Z"/>
    <path class="st2" d="M52.5,62v.3h1.2s.2,0,.2.2,0,.2-.2.2h-2.7v1.4h0l-.5,1.4s0,.2-.3,0c0,0-.2,0,0-.3,0-.4.5-1.3.5-1.3v-1.4s0-.3.3-.3h1.3v-.3s0-.2.2-.2.2,0,.2.2h-.2ZM52,63v.2h.6v-.2s0-.2.2-.2.2,0,.2.2v.2h.4s.2,0,.2.2,0,.2-.2.2h-.4v.4q0,.2-.3.2h-.9s-.2,0-.2-.3v-.3h-.4s-.2,0-.2-.2,0-.2.2-.2h.4v-.2s0-.2.2-.2.2,0,.2.2ZM52.3,65.9l-.8.6h-.3v-.3l.7-.5-.3-.2v-.3h.3l.3.2.4-.4h-1.2s-.2,0-.2-.2,0-.2.2-.2h1.4s.3,0,.3.3v.3c0,.2,0,.3-.2.4l-.4.3.7.5h.2s.2,0,.2.2,0,.2-.2.2-.4,0-.5-.2l-.6-.5h0v-.2ZM52,63.6v.2h.6v-.2h-.6Z"/>
    <path class="st2" d="M55.3,66c.4-1,.7-1.5.9-2.3h-.6s-.2,0-.2-.2,0-.2.2-.2h.7v-.7c0-.3,0-.2.2-.2s.2,0,.2.2v.6h.6c.5,0,.7.2.7.8v2s0,.2-.3.2h-.3s-.2-.2-.2-.3,0-.2.2-.2h.2v-1.8c0-.6,0-.4-.3-.5h-.6c-.2.8-.5,1.3-.9,2.5h-.3c0,0,0-.2,0-.3v.3h-.2ZM58.4,62.7c.2.2.4.5.6.7v.3h-.3c-.2-.2-.4-.5-.6-.7v-.3h.3ZM58.6,62.2s0-.2.2-.2.2,0,.2.2v.2s0,.2-.2.2-.2,0-.2-.2v-.2ZM59.1,62.2s0-.2.2-.2.2,0,.2.2v.2s0,.2-.2.2-.2,0-.2-.2v-.2Z"/>
    <path class="st2" d="M63.7,62.7h-3s-.2,0-.2-.2,0-.2.2-.2h1.3v-.3s0-.2.2-.2.2,0,.2.2v.3h1.3s.2,0,.2.2,0,.2-.2.2ZM63.8,66.2s0,.3-.2.3h-.3s-.2,0-.2-.2,0-.2.2-.2h0v-1.4h-2.2v1.7s0,.2-.2.2-.2,0-.2-.2v-1.8s0-.3.3-.3h2.5s.3,0,.3.3v1.7h0ZM61.7,64s-.3,0-.3-.3v-.6s0-.3.3-.3h1.1s.3,0,.3.3v.6s0,.3-.2.3c0,0-1.2,0-1.2,0ZM61.5,65.2s0-.3.3-.3h.9s.3,0,.3.3v.6s0,.3-.3.3h-.9s-.3,0-.3-.3v-.6ZM62.7,63.3h-.8v.4h.8v-.3h0ZM62.5,65.3h-.6v.3h.6v-.3Z"/>
    <path class="st2" d="M66.3,64.4v-.4l1.4-1.6h.3c0,0,0,.2,0,.3l-1.3,1.5,1.4,1.7v.3h-.3l-1.4-1.8h0Z"/>
    <path class="st2" d="M70.8,64.7l.2-1.4h-.3s-.2,0-.2-.2,0-.2.2-.2h.4v-.5s.2-.2.3-.2.2,0,.2.2v.4h.5s.2,0,.2.2,0,.2-.2.2h-.6l-.2,1.5s0,.2-.2.2-.2,0-.2-.2h-.1ZM73.3,64.8h.6s.2,0,.2.2,0,.2-.2.2h-.6v.4c0,.5-.2.7-.6.7s-.8-.4-.8-.9.3-.6.6-.6h.4v-.9s0-.2.2-.2.2,0,.2.2c0,0,0,.9,0,.9ZM72.9,65.2h-.3c-.2,0-.3,0-.3.2s.2.5.4.5.2,0,.2-.7ZM73,63h.8s.2,0,.2.2,0,.2-.2.2h-.8s-.2,0-.2-.2,0-.2.2-.2Z"/>
    <path class="st2" d="M76.8,64.5h-.5v-2s0-.2.2-.2.2,0,.2.2v1.6h.2c0-.2.2-.2.3,0v.3l-.3.2h0ZM78.4,62.4v1.8c0,.7-.4,1.3-1.1,2h-.3v-.3c.7-.7,1-1.2,1.1-1.8v-1.7s0-.2.2-.2.2,0,.2.2h0Z"/>
    <path class="st2" d="M82.6,63.2h-1.7s-.2,0-.2-.2,0-.2.2-.2h1.7v-.6c0-.1,0-.2.2-.2s.2,0,.2.2v.6h.9s.2,0,.2.2,0,.2-.2.2h-.9v1.4c0,.5-.2,1.1-.5,1.7h-.3v-.3c.2-.3.3-.6.4-.9h-.2c-.4,0-.8-.3-.8-.9s.2-.6.6-.7h.3v-.5.2h.1ZM82.6,64.2h-.3c-.2,0-.3.2-.3.4s.2.4.3.4c.2,0,.3-.2.2-.7h.1Z"/>
    <path class="st2" d="M86.3,65.1s0-.2.2-.2.2,0,.2.2c0,.4.2.8.8.8s.2,0,.2.2,0,.2-.2.2c-.9,0-1.2-.6-1.2-1.3h0ZM87.6,63.1h-1.1s-.2,0-.2-.2,0-.2.2-.2h1v-.5c-.2,0,0-.2,0-.2h.2l.2.6h.6s.2,0,.2.2,0,.2-.2.2h-.5l.2.7h.4s.2,0,.2.2,0,.2-.2.2h-.3l.2.7s0,.2-.2.2h-.4s-.2,0-.2-.2,0-.2.2-.2h.2v-.5h-1.5s-.2,0-.2-.2,0-.2.2-.2h1.2l-.2-.7h0ZM88.8,62.3s0-.2.2-.2.2,0,.2.2v.2s0,.2-.2.2-.2,0-.2-.2v-.2ZM89.3,62.3s0-.2.2-.2.2,0,.2.2v.2s0,.2-.2.2-.2,0-.2-.2v-.2Z"/>
    <path class="st2" d="M91.2,63.2s-.2,0-.2-.2,0-.2.2-.2h3s0,.2-.2.2h-.5c-.6.6-1.1,1.3-1.1,1.9s.3.5.8.6c0,0,.2,0,.2.2s0,.2-.2.2c-.7,0-1.2-.4-1.2-1s.4-1.2.9-1.9h-1.8v.2Z"/>
    <path class="st2" d="M96.5,65.3v-.3s.2-.2.3,0v.5c0,.2.2.4.9.4h.9s.2,0,.2.2,0,.2-.2.2h-.9c-.4,0-1.2,0-1.3-.8h0v-.2ZM98.2,63.4l.2-.3h-1.5s-.2,0-.2-.2,0-.2.2-.2h1.8s.2,0,.2.2v.4l-.2.3h-.3v-.3h-.2Z"/>
    <path class="st2" d="M101.2,62.9s0-.2.2-.2.2,0,.2.2v2.3h.5v.2l-.5.2s-.3,0-.3-.2v-2.6h0ZM104.3,63.4h-.4v.9c0,.7-.2,1.2-.7,2h-.3v-.3c.5-.8.7-1.3.7-1.8v-.8h-1.1s-.2,0-.2-.2,0-.2.2-.2h1v-.6s0-.2.2-.2.2,0,.2.2v.6h.4s.2,0,.2.2,0,.2-.2.2ZM104.2,62.3s0-.2.2-.2.2,0,.2.2v.2s0,.2-.2.2-.2,0-.2-.2v-.2ZM104.8,62.3s0-.2.2-.2.2,0,.2.2v.2s0,.2-.2.2-.2,0-.2-.2v-.2Z"/>
    <path class="st2" d="M108.2,64.5h-1s-.2-.2,0-.3l.2-1.2h-.4s-.2,0-.2-.2,0-.2.2-.2h.5v-.5s.2-.2.3-.2.2,0,.2.2v.5h.8s.2,0,.2.2,0,.2-.2.2h-1l-.2,1.1h.8c.3,0,.8.3.8.9s-.3,1.1-1.5,1.3c0,0-.2,0-.2-.2,0,0,0-.2.2-.2.7,0,1.2-.4,1.2-.9s0-.5-.4-.5h-.3Z"/>
    <path class="st2" d="M112.3,64.1h-.7s0-.2.2-.2h.5v-.6h.2v.4h.7v-.4s0-.2.2-.2.2,0,.2.2v.4c.6,0,.9,0,.9.6s-.4.7-.7.8h-.2v-.2c.4,0,.5-.3.5-.5s0-.3-.4-.3h-1.1l.4,2v.2h-.2l-.4-2h-.2v-.2Z"/>
    <path class="st2" d="M119.1,64.7c0-.3-.2-.5-.5-.5s-1,0-1.8.2c0,0-.2,0-.2-.2,0,0,0-.2.2-.2.8,0,1.5,0,1.8-.2.5,0,.9.3.9.8s-.4,1-1.3,1.3h-.2v-.2c.9-.3,1.1-.6,1.1-1h0Z"/>
    <path class="st2" d="M123.3,63.3h-.9l-.6,2.7s0,.2-.2.2-.2,0-.2-.2l.5-2.6h-.4s-.2,0-.2-.2,0-.2.2-.2h.5v-.5s.2-.2.3-.2.2,0,.2.2v.5h.7s.2,0,.2.2,0,.2-.2.2h0ZM124.5,65.7s.2,0,.2.2,0,.2-.2.2h-.6c-.5,0-.8-.3-.8-.7v-.2s0-.2.2-.2.2,0,0,.2h0c0,.3.2.3.4.4h.8ZM124.1,64.2h-.6s-.2,0-.2-.2,0-.2.2-.2h.9s.2,0,.2.2v.6h-.4v-.3h0Z"/>
    <path class="st2" d="M126.6,62.9s0-.2.2-.2.2,0,.2.2v2.3h.5v.2l-.5.2s-.3,0-.3-.2v-2.6h0ZM129.7,63.4h-.4v.9c0,.7-.2,1.2-.7,2h-.3s-.1-.2,0-.3c.5-.8.6-1.3.7-1.8v-.8h-1.1s-.2,0-.2-.2,0-.2.2-.2h1v-.6s0-.2.2-.2.2,0,.2.2v.6h.4c.1,0,.2,0,.2.2s0,.2-.2.2h0Z"/>
    <path class="st2" d="M132.5,64.1l-.5-1.5s0-.2.1-.3.2,0,.3,0l.5,1.3s.7-.6,1-.8h.3v.3c-1.4,1.2-1.8,1.4-1.8,1.9s.3.6.8.6h1c.1,0,.2,0,.2.2s0,.2-.2.2h-1c-.8,0-1.1-.4-1.1-.9s.2-.7.7-1.1h-.3ZM134.2,62.6s0-.2.2-.2.2,0,.2.2v.2s0,.2-.2.2-.2,0-.2-.2v-.2ZM134.8,62.6s0-.2.2-.2.2,0,.2.2v.2s0,.2-.2.2-.2,0-.2-.2v-.2Z"/>
    <path class="st2" d="M45.9,71.8h.3v.3l-.6.5h-.3v-.3l.6-.5ZM46.3,75l1.5-1.9h.3v.3l-1.5,1.9h-.3v-.3ZM46.7,72.9h.2v-1.9s0-.2.2-.2.2,0,.2.2v2.1s0,.3-.3.3h-.3s-.2,0-.2-.2,0-.2.2-.2h0ZM48.4,72.6l-.5-.5v-.3h.3l.5.5v.3h-.3Z"/>
    <path class="st2" d="M51.4,73.9c0,.5.4.8.9.8s.6-.3.9-1c0,0,.2-.2.3,0,0,0,.2.2,0,.3-.2.6-.6,1.3-1.2,1.3s-1.3-.5-1.3-1.3v-2.5c0-.8,0-.2.2-.2s.2,0,.2.2v2.5h0,0Z"/>
    <path class="st2" d="M58.2,75s0,.3-.3.3h-1.5s-.2,0-.2-.3v-1.2s0-.3.3-.3h.6v-.5h-1.4s-.2,0-.2-.2,0-.2.2-.2h1.4v-.4s0-.2.2-.2.2,0,.2.2v.4h1.4s.2,0,.2.2,0,.2-.2.2h-1.4v.5h.6s.3,0,.3.3v1.2s-.2,0-.2,0ZM56.5,71.1h1.4c0-.2,0-.3.2-.3s.2,0,.2.2h.4s.2,0,.2.2,0,.2-.2.2h-.4c0,.2,0,.3-.2.3s-.2,0-.2-.2h-1.4c0,.2,0,.3-.2.3s-.2,0-.2-.2h-.4s-.2,0-.2-.2,0-.2.2-.2h.4c0-.2,0-.3.2-.3s.2,0,.2.2ZM57.8,74h-1.2v.9h1.2v-.9Z"/>
    <path class="st2" d="M61.2,73.2v-.4l1.4-1.6h.3v.3l-1.3,1.5,1.4,1.7v.3h-.3l-1.4-1.8h-.1Z"/>
    <path class="st2" d="M65.9,72.1s-.2,0-.2-.2,0-.2.2-.2h3s0,.2-.2.2h-.5c-.6.6-1.1,1.3-1.1,1.9s.3.5.8.6c0,0,.2,0,.2.2s0,.2-.2.2c-.7,0-1.2-.4-1.2-1s.4-1.2.9-1.9h-1.8v.2Z"/>
    <path class="st2" d="M70.8,74.3l.5.5v.3h-.3l-.5-.5v-.3h.3Z"/>
    <path class="st2" d="M75.9,74c0-.4.3-.7,1-.8v-1.1h-.4s-.2,0-.2-.2,0-.2.2-.2h.4v-.4s0-.2.2-.2.2,0,.2.2v.4h.6s.2,0,.2.2,0,.2-.2.2h-.6v1h.5c.7,0,1.3.3,1.3.9s-.3.8-.6,1.1h-.3v-.3c.3-.3.5-.6.5-.8s-.2-.5-.9-.6h-.5v.7c0,.6-.2.9-.6.8-.2,0-.8-.5-.8-1h0ZM76.7,74.6s.2,0,.2-.4v-.7c-.4,0-.6.3-.6.4,0,.2.3.6.4.6h0ZM79.2,72s0,.2-.2.2-.2,0-.2-.2v-.4s0-.2.2-.2.2,0,.2.2v.4Z"/>
    <path class="st2" d="M81.4,74.7h-.3c-.2-.7-.2-1.8,0-2.7,0,0,0-.2.2-.2s.2,0,.2.2v2.3h.2c0-.2.2,0,.3,0v.3l-.4.2h-.2ZM83.9,73.7c0-.5-.3-.9-.5-1.2v-.3h.3c.2.4.4.8.5,1.3v.3s-.2,0-.2,0h-.1Z"/>
    <path class="st2" d="M86.9,73.9c0,.5.4.8.9.8s.6-.3.9-1c0,0,.2-.2.3,0,0,0,.2.2,0,.3-.2.6-.6,1.3-1.2,1.3s-1.3-.5-1.3-1.3v-2.5c0-.8,0-.2.2-.2s.2,0,.2.2v2.5h0Z"/>
    <path class="st2" d="M91.6,74.7h-.3c-.2-.7-.2-1.8,0-2.7,0,0,0-.2.2-.2s.2,0,.2.2v2.3h.2c0-.2.2,0,.3,0v.3l-.4.2h-.2ZM94,73.7c0-.5-.3-.9-.5-1.2v-.3h.3c.2.4.4.8.5,1.3v.3s-.2,0-.2,0h-.1Z"/>
    <path class="st2" d="M96.1,74c0-.4.3-.7,1-.8v-1.1h-.4s-.2,0-.2-.2,0-.2.2-.2h.4v-.4s0-.2.2-.2.2,0,.2.2v.4h.6s.2,0,.2.2,0,.2-.2.2h-.6v1h.5c.7,0,1.3.3,1.3.9s-.3.8-.6,1.1h-.3v-.3c.3-.3.5-.6.5-.8s-.2-.5-.9-.6h-.5v.7c0,.6-.2.9-.6.8-.2,0-.8-.5-.8-1h0ZM97,74.6s.2,0,.2-.4v-.7c-.4,0-.6.3-.6.4,0,.2.3.6.4.6h0ZM99.5,72s0,.2-.2.2-.2,0-.2-.2v-.4s0-.2.2-.2.2,0,.2.2v.4Z"/>
    <path class="st2" d="M101.6,74.2v-.3s.2-.2.3,0v.5c0,.2.2.4.9.4h.9s.2,0,.2.2,0,.2-.2.2h-.9c-.4,0-1.2,0-1.3-.8h0v-.2ZM103.3,72.3l.2-.3h-1.5s-.2,0-.2-.2,0-.2.2-.2h1.8s.2,0,.2.2v.4l-.2.3h-.3v-.3h-.2Z"/>
    <path class="st2" d="M106.3,71.8s0-.2.2-.2.2,0,.2.2v2.3h.5v.2l-.5.2s-.3,0-.3-.2v-2.6h0ZM109.4,72.3h-.4v.9c0,.7-.2,1.2-.7,2h-.3v-.3c.5-.8.7-1.3.7-1.8v-.8h-1.1s-.2,0-.2-.2,0-.2.2-.2h1v-.6s0-.2.2-.2.2,0,.2.2v.6h.4s.2,0,.2.2,0,.2-.2.2ZM109.3,71.2s0-.2.2-.2.2,0,.2.2v.2s0,.2-.2.2-.2,0-.2-.2v-.2ZM109.8,71.2s0-.2.2-.2.2,0,.2.2v.2s0,.2-.2.2-.2,0-.2-.2v-.2Z"/>
    <path class="st2" d="M114.4,73.5h.3s.2,0,.2.3,0,.2-.2,0h-.4c0,.3-.3.7-.5,1.1h-.3v-.3c.2-.4.4-.7.5-1-.5,0-.9-.2-1.3-.2-.2.7-.4,1.1-.7,1.1s-.6-.2-.6-.7.3-.8,1-.8c0,0,.2-.8.3-1.6h-.5s-.2,0-.2-.2,0-.2.2-.2h.7s.3,0,.3.2v.2c0,.6-.2,1.2-.3,1.6.4,0,.8,0,1.3.2v-.5s0-.2.2-.2.2,0,.2.2v.5l-.2.2h0ZM112.2,73.6c-.3,0-.5,0-.5.4s0,.3.2.3c0,0,.2-.3.3-.7Z"/>
    <path class="st2" d="M118.3,72.1h-.9l-.6,2.7s0,.2-.2.2-.2,0-.2-.2l.5-2.6h-.4s-.2,0-.2-.2,0-.2.2-.2h.5v-.5s.2-.2.3-.2.2,0,.2.2v.5h.7s.2,0,.2.2,0,.2-.2.2h0ZM119.5,74.6s.2,0,.2.2,0,.2-.2.2h-.6c-.5,0-.8-.3-.8-.7v-.2s0-.2.2-.2.2,0,0,.2h0c0,.3.2.3.4.4h.8ZM119,73h-.6s-.2,0-.2-.2,0-.2.2-.2h.9s.2,0,.2.2v.6h-.4v-.3h0Z"/>
    <path class="st2" d="M122,74.7h-.3c-.2-.7-.2-1.8,0-2.7,0,0,0-.2.2-.2s.2,0,.2.2v2.3h.2c0-.2.2,0,.3,0v.3l-.4.2h-.2ZM124.4,73.7c0-.5-.3-.9-.5-1.2v-.3h.3c.2.4.4.8.5,1.3v.3s-.2,0-.2,0h-.1Z"/>
    <path class="st2" d="M126.7,74.9v-3.4s0-.2.2-.2.2,0,.2.2v3h0c0-.2.2-.2.3-.2v.3l-.3.3h-.3c-.1,0-.2,0-.2-.2h0v.2ZM129.6,74.8h-.6c-.6,0-1-.2-1-.8s0,0,0-.2c0,0,.1-.2.3-.2s.2,0,.1.3h0c0,.3.2.4.6.4h.6c.1,0,.2,0,.2.2s0,.2-.2.2h0ZM128.3,71.7h1.2c.1,0,.2,0,.2.2s-.3.5-.3.5h-.3s-.1-.2,0-.3h-.9c-.1,0-.2,0-.2-.2s0-.2.2-.2h.1Z"/>
    <path class="st2" d="M132.4,74.5c0,.3-.3.6-.6.6s-.6-.2-.6-.6.3-.6.6-.6.6.3.6.6ZM132.1,74.5c0-.2-.1-.3-.3-.3s-.3,0-.3.3.1.3.3.3.3,0,.3-.3Z"/>
    <path class="st2" d="M45.5,91.6c0-.6.4-1,.9-1.1v-.9h-.3s-.2,0-.2-.2,0-.2.2-.2h.3v-.3s0-.2.2-.2.2,0,.2.2v.3h.9s.2,0,.2.2,0,.2-.2.2h-.9v.8h.9s.2-.2.3,0c0,0,.2,0,0,.3h0c.4.2.6.5.6,1s-.4,1-.9,1.4h-.3v-.3c.4-.3.7-.7.7-1.1s0-.5-.4-.6c-.3.8-.9,1.7-1.6,1.7s-.8-.5-.8-1.1h.2ZM46.3,92.2c.4,0,.9-.8,1.2-1.4h-.7v.6s0,.2-.2.2-.2,0-.2-.2v-.6c-.4,0-.5.4-.5.7s.2.7.4.7Z"/>
    <path class="st2" d="M53.3,90.8c0-.7-.5-1.1-1.2-1.1s-1.4.6-1.4,1.2.2.8.4.8c.3,0,.6-.7.7-1.4,0,0,0-.2.2-.2s.2,0,.2.2c0,.8-.5,1.8-1.1,1.8s-.7-.4-.7-1.2.8-1.6,1.7-1.6,1.6.5,1.6,1.5-.3,1.2-1,1.8h-.3v-.3c.6-.6.9-1.1.9-1.5Z"/>
    <path class="st2" d="M58.4,88.9s.3,0,.3.3v3.3s0,.3-.3.3h-2.5s-.3-.2-.3-.3v-3.3s0-.3.3-.3h2.5ZM58.2,89.3h-2.1v1.2h2.1v-1.2ZM58.2,92.4v-1.5h-2.1v1.5h2.1Z"/>
    <path class="st2" d="M60.6,92l.5.5v.3h-.3l-.5-.5v-.3h.3Z"/>
    <path class="st2" d="M66.2,90.4s-.2,0-.2-.2,0-.2.2-.2c.4,0,1.3-.3,1.6-.3.5,0,.8.3.8.9,0,1.2-.5,1.8-1.3,2.4h-.3v-.3c.9-.6,1.2-1.2,1.2-2.1s-.2-.5-.5-.5-1,.2-1.4.3h0ZM67.5,89.3s0,.2-.2.2-.2,0-.2-.2v-.5s0-.2.2-.2.2,0,.2.2v.5Z"/>
    <path class="st2" d="M72.7,88.9v.5h.5s.2,0,.2.2,0,.2-.2.2h-.5v.5h.5s.2,0,.2.2,0,.2-.2.2h-.5v.7h.6s.2,0,.2.2,0,.2-.2.2h-.6v.4c0,.4-.2.7-.6.7s-.8-.4-.8-.9.2-.6.7-.6h.3v-.7h-.9s-.2,0-.2-.2,0-.2.2-.2h.9v-.5h-.9s-.2,0-.2-.2,0-.2.2-.2h.9v-.5s0-.2.2-.2.2,0,.2.2ZM72.3,91.8h-.3c-.2,0-.3,0-.3.2,0,.3.2.5.4.5s.2,0,.2-.3c0,0,0-.4,0-.4Z"/>
    <path class="st2" d="M76.4,91v-.4l1.4-1.6h.3c0,0,0,.2,0,.3l-1.3,1.5,1.4,1.7v.3h-.3l-1.4-1.8h0Z"/>
    <path class="st2" d="M80.9,89.9s-.2,0-.2-.2,0-.2.2-.2h3s0,.2-.2.2h-.5c-.6.6-1.1,1.3-1.1,1.9s.3.5.8.6c0,0,.2,0,.2.2s0,.2-.2.2c-.7,0-1.2-.4-1.2-1s.4-1.2.9-1.9h-1.8v.2ZM83.4,90.3s0-.2.2-.2.2,0,.2.2v.2s0,.2-.2.2-.2,0-.2-.2v-.2ZM84,90.3s0-.2.2-.2.2,0,.2.2v.2s0,.2-.2.2-.2,0-.2-.2v-.2Z"/>
    <path class="st2" d="M86.3,91.8s0-.2.2-.2.2,0,.2.2c0,.4.2.8.8.8s.2,0,.2.2,0,.2-.2.2c-.9,0-1.2-.6-1.2-1.3h0ZM87.6,89.8h-1.1s-.2,0-.2-.2,0-.2.2-.2h1v-.5c-.2,0,0-.2,0-.2h.2v.6h.8s.2,0,.2.2,0,.2-.2.2h-.5l.2.7h.4s.2,0,.2.2,0,.2-.2.2h-.3l.2.7s0,.2-.2.2h-.4s-.2,0-.2-.2,0-.2.2-.2h.2v-.5h-1.5s-.2,0-.2-.2,0-.2.2-.2h1.2l-.2-.7h0Z"/>
    <path class="st2" d="M91,91.3l.2-1.4h-.3s-.2,0-.2-.2,0-.2.2-.2h.4v-.5s.2-.2.3-.2.2,0,.2.2v.4h.5s.2,0,.2.2,0,.2-.2.2h-.6l-.2,1.5s0,.2-.2.2-.2,0-.2-.2h-.1ZM93.6,91.5h.6s.2,0,.2.2,0,.2-.2.2h-.6v.4c0,.5-.2.7-.6.7s-.8-.4-.8-.9.3-.6.6-.6h.4v-.9s0-.2.2-.2.2,0,.2.2c0,0,0,.9,0,.9ZM93.2,91.8h-.3c-.2,0-.3,0-.3.2s.2.5.4.5.2,0,.2-.7ZM93.3,89.6h.8s.2,0,.2.2,0,.2-.2.2h-.8s-.2,0-.2-.2,0-.2.2-.2Z"/>
    <path class="st2" d="M96,92.5c.4-1,.7-1.5.9-2.3h-.6s-.2,0-.2-.2,0-.2.2-.2h.7v-.7c0-.3,0-.2.2-.2s.2,0,.2.2v.6h.6c.5,0,.7.2.7.8v2s0,.2-.3.2h-.3s-.2-.2-.2-.3,0-.2.2-.2h.2v-1.8c0-.6,0-.4-.3-.5h-.6c-.2.8-.5,1.3-.9,2.5h-.3c-.1,0,0-.2,0-.3v.3h-.2ZM99.1,89.2c.2.2.4.5.6.7v.3h-.3c-.2-.2-.4-.5-.6-.7v-.3h.3Z"/>
    <path class="st2" d="M103.8,91.4c0-.3-.2-.5-.5-.5s-1,0-1.8.2c0,0-.2,0-.2-.2,0,0,0-.2.2-.2.8,0,1.5,0,1.8-.2.5,0,.9.3.9.8s-.4,1-1.3,1.3h-.2v-.2c.9-.3,1.1-.6,1.1-1h0Z"/>
    <path class="st2" d="M108.1,89.9h-.9l-.6,2.7s0,.2-.2.2-.2,0-.2-.2l.5-2.6h-.4s-.2,0-.2-.2,0-.2.2-.2h.5v-.5s.2-.2.3-.2.2,0,.2.2v.5h.7s.2,0,.2.2,0,.2-.2.2h0ZM109.3,92.3s.2,0,.2.2,0,.2-.2.2h-.6c-.5,0-.8-.3-.8-.7v-.2s0-.2.2-.2.2,0,0,.2h0c0,.3.2.3.4.4h.8ZM108.9,90.8h-.6s-.2,0-.2-.2,0-.2.2-.2h.9s.2,0,.2.2v.6h-.4v-.3h0Z"/>
    <path class="st2" d="M111.7,91.9v-.3s.2-.2.3,0v.5c0,.2.2.4.9.4h.9s.2,0,.2.2,0,.2-.2.2h-.9c-.4,0-1.2,0-1.3-.8h0v-.2ZM113.4,90l.2-.3h-1.5s-.2,0-.2-.2,0-.2.2-.2h1.8s.2,0,.2.2v.4l-.2.3h-.3v-.3h-.2Z"/>
    <path class="st2" d="M117.5,90.6l-.5-1.5v-.3h.3l.5,1.3s.7-.6,1-.8h.3v.3c-1.4,1.2-1.8,1.4-1.8,1.9s.3.6.8.6h1s.2,0,.2.2,0,.2-.2.2h-1c-.8,0-1.1-.4-1.1-.9s.2-.7.6-1.1h-.2,0Z"/>
    <path class="st2" d="M122.2,92.3c0,.3-.3.6-.6.6s-.6-.2-.6-.6.3-.6.6-.6.6.3.6.6ZM122,92.3c0-.2,0-.3-.3-.3s-.3,0-.3.3,0,.3.3.3.3,0,.3-.3Z"/>
    <path class="st2" d="M49,99.9c0,.8-.4,1.2-1.3,1.5h-.3v-.2c.8-.3,1.1-.6,1.1-1.1s0-1-.8-1-.9.5-1.3.8v1.8s0,.2-.2.2-.2,0-.2-.2v-1.4c-.2.2-.4.3-.6.5h-.3v-.3l.8-.6v-.5h-.4s-.2,0-.2-.2,0-.2.2-.2h.4v-.8s0-.2.2-.2.2,0,.2.2v1.3c.8-.6,1-.7,1.3-.7.9,0,1.2.7,1.2,1.4v-.2h.2Z"/>
    <path class="st2" d="M52.7,98.7h.7s.2,0,.2.2,0,.2-.2.2h-.6l.3,1s0,.2-.2.2h-.5s-.2,0-.2-.2,0-.2.2-.2h.2l-.2-.9h-1.6s-.2,0-.2-.2,0-.2.2-.2h1.5l-.2-.8v-.2h.2l.2.9h0l.2.2ZM51,100.5c0,.3,0,.5.2.6,0,0,.3.2.6.2s.2,0,.2.2,0,.2-.2.2c-.4,0-.7-.2-.9-.4-.2-.2-.3-.5-.3-.9s0-.2.2-.2.2,0,.2.2h0ZM53.3,98s0-.2.2-.2.2,0,.2.2v.2s0,.2-.2.2-.2,0-.2-.2v-.2ZM53.8,98s0-.2.2-.2.2,0,.2.2v.2s0,.2-.2.2-.2,0-.2-.2v-.2Z"/>
    <path class="st2" d="M56.7,99.5l-.5-1.5v-.3h.3l.5,1.3s.7-.6,1-.8h.3v.3c-1.4,1.2-1.8,1.4-1.8,1.9s.3.6.8.6h1s.2,0,.2.2,0,.2-.2.2h-1c-.8,0-1.1-.4-1.1-.9s.2-.7.6-1.1h-.2.1Z"/>
    <path class="st2" d="M64.2,99.9c0,.8-.4,1.2-1.3,1.5h-.3v-.2c.8-.3,1.1-.6,1.1-1.1s0-1-.8-1-.9.5-1.3.8v1.8s0,.2-.2.2-.2,0-.2-.2v-1.4c-.2.2-.4.3-.6.5h-.3v-.3l.8-.6v-.5h-.4s-.2,0-.2-.2,0-.2.2-.2h.4v-.8s0-.2.2-.2.2,0,.2.2v1.3c.8-.6,1-.7,1.3-.7.9,0,1.2.7,1.2,1.4v-.2h.2Z"/>
    <path class="st2" d="M67.4,98.7h-1.7s-.2,0-.2-.2,0-.2.2-.2h1.7v-.6c0-.1,0-.2.2-.2s.2,0,.2.2v.6h.9s.2,0,.2.2,0,.2-.2.2h-.9v1.4c0,.5-.2,1.1-.5,1.7h-.3v-.3c.2-.3.3-.6.4-.9h-.2c-.4,0-.8-.3-.8-.9s.2-.6.6-.7h.3v-.5.2h.1ZM67.4,99.7h-.3c-.2,0-.3.2-.3.4s.2.4.3.4c.2,0,.3-.2.2-.7h.1Z"/>
    <path class="st2" d="M74.1,101h.2v.3h-.7c-.2,0-.3-.2-.3-.3v-2.4l-1.5,1.1v1.8s0,.2-.2.2-.2,0-.2-.2v-1.5l-.5.3h-.3v-.3l.7-.5v-.5h-.4s-.2,0-.2-.2,0-.2.2-.2h.4v-.8s0-.2.2-.2.2,0,.2.2v1.4l1.3-1h.3c.1,0,.2,0,.2.3v2.6h.7,0Z"/>
    <path class="st2" d="M78.6,100.3s.2,0,.2.2,0,.2-.2.2h-.9v.4c0,.4-.2.7-.6.7s-.8-.5-.8-.9.3-.6.8-.6h.2v-2.3c0-.4,0-.2.2-.2s.2,0,.2.2v.7h.8s.2,0,.2.2,0,.2-.2.2h-.8v1.3h.9ZM77.3,101v-.4h-.2c-.3,0-.4,0-.4.3s.2.5.5.5.2,0,.2-.3h0Z"/>
    <path class="st2" d="M81.4,99.3s-.2,0-.2-.2,0-.2.2-.2c.4,0,1.3-.3,1.6-.3.5,0,.8.3.8.9,0,1.2-.5,1.8-1.3,2.4h-.3v-.3c.9-.6,1.2-1.2,1.2-2.1s-.2-.5-.5-.5-1,.2-1.4.3h0ZM82.7,98.2s0,.2-.2.2-.2,0-.2-.2v-.5s0-.2.2-.2.2,0,.2.2v.5Z"/>
    <path class="st2" d="M87.1,99.5l-.5-1.5v-.3h.3l.5,1.3s.7-.6,1-.8h.3v.3c-1.4,1.2-1.8,1.4-1.8,1.9s.3.6.8.6h1s.2,0,.2.2,0,.2-.2.2h-1c-.8,0-1.1-.4-1.1-.9s.2-.7.6-1.1h-.2,0Z"/>
    <path class="st2" d="M91,100.9l.5.5v.3h-.3l-.5-.5v-.3h.3Z"/>
    <path class="st2" d="M97.1,100.5c0,.5.4.8.9.8s.6-.3.9-1c0,0,.2-.2.3,0,0,0,.2.2,0,.3-.2.6-.6,1.3-1.2,1.3s-1.3-.5-1.3-1.3v-2.5c0-.8,0-.2.2-.2s.2,0,.2.2v2.5h0Z"/>
    <path class="st2" d="M101.3,98.7s-.2,0-.2-.2,0-.2.2-.2h3s0,.2-.2.2h-.5c-.6.6-1.1,1.3-1.1,1.9s.3.5.8.6c0,0,.2,0,.2.2s0,.2-.2.2c-.7,0-1.2-.4-1.2-1s.4-1.2.9-1.9h-1.8v.2Z"/>
    <path class="st2" d="M108.1,98.8h-.9l-.6,2.7s0,.2-.2.2-.2,0-.2-.2l.5-2.6h-.4s-.2,0-.2-.2,0-.2.2-.2h.5v-.5s.2-.2.3-.2.2,0,.2.2v.5h.7s.2,0,.2.2,0,.2-.2.2h0ZM109.3,101.2s.2,0,.2.2,0,.2-.2.2h-.6c-.5,0-.8-.3-.8-.7v-.2s0-.2.2-.2.2,0,0,.2h0c0,.3.2.3.4.4h.8ZM108.9,99.7h-.6s-.2,0-.2-.2,0-.2.2-.2h.9s.2,0,.2.2v.6h-.4v-.3h0Z"/>
    <path class="st2" d="M111.7,100.8v-.3s.2-.2.3,0v.5c0,.2.2.4.9.4h.9s.2,0,.2.2,0,.2-.2.2h-.9c-.4,0-1.2,0-1.3-.8h0v-.2ZM113.4,98.9l.2-.3h-1.5s-.2,0-.2-.2,0-.2.2-.2h1.8s.2,0,.2.2v.4l-.2.3h-.3v-.3h-.2Z"/>
    <path class="st2" d="M117.5,99.5l-.5-1.5v-.3h.3l.5,1.3s.7-.6,1-.8h.3v.3c-1.4,1.2-1.8,1.4-1.8,1.9s.3.6.8.6h1s.2,0,.2.2,0,.2-.2.2h-1c-.8,0-1.1-.4-1.1-.9s.2-.7.6-1.1h-.2,0Z"/>
    <path class="st2" d="M122.2,101.2c0,.3-.3.6-.6.6s-.6-.2-.6-.6.3-.6.6-.6.6.3.6.6ZM122,101.2c0-.2,0-.3-.3-.3s-.3,0-.3.3,0,.3.3.3.3,0,.3-.3Z"/>
    <path class="st2" d="M45.6,108.7s-.2,0-.2-.2,0-.2.2-.2h.9l1.2-1.6h.3v.3l-1,1.3h1.2s.2,0,.2.2,0,.2-.2.2h-.5c-.4.4-.9.9-.9,1.3s.5.4.8.4.2,0,.2.2,0,.2-.2.2c-.6,0-1.3-.2-1.2-.8,0-.5.3-.8.7-1.2h-1.5ZM46,106.9s0-.2.2-.2.2,0,.2.2v.5s0,.2-.2.2-.2,0-.2-.2v-.5Z"/>
    <path class="st2" d="M53.8,109.9h.2v.3h-.7c-.2,0-.3-.2-.3-.3v-2.4l-1.5,1.1v1.8s0,.2-.2.2-.2,0-.2-.2v-1.5l-.5.3h-.3v-.3l.7-.5v-.5h-.4s-.2,0-.2-.2,0-.2.2-.2h.4v-.8s0-.2.2-.2.2,0,.2.2v1.4l1.3-1h.3c0,0,.2,0,.2.3v2.6h.7-.1Z"/>
    <path class="st2" d="M56.5,108.7h-.3s-.2,0-.2-.2,0-.2.2-.2h.3v-.6h-.4s-.2,0-.2-.2,0-.2.2-.2h.4v-.8s0-.2.2-.2.2,0,.2.2v.7h.6s.2,0,.2.2,0,.2-.2.2h-.6v.6h.7s.2,0,.2.2,0,.2-.2.2h-.8v.8c-.2.5.2.8.6.7.3,0,.5-.4.4-.9v-.3s.2,0,.3.2v.4c0,.7-.3,1-.8,1s-1.2-.3-1.1-1.1v-.9.2h.3Z"/>
    <path class="st2" d="M60.7,107.3h1.4v-.9s0-.2.2-.2.2,0,.2.2v.9h1.4c.1,0,.2,0,.2.2s0,.2-.2.2h-1.4v.7l1.5,1.9h0s.2,0,.2.2,0,.2-.2.2h0c-.2,0-.3,0-.4-.2l-1.4-1.8-1.4,1.9h-.3c0,0,0-.2,0-.3l1.5-2v-.8h-1.4s-.2,0-.2-.2,0-.2.2-.2v.2h.1Z"/>
    <path class="st2" d="M65.5,109.2h1.6v-.2h-1s-.2,0-.2-.2,0-.2.2-.2h1v-.2h-.7s-.3,0-.3-.3v-.5s0-.3.3-.3h.7v-.2h-1.1s-.2,0-.2-.2,0-.2.2-.2h1.1v-.2s0-.2.2-.2.2,0,.2.2v.2h1.2s.2,0,.2.2,0,.2-.2.2h-1.2v.2h.7s.3,0,.3.3v.5s0,.3-.2.3h-.7v.2h1s.3,0,.3.3v.4h.5s.2,0,.2.2,0,.2-.2.2h-.5v.4s0,.3-.3.3h-1v.4s0,.2-.3.2h-.3s-.2,0-.2-.2,0-.2.2-.2h0v-.3h-1.1s-.2,0-.2-.2,0-.2.2-.2h1.1v-.3h-1.6s-.2,0-.2-.2,0-.2.2-.2h.1ZM67.1,107.9v-.3h-.6v.2h.6ZM67.5,107.6v.3h.6v-.2h-.6ZM67.5,109.2h.8v-.2h-.8v.2ZM68.3,109.6h-.8v.3h.8v-.3Z"/>
    <path class="st2" d="M70.8,109.1l.2-1.4h-.3s-.2,0-.2-.2,0-.2.2-.2h.4v-.5s.2-.2.3-.2.2,0,.2.2v.4h.5s.2,0,.2.2,0,.2-.2.2h-.6l-.2,1.5s0,.2-.2.2-.2,0-.2-.2h-.1ZM73.3,109.2h.6s.2,0,.2.2,0,.2-.2.2h-.6v.4c0,.5-.2.7-.6.7s-.8-.4-.8-.9.3-.6.6-.6h.4v-.9s0-.2.2-.2.2,0,.2.2c0,0,0,.9,0,.9ZM72.9,109.6h-.3c-.2,0-.3,0-.3.2s.2.5.4.5.2,0,.2-.7ZM73,107.3h.8s.2,0,.2.2,0,.2-.2.2h-.8s-.2,0-.2-.2,0-.2.2-.2Z"/>
    <path class="st2" d="M75.8,109.8l.5.5v.3h-.3l-.5-.5v-.3h.3Z"/>
    <path class="st2" d="M84.4,108.8c0,.8-.4,1.2-1.3,1.5h-.3v-.2c.8-.3,1.1-.6,1.1-1.1s0-1-.8-1-.9.5-1.3.8v1.8s0,.2-.2.2-.2,0-.2-.2v-1.4c-.2.2-.4.3-.6.5h-.3v-.3l.8-.6v-.5h-.4s-.2,0-.2-.2,0-.2.2-.2h.4v-.8s0-.2.2-.2.2,0,.2.2v1.3c.8-.6,1-.7,1.3-.7.9,0,1.2.7,1.2,1.4v-.2h.2Z"/>
    <path class="st2" d="M87.8,107.6h-.9l-.6,2.7s0,.2-.2.2-.2,0-.2-.2l.5-2.6h-.4s-.2,0-.2-.2,0-.2.2-.2h.5v-.5s.2-.2.3-.2.2,0,.2.2v.5h.7s.2,0,.2.2,0,.2-.2.2h0ZM89,110.1s.2,0,.2.2,0,.2-.2.2h-.6c-.5,0-.8-.3-.8-.7v-.2s0-.2.2-.2.2,0,0,.2h0c0,.3.2.3.4.4h.8ZM88.6,108.5h-.6s-.2,0-.2-.2,0-.2.2-.2h.9s.2,0,.2.2v.6h-.4v-.3h0Z"/>
    <path class="st2" d="M92,109.4c0,.5.4.8.9.8s.6-.3.9-1c0,0,.2-.2.3,0,0,0,.2.2,0,.3-.2.6-.6,1.3-1.2,1.3s-1.3-.5-1.3-1.3v-2.5c0-.8,0-.2.2-.2s.2,0,.2.2v2.5h0Z"/>
    <path class="st2" d="M99,108.6c0-.7-.5-1.1-1.2-1.1s-1.4.6-1.4,1.2.2.8.4.8c.3,0,.6-.7.7-1.4,0,0,0-.2.2-.2s.2,0,.2.2c0,.8-.5,1.8-1.1,1.8s-.7-.4-.7-1.2.8-1.6,1.7-1.6,1.6.5,1.6,1.5-.3,1.2-1,1.8h-.3v-.3c.6-.6.9-1.1.9-1.5Z"/>
    <path class="st2" d="M104.3,108.6h-3s-.2,0-.2-.2,0-.2.2-.2h3s.2,0,.2.2,0,.2-.2.2Z"/>
    <path class="st2" d="M106.1,108.2h1.8s.2,0,.2.2,0,.2-.2.2h-1.8s-.2,0-.2-.2,0-.2.2-.2ZM107.3,106.5v.3h.6s.2,0,.2.2,0,.2-.2.2h-1.5s-.2,0-.2-.2,0-.2.2-.2h.5v-.3s0-.2.2-.2.2,0,.2.2ZM106.3,107.9v-.3s0-.2.2-.2.2,0,.2.2v.3s0,.2-.2.2-.2,0-.2-.2ZM106.5,110.7s-.3,0-.3-.3v-1.2s0-.3.2-.3h1s.3,0,.3.3v1.2s0,.3-.3.3h-1,.1ZM107.4,109.4h-.7v.9h.7v-.9ZM107.4,107.9v-.3s0-.2.2-.2.2,0,.2.2v.3s0,.2-.2.2-.2,0-.2-.2ZM109.9,109v.3l-.5.2h-.3v-.3h.3l-.4-1v-.5l.3-.8h-.6v3.7s0,.2-.2.2-.2,0-.2-.2v-3.9s0-.2.3-.2h1c.2,0,.3.2.3.3l-.4,1.1.5,1.1h-.1Z"/>
    <path class="st2" d="M112.1,110c0,.3-.3.6-.6.6s-.6-.2-.6-.6.3-.6.6-.6.6.3.6.6ZM111.8,110c0-.2,0-.3-.3-.3s-.3,0-.3.3,0,.3.3.3.3,0,.3-.3Z"/>
    <path class="st2" d="M47.4,124.2l1.4,1.1v.3h-.3c-.4-.3-1.4-1-1.5-1.1h0s-1.1.8-1.5,1.1h-.3v-.3l1.4-1h.8,0ZM46.8,128v-.9h-.7s-.2,0-.2-.2,0-.2.2-.2h.7v-.7h-.8s-.2,0-.2-.2,0-.2.2-.2h2s.2,0,.2.2,0,.2-.2.2h-.8v.7h.7s.2,0,.2.2,0,.2-.2.2h-.7v.9h1.2s.2,0,.2.2,0,.2-.2.2h-2.8s-.2,0-.2-.2,0-.2.2-.2c0,0,1.2,0,1.2,0Z"/>
    <path class="st2" d="M50.3,126h1.8s.2,0,.2.2,0,.2-.2.2h-1.8s-.2,0-.2-.2,0-.2.2-.2ZM51.5,124.2v.3h.6s.2,0,.2.2,0,.2-.2.2h-1.5s-.2,0-.2-.2,0-.2.2-.2h.5v-.3s0-.2.2-.2.2,0,.2.2ZM50.5,125.6v-.3s0-.2.2-.2.2,0,.2.2v.3s0,.2-.2.2-.2,0-.2-.2ZM50.8,128.4s-.3-.1-.3-.3v-1.2s0-.3.2-.3h1s.3,0,.3.3v1.2c0,.1,0,.3-.3.3h-1,0ZM51.6,127.1h-.7v.9h.7v-.9ZM51.6,125.6v-.3s0-.2.2-.2.2,0,.2.2v.3s0,.2-.2.2-.2,0-.2-.2ZM54.2,126.8v.3l-.5.2h-.3v-.3h.3l-.4-1v-.5l.3-.8h-.6v3.7c0,.1,0,.2-.2.2s-.2,0-.2-.2v-3.9s0-.2.3-.2h1c.2,0,.3.2.3.3l-.4,1.1.5,1.1h0Z"/>
    <path class="st2" d="M56.2,125.9h-.6s-.2,0-.2-.2,0-.2.2-.2h.6v-.9s0-.2.2-.2.2,0,.2.2v.9h1.1v-.9s0-.2.2-.2.2,0,.2.2v.9h.6s.2,0,.2.2,0,.2-.2.2h-.6v.7s0,.2-.2.2-.2,0-.2-.2v-.7h-1.1v1.8c.4,0,1,.2,1.5,0h.2v.3c-.6.1-1.3.1-1.8,0,0,0-.2-.2-.2-.3v-1.9h-.1ZM58.4,124.7s0-.2.2-.2.2,0,.2.2v.2s0,.2-.2.2-.2,0-.2-.2v-.2ZM59,124.7s0-.2.2-.2.2,0,.2.2v.2s0,.2-.2.2-.2,0-.2-.2v-.2Z"/>
    <path class="st2" d="M60.8,127.9l1.8-2.3h-1.4s-.2,0-.2-.2,0-.2.2-.2h1.8s.2,0,.2.2,0,.2-.2.2l-1,1.3h.3c.2,0,.3,0,.3.2v.9h1s.2,0,.2.2,0,.2-.2.2h-1.2s-.3-.1-.3-.3v-.8h-.4l-.6.8s-.2.1-.3,0v-.3h0ZM62.4,124.8s0,.2-.2.2-.2,0-.2-.2v-.4s0-.2.2-.2.2,0,.2.2v.4Z"/>
    <path class="st2" d="M68.8,127.5h.3v.3c-.3.3-.6.4-.9.5-.5,0-.8-1.2-1.1-1.2s-.4.2-.6.4l-.3.6c0,.1-.2.2-.3.1,0,0-.2-.2,0-.3l1.5-3.4s.2-.2.3,0c0,0,.2.2,0,.3l-.9,2.2s.2-.2.3-.2c.5,0,.9,1.2,1.1,1.2s.5-.2.6-.4h0Z"/>
    <path class="st2" d="M70.9,127.9h-.3v-.3l.5-.5h.3v.3l-.5.5ZM73,125.2l-.4.5h-.3v-.3l.4-.4-.9-.2s-.2,0-.2-.2,0-.2.2-.2l1.2.2s.2,0,.2.3,0,.2-.2.3ZM72.6,127.6c0-.3-.2-.7-.5-1.1v-.3h.3c.3.5.5.9.5,1.3s-.3.8-.6.8h-.5s-.2-.2,0-.3h.6c.2,0,.3,0,.3-.3h-.1ZM73.3,125.7s0-.2.2-.2.2,0,.2.2v.2s0,.2-.2.2-.2,0-.2-.2v-.2ZM73.9,127l.4.5v.3h-.3l-.4-.5v-.3h.3ZM73.9,125.7s0-.2.2-.2.2,0,.2.2v.2s0,.2-.2.2-.2,0-.2-.2v-.2Z"/>
    <path class="st2" d="M75.8,127.5l.5.5v.3h-.3l-.5-.5v-.3h.3Z"/>
    <path class="st2" d="M46,136.8s-.3,0-.3-.1c-.2-.7-.2-1.8,0-2.7,0-.1,0-.2.2-.2s.2.1.2.2v2.3h.2c0-.2.2-.1.3,0v.3l-.4.2h-.2ZM48.4,135.8c0-.5-.3-.9-.5-1.2v-.3h.3c.2.4.4.8.5,1.3v.3s-.2,0-.2-.1h0Z"/>
    <path class="st2" d="M52.4,134.3h-.9l-.6,2.7c0,.1,0,.2-.2.2s-.2-.1-.2-.2l.5-2.6h-.4s-.2,0-.2-.2,0-.2.2-.2h.5v-.5c0-.1.2-.2.3-.2s.2.1.2.2v.5h.7s.2,0,.2.2,0,.2-.2.2h.1ZM53.6,136.7s.2,0,.2.2,0,.2-.2.2h-.6c-.5,0-.8-.3-.8-.7v-.2s0-.2.2-.2.2.1,0,.2h0c0,.3.2.3.4.4h.8ZM53.1,135.2h0c0-.1-.6-.1-.6-.1,0,0-.2,0-.2-.2s0-.2.2-.2h.9s.2,0,.2.2v.6c-.2,0-.3.1-.4,0v-.3h-.1Z"/>
    <path class="st2" d="M57.4,134.3h-.9l-.6,2.7c0,.1,0,.2-.2.2s-.2-.1-.2-.2l.5-2.6h-.4s-.2,0-.2-.2,0-.2.2-.2h.5v-.5c0-.1.2-.2.3-.2s.2.1.2.2v.5h.7s.2,0,.2.2,0,.2-.2.2h.1ZM58.6,136.7s.2,0,.2.2,0,.2-.2.2h-.6c-.5,0-.8-.3-.8-.7v-.2s0-.2.2-.2.2.1,0,.2h0c0,.3.2.3.4.4h.8ZM58.2,135.2h0c0-.1-.6-.1-.6-.1,0,0-.2,0-.2-.2s0-.2.2-.2h.9s.2,0,.2.2v.6c-.2,0-.3.1-.4,0v-.3h-.1ZM58.1,133.7s0-.2.2-.2.2,0,.2.2v.2s0,.2-.2.2-.2,0-.2-.2v-.2ZM58.7,133.7s0-.2.2-.2.2,0,.2.2v.2s0,.2-.2.2-.2,0-.2-.2v-.2Z"/>
    <path class="st2" d="M60.9,136.1c0-.1,0-.2.2-.2s.2.1.2.2c0,.4.2.8.8.8s.2,0,.2.2,0,.2-.2.2c-.9,0-1.2-.6-1.2-1.3h0ZM62.3,134.1h-1.1s-.2,0-.2-.2,0-.2.2-.2h1v-.5c-.2-.1,0-.2,0-.2,0,0,.2,0,.2.1v.6h.8s.2,0,.2.2,0,.2-.2.2h-.5l.2.7h.4s.2,0,.2.2,0,.2-.2.2h-.3l.2.7c0,.1,0,.2-.2.2h-.4s-.2,0-.2-.2,0-.2.2-.2h.2v-.5h-1.5s-.2,0-.2-.2,0-.2.2-.2h1.2l-.2-.7h0Z"/>
    <path class="st2" d="M67.6,133.3v.5h.5s.2,0,.2.2,0,.2-.2.2h-.5v.5h.5s.2,0,.2.2,0,.2-.2.2h-.5v.7h.6s.2.1.2.2,0,.2-.2.2h-.6v.4c0,.4-.2.7-.6.7s-.8-.4-.8-.9.2-.6.7-.6h.3v-.7h-.9s-.2,0-.2-.2,0-.2.2-.2h.9v-.5h-.9s-.2,0-.2-.2,0-.2.2-.2h.9v-.5c0-.1,0-.2.2-.2s.2,0,.2.2h0ZM67.2,136.1h-.3c-.2,0-.3,0-.3.2,0,.3.2.5.4.5s.2-.1.2-.3c0,0,0-.4,0-.4Z"/>
    <path class="st2" d="M72.5,134.2h-1.7s-.2,0-.2-.2,0-.2.2-.2h1.7v-.6c0-.1,0-.2.2-.2s.2,0,.2.2v.6h.9s.2,0,.2.2,0,.2-.2.2h-.9v1.4c0,.5-.2,1.1-.5,1.7,0,.1-.2.1-.3,0v-.3c.2-.3.3-.6.4-.9h-.2c-.4,0-.8-.3-.8-.9s.2-.6.6-.7h.3v-.5.2h.1ZM72.5,135.2s-.2-.1-.3-.1c-.2,0-.3.2-.3.4s.2.4.3.4c.2,0,.3-.2.2-.7h.1Z"/>
    <path class="st2" d="M76.6,136.7c0,.3-.3.6-.6.6s-.6-.2-.6-.6.3-.6.6-.6.6.3.6.6ZM76.3,136.7c0-.2,0-.3-.3-.3s-.3.1-.3.3,0,.3.3.3.3-.1.3-.3Z"/>
  </g>
  <polyline class="st1" points="276.1 41.9 271.5 41.9 271.5 121.8 276.1 121.8"/>
  <image class="st0" width="573" height="458" transform="translate(449.2 42.5) scale(.1)" xlink:href="いかが-3.png"/>
</svg>